<?xml version="1.0" encoding="UTF-8" standalone="no"?>
<svg
   xmlns:dc="http://purl.org/dc/elements/1.1/"
   xmlns:cc="http://creativecommons.org/ns#"
   xmlns:rdf="http://www.w3.org/1999/02/22-rdf-syntax-ns#"
   xmlns:svg="http://www.w3.org/2000/svg"
   xmlns="http://www.w3.org/2000/svg"
   viewBox="0 0 1000 666.66669"
   height="666.66669"
   width="1000"
   xml:space="preserve"
   id="svg2"
   version="1.1"><metadata
     id="metadata8"><rdf:RDF><cc:Work
         rdf:about=""><dc:format>image/svg+xml</dc:format><dc:type
           rdf:resource="http://purl.org/dc/dcmitype/StillImage" /></cc:Work></rdf:RDF></metadata><defs
     id="defs6" /><g
     transform="matrix(1.3333333,0,0,-1.3333333,0,666.66667)"
     id="g10"><g
       transform="scale(0.1)"
       id="g12"><path
         id="path14"
         style="fill:#ffffff;fill-opacity:1;fill-rule:nonzero;stroke:none"
         d="M 0,5000 H 7500 V 0 H 0 v 5000" /><path
         id="path16"
         style="fill:#e7f7fd;fill-opacity:1;fill-rule:nonzero;stroke:none"
         d="M 5255.6,4374.7 C 3954.8,4002.1 3596,4321 3165.1,4527 2464.7,4861.8 1572,4692.2 987.898,4177.2 403.801,3662.2 144.703,2798.9 346.898,2041.9 549.102,1284.9 1202.8,671.602 1963.6,524.801 2882.2,347.602 3829.4,203.699 4748.1,380.801 5666.7,557.898 6551.2,1093.8 6924.1,1985.8 7490,3339.6 6615.8,4764.3 5255.6,4374.7" /><path
         id="path18"
         style="fill:#7bd1f0;fill-opacity:1;fill-rule:nonzero;stroke:none"
         d="m 2820.9,2380.9 c 77.9,22.5 131.6,97.4 121.5,160.2 -5.6,35 -25.7,61 -53.9,76.1 -36.9,19.4 -63.6,12.2 -114,4.5 -28.9,-6.1 -58.9,-17 -81.8,-35.5 -36.9,-30.4 -52.4,-70 -46.9,-117.1 5.1,-32.1 26.1,-64 56.6,-80.2 28.5,-16.6 70.5,-18.3 105.2,-10.9 z m -33.1,281.4 c -36.6,-7.8 -79.6,-12.3 -107.3,24.1 -15,19.5 -25.9,50.4 -31.3,84 -4.5,27.8 -5.1,56.3 -1.1,81.3 5.5,52.5 28.9,80.1 65.3,113.5 36.2,34.9 83.2,76.5 112.1,132.5 25.9,49.3 34.4,108.5 26.4,158.1 l -5.2,20 c -14.4,52.8 -53.6,86.8 -102.6,94.5 -16.3,2.6 -34.1,1.9 -51.4,-1.8 -34.6,-7.3 -67.4,-26.4 -90.8,-54 -28.3,-34.7 -40,-85.5 -34,-123.5 l 4.5,-15.7 c 9.9,-37.2 42.3,-53 68.9,-70 16,-13.2 31.8,-25 34.6,-42.5 1.4,-8.7 0.9,-17.9 -5.2,-29.8 -18.7,-32.7 -68.6,-81 -124.4,-92.8 l -5.8,-1.2 c -58.2,-9.3 -118.6,20.2 -156,92.3 -14,25.7 -25.1,58.1 -30.5,91.7 -9.6,59.9 -2.6,127.8 28,185.7 48.9,91.9 160.9,162.5 275.2,194.2 l 25,5.3 c 105.8,22.4 210.7,13 283.1,-17 76.7,-32.1 115.4,-87.3 134.1,-154.3 l 11.8,-48.9 c 8.7,-54.1 6.2,-113.5 -8.9,-168 -18.6,-70.4 -56.3,-132.8 -102.7,-178.8 -46.3,-46 -101.2,-75.8 -122.8,-115.1 -19.6,-38.9 -7.8,-87.7 -14.9,-117.9 -7.3,-28.7 -37.6,-38.1 -74.1,-45.9" /><path
         id="path20"
         style="fill:#7bd1f0;fill-opacity:1;fill-rule:nonzero;stroke:none"
         d="m 4998.6,2952.3 c 63.2,17.6 106.3,80.2 97.7,133.8 -4.8,29.9 -21.3,52.3 -44.4,65.8 -30.1,17.2 -51.8,11.6 -92.8,6.1 -23.4,-4.7 -47.8,-13.3 -66.3,-28.6 -29.8,-25.1 -42.2,-58.5 -37.3,-98.6 4.4,-27.4 21.7,-54.9 46.6,-69.2 23.3,-14.7 57.5,-16.9 85.6,-11.3 z m -28.8,239.8 c -29.7,-5.9 -64.6,-8.9 -87.4,22.5 -12.4,16.8 -21.4,43.3 -26,72 -3.8,23.7 -4.5,48 -1.5,69.2 4.1,44.5 23,67.5 52.3,95.2 29.2,28.9 67.1,63.4 90.2,110.4 20.7,41.4 27.2,91.5 20.4,133.9 l -4.4,17.1 c -12.1,45.2 -44.2,74.8 -84.1,82.3 -13.3,2.5 -27.7,2.2 -41.8,-0.5 -28.1,-5.6 -54.6,-21.1 -73.5,-44.1 -22.7,-28.9 -32,-71.9 -26.8,-104.3 l 3.8,-13.4 c 8.3,-31.8 34.7,-45.9 56.5,-60.8 13.1,-11.5 26,-21.8 28.5,-36.8 1.2,-7.5 0.9,-15.3 -4,-25.2 -15,-27.4 -55.2,-67.5 -100.5,-76.5 l -4.7,-0.9 c -47.2,-6.8 -96.59,19.5 -127.5,81.5 -11.59,22.1 -20.9,49.8 -25.5,78.5 -8.19,51.1 -3,108.7 21.41,157.2 39.09,77.1 129.69,134.9 222.39,159.7 l 20.3,4 c 85.9,17 171.2,6.9 230.3,-20 62.6,-28.7 94.4,-76.4 110.1,-133.7 l 10,-41.7 c 7.4,-46.1 5.8,-96.5 -6.1,-142.6 -14.6,-59.5 -44.9,-111.7 -82.2,-150 -37.4,-38.2 -81.8,-62.5 -98.99,-95.5 -15.71,-32.6 -5.8,-74.4 -11.31,-99.9 -5.7,-24.3 -30.3,-31.8 -59.9,-37.6" /><path
         id="path22"
         style="fill:#7bd1f0;fill-opacity:1;fill-rule:nonzero;stroke:none"
         d="m 6110.8,3799.2 c 52.9,-11.4 108.4,17.4 122.6,59.4 7.9,23.4 4.5,45.9 -7.3,64.5 -15.49,23.9 -33.4,28.1 -65.49,39.8 -18.91,5.6 -40.11,8.6 -59.41,4.7 -31.4,-6.8 -53.2,-26.2 -65,-57 -7.3,-21.5 -5.1,-47.9 7.5,-67.8 11.4,-19.5 35.6,-34.1 58.2,-40.8 z m 70.6,184.3 c -23.9,7.1 -50.7,18.2 -55.3,49.6 -2.6,16.9 0.9,39.5 8.5,61.9 6.3,18.6 15.1,36.4 25.4,50.5 20,30.6 42.6,40 74.7,48.8 32.4,9.8 73.3,20.2 108.2,45.4 31,22 54.9,55.8 66.1,89 l 3.4,14 c 8.5,37.2 -3.7,70.9 -30,91.6 -8.7,6.9 -19.4,12.2 -30.8,15.6 -22.7,6.7 -48,5.6 -70.6,-3.9 -27.7,-12.2 -50.9,-39.8 -59.4,-65.1 l -2.4,-11.1 c -6.1,-26.1 7.8,-46.4 18,-65.5 5.2,-13.3 10.7,-25.7 6.7,-37.4 -2.01,-5.8 -5.2,-11.3 -12.6,-16.7 -21.4,-14.1 -66.2,-27.7 -102.71,-16.9 l -3.8,1.1 c -37.09,13.1 -63.09,50.9 -61.99,107.5 0,20.4 3.8,44 11.4,66.4 13.5,40 39.39,79.7 75.8,105.4 58.1,40.8 146.4,48 223.7,30.5 l 16.4,-4.8 c 69.29,-20.5 127.8,-60.3 160.7,-102.3 34.8,-44.7 39.8,-91.3 29.3,-138.6 l -8.7,-34 c -12.2,-36.1 -32.7,-72 -59,-100.7 -33.41,-37.4 -75.6,-63.6 -117.5,-77 -41.9,-13.4 -83.7,-13.9 -108.9,-31.2 -24,-17.6 -32.7,-51.6 -46.5,-67.9 -13.3,-15.3 -34.2,-11.3 -58.1,-4.2" /><path
         id="path24"
         style="fill:#7bd1f0;fill-opacity:1;fill-rule:nonzero;stroke:none"
         d="m 1675.1,3973.3 c 40.2,14 65.7,56 58.1,90 -4.2,19 -15.8,32.7 -31.3,40.3 -20.2,9.8 -34,5.2 -60.3,-0.1 -15,-4 -30.4,-10.6 -41.8,-21.2 -18.3,-17.4 -25,-39.3 -20.4,-64.9 3.9,-17.4 16.2,-34.3 32.8,-42.5 15.6,-8.4 37.9,-8.4 55.8,-3.6 z m -27.9,152.8 c -19,-5 -41.5,-8.5 -57.4,10.7 -8.6,10.3 -15.5,26.9 -19.6,45.1 -3.4,15 -4.8,30.6 -3.6,44.3 1,28.8 12.3,44.3 30.2,63.4 17.8,19.8 41,43.6 54.1,74.7 11.8,27.5 14.1,59.9 8.1,86.8 l -3.5,10.8 c -9.5,28.5 -31.5,46.2 -57.6,49.3 -8.7,1.1 -18,0.3 -27,-2.1 -18,-4.8 -34.5,-15.9 -45.9,-31.5 -13.6,-19.5 -17.9,-47.5 -13.3,-68.1 l 3,-8.4 c 6.6,-20 24.2,-28 38.9,-36.6 8.9,-6.9 17.7,-12.9 19.8,-22.4 1.1,-4.7 1.1,-9.8 -1.6,-16.3 -8.6,-18.2 -33.1,-45.7 -62.1,-53.4 l -3,-0.8 c -30.3,-6.4 -63.2,8.4 -85.6,46.9 -8.4,13.7 -15.4,31.1 -19.5,49.3 -7.3,32.4 -6.1,69.6 7.8,101.9 22.4,51.2 78.8,92.2 137.8,112 l 13,3.4 c 54.9,14.6 110.6,11.7 149.8,-3 41.6,-15.8 64.1,-45.1 76.4,-81.2 l 8,-26.4 c 6.6,-29.3 7.5,-61.7 1.5,-91.8 -7.2,-38.8 -24.8,-73.7 -47.5,-99.8 -22.7,-26.1 -50.5,-43.6 -60.4,-65.5 -8.9,-21.6 -0.9,-48 -3.5,-64.6 -2.7,-15.9 -18.3,-21.7 -37.3,-26.7" /><path
         id="path26"
         style="fill:#7bd1f0;fill-opacity:1;fill-rule:nonzero;stroke:none"
         d="m 3680.9,3802.2 c 35.3,11.9 59.3,45.1 54.5,71.2 -2.7,14.6 -11.9,24.8 -24.9,30.3 -16.9,7 -28.9,3.1 -51.8,-1.7 -13.1,-3.5 -26.7,-9 -37,-17.5 -16.6,-14 -23.5,-31.1 -20.8,-50.7 2.5,-13.4 12.2,-26.1 26.1,-31.9 13,-6.1 32.1,-5.4 47.8,-1.3 z m -16.3,117.3 c -16.6,-4.4 -36.1,-7.7 -48.8,6.7 -6.9,7.7 -12,20.4 -14.6,34.3 -2.2,11.5 -2.6,23.5 -0.9,34.2 2.3,22.2 12.8,34.6 29.2,49.8 16.3,15.8 37.5,34.8 50.3,59.2 11.6,21.6 15.1,46.7 11.3,67.3 l -2.5,8.3 c -6.8,21.8 -24.8,34.8 -47,36.5 -7.4,0.6 -15.5,-0.3 -23.3,-2.4 -15.7,-4.2 -30.5,-13.2 -41,-25.6 -12.7,-15.5 -17.8,-37.2 -14.9,-53 l 2.1,-6.4 c 4.7,-15.3 19.4,-20.9 31.6,-27.2 7.3,-5.1 14.6,-9.5 15.9,-16.8 0.7,-3.6 0.5,-7.5 -2.2,-12.7 -8.3,-14.3 -30.8,-36.2 -56.1,-43 l -2.6,-0.7 c -26.4,-5.8 -54,4.7 -71.3,33.9 -6.5,10.4 -11.7,23.6 -14.3,37.6 -4.6,24.9 -1.8,53.7 11.9,79 21.8,40.2 72.4,73.4 124.1,90.3 l 11.3,3 c 48,12.8 95.7,12.1 128.7,1.8 35,-11.1 52.8,-33.1 61.6,-60.7 l 5.6,-20.2 c 4.2,-22.5 3.3,-47.5 -3.3,-70.9 -8.1,-30.2 -25,-57.6 -45.8,-78.4 -20.8,-20.8 -45.6,-35.1 -55.3,-52.3 -8.7,-17 -3.2,-37.1 -6.2,-50.1 -3.2,-12.2 -17,-17.1 -33.5,-21.5" /><path
         id="path28"
         style="fill:#7bd1f0;fill-opacity:1;fill-rule:nonzero;stroke:none"
         d="m 709.504,2714.9 c 32.699,17.9 50.594,54.8 41.195,79.6 -5.203,13.9 -16.097,22.4 -29.801,25.5 -17.796,3.9 -29,-2 -50.699,-10.7 -12.301,-5.7 -24.703,-13.5 -33.398,-23.7 -13.903,-16.6 -17.699,-34.7 -11.602,-53.6 4.801,-12.7 16.5,-23.5 31.203,-26.9 13.895,-3.7 32.598,0.2 47.297,7.1 z m -36.508,112.6 c -15.594,-7.2 -34.195,-13.9 -49.297,-1.9 -8.203,6.4 -15.398,18 -20.398,31.3 -4.102,11 -6.602,22.7 -6.801,33.5 -1.598,22.3 6.602,36.3 20,54.1 13.301,18.4 30.801,40.8 39.199,67.1 7.602,23.2 6.703,48.6 -0.601,68.3 l -3.899,7.7 c -10.5,20.2 -30.5,30 -52.699,27.8 -7.402,-0.7 -15.199,-3 -22.602,-6.4 -14.699,-6.9 -27.699,-18.3 -35.898,-32.3 -9.801,-17.5 -11,-39.8 -5.398,-54.8 l 3.195,-6 c 7.301,-14.3 22.805,-17.2 35.902,-21.3 8.102,-3.7 16.004,-6.8 18.602,-13.8 1.297,-3.5 1.801,-7.3 0,-12.9 -5.699,-15.6 -24,-41 -47.699,-52.1 l -2.5,-1.1 c -25,-10.3 -54,-4.7 -76.102,20.9 -8.203,9.1 -15.602,21.2 -20.602,34.5 -8.898,23.7 -11.097,52.5 -2.097,79.8 14.496,43.4 58.5,84.9 106.5,110.6 l 10.597,4.9 c 45,20.9 92.102,28.6 126.403,24.2 36.398,-4.8 57.801,-23.3 71.195,-49 l 9.008,-18.9 c 7.996,-21.4 11.594,-46.2 9.094,-70.4 -2.7,-31.1 -14.598,-61.1 -31.395,-85.2 -16.906,-24.1 -38.805,-42.5 -45.305,-61.1 -5.699,-18.2 3.399,-37.1 2.606,-50.4 -0.805,-12.6 -13.504,-19.9 -29.008,-27.1" /><path
         id="path30"
         style="fill:#7bd1f0;fill-opacity:1;fill-rule:nonzero;stroke:none"
         d="m 6726.6,2367.8 c 36.8,-5.7 73.5,12.6 81.2,37.9 4.3,14.2 0.9,27.5 -8,38.4 -11.7,14 -24.2,16.1 -46.8,22.4 -13.2,3 -27.9,4.3 -40.9,1.6 -21.2,-4.7 -35.21,-16.7 -41.9,-35.4 -4,-13 -1.3,-28.7 8.4,-40.4 8.7,-11.4 26,-19.7 41.8,-23.2 z m 39.7,111.6 c -16.7,3.7 -35.6,9.8 -40.2,28.5 -2.6,10 -1.2,23.6 2.9,37.2 3.4,11.2 8.6,22 15,30.7 12.3,18.7 27.3,24.8 48.9,30.7 21.8,6.5 49.3,13.6 72,29.3 20.2,13.8 35,34.4 41.1,54.5 l 1.6,8.5 c 4,22.4 -5.9,42.3 -24.8,54.1 -6.3,3.9 -13.9,6.9 -21.8,8.7 -15.9,3.6 -33.2,2.4 -48.2,-3.7 -18.41,-7.9 -33,-24.8 -37.7,-40.1 l -1.1,-6.7 c -2.9,-15.7 7.6,-27.6 15.39,-38.8 4.21,-7.9 8.51,-15.2 6.41,-22.2 -1.1,-3.5 -3,-6.9 -7.8,-10.2 -14,-8.8 -44.1,-17.9 -69.6,-12.2 l -2.6,0.6 c -26.1,7.1 -45.7,29.1 -47.5,63 -1.01,12.2 0.6,26.4 4.7,39.9 7.4,24.2 23.2,48.4 47,64.5 37.9,25.5 98.1,31.6 151.8,22.7 l 11.4,-2.6 c 48.4,-10.8 90.39,-33.5 114.9,-57.9 25.9,-26 31.6,-53.7 26.6,-82.3 l -4.4,-20.5 c -6.71,-21.8 -19,-43.7 -35.7,-61.4 -21.1,-23 -48.8,-39.5 -76.9,-48.4 -28.1,-8.8 -56.7,-10 -73.2,-20.8 -15.6,-11 -20,-31.5 -28.7,-41.5 -8.3,-9.4 -22.8,-7.4 -39.5,-3.6" /><path
         id="path32"
         style="fill:none;stroke:#6699d7;stroke-width:10;stroke-linecap:butt;stroke-linejoin:miter;stroke-miterlimit:10;stroke-dasharray:none;stroke-opacity:1"
         d="M 3026.4,-393.598 C 3097.4,113.801 2909.3,650.398 2538.6,998" /><path
         id="path34"
         style="fill:#6699d7;fill-opacity:1;fill-rule:nonzero;stroke:none"
         d="M 2590.2,947.102 C 2543.3,1113.1 2402.8,1248 2236.5,1286.7 2281.2,1124 2416.6,990.602 2590.2,947.102" /><path
         id="path36"
         style="fill:#6699d7;fill-opacity:1;fill-rule:nonzero;stroke:none"
         d="m 2706.9,822 c -52.3,68.602 -73,158 -71.6,244.8 1.5,86.8 23.5,171.9 49.5,254.7 60.1,-158.1 72.7,-334.301 22.1,-499.5" /><path
         id="path38"
         style="fill:#6699d7;fill-opacity:1;fill-rule:nonzero;stroke:none"
         d="m 2846.6,599.898 c -52.4,168 -7.6,363.5 112.6,491.602 C 2979,926 2942.4,754.102 2846.6,599.898" /><path
         id="path40"
         style="fill:#6699d7;fill-opacity:1;fill-rule:nonzero;stroke:none"
         d="m 2945.6,374.398 c 6.6,195.204 114.9,384.204 279.3,487.102 -8,-209.699 -120.2,-413 -279.3,-487.102" /><path
         id="path42"
         style="fill:#6699d7;fill-opacity:1;fill-rule:nonzero;stroke:none"
         d="M 3021.8,103.902 C 3061,305.398 3218.9,478.699 3414.3,534.398 3348.2,346.699 3208.2,186.5 3021.8,103.902" /><path
         id="path44"
         style="fill:#6699d7;fill-opacity:1;fill-rule:nonzero;stroke:none"
         d="M 3040,-188 C 3128.1,-18.8008 3317.7,90.8984 3506.2,81.8008 3390,-62.6016 3228.7,-169.398 3040,-188" /><path
         id="path46"
         style="fill:#6699d7;fill-opacity:1;fill-rule:nonzero;stroke:none"
         d="M 2642.9,886.898 C 2574.1,921.602 2494.8,931.5 2418,925 c -76.7,-6.5 -151.4,-28.598 -224,-55 135.3,-83.898 319.7,-77.699 448.9,16.898" /><path
         id="path48"
         style="fill:#6699d7;fill-opacity:1;fill-rule:nonzero;stroke:none"
         d="M 2794.1,680.801 C 2720.3,736.699 2622.8,749.5 2533,731 c -89.8,-18.5 -173,-65.699 -248.9,-121.5 159.3,-50.199 337.3,-32.801 510,71.301" /><path
         id="path50"
         style="fill:#6699d7;fill-opacity:1;fill-rule:nonzero;stroke:none"
         d="m 2909.8,465.102 c -189.9,33.199 -390.5,6.3 -555.3,-74.602 91.1,-41.398 196.4,-57.199 296,-44.5 99.6,12.801 192.8,54.102 259.3,119.102" /><path
         id="path52"
         style="fill:#6699d7;fill-opacity:1;fill-rule:nonzero;stroke:none"
         d="m 2991.6,199.5 c -190.2,66.801 -410.9,53 -584.5,-36.5 174.4,-85.6016 398.5,-76.6992 584.5,36.5" /><path
         id="path54"
         style="fill:#6699d7;fill-opacity:1;fill-rule:nonzero;stroke:none"
         d="m 3031.6,-40 c -170.2,88.5 -384.9,27.1992 -530.2,-151.398 165.4,-63.903 360.2,-5.903 530.2,151.398" /><path
         id="path56"
         style="fill:none;stroke:#6699d7;stroke-width:10;stroke-linecap:butt;stroke-linejoin:miter;stroke-miterlimit:10;stroke-dasharray:none;stroke-opacity:1"
         d="M 1447.7,-188.699 C 1352.3,249.699 1032.4,633 618.102,805.398" /><path
         id="path58"
         style="fill:#6699d7;fill-opacity:1;fill-rule:nonzero;stroke:none"
         d="m 676.602,779.301 c -89.5,122 -247.602,189.898 -397.7,170.898 86.7,-119.898 240,-188.097 397.7,-170.898" /><path
         id="path60"
         style="fill:#6699d7;fill-opacity:1;fill-rule:nonzero;stroke:none"
         d="m 811.699,712.199 c -64.398,40.403 -108.801,107.5 -134.101,179.203 -25.196,71.7 -32.797,148.398 -36.297,224.298 98.097,-111.4 162.297,-252.302 170.398,-403.501" /><path
         id="path62"
         style="fill:#6699d7;fill-opacity:1;fill-rule:nonzero;stroke:none"
         d="M 995.602,572.5 C 900.898,694.5 878.598,868.801 939.703,1010.7 1006.5,880.801 1028.4,728.398 995.602,572.5" /><path
         id="path64"
         style="fill:#6699d7;fill-opacity:1;fill-rule:nonzero;stroke:none"
         d="m 1146.6,417.5 c -54,162.301 -21.3,350.699 84,485.398 57.3,-174.597 25.8,-376 -84,-485.398" /><path
         id="path66"
         style="fill:#6699d7;fill-opacity:1;fill-rule:nonzero;stroke:none"
         d="m 1292.3,218.602 c -28.8,177.398 49.9,368 195.5,473.5 2.2,-174.403 -65.5,-348.704 -195.5,-473.5" /><path
         id="path68"
         style="fill:#6699d7;fill-opacity:1;fill-rule:nonzero;stroke:none"
         d="M 1396.4,-15.6016 C 1418.2,150.301 1542.5,298.301 1702.1,348.398 1649.4,194.301 1547.7,57.3984 1396.4,-15.6016" /><path
         id="path70"
         style="fill:#6699d7;fill-opacity:1;fill-rule:nonzero;stroke:none"
         d="M 738.801,746 C 671,753.5 602.004,737.398 540.098,708.602 478.199,679.801 422.797,638.902 370.496,595 508.5,567.5 660.098,628.902 738.801,746" /><path
         id="path72"
         style="fill:#6699d7;fill-opacity:1;fill-rule:nonzero;stroke:none"
         d="M 927.203,622.898 C 848.801,646.199 763.801,627 694.703,584.398 625.602,541.801 570.801,477.602 524.602,408.602 672.5,416 815.297,484.699 927.203,622.898" /><path
         id="path74"
         style="fill:#6699d7;fill-opacity:1;fill-rule:nonzero;stroke:none"
         d="M 1089.2,481.102 C 921,450.398 762.402,367 649.902,250.199 c 88.399,-6.199 180.899,13 259.801,53.903 78.996,40.898 143.997,103.296 179.497,177" /><path
         id="path76"
         style="fill:#6699d7;fill-opacity:1;fill-rule:nonzero;stroke:none"
         d="M 1238.1,287.898 C 1059.5,284.699 880.098,205.898 762.898,79.3984 934.102,62.3008 1117.9,138.102 1238.1,287.898" /><path
         id="path78"
         style="fill:#6699d7;fill-opacity:1;fill-rule:nonzero;stroke:none"
         d="m 1344.3,103.398 c -168.5,20.704 -328.5,-95.19878 -394.999,-286.296 157.099,-2 301.499,105.1988 394.999,286.296" /><path
         id="path80"
         style="fill:none;stroke:#6699d7;stroke-width:10;stroke-linecap:butt;stroke-linejoin:miter;stroke-miterlimit:10;stroke-dasharray:none;stroke-opacity:1"
         d="m 6336.8,-144.699 c 52.9,445.597 334.6,857.801 730.4,1069.097" /><path
         id="path82"
         style="fill:#6699d7;fill-opacity:1;fill-rule:nonzero;stroke:none"
         d="M 7011.5,892.801 C 7088.9,1022.8 7239.7,1105.6 7391,1101 7316.2,973.398 7170.2,890.801 7011.5,892.801" /><path
         id="path84"
         style="fill:#6699d7;fill-opacity:1;fill-rule:nonzero;stroke:none"
         d="m 6883.4,813.102 c 60.2,46.398 98,117.398 116.3,191.198 18.3,73.8 18.41,150.9 14.6,226.8 -86.9,-120.3 -137.2,-266.799 -130.9,-417.998" /><path
         id="path86"
         style="fill:#6699d7;fill-opacity:1;fill-rule:nonzero;stroke:none"
         d="m 6713.8,656.402 c 82.6,130.496 88,306.098 13.7,441.498 -54.1,-135.701 -61.2,-289.502 -13.7,-441.498" /><path
         id="path88"
         style="fill:#6699d7;fill-opacity:1;fill-rule:nonzero;stroke:none"
         d="M 6578.4,487.602 C 6616.5,654.301 6566,838.699 6448.2,962.699 6408,783.398 6458.6,586 6578.4,487.602" /><path
         id="path90"
         style="fill:#6699d7;fill-opacity:1;fill-rule:nonzero;stroke:none"
         d="m 6452.4,275.699 c 11.6,179.403 -85,361.5 -240,452.602 14.6,-173.903 98.7,-340.903 240,-452.602" /><path
         id="path92"
         style="fill:#6699d7;fill-opacity:1;fill-rule:nonzero;stroke:none"
         d="m 6371.3,32.5 c -37.6,163 -175.5,298.5 -339.2,333 67.2,-148.301 181.5,-274.8984 339.2,-333" /><path
         id="path94"
         style="fill:#6699d7;fill-opacity:1;fill-rule:nonzero;stroke:none"
         d="m 6952.8,853.699 c 66.8,14 137,4.5 201.4,-18.199 64.4,-22.699 123.4,-58.199 179.7,-96.801 -134.7,-40.597 -291.5,6 -381.1,115" /><path
         id="path96"
         style="fill:#6699d7;fill-opacity:1;fill-rule:nonzero;stroke:none"
         d="m 6777,713.102 c 75.8,30.699 162.3,19.796 235.1,-16 72.9,-35.801 133.6,-94.403 186.2,-158.704 -147.9,-6.898 -296.6,47.801 -421.3,174.704" /><path
         id="path98"
         style="fill:#6699d7;fill-opacity:1;fill-rule:nonzero;stroke:none"
         d="m 6629.4,556.402 c 170.3,-14.504 336.3,-82.3 459.4,-187.703 -87.4,-14.597 -181.3,-4.398 -263.8,28.699 -82.5,33.102 -153.2,89.004 -195.6,159.004" /><path
         id="path100"
         style="fill:#6699d7;fill-opacity:1;fill-rule:nonzero;stroke:none"
         d="m 6499.7,349.801 c 178.1,13.898 364.3,-47.301 493,-162 -168.7,-33.403 -358.9,24.398 -493,162" /><path
         id="path102"
         style="fill:#6699d7;fill-opacity:1;fill-rule:nonzero;stroke:none"
         d="m 6411.7,155.898 c 165.8,36.801 336.1,-63.2964 420.7,-247.0972 -156.2,-16.9028 -310.2,75.8984 -420.7,247.0972" /><path
         id="path104"
         style="fill:none;stroke:#6699d7;stroke-width:10;stroke-linecap:butt;stroke-linejoin:miter;stroke-miterlimit:10;stroke-dasharray:none;stroke-opacity:1"
         d="M 5020.3,-523 C 4857.9,12.3008 4843.9,590.5 4980.4,1124.7" /><path
         id="path106"
         style="fill:#6699d7;fill-opacity:1;fill-rule:nonzero;stroke:none"
         d="m 4962.6,1054.9 c -46.1,143.3 -3.4,310.2 104.3,407.7 30,-148.1 -10.9,-307.6 -104.3,-407.7" /><path
         id="path108"
         style="fill:#6699d7;fill-opacity:1;fill-rule:nonzero;stroke:none"
         d="M 4930.4,883.398 C 4902.1,1033.3 4809.3,1170.8 4682,1251.5 c 9.6,-151.3 109.4,-295.199 248.4,-368.102" /><path
         id="path110"
         style="fill:#6699d7;fill-opacity:1;fill-rule:nonzero;stroke:none"
         d="m 4897.2,602.801 c -38.9,79.199 -78.5,159.597 -136.5,225.597 -58,66 -137.9,117 -223.2,119.204 41,-73.301 82.4,-147.403 138.4,-209.602 56,-62.102 128.6,-112.301 221.3,-135.199" /><path
         id="path112"
         style="fill:#6699d7;fill-opacity:1;fill-rule:nonzero;stroke:none"
         d="M 4882.1,330.102 C 4804.9,474.699 4659.8,580 4502.7,605.5 c 71.7,-151 224.4,-259.699 379.4,-275.398" /><path
         id="path114"
         style="fill:#6699d7;fill-opacity:1;fill-rule:nonzero;stroke:none"
         d="M 4906.9,31.6992 C 4801.6,163 4641.9,246.801 4478.8,256.5 4574.2,120.199 4740.8,39.6016 4906.9,31.6992" /><path
         id="path116"
         style="fill:#6699d7;fill-opacity:1;fill-rule:nonzero;stroke:none"
         d="m 4950.3,976.398 c 60.8,105.302 166.9,180.902 284.9,203.002 -40.3,-121 -157.8,-208.502 -284.9,-203.002" /><path
         id="path118"
         style="fill:#6699d7;fill-opacity:1;fill-rule:nonzero;stroke:none"
         d="m 4908.6,716 c 77.5,136.602 230.2,223.102 385.9,218.398 C 5216.6,794.898 5065.5,703 4908.6,716" /><path
         id="path120"
         style="fill:#6699d7;fill-opacity:1;fill-rule:nonzero;stroke:none"
         d="m 4884.6,441.602 c 89.1,133.597 247,214.597 406.5,208.597 C 5183.4,537.398 5042.3,459 4884.6,441.602" /><path
         id="path122"
         style="fill:#6699d7;fill-opacity:1;fill-rule:nonzero;stroke:none"
         d="m 4895.5,153.102 c 75.1,140.296 230.1,229.699 387.7,223.5 -90.3,-126.704 -236.7,-208.403 -387.7,-223.5" /><path
         id="path124"
         style="fill:#6699d7;fill-opacity:1;fill-rule:nonzero;stroke:none"
         d="m 4928.9,-126.5 c 72.5,156.3008 234.2,262.398 404.2,265.301 C 5277.6,83.5 5221.7,27.8984 5157.4,-16.3984 5093.1,-60.6016 5019.5,-93.5977 4928.9,-126.5" /><path
         id="path126"
         style="fill:#1d2046;fill-opacity:1;fill-rule:nonzero;stroke:none"
         d="m 1613.9,3260 c 0,0 -50.7,195.9 -211.7,172.4 -160.9,-23.5 -201.6,-138.5 -192.3,-272.3 9.3,-133.8 7.3,-292.2 -169,-391.1 -176.298,-98.9 4,-225.2 34.1,-302.4 30,-77.3 4.1,-180.7 -80.297,-242.9 -84.406,-62.2 -102.805,-286.5 187.697,-269.5 290.5,17 395,221.9 339,291.7 -56.1,69.7 -154.1,220.9 -55.9,251 98.2,30.2 282,350.7 228.2,520.2 -53.7,169.4 -79.8,242.9 -79.8,242.9" /><path
         id="path128"
         style="fill:#ecc8c2;fill-opacity:1;fill-rule:nonzero;stroke:none"
         d="m 1461,3299.5 c 56.22,0 101.8,-42.89 101.8,-95.8 0,-52.91 -45.58,-95.8 -101.8,-95.8 -56.22,0 -101.8,42.89 -101.8,95.8 0,52.91 45.58,95.8 101.8,95.8" /><path
         id="path130"
         style="fill:#415eb2;fill-opacity:1;fill-rule:nonzero;stroke:none"
         d="m 2446.6,-654.602 c -172.8,2.602 -273.6,0 -362,-2.597 -20.5,84.699 -40.3,167.898 -60.3,251.898 -51.7,217.903 -104.1,440.9026 -168.5,708 -0.3,1.5 -0.8,3.102 -1.1,4.59 0,-342.1874 15.3,-583.59 28.7,-984.187 -141.8,24.699 -239.4,34 -379.6,20 -154,741.0972 -260.4,1068.5 -221.5,1408.398 13.9,121.301 46.3,244.102 101.6,387.8 21.9,57.2 47.6,117.7 77.2,182.8 267.1,-49.2 531.7,-104.2 794.8,-143.3 0,-0.8 0.1,-1.7 0.1,-2.4 8.8,-136.5 1.9,-124.2 6,-283.298 8,-52.102 15.7,-102.403 22.9,-150.903 90.5,-607.898 121.8,-951.297 161.7,-1396.801" /><path
         id="path132"
         style="fill:#334ca3;fill-opacity:1;fill-rule:nonzero;stroke:none"
         d="m 2284.8,742 c -328.5,-76.898 -675.5,-73.699 -1002.6,9.402 13.9,121.297 46.3,244.098 101.6,387.798 290.6,15.5 581.3,27.9 872.1,37 8.8,-136.5 1.9,-124.2 6,-283.302 8,-52.097 15.6,-102.398 22.9,-150.898" /><path
         id="path134"
         style="fill:#334ca3;fill-opacity:1;fill-rule:nonzero;stroke:none"
         d="m 2024.3,-405.398 c -51.7,217.898 -104.1,440.898 -168.5,708 -0.1,2.097 -0.2,4.097 -0.2,6.199 -0.9,25 -1.8,50.199 1.4,80 52.9,26.898 105.7,53.801 155.4,82.097 -10.1,-291.898 -6.2,-584.597 11.9,-876.296" /><path
         id="path136"
         style="fill:none;stroke:#293478;stroke-width:10;stroke-linecap:round;stroke-linejoin:miter;stroke-miterlimit:10;stroke-dasharray:none;stroke-opacity:1"
         d="m 1906.1,844 c 22.1,-145 20.5,-293.699 -4.7,-438.199" /><path
         id="path138"
         style="fill:none;stroke:#293478;stroke-width:10;stroke-linecap:round;stroke-linejoin:miter;stroke-miterlimit:10;stroke-dasharray:none;stroke-opacity:1"
         d="m 1981.9,855.398 c 1,-94.699 28.6,-191.597 1.7,-282.5 -4.9,-16.699 -11.9,-33.296 -23.9,-45.898 -12,-12.602 -29.8,-20.699 -46.9,-17.602" /><path
         id="path140"
         style="fill:none;stroke:#293478;stroke-width:10;stroke-linecap:butt;stroke-linejoin:miter;stroke-miterlimit:10;stroke-dasharray:none;stroke-opacity:1"
         d="m 1421.8,1035.5 c -57,-167.301 -74.8,-346.102 -69.3,-522.699 5.5,-176.602 33.9,-351.699 67.2,-525.301 41.1,-213.898 90,-426.199 146.4,-636.598" /><path
         id="path142"
         style="fill:none;stroke:#293478;stroke-width:10;stroke-linecap:butt;stroke-linejoin:miter;stroke-miterlimit:10;stroke-dasharray:none;stroke-opacity:1"
         d="m 1466.6,947 c 3.9,-66.898 0.6,-134.102 -10,-200.301 -2.7,-16.699 -6,-33.801 -15.7,-47.597 C 1423,673.699 1389.2,666.301 1358.6,661" /><path
         id="path144"
         style="fill:#4ec1b1;fill-opacity:1;fill-rule:nonzero;stroke:none"
         d="m 1997.4,2326.6 c 0,0 95,-0.5 184.7,-80.2 66.7,-59.3 144.9,-211.3 350.1,-600.8 0,0 -77.5,-314.4 -129.8,-271.7 -491.2,400 -405,952.7 -405,952.7" /><path
         id="path146"
         style="fill:#8cd8c8;fill-opacity:1;fill-rule:nonzero;stroke:none"
         d="m 2532.2,1728.9 c -52.1,20.6 -143.4,-16 -179.7,-58.7 -38,-44.6 -54.8,-117.9 -47.6,-176.1 7.2,-58.2 46.7,-115.8 102.2,-134.4 55.6,-18.6 143.5,2 170.4,54.1 22.1,42.9 14.6,94.8 1.6,141.3 -13.1,46.5 -24.3,117.8 -46.9,173.8" /><path
         id="path148"
         style="fill:#f6857d;fill-opacity:1;fill-rule:nonzero;stroke:none"
         d="m 2800.7,1939 c 0.7,-11.3 -23.8,-34.1 -27,-62.3 -15.1,-136.3 -101.5,-419 -192.9,-475 -23.3,-14.2 -44,-22.8 -62.4,-27 0,0 -42.1,-6.8 -100,22.6 -12.8,10.4 -22.6,22 -30.1,30.2 -21,22.8 -50.3,134.1 73.4,237.5 7.9,6.5 15.3,13.3 22.3,20 117.2,113.4 124.9,256.7 124.9,256.7 l 98.1,4.5 93,-1 c 0.3,-1.6 0.5,-3.6 0.7,-6.2" /><path
         id="path150"
         style="fill:#f6857d;fill-opacity:1;fill-rule:nonzero;stroke:none"
         d="m 2608.9,1941.8 c 0,0 -14.9,123.2 92.3,178.1 107.2,54.9 181.3,53.4 190,46.4 8.7,-7 -43.2,-57.7 -101.6,-75.4 0,0 50.9,-21.5 133.1,8.3 82.2,29.8 110.1,72.1 135.2,65 25.2,-7.1 -28.9,-85.9 -155.7,-124.8 0,0 61.8,-1 124,20.3 62.2,21.3 66.3,-22 19.4,-41.3 0,0 23,-5.3 18.4,-27.9 -4.6,-22.5 -45.7,-23.21 -45.7,-23.21 0,0 19.2,-10.4 6.3,-30.59 -13,-20.2 -97.4,-28.1 -175.3,-28.2 -77.9,0 -152.3,16.9 -152.3,16.9 l -88.1,16.4" /><path
         id="path152"
         style="fill:none;stroke:#ae2b35;stroke-width:7.5;stroke-linecap:round;stroke-linejoin:miter;stroke-miterlimit:10;stroke-dasharray:none;stroke-opacity:1"
         d="m 2795.4,2075.6 c 0,0 3.9,-55.5 -81.7,-74.4" /><path
         id="path154"
         style="fill:none;stroke:#ae2b35;stroke-width:7.5;stroke-linecap:round;stroke-linejoin:miter;stroke-miterlimit:10;stroke-dasharray:none;stroke-opacity:1"
         d="m 3045.6,2018.5 c 0,0 -69,-17.8 -137.9,-16.8" /><path
         id="path156"
         style="fill:none;stroke:#ae2b35;stroke-width:7.5;stroke-linecap:round;stroke-linejoin:miter;stroke-miterlimit:10;stroke-dasharray:none;stroke-opacity:1"
         d="m 3018.4,1967.4 c 0,0 -54.8,-12.3 -139.2,-8.7" /><path
         id="path158"
         style="fill:#69ccc4;fill-opacity:1;fill-rule:nonzero;stroke:none"
         d="m 2303.3,781.402 c -125.2,-79.8 -634.3,-41.902 -912.2,40.2 -0.8,65.097 -0.6,121.199 8.3,198.998 -40.4,-74.901 -59.9,-112.901 -82.1,-173.799 -21.1,8.301 -39.7,16.898 -55.2,25.801 0,0 180.9,494.998 160.5,610.998 -21.3,121.1 -199.6,527.3 -160.5,612.6 36.6,79.8 100.9,136.6 178.2,175.6 149.8,75.8 348.6,85.5 489.1,69.8 52,-5.8 96.1,-15.2 126.8,-25.9 91.3,-32 194.5,-426.2 202.4,-578.6 7.7,-152.5 44.7,-955.698 44.7,-955.698" /><path
         id="path160"
         style="fill:#8cd8c8;fill-opacity:1;fill-rule:nonzero;stroke:none"
         d="m 1929.3,2341.5 c 2.3,-134.5 -21.9,-290.5 -84.9,-411.2 -144.7,102 -269.4,216.5 -404.2,341.4 149.8,75.9 348.5,85.6 489.1,69.8" /><path
         id="path162"
         style="fill:#4ec1b1;fill-opacity:1;fill-rule:nonzero;stroke:none"
         d="m 1581.7,1243.2 c 150.4,-196.3 387.8,-323.399 634.7,-339.7 -127.1,-24.699 -262.2,-5.801 -377.7,52.602 -115.5,58.498 -210.7,156.198 -257,287.098" /><path
         id="path164"
         style="fill:#f6857d;fill-opacity:1;fill-rule:nonzero;stroke:none"
         d="m 1832.6,2006.8 c -121.9,76.3 -226.4,169.3 -322.8,270.2 13.9,41.9 22.7,86.1 25.8,131.5 3,42.7 0.9,86.3 -7.1,130 99,-8.8 171,-2.4 267.4,-5.6 1.4,-30.6 5.1,-75.6 13.6,-119.7 4.6,-24 12.1,-40.3 21.6,-51 14,-15.9 32.3,-19.7 51.7,-18.8 3.3,-113.4 -11.7,-232.1 -50.2,-336.6" /><path
         id="path166"
         style="fill:#ec4f61;fill-opacity:1;fill-rule:nonzero;stroke:none"
         d="m 1831.2,2362 c -45,-10.3 -91.6,-13 -137.5,-7.5 -55.7,6.6 -109.8,25.4 -158.1,53.9 3,42.7 0.9,86.3 -7.1,130 99,-8.8 171,-2.4 267.4,-5.6 1.4,-30.6 5.1,-75.6 13.6,-119.7 4.7,-24.1 12.2,-40.4 21.7,-51.1" /><path
         id="path168"
         style="fill:#f6857d;fill-opacity:1;fill-rule:nonzero;stroke:none"
         d="m 1686,1036.6 c -19.3,1.4 -30.9,15.2 -47.9,35.8 -7.3,8.6 -15.1,18.4 -25.2,29.2 -34.2,36.2 -87.4,35.8 -87.4,35.8 2.2,-0.6 42.9,-13.1 80.8,-61.6 39.3,-49.8 63.8,-146.3 40.5,-145.499 -23.4,1.199 -52.9,41.5 -52.9,41.5 5.4,-18.602 5,-60.903 -13.6,-65.699 -1.9,-0.801 -3.7,-1 -6,-0.602 -23.3,2.898 -39.5,30.301 -41.4,33.801 5.5,-22.602 -8.4,-62.102 -36.6,-39.403 -28.2,22.704 -77.3,94.704 -77.3,94.704 0,0 0,0 -0.2,-0.102 -0.2,-0.102 -0.3,-0.301 -0.7,-0.5 -8.4,-6.301 -79.2,-40.398 -152,-14.699 -61.1,21.599 -83.8,57.999 -83.8,57.999 l 84.6,145.5 c 0,0 53.5,-17.2 113.9,0.3 8.3,2.3 16.8,5.3 25.2,9.3 0.4,0.1 0.8,0.3 1.2,0.5 23.1,8.3 43,14.39 55.7,16.8 26.2,4.8 50.9,3.7 70.5,-2.41 24.7,-7.9 45.7,-16.79 63.1,-25.89 54.9,-29.2 76.8,-62.01 82.5,-75.4 7.7,-18.3 34.6,-71.4 7,-69.4" /><path
         id="path170"
         style="fill:none;stroke:#ae2b35;stroke-width:7.5;stroke-linecap:round;stroke-linejoin:miter;stroke-miterlimit:10;stroke-dasharray:none;stroke-opacity:1"
         d="m 1528.6,945.398 c 0,0 -39.5,79.802 -75.5,96.702" /><path
         id="path172"
         style="fill:none;stroke:#ae2b35;stroke-width:7.5;stroke-linecap:round;stroke-linejoin:miter;stroke-miterlimit:10;stroke-dasharray:none;stroke-opacity:1"
         d="m 1590.8,979.199 c 0,0 -29.1,79.401 -80.4,103.601" /><path
         id="path174"
         style="fill:#f6857d;fill-opacity:1;fill-rule:nonzero;stroke:none"
         d="m 1298.3,1172.9 c -42.7,-66.8 -64.9,-111 -87.2,-155.2 -432.198,292.5 -443.698,384.7 -431.198,430.8 1.899,7.1 4.297,13 5.797,18.4 4.5,15.5 63.805,114.1 117.297,164.1 20.203,19 39.602,30.9 54.801,28.9 25.402,-3.3 38.301,-24.1 45.903,-52.1 13.6,-49.3 11.2,-121 32.3,-160.7 23.7,-29.7 48.8,-61 75,-91.89 59.4,-70.61 123.9,-139.51 187.3,-182.31" /><path
         id="path176"
         style="fill:#ec4f61;fill-opacity:1;fill-rule:nonzero;stroke:none"
         d="m 1110.9,1355.2 c -115.002,9.1 -228.201,40.9 -330.998,93.4 1.899,7.1 4.297,13 5.797,18.4 4.5,15.5 63.805,114.1 117.297,164.1 33.606,-7.6 67.102,-15.3 100.604,-23.3 13.6,-49.3 11.2,-121 32.3,-160.7 23.8,-29.7 48.9,-61 75,-91.9" /><path
         id="path178"
         style="fill:#69ccc4;fill-opacity:1;fill-rule:nonzero;stroke:none"
         d="m 1528.6,1858.6 c -22.6,118.1 -69.1,388.8 -188.7,335.8 -96.9,-42.9 -316,-300.5 -491.099,-575.1 29.797,-69.6 202.999,-151.2 284.099,-211.2 199.5,218 268.8,233.7 395.7,450.5" /><path
         id="path180"
         style="fill:#8cd8c8;fill-opacity:1;fill-rule:nonzero;stroke:none"
         d="m 846.301,1637.6 c 111.297,-84.3 210.899,-140.1 335.999,-195.3 -25.2,-35.2 -28.3,-54.1 -53.5,-89.3 -247.3,98.2 -342.999,159.4 -342.999,159.4 0,0 10.898,65.8 60.5,125.2" /><path
         id="path182"
         style="fill:#4ec1b1;fill-opacity:1;fill-rule:nonzero;stroke:none"
         d="m 1383.8,1655.8 c 39.1,40.6 74.4,85.6 98.5,136.5 24.1,50.9 36.7,108.2 29.8,164.2 23.2,-56.9 22.4,-123.1 -2.1,-179.5 -24.6,-56.2 -72.6,-101.9 -126.2,-121.2" /><path
         id="path184"
         style="fill:#4ec1b1;fill-opacity:1;fill-rule:nonzero;stroke:none"
         d="m 1450.2,1711.6 c 67.6,32.8 127.4,81.3 173.3,140.7 -39.6,-92.2 -125.9,-162.9 -224,-183.7 20.9,15.8 37.6,36.6 50.7,43" /><path
         id="path186"
         style="fill:#ec4f61;fill-opacity:1;fill-rule:nonzero;stroke:none"
         d="m 2141.4,2733.9 c 19.3,-38.3 -11.2,-89.9 -68.1,-115.2 -56.9,-25.3 -118.6,-14.7 -137.8,23.6 -19.2,38.3 11.2,89.9 68.1,115.2 56.8,25.3 118.6,14.7 137.8,-23.6" /><path
         id="path188"
         style="fill:#f6857d;fill-opacity:1;fill-rule:nonzero;stroke:none"
         d="m 2032.7,2764.3 c -3.4,-203.6 -80.7,-349.2 -249.5,-367.4 -159.6,-17.2 -387.8,134.1 -419,374.3 -26.2,201.9 142.1,369.5 331.5,366.7 189.5,-2.7 340.3,-170 337,-373.6" /><path
         id="path190"
         style="fill:#ec4f61;fill-opacity:1;fill-rule:nonzero;stroke:none"
         d="m 1361.2,2698.5 c 0,0 11.4,102.8 90.1,159 78.7,56.3 104.9,109.6 104.9,109.6 0,0 85,-50.3 211.7,-40 126.7,10.3 201.8,0.8 231.5,-55.9 29.7,-56.7 78.1,80.3 0,144 -78.1,63.7 -450.1,156.9 -457.7,151 -7.6,-5.9 -61.1,-17.8 -113,-54.8 -51.9,-37 -130.6,-145.1 -124.3,-161.4 l 56.8,-251.5" /><path
         id="path192"
         style="fill:#272860;fill-opacity:1;fill-rule:nonzero;stroke:none"
         d="m 2094.3,2995.6 c 0.2,-154.5 -63.7,-290 -63.7,-290 -8.4,223.1 -86.1,260.6 -237.2,262.7 -151.1,1.9 -266.5,77 -266.5,77 8.4,-69.1 -70.1,-122.6 -110.9,-208.4 -39.1,-82.2 -61.3,-131.5 -61.3,-131.5 -45.4,93.9 -86.7,181.7 -91.8,291.1 -2.2,42.6 2.3,82.3 16.5,116 50.3,120.4 182.6,124.3 182.6,124.3 172,197.5 530.9,120.5 606.4,-84.8 18.9,-51.4 25.9,-105 25.9,-156.4" /><path
         id="path194"
         style="fill:#41368f;fill-opacity:1;fill-rule:nonzero;stroke:none"
         d="m 2094.3,2995.6 c 0,0 -59.1,196.9 -242.3,266.5 -183.3,69.5 -354.9,-72.5 -354.9,-72.5 0,0 -219.4,-14.8 -234.2,-193.3 -2.2,42.6 2.3,82.3 16.5,116 50.3,120.4 182.6,124.3 182.6,124.3 172,197.5 530.9,120.5 606.4,-84.8 18.9,-51.2 25.9,-104.8 25.9,-156.2" /><path
         id="path196"
         style="fill:#f6857d;fill-opacity:1;fill-rule:nonzero;stroke:none"
         d="m 1260.1,2760.4 c -20.5,-37.7 8.3,-90.2 64.3,-117.1 56,-26.9 118,-18.2 138.5,19.6 20.5,37.7 -8.3,90.2 -64.3,117.1 -56,26.9 -118,18.1 -138.5,-19.6" /><path
         id="path198"
         style="fill:#1f2940;fill-opacity:1;fill-rule:nonzero;stroke:none"
         d="m 1946.5,2730.4 c -8.8,-0.6 -15.4,8.8 -16.6,24 -1.2,15.2 3.7,25.4 12.5,26.1 8.8,0.6 15.4,-8.8 16.6,-24 1.2,-15.2 -3.6,-25.5 -12.5,-26.1" /><path
         id="path200"
         style="fill:#1f2940;fill-opacity:1;fill-rule:nonzero;stroke:none"
         d="m 1707.4,2705.3 c -8.9,-0.6 -15.4,8.8 -16.6,24 -1.2,15.2 3.7,25.4 12.5,26.1 8.8,0.6 15.4,-8.8 16.6,-24 1.2,-15.2 -3.7,-25.4 -12.5,-26.1" /><path
         id="path202"
         style="fill:none;stroke:#a62b4b;stroke-width:10;stroke-linecap:round;stroke-linejoin:miter;stroke-miterlimit:10;stroke-dasharray:none;stroke-opacity:1"
         d="m 1884.1,2712.7 c 13.4,-25.8 13.7,-58 0.9,-84.1" /><path
         id="path204"
         style="fill:#a62b4b;fill-opacity:1;fill-rule:nonzero;stroke:none"
         d="m 1785.9,2595.3 c -36.3,-0.3 -82.4,-42.7 -50.4,-65.8 18.4,-13.2 34.9,10.1 56.5,2.1 19.1,-7.1 47.1,-38.2 60.5,-3.9 9.3,23.9 -6.9,68.1 -66.6,67.6" /><path
         id="path206"
         style="fill:none;stroke:#272860;stroke-width:10;stroke-linecap:round;stroke-linejoin:miter;stroke-miterlimit:10;stroke-dasharray:none;stroke-opacity:1"
         d="m 1869.8,2888.3 c 30.5,22.3 75.1,23.2 106.5,2.1" /><path
         id="path208"
         style="fill:none;stroke:#272860;stroke-width:10;stroke-linecap:round;stroke-linejoin:miter;stroke-miterlimit:10;stroke-dasharray:none;stroke-opacity:1"
         d="m 1715.8,2841.1 c -30.6,-26.4 -74.3,-39.3 -115.8,-34.1" /><path
         id="path210"
         style="fill:#445eb3;fill-opacity:1;fill-rule:nonzero;stroke:none"
         d="m 3504.2,-289.199 c 104.2,-14 209.1,-23.801 314.2,-29.801 31.1,306.8008 62.7,565.301 89.8,676.301 0.1,0.597 0.3,1.199 0.4,1.699 l 39,-549.301 9.5,-134.398 c 29.8,-0.801 59.6,-1.301 89.3,-1.5 136.1,-0.801 272.4,2 408.5,8.301 18.4,367.9996 38.8,871.8 29.1,1135.097 -0.4,8.403 -0.7,16.602 -1.1,24.5 -0.7,11.012 -1.2,21.102 -1.9,31.012 -2.3,35.789 -5.5,64.789 -9.7,85.488 l -315.2,34.699 -38.39,4.204 -732.11,85.698 c 0,0 -4.7,-48 -6.8,-87.499 -0.1,-2.102 -0.2,-4.403 -0.4,-6.699 -0.6,-10.301 -1.2,-21.704 -1.9,-34.204 -3.1,-59 -7.5,-141.597 -12.5,-242.097 -12.2,-245.5 -28.3,-597.5 -40.5,-972.602 60.2,-10.301 120.2,-20.797 180.7,-28.898" /><path
         id="path212"
         style="fill:#334ca3;fill-opacity:1;fill-rule:nonzero;stroke:none"
         d="M 4484.1,817.102 C 4121.2,714.699 3739.7,679 3364.1,712.199 c 5,100.5 9.4,183.102 12.5,242.102 123.6,-14.5 249.6,-4.403 374,5.597 135.2,11 270.4,21.903 405.6,32.903 l 315.2,-34.699 c 4.2,-20.704 7.4,-49.704 9.7,-85.5 0.7,-9.903 1.2,-20 1.9,-31 0.4,-7.903 0.7,-16.102 1.1,-24.5" /><path
         id="path214"
         style="fill:#334ca3;fill-opacity:1;fill-rule:nonzero;stroke:none"
         d="m 4068.9,478.902 c -23.5,-238.703 -41.4,-471.10122 -51.6,-684.601 -7.4,7.398 -39.9,10.801 -69.7,15.301 l -39,549.3 c -0.1,-0.504 -0.3,-1.101 -0.4,-1.703 1.3,9.403 2.8,18.5 4.5,27.199 63.1,22.102 121.7,64.504 156.2,94.504" /><path
         id="path216"
         style="fill:none;stroke:#293478;stroke-width:10;stroke-linecap:round;stroke-linejoin:miter;stroke-miterlimit:10;stroke-dasharray:none;stroke-opacity:1"
         d="m 3959.2,943.801 c 14.2,-178.403 10.4,-358.199 -11.3,-535.903" /><path
         id="path218"
         style="fill:none;stroke:#293478;stroke-width:10;stroke-linecap:round;stroke-linejoin:miter;stroke-miterlimit:10;stroke-dasharray:none;stroke-opacity:1"
         d="m 4057.2,940.801 c 10,-95.903 20,-193.403 2,-288 -5,-26.102 -12.4,-52.5 -28.2,-73.899 C 4015.2,557.5 3989.6,541.801 3963.1,544" /><path
         id="path220"
         style="fill:none;stroke:#293478;stroke-width:10;stroke-linecap:round;stroke-linejoin:miter;stroke-miterlimit:10;stroke-dasharray:none;stroke-opacity:1"
         d="m 3449,883.902 c -1.8,-39.402 -3.2,-83.703 -6.4,-110.504 -6.3,-52.5 -13.7,-117.699 -73.5,-126" /><path
         id="path222"
         style="fill:none;stroke:#293478;stroke-width:10;stroke-linecap:round;stroke-linejoin:miter;stroke-miterlimit:10;stroke-dasharray:none;stroke-opacity:1"
         d="m 4397.3,894.199 c 0,-52.199 0.3,-71.097 1.3,-105.097 1,-34 1.8,-68.801 12.6,-100.602 10.8,-31.699 34,-60.301 63.6,-65" /><path
         id="path224"
         style="fill:#f68181;fill-opacity:1;fill-rule:nonzero;stroke:none"
         d="m 4985,1611.3 c -32,-157.6 -523.6,-588.2 -525.5,-588.6 l -112.4,181.1 c 0,0 240.7,271.3 303.1,429.4 0,0.1 0.2,0.3 0.2,0.4 -3.2,3.9 -6.3,7.8 -9.4,12 -9.5,12.5 -18.3,24.4 -26.5,35.8 -45.4,62.8 -72.8,109 -89.3,142.3 -7.7,15.7 -13.1,28.6 -16.7,39 10.3,16.6 20.4,30.6 24.7,33.1 1.4,1 5.9,3 12.4,5.6 l 65.2,0.8 203.8,2.3 7.7,5.2 c 0,0 35.2,-39.1 73.1,-91.2 48.1,-66.3 100.5,-153.5 89.6,-207.2" /><path
         id="path226"
         style="fill:#ec4f61;fill-opacity:1;fill-rule:nonzero;stroke:none"
         d="m 4614.5,1681.4 c 98.6,34.5 193,80.6 280.9,137.1 -37.9,52.1 -73.1,91.2 -73.1,91.2 l -7.7,-5.2 -203.8,-2.3 c -28.5,-26.2 -57.1,-52.3 -85.6,-78.5" /><path
         id="path228"
         style="fill:#d12241;fill-opacity:1;fill-rule:nonzero;stroke:none"
         d="m 4170,2518.6 c 13.1,64.2 210.3,14.6 333.4,-127.2 123.1,-141.8 348.9,-466.3 348.9,-466.3 l -343.9,-262.6 c 0,0 -382.3,640.2 -338.4,856.1" /><path
         id="path230"
         style="fill:#f68181;fill-opacity:1;fill-rule:nonzero;stroke:none"
         d="m 3874.2,2280.9 c -28.1,12.4 -221.8,95.4 -147.1,323.7 0.7,2.1 1.4,4.2 2,6.2 0.6,1.6 1.2,3.4 1.7,5.4 10.6,35.3 19.81,83.9 16.8,140.3 l 141.9,-19.3 h 143.21 c -4.81,-24.9 -6.91,-48.6 -7.1,-70.5 -0.21,-28.7 18.89,-148.2 18.89,-148.2 0,0 -13.3,-212.6 -170.3,-237.6" /><path
         id="path232"
         style="fill:#ec4f61;fill-opacity:1;fill-rule:nonzero;stroke:none"
         d="m 4025.7,2666.8 c -26.4,-23.1 -123.4,-93.4 -296.6,-55.9 0.6,1.6 1.2,3.4 1.7,5.4 10.6,35.3 19.8,83.9 16.8,140.3 l 141.9,-19.3 h 143.2 c -4.7,-25 -6.8,-48.7 -7,-70.5" /><path
         id="path234"
         style="fill:#d12241;fill-opacity:1;fill-rule:nonzero;stroke:none"
         d="m 4509.5,850.602 c -193.8,-80.403 -1047.1,-53 -1180.3,-8.301 0,0 94.2,441.099 2.6,1095.499 -59.1,422.1 29.7,468 78.7,524.7 38.9,45 133.4,73.4 205.7,89.3 49.5,10.8 88.5,15.8 92.3,16.1 -6.9,-188 175.4,-263.1 175.4,-263.1 0,0 159.4,100.3 154,256.2 3.2,-0.1 31.3,0.5 69.81,-1.5 75.4,-4 190.89,-17.7 237.5,-64.7 52.9,-53.2 69.19,-94.3 114.69,-518 23.9,-223.1 49.6,-1126.198 49.6,-1126.198" /><path
         id="path236"
         style="fill:#921636;fill-opacity:1;fill-rule:nonzero;stroke:none"
         d="m 4107.7,2559.5 c -7.5,-88 -41.4,-173.9 -96.8,-242.7 -25.2,-31.4 -56.7,-60.4 -95.9,-69.7 -52.8,-12.5 -107.4,13.5 -149.8,47.3 -79.4,63.2 -133,157.3 -149,257.4 49.5,10.8 88.5,15.8 92.3,16.1 -6.9,-188 175.4,-263.1 175.4,-263.1 0,0 159.4,100.3 154,256.2 3.2,-0.1 31.3,0.5 69.8,-1.5" /><path
         id="path238"
         style="fill:#921636;fill-opacity:1;fill-rule:nonzero;stroke:none"
         d="m 4347.1,1499.7 c -85.6,-178.8 -223.2,-318 -379.6,-401.4 -156.4,-83.4 -330.9,-112.499 -501.5,-97.6 104.8,-32.501 215.6,-23.001 322.2,-0.7 123.5,25.9 246.6,69.8 351.1,153.4 104.5,83.6 189,210.9 207.8,346.3" /><path
         id="path240"
         style="fill:#921636;fill-opacity:1;fill-rule:nonzero;stroke:none"
         d="M 4387.9,1141.9 C 4139.8,965.5 3816.6,898.5 3518.8,961.602 c 109,-55.602 236.1,-63.204 358.2,-55.5 95.8,6 192.1,21.097 280.5,58.398 88.5,37.3 169,98.5 230.4,177.4" /><path
         id="path242"
         style="fill:#921636;fill-opacity:1;fill-rule:nonzero;stroke:none"
         d="m 4473.1,1738.3 c -19.8,224.4 -34.3,382.2 -66.6,629 73.8,-258 95,-439.3 66.6,-629" /><path
         id="path244"
         style="fill:#921636;fill-opacity:1;fill-rule:nonzero;stroke:none"
         d="m 4470,1860 c 39.6,147 42.3,292.9 50,453 26.5,-137.7 14.7,-388.8 -46.9,-571.4 -3.9,25.3 -7.2,103.3 -3.1,118.4" /><path
         id="path246"
         style="fill:#ec4f61;fill-opacity:1;fill-rule:nonzero;stroke:none"
         d="m 4360.6,2992.3 c 18.7,-42.2 -15.7,-96.6 -76.8,-121.4 -61.1,-24.8 -125.8,-10.7 -144.4,31.5 -18.7,42.2 15.7,96.6 76.8,121.4 61,24.8 125.7,10.7 144.4,-31.5" /><path
         id="path248"
         style="fill:#ec4f61;fill-opacity:1;fill-rule:nonzero;stroke:none"
         d="m 3434,3049.9 c -23.3,-39.9 4.9,-97.7 62.8,-129.3 58,-31.5 123.8,-24.8 147,15.1 23.3,39.9 -4.9,97.7 -62.8,129.3 -57.9,31.5 -123.7,24.7 -147,-15.1" /><path
         id="path250"
         style="fill:#f68181;fill-opacity:1;fill-rule:nonzero;stroke:none"
         d="m 4254.9,3060.7 c -2.5,-118.4 -129.8,-420.1 -370.8,-403.8 -284.9,19.2 -342.5,366.8 -336.7,452 17.3,255.4 170.4,415.8 370.2,404.7 199.8,-11 343.4,-166.6 337.3,-452.9" /><path
         id="path252"
         style="fill:#ec4f61;fill-opacity:1;fill-rule:nonzero;stroke:none"
         d="m 3560,3050.2 c 13.2,39.8 43.2,71.4 70.2,103.5 27,32.1 49.5,94.6 55.7,131.5 40.7,-32.1 88.2,-54.7 132.7,-61.1 48.1,-6.9 93.6,-4.7 106.5,38.6 24.6,-28.2 77.4,-48.1 118.2,-47.8 20.1,0.2 41,8.7 54.2,23.9 34,-38.9 81.5,-49.8 81.5,-49.8 0,0 57.9,-114.1 64.6,-160.3 3.7,82.7 0.8,181 -11.3,264.3 -177.8,82.3 -370.1,133 -562.6,150.8 C 3597,3328.6 3555.6,3194 3560,3050.2" /><path
         id="path254"
         style="fill:#2b2862;fill-opacity:1;fill-rule:nonzero;stroke:none"
         d="m 4326.2,3283.9 c -10.7,-19.6 -24.7,-36.9 -39.4,-50.2 1.9,-84.3 -9,-170.4 -47.1,-262 -2.6,116.9 -19.5,148.8 -36.1,230.5 -40.2,16.7 -75.9,44.1 -104.1,78.4 -10.1,-25.2 -48.7,-43.9 -82.1,-35.7 -33.5,8.2 -76.7,29.7 -110.2,62.1 10.1,-19 -1.4,-54.9 -38.7,-57.5 -57.1,-4 -141.2,36.1 -201,75.6 -36.9,-163.5 -66.8,-137.7 -111.7,-308.6 -49,104.8 -73,186.6 -73.3,289.8 -0.1,49.3 4.9,131.6 109.2,152.8 32.7,59.9 75.3,113.6 124.9,158.5 42.2,38.2 89.3,69.8 139.9,93.5 29.9,14.1 63.2,25.6 95,17.5 31.7,-8.1 59.1,-42.7 49.4,-75.8 57,23.5 120.4,28.4 179.7,14 35.4,-8.6 70.9,-25.2 92.4,-56.3 21.4,-30.9 3.3,-84.3 -22.3,-119.4 45,-21.5 92.3,-71.3 95.9,-123.5 2.2,-29.3 -6.4,-58.5 -20.4,-83.7" /><path
         id="path256"
         style="fill:#41368f;fill-opacity:1;fill-rule:nonzero;stroke:none"
         d="m 4326.2,3283.9 c 1.6,33.2 -5.7,66.9 -21.6,96.1 -27.6,50.3 -80.4,86.1 -137.4,93.1 12.8,14.7 26.1,28 35.4,44.1 9.3,16.1 14.1,35.8 8.8,53.6 -8.8,29.4 -40.9,44.9 -71,51.6 -65.4,14.6 -136.3,3.5 -194,-30.7 3.5,26.2 1.7,51.5 -11.1,67.2 -12.9,15.8 -34.1,22.9 -54.5,22.6 -20.4,-0.2 -40,-6.6 -59,-13.8 -36.3,-13.8 -71.4,-30.7 -104.9,-50.3 42.2,38.2 89.3,69.8 139.9,93.5 29.9,14.1 63.2,25.6 95,17.5 31.7,-8.1 59.1,-42.7 49.4,-75.8 57,23.5 120.4,28.4 179.7,14 35.4,-8.6 70.9,-25.2 92.4,-56.3 21.4,-30.9 3.3,-84.3 -22.3,-119.4 45,-21.5 92.3,-71.3 95.9,-123.5 1.9,-29.1 -6.7,-58.3 -20.7,-83.5" /><path
         id="path258"
         style="fill:none;stroke:#2b2862;stroke-width:10;stroke-linecap:round;stroke-linejoin:miter;stroke-miterlimit:10;stroke-dasharray:none;stroke-opacity:1"
         d="m 3981.4,3158.2 c 32.6,8.8 83.2,13.1 120.8,-26.7" /><path
         id="path260"
         style="fill:none;stroke:#2b2862;stroke-width:10;stroke-linecap:round;stroke-linejoin:miter;stroke-miterlimit:10;stroke-dasharray:none;stroke-opacity:1"
         d="m 3696.8,3111.5 c 29.1,-4.6 72.5,-5.9 115.1,13.2" /><path
         id="path262"
         style="fill:#1a273e;fill-opacity:1;fill-rule:nonzero;stroke:none"
         d="m 4048.4,3009 c -9.4,0.5 -14.8,11.5 -13.9,27.9 0.9,16.4 7.5,26.7 16.9,26.2 9.4,-0.5 14.8,-11.5 13.9,-27.9 -0.9,-16.4 -7.6,-26.7 -16.9,-26.2" /><path
         id="path264"
         style="fill:#1a273e;fill-opacity:1;fill-rule:nonzero;stroke:none"
         d="m 3792.4,3026.5 c -9.4,-0.3 -15.8,10.1 -16.5,26.6 -0.7,16.5 5,27.3 14.3,27.6 9.4,0.3 15.8,-10.1 16.5,-26.6 0.7,-16.5 -4.9,-27.3 -14.3,-27.6" /><path
         id="path266"
         style="fill:none;stroke:#ae2b35;stroke-width:10;stroke-linecap:round;stroke-linejoin:miter;stroke-miterlimit:10;stroke-dasharray:none;stroke-opacity:1"
         d="m 3876.2,2985.3 c -7.8,-24.2 -9.6,-50.4 -5.1,-75.5" /><path
         id="path268"
         style="fill:none;stroke:#ae2b35;stroke-width:10;stroke-linecap:round;stroke-linejoin:miter;stroke-miterlimit:10;stroke-dasharray:none;stroke-opacity:1"
         d="m 3788.4,2852.4 c 41.4,2.6 83.6,-11.4 115.3,-38.3" /><path
         id="path270"
         style="fill:#ec4f61;fill-opacity:1;fill-rule:nonzero;stroke:none"
         d="m 3244.4,2062.3 c -7.1,-135.3 -14,-271.9 7.7,-405.7 21.7,-133.8 91.6,-345.2 180.6,-355.8 27,138.5 53.9,277.1 80.9,415.6 4.6,23.5 9,48.7 -0.3,70.9 -6.3,15.1 -18.4,27 -30.2,38.4 -79.5,77.4 -159,154.6 -238.7,236.6" /><path
         id="path272"
         style="fill:#d12241;fill-opacity:1;fill-rule:nonzero;stroke:none"
         d="m 3496.9,2518.4 c -96.7,-9.6 -197.3,-107.1 -233.8,-230.6 -57.8,-195.8 -71.2,-354.5 -90,-599.5 123.5,-17.6 263,-40.6 386.6,-28.4 44.9,274.1 30.6,871.4 -62.8,858.5" /><path
         id="path274"
         style="fill:#921636;fill-opacity:1;fill-rule:nonzero;stroke:none"
         d="m 3514.7,2403.7 c 35.1,-238.2 39.8,-480.9 13.8,-720.3 50.1,239.9 68.6,494.7 -13.8,720.3" /><path
         id="path276"
         style="fill:#f7998f;fill-opacity:1;fill-rule:nonzero;stroke:none"
         d="m 3757.8,2230.9 c 0,0 -33.3,-440.5 -80.4,-687.3 -47.1,-246.8 -239.6,-255.3 -264.6,-241.7 -74,40.3 -105.8,180 -67.1,278.2 69.3,175.7 224.6,575.7 246.9,684.5 l 165.2,-33.7" /><path
         id="path278"
         style="fill:#f7998f;fill-opacity:1;fill-rule:nonzero;stroke:none"
         d="m 3836.8,2382.6 c 0,0 -5.3,-102.4 -79,-151.7 l -165.2,33.7 47.6,307.5 c 0,0 3.7,93.8 45.8,146.1 42.1,52.3 136.9,44.8 148.7,14.2 11.9,-30.6 -46.6,-23.5 -75.2,-34.7 -28.6,-11.2 -39.1,-81.6 -39.1,-81.6 0,0 70.3,33.6 110,25.6 39.7,-7.9 98.4,-71.5 68,-106.3 0,0 31.3,-24.7 6.5,-61.7 0,0.1 42,-73.7 -68.1,-91.1" /><path
         id="path280"
         style="fill:none;stroke:#ae2b35;stroke-width:7.5;stroke-linecap:round;stroke-linejoin:miter;stroke-miterlimit:10;stroke-dasharray:none;stroke-opacity:1"
         d="m 3829.1,2452.7 c 0,0 -4.4,-12.4 12.2,-26" /><path
         id="path282"
         style="fill:none;stroke:#ae2b35;stroke-width:7.5;stroke-linecap:round;stroke-linejoin:miter;stroke-miterlimit:10;stroke-dasharray:none;stroke-opacity:1"
         d="m 3904.9,2473.8 c 0,0 -19.3,37.5 -70,27.2" /><path
         id="path284"
         style="fill:none;stroke:#ae2b35;stroke-width:7.5;stroke-linecap:round;stroke-linejoin:miter;stroke-miterlimit:10;stroke-dasharray:none;stroke-opacity:1"
         d="m 3898.4,2535.5 c 0,0 -56,47.2 -110.1,15" /><path
         id="path286"
         style="fill:none;stroke:#ae2b35;stroke-width:7.5;stroke-linecap:round;stroke-linejoin:miter;stroke-miterlimit:10;stroke-dasharray:none;stroke-opacity:1"
         d="m 3857.7,2442.2 c -13.3,-12.6 -20.9,-31.1 -20.4,-49.4" /><path
         id="path288"
         style="fill:#1d2046;fill-opacity:1;fill-rule:nonzero;stroke:none"
         d="m 6206.5,3132.5 c 92.6,114.5 134.6,-373.1 75.4,-511.7 -10.3,-24.2 -22.2,-48 -27.6,-73.8 -5.4,-25.8 -3.7,-54.4 11.4,-75.9 18.4,-26.2 52,-36.3 76.4,-56.9 31.9,-26.9 46.2,-71.1 43.8,-113 -2.4,-41.9 -19.9,-81.6 -42.4,-116.9 -64.3,-100.6 -202.3,-158.9 -316.5,-191.1 -114.2,-32.2 -235.8,-30.2 -352.7,-10.5 -83.4,14.1 -171.1,40.8 -223.7,107.6 -55.1,69.9 -56.7,177.5 -3.8,249.1 26.3,35.5 65.5,62.6 81,104.1 21,56.3 -30,89.9 -42.6,137 -36.2,135.7 69.1,127.5 7.7,438.6 -4.5,22.6 138.9,-3.7 161.9,-2.6 186.3,9.3 373.8,-6.7 554.2,-51.2 17.7,43.2 -29.1,134.4 -2.5,167.2" /><path
         id="path290"
         style="fill:#ec696a;fill-opacity:1;fill-rule:nonzero;stroke:none"
         d="m 5637.2,2213 c -19.1,62.9 -46.5,123.3 -75.5,173.8 -69.5,-5.6 -178,-25.3 -224,-77.8 -43.7,-49.8 -45.3,-122.3 -50.7,-188.3 -16,-196.5 -53.4,-376.4 -56.5,-573.5 -0.9,-53.7 4.6,-111.1 38.1,-153.1 27.8,-34.8 82,-53.3 117.8,-26.8 32,23.7 35,69.4 36.7,109.2 10.3,253.2 78.7,503.8 214.1,736.5" /><path
         id="path292"
         style="fill:#ec4f61;fill-opacity:1;fill-rule:nonzero;stroke:none"
         d="M 5273.8,304.301 C 5224.4,143.902 5174.9,-16.5 5125.5,-177 c 178.3,-36.199 586.1,-3.602 600.7,11.699 14.6,15.301 22.4,35.699 29.8,55.602 42,112.39822 83.9,224.801 125.9,337.199 -206.4,-7.398 -413.5,9.801 -608.1,76.801" /><path
         id="path294"
         style="fill:#f6857d;fill-opacity:1;fill-rule:nonzero;stroke:none"
         d="m 6465.6,455 c -34.7,-187.898 -83.9,-373.3008 -147,-554.5 -16.4,-47.199 -37.4,-98.301 -83.7,-122.199 -28.6,-14.801 -62.5,-16.602 -95.2,-17.801 -150.8,-5.699 -301.8,-5.398 -452.5,0.801 50.1,131.097 79.5,269.0974 87,408.199 230.5,81.102 461.1,162.199 691.4,285.5" /><path
         id="path296"
         style="fill:#445eb3;fill-opacity:1;fill-rule:nonzero;stroke:none"
         d="M 6386.1,9 C 5930.2,-53.3984 5455.5,-33.5977 5162,31.8008 c 53.4,206.0972 238.7,880.5972 246.1,944.5002 1.9,16 3.9,40.299 5.9,69.999 1.1,14 2,29.1 2.8,45.1 4.8,82.5 8.9,188.3 9.2,275.3 0.1,2.9 0.1,5.8 0.1,8.5 289.3,10 552.8,-18.8 819.9,17.7 55.1,-50.4 99.6,-106.1 134.9,-166 2.9,-5 5.9,-10.1 8.7,-15.1 C 6580.9,870 6487.5,399.398 6386.1,9" /><path
         id="path298"
         style="fill:#334ca3;fill-opacity:1;fill-rule:nonzero;stroke:none"
         d="m 6389.6,1211.7 c -133.3,-64.4 -454.7,-205.8 -975.6,-165.5 1.1,14 2,29.1 2.8,45.1 4.8,82.5 8.9,188.3 9.2,275.3 0.1,2.9 0.1,5.8 0.1,8.5 289.3,10 552.8,-18.8 819.9,17.7 55.1,-50.4 99.61,-106.1 134.9,-166 2.9,-5 5.8,-10 8.7,-15.1" /><path
         id="path300"
         style="fill:#334ca3;fill-opacity:1;fill-rule:nonzero;stroke:none"
         d="M 6112.3,863 C 6047.5,690.602 5980.1,513.699 5856.7,376.898 5733.3,240.102 5539.4,150.699 5362.7,202.699 5678.8,322.5 5948.1,561.402 6112.3,863" /><path
         id="path302"
         style="fill:none;stroke:#293478;stroke-width:10;stroke-linecap:round;stroke-linejoin:miter;stroke-miterlimit:10;stroke-dasharray:none;stroke-opacity:1"
         d="m 5438.3,1044.5 c 323.6,-24 645,30.1 941.9,161.1" /><path
         id="path304"
         style="fill:none;stroke:#293478;stroke-width:10;stroke-linecap:round;stroke-linejoin:miter;stroke-miterlimit:10;stroke-dasharray:none;stroke-opacity:1"
         d="M 6322.2,1176.2 C 6412.4,1006.8 6436.4,808.398 6422.4,617.102 6408.4,425.699 6350.6,197 6300,11.8984" /><path
         id="path306"
         style="fill:none;stroke:#293478;stroke-width:10;stroke-linecap:round;stroke-linejoin:miter;stroke-miterlimit:10;stroke-dasharray:none;stroke-opacity:1"
         d="m 6233.8,1142.9 c 6.7,-25.7 13.5,-51.7 25.5,-75.4 12,-23.7 29.8,-45.4 53.5,-57.3 23.8,-11.899 54.09,-12.7 76.1,2.3" /><path
         id="path308"
         style="fill:none;stroke:#293478;stroke-width:10;stroke-linecap:round;stroke-linejoin:miter;stroke-miterlimit:10;stroke-dasharray:none;stroke-opacity:1"
         d="m 5785.3,1046.7 c 17.3,-134.001 19.4,-269.899 6.1,-404.399" /><path
         id="path310"
         style="fill:none;stroke:#293478;stroke-width:10;stroke-linecap:round;stroke-linejoin:miter;stroke-miterlimit:10;stroke-dasharray:none;stroke-opacity:1"
         d="m 5865.9,1054 c 10.1,-70.199 14.9,-141.102 14.3,-212 -0.2,-19.699 -1.3,-40.898 -13.5,-56.301 -15.9,-20 -41.09,-23.199 -66.6,-24.801" /><path
         id="path312"
         style="fill:#f9e54b;fill-opacity:1;fill-rule:nonzero;stroke:none"
         d="m 6302.1,1355.6 c -162.4,-129.3 -857.3,-120.8 -894.1,-45.2 -18.1,37.1 -23.5,167.8 -18.8,325.5 8.7,302.8 54.1,704.7 116.5,733.2 122.41,56 442.2,44 663.7,-60.2 81.1,-38.2 162.5,-79.8 198,-162.1 13,-30.2 18.5,-69.7 18.8,-114.5 1.6,-172.1 -74.3,-420.8 -98.3,-509.3 -13.3,-49.2 85.5,-110.6 14.2,-167.4" /><path
         id="path314"
         style="fill:#f3cb39;fill-opacity:1;fill-rule:nonzero;stroke:none"
         d="m 6302.1,1355.6 c -162.4,-129.3 -857.3,-120.8 -894.1,-45.2 -18.1,37.1 -23.5,167.8 -18.8,325.5 128.91,-68.6 273.8,-105.5 416.8,-83.6 170.5,26.2 320.2,133.1 431.7,264.6 56.6,66.7 104.8,139.7 148.4,215.6 1.6,-172.1 -74.3,-420.8 -98.3,-509.3 -13.2,-49.4 85.6,-110.8 14.3,-167.6" /><path
         id="path316"
         style="fill:#fcf591;fill-opacity:1;fill-rule:nonzero;stroke:none"
         d="m 5743,2128.5 c 103.4,-53.6 281.6,-89.4 323.4,-70.9 77.2,34.1 93.9,251.6 78,278.7 -22.5,38.5 -69.1,65 -113.7,65.9 -104.9,-106.5 -204.2,-145.5 -287.7,-273.7" /><path
         id="path318"
         style="fill:#fcf591;fill-opacity:1;fill-rule:nonzero;stroke:none"
         d="m 5855.5,2379.2 c -63.5,63.4 -183.6,52.3 -215.2,22.9 -50.3,-46.8 -149.2,-209 -141.4,-272.9 3.8,-31.3 208.9,-10.5 244.1,2.6 36.6,105 55.5,132.1 112.5,247.4" /><path
         id="path320"
         style="fill:#eb8c27;fill-opacity:1;fill-rule:nonzero;stroke:none"
         d="m 5721.1,2066.8 c 12.15,0 22,-9.85 22,-22 0,-12.15 -9.85,-22 -22,-22 -12.15,0 -22,9.85 -22,22 0,12.15 9.85,22 22,22" /><path
         id="path322"
         style="fill:#eb8c27;fill-opacity:1;fill-rule:nonzero;stroke:none"
         d="m 5707.9,1953.7 c 12.15,0 22,-9.85 22,-22 0,-12.15 -9.85,-22 -22,-22 -12.15,0 -22,9.85 -22,22 0,12.15 9.85,22 22,22" /><path
         id="path324"
         style="fill:#f6857d;fill-opacity:1;fill-rule:nonzero;stroke:none"
         d="m 5740.7,2121.8 c 139.3,67 348.8,156.6 346.1,197.4 -1.6,25 -22.7,98.5 -25.8,146.2 -3,44.9 -0.9,90.8 7,136.7 -98.9,-9.3 -170.8,-2.6 -267.2,-5.9 -1.4,-32.2 -5.1,-79.6 -13.5,-125.9 -4.6,-25.3 -12.1,-42.4 -21.6,-53.7 -14,-16.7 -37,-7.1 -51.7,-19.8 -31,-27.1 -9.7,-159.4 26.7,-275" /><path
         id="path326"
         style="fill:#ec4f61;fill-opacity:1;fill-rule:nonzero;stroke:none"
         d="m 5765.8,2416.7 c 44.9,-10.8 91.5,-13.7 137.3,-7.9 55.6,7 109.7,26.7 157.9,56.7 -3,44.9 -0.9,90.8 7,136.7 -98.9,-9.3 -170.8,-2.6 -267.2,-5.9 -1.4,-32.2 -5.1,-79.6 -13.5,-125.9 -4.6,-25.3 -12,-42.5 -21.5,-53.7" /><path
         id="path328"
         style="fill:#f6857d;fill-opacity:1;fill-rule:nonzero;stroke:none"
         d="m 5417.5,1099.5 c 90.8,48.8 130.3,78.4 169.4,142.3 5.9,61.7 8.2,123.6 10.5,185.4 -53.5,12.4 -109.2,24.1 -164.9,35.7 -15.2,3.2 -30.7,6.4 -46.2,4.5 -15.4,-1.9 -31,-9.8 -38.4,-23.9 -7.4,-14.1 -3.9,-34.6 18.4,-42.1 -55.8,-20.7 -155.7,-60.2 -158.1,-119.3 -0.5,-12.5 9.4,-23.5 20.3,-28.99 10.9,-5.51 23.3,-6.51 40.4,-12.5 -13.5,-10.61 -19.4,-30.51 -14,-47.11 5.4,-16.6 21.8,-28.7 44.1,-27.7 -8.6,-12.2 -8.8,-30.19 -0.3,-42.6 8.5,-12.4 24.9,-18.2 38.9,-13.8 -5.2,-17.7 7,-37 23.1,-44.9 16.1,-7.9 36.4,-7.2 54.2,-5.4 0.4,11.5 1.4,19.6 2.6,40.4" /><path
         id="path330"
         style="fill:#f6857d;fill-opacity:1;fill-rule:nonzero;stroke:none"
         d="m 5484.7,1244 c 277.6,-53.3 754.4,-9.6 849,58.9 67.2,48.7 102.9,716.5 63.1,805.5 -21.1,47.2 -42.5,91.7 -111.5,131 -77.4,44.1 -139.7,-121.8 -152.8,-213.1 -26.3,-183.2 -19.4,-326.7 -19,-503.2 -196,-69.4 -408.1,-97 -615.3,-97 2.7,-34.9 -13,-147.6 -13.5,-182.1" /><path
         id="path332"
         style="fill:#f6857d;fill-opacity:1;fill-rule:nonzero;stroke:none"
         d="m 5424.9,2219.8 c -32,63.7 -83,131.3 -93.7,178.1 -9.7,42.3 23.3,171.5 49.2,194.7 31,27.8 171.6,24.8 169.8,-4 -1,-15.5 -16.1,-26.2 -31.1,-27.9 -15,-1.7 -79.1,-14.4 -87.2,-17.5 -9.1,-3.5 -15.4,-21.8 -17.5,-61.3 48.3,37 65.2,55.7 95.9,52.1 18.4,-2.2 33,-19.3 31.6,-44.2 7.2,8.7 28.7,9.1 38.3,3.5 20.4,-12 24.5,-30.3 21.5,-53.6 34.7,16.1 36.2,-23.6 37.9,-53.1 1.7,-29.5 0.6,-59.3 -4.5,-88.4 -3.1,-17.8 -15.3,-30.8 -27.5,-25.7 -18.5,7.6 -21.4,49.4 -23.9,75.2 -6.2,-1.8 -22.5,-14 -24.6,-23.6 33.3,-35 58.4,-97.4 33.7,-153.5 -78.8,-28.7 -132,-22.4 -167.9,49.2" /><path
         id="path334"
         style="fill:none;stroke:#a62b4b;stroke-width:10;stroke-linecap:round;stroke-linejoin:miter;stroke-miterlimit:10;stroke-dasharray:none;stroke-opacity:1"
         d="m 5536,2486 c -27.3,-14.7 -53.1,-32.3 -76.6,-52.5" /><path
         id="path336"
         style="fill:none;stroke:#a62b4b;stroke-width:10;stroke-linecap:round;stroke-linejoin:miter;stroke-miterlimit:10;stroke-dasharray:none;stroke-opacity:1"
         d="m 5594.7,2438.4 c -25.6,-13.3 -48.9,-31 -68.6,-52" /><path
         id="path338"
         style="fill:#f6857d;fill-opacity:1;fill-rule:nonzero;stroke:none"
         d="m 5598.2,2189.9 c -23.1,-208.7 -46.2,-417.3 -69.3,-625.9 -0.2,-2.2 -0.5,-4.4 -0.8,-6.7 -7.9,-69.6 -22.3,-146.6 -80.6,-184.5 -58.4,-38.1 -167.6,-41.3 -204.1,56.9 -1.5,3.9 -2.7,8 -3.9,12.2 -22.7,81.7 11.9,209.6 58.6,307.6 64.4,134.9 115.4,324.2 138,471.9 51.6,-5.5 103.4,-11.1 162.1,-31.5" /><path
         id="path340"
         style="fill:#ec696a;fill-opacity:1;fill-rule:nonzero;stroke:none"
         d="m 5528,1557.3 c -7.9,-69.6 -22.3,-146.6 -80.6,-184.5 -58.4,-38.1 -167.6,-41.3 -204.1,56.9 -1.5,3.9 -2.7,8 -3.9,12.2 0.8,-0.8 1.8,-1.7 2.6,-2.4 28.6,-25.1 66.3,-41.7 104.4,-39 38.5,2.6 73.4,24.2 101.8,50.4 33.3,30.4 59.1,66.7 79.8,106.4" /><path
         id="path342"
         style="fill:#ec4f61;fill-opacity:1;fill-rule:nonzero;stroke:none"
         d="m 5414.1,2835.1 c -20.3,-40.4 11.8,-94.8 71.8,-121.5 60,-26.7 125.1,-15.5 145.4,24.9 20.3,40.4 -11.8,94.8 -71.8,121.5 -59.9,26.7 -125,15.5 -145.4,-24.9" /><path
         id="path344"
         style="fill:#f6857d;fill-opacity:1;fill-rule:nonzero;stroke:none"
         d="m 5522.8,2841.2 c 3.5,-214.8 97.9,-383.6 257.7,-393.2 186.2,-11.1 414.6,147 447.5,400.4 27.7,213 -149.89,389.8 -349.8,386.9 -199.8,-2.8 -358.9,-179.3 -355.4,-394.1" /><path
         id="path346"
         style="fill:#ec4f61;fill-opacity:1;fill-rule:nonzero;stroke:none"
         d="m 6144.3,2891 c -152.3,-3.1 -304,75.1 -388.8,200.2 -96.6,-55.7 -178.1,-137.3 -233.7,-234 2.3,103.5 40,206 105.3,286.3 16.2,19.9 34.8,39 58.5,48.9 23.1,9.6 48.9,9.5 73.9,9 110.6,-2.4 221,-11.5 330.5,-27.1 8.6,-1.2 17.5,-2.6 24.5,-7.8 11.1,-8.3 13.7,-23.6 15.4,-37.3 9.1,-74.2 15.9,-148.6 14.4,-238.2" /><path
         id="path348"
         style="fill:none;stroke:#a62b4b;stroke-width:10;stroke-linecap:round;stroke-linejoin:miter;stroke-miterlimit:10;stroke-dasharray:none;stroke-opacity:1"
         d="m 5679.6,2786.8 c -14.1,-27.3 -14.5,-61.2 -1,-88.8" /><path
         id="path350"
         style="fill:none;stroke:#a62b4b;stroke-width:10;stroke-linecap:round;stroke-linejoin:miter;stroke-miterlimit:10;stroke-dasharray:none;stroke-opacity:1"
         d="m 5721.9,2617.4 c 39.1,14.3 85.7,5.7 117.3,-21.5" /><path
         id="path352"
         style="fill:#1f2940;fill-opacity:1;fill-rule:nonzero;stroke:none"
         d="m 5613.7,2788.7 c 9.3,-0.7 16.2,9.3 17.5,25.3 1.3,16 -3.9,26.8 -13.2,27.5 -9.3,0.7 -16.2,-9.3 -17.5,-25.3 -1.3,-16.1 3.9,-26.9 13.2,-27.5" /><path
         id="path354"
         style="fill:#1f2940;fill-opacity:1;fill-rule:nonzero;stroke:none"
         d="m 5853,2773.9 c 9.3,-0.7 16.2,9.3 17.5,25.3 1.3,16 -3.9,26.8 -13.2,27.5 -9.3,0.7 -16.2,-9.3 -17.5,-25.3 -1.3,-16 3.9,-26.8 13.2,-27.5" /><path
         id="path356"
         style="fill:none;stroke:#272860;stroke-width:10;stroke-linecap:round;stroke-linejoin:miter;stroke-miterlimit:10;stroke-dasharray:none;stroke-opacity:1"
         d="m 5565,2907.6 c 35.3,-9.9 82.9,6.3 101.8,32.1" /><path
         id="path358"
         style="fill:none;stroke:#272860;stroke-width:10;stroke-linecap:round;stroke-linejoin:miter;stroke-miterlimit:10;stroke-dasharray:none;stroke-opacity:1"
         d="m 5828.5,2935.1 c 39.1,13.8 86.3,0.8 112.7,-31.2" /><path
         id="path360"
         style="fill:#1d2046;fill-opacity:1;fill-rule:nonzero;stroke:none"
         d="m 6258,2751.4 c -35,-38.6 -39.6,-34.4 -80.6,-56.9 -23.6,63.4 -44.6,118.5 -67.4,180 -164.2,31.1 -257,136 -346.8,270.8 -105.8,-65 -199.5,-159.4 -240.5,-313.4 -37.7,62.4 -54.5,133.8 -54.7,206.4 -0.1,29.8 2.7,59.8 7.8,89.4 6.91,38.9 18.7,77.5 40.2,110.6 21.6,33 53.5,60.5 91.4,71.2 61.2,17.5 125.4,4.3 183.3,-22 85.4,30.4 174.8,34.3 261.6,9.6 29,-8.2 57.5,-20.3 84.1,-35.9 53.4,-30.7 99.4,-75.3 126.4,-128.9 52.1,-103 27.3,-263.1 -4.8,-380.9" /><path
         id="path362"
         style="fill:#2a346e;fill-opacity:1;fill-rule:nonzero;stroke:none"
         d="m 6136.6,3261.2 c -110.3,32.5 -232.2,25.7 -337.5,-20.7 -86.1,28.4 -184.4,-6.2 -248.4,-70.4 -36.9,-37.2 -63.81,-82.8 -82.6,-131.8 -0.1,29.8 2.7,59.8 7.8,89.4 6.9,38.9 18.7,77.5 40.2,110.6 21.6,33 53.5,60.5 91.4,71.2 61.2,17.5 125.4,4.3 183.3,-22 85.4,30.4 174.8,34.3 261.6,9.6 29,-8.2 57.5,-20.4 84.2,-35.9" /><path
         id="path364"
         style="fill:#f6857d;fill-opacity:1;fill-rule:nonzero;stroke:none"
         d="m 6331.2,2732.8 c 13.2,-42.4 -26.4,-88.1 -88.4,-102.1 -62,-14 -123,9 -136.2,51.4 -13.2,42.4 26.4,88.1 88.4,102.1 62,14.1 123,-9 136.2,-51.4" /></g></g></svg>