<?xml version="1.0" encoding="UTF-8" standalone="no"?>
<svg
   xmlns:dc="http://purl.org/dc/elements/1.1/"
   xmlns:cc="http://creativecommons.org/ns#"
   xmlns:rdf="http://www.w3.org/1999/02/22-rdf-syntax-ns#"
   xmlns:svg="http://www.w3.org/2000/svg"
   xmlns="http://www.w3.org/2000/svg"
   viewBox="0 0 3670.6667 2666.6667"
   height="2666.6667"
   width="3670.6667"
   xml:space="preserve"
   id="svg2"
   version="1.1"><metadata
     id="metadata8"><rdf:RDF><cc:Work
         rdf:about=""><dc:format>image/svg+xml</dc:format><dc:type
           rdf:resource="http://purl.org/dc/dcmitype/StillImage" /></cc:Work></rdf:RDF></metadata><defs
     id="defs6" /><g
     transform="matrix(1.3333333,0,0,-1.3333333,0,2666.6667)"
     id="g10"><g
       transform="scale(0.1)"
       id="g12"><g
         transform="scale(1.68896)"
         id="g14"><path
           id="path16"
           style="fill:#ffffff;fill-opacity:1;fill-rule:nonzero;stroke:none"
           d="M 16300,0 H 0 V 11841.6 H 16300 V 0" /></g><g
         transform="scale(1.68528)"
         id="g18"><path
           id="path20"
           style="fill:#f5f9fe;fill-opacity:1;fill-rule:nonzero;stroke:none"
           d="M 15179.9,765.692 H 1665.98 C 1625.15,788.18 -760.736,2111.35 971.361,3332.75 c 1181.209,833.04 331.289,1437.92 202.809,1819.23 -147.5,437.85 -453.185,2556.7 1128.72,2804.34 3076.41,481.62 521.75,2872.08 3319.23,3358.28 631.4,109.7 1317.75,167.2 1990.46,167.2 2084.05,0 4036.02,-552.1 3808.92,-1813.31 -216.7,-1203.1 1394.3,-712.98 2407.2,-1162.66 1551.4,-688.71 -47.8,-2810.56 959.3,-3424.11 935.6,-570 1512,-3381.64 391.9,-4316.028" /></g><g
         transform="scale(1.4339)"
         id="g22"><path
           id="path24"
           style="fill:#256653;fill-opacity:1;fill-rule:nonzero;stroke:none"
           d="m 16066.2,9287.41 c 0,0 -260,-566.05 -434.9,-805.16 -175,-239.11 -341.7,-467.75 -481.2,-1131.4 -139.7,-663.64 -115.7,-730.31 -154,-901.73 -38.2,-171.42 -286.8,-865.89 -288.3,-993.24 -1.4,-127.34 -502.5,-852.29 -630.9,-1191.64 -128.3,-339.29 -355.7,-823.98 -342.9,-1070.72 l 57.1,14.51 c 0,0 46.5,575.35 442.6,1156.84 396.2,581.49 339.5,691.26 789.4,990.03 449.9,298.69 740.4,1123.86 740.4,1123.86 0,0 457.6,896.32 436.4,1362.26 -21.3,465.94 100.1,886.15 -133.7,1446.39" /></g><g
         transform="scale(1.35977)"
         id="g26"><path
           id="path28"
           style="fill:#256653;fill-opacity:1;fill-rule:nonzero;stroke:none"
           d="m 16300,10711.8 c 0,0 -16,-392.1 -142.4,-625.1 -126.5,-232.89 -235.5,-374.36 -258.4,-626.37 -22.9,-252.01 -102.4,-901.73 -455.1,-1218.92 -352.7,-317.18 -397.7,-1267.6 -666.2,-1555.07 -268.4,-287.55 -303.5,-494.2 -253.9,-987.3 49.5,-493.1 217.9,-1176.45 -171.5,-2068.43 l -88,221.87 c 0,0 278.6,733.8 211.2,1163.51 -67.5,429.63 -302.2,1078.92 -216.3,1390.3 85.9,311.38 -233.5,372.19 -41.1,843.16 192.3,470.95 113.3,634.58 375.2,1041.78 0,0 26.8,19.07 95.6,363.58 68.9,344.53 623.9,975.99 879.7,1191.47 255.7,215.52 624.3,560.82 731.2,865.52" /></g><g
         transform="scale(1.31775)"
         id="g30"><path
           id="path32"
           style="fill:#3c8f7c;fill-opacity:1;fill-rule:nonzero;stroke:none"
           d="m 15744.8,9050.05 c 0,0 -316.1,-541.1 -320.5,-889.37 -4.5,-348.27 33.2,-631.58 -126.7,-1108.45 -159.9,-476.95 157.5,-778.45 66,-1041.78 -91.5,-263.32 -98.5,-575.07 -95.8,-811.45 2.8,-236.47 -362,-1018.86 -417.5,-1414.99 -55.5,-396.2 15.4,-397.49 15.4,-397.49 0,0 60.5,523.01 144.5,695.95 83.9,172.95 339.1,769.27 398.7,999.97 59.6,230.69 221.2,378.74 360.7,769.41 139.4,390.74 337.6,719.78 322.5,1274.21 -15.2,554.37 207.9,1139.52 -347.3,1923.99" /></g><g
         transform="scale(1.46363)"
         id="g34"><path
           id="path36"
           style="fill:#3c8f7c;fill-opacity:1;fill-rule:nonzero;stroke:none"
           d="m 13573.2,3375.85 c 0,0 132.6,618.25 692.1,680.02 559.6,61.7 888.3,-48.92 1283.6,402.77 395.3,451.75 624.8,1168.53 751.1,1291.92 0,0 -198.6,102.21 -528.8,-206.47 -330.2,-308.69 -562.1,-542.9 -753.3,-722.59 -191.1,-179.76 -346.3,-62.58 -548.1,-181.06 -169.2,-99.27 -387.9,-386.3 -484.2,-536.61 -31.3,-48.85 -68.4,-93.67 -111.1,-132.96 -38.7,-35.8 -84.9,-79.66 -114.5,-111.91 -59.2,-64.56 -230.1,-485.37 -230.1,-485.37 l 43.3,2.26" /></g><g
         transform="scale(1.21878)"
         id="g38"><path
           id="path40"
           style="fill:#3c8f7c;fill-opacity:1;fill-rule:nonzero;stroke:none"
           d="m 16063.1,4185.01 c 0,0 236.9,908.04 78.2,1352.42 -158.6,444.3 -655.1,773.15 -635.2,1052.28 19.9,279.13 338.8,1033.58 78.8,1595.2 0,0 -98.7,-500.99 -196.1,-612.42 -97.5,-111.5 -766.1,-560.88 -647.6,-1154.51 118.5,-593.55 768.6,-732.29 928.7,-907.05 160,-174.69 376.2,-174.52 377.6,-290.71 1.3,-116.18 43.5,-538.65 -28.3,-955.54 l 43.9,-79.67" /></g><g
         transform="scale(1.27686)"
         id="g42"><path
           id="path44"
           style="fill:#327f6b;fill-opacity:1;fill-rule:nonzero;stroke:none"
           d="m 15579.6,4574.66 317.6,914.75 c 0,0 186.6,735.79 294.6,1349.33 108.2,613.53 57.3,2501.17 57.3,2501.17 0,0 -326.2,-558.43 -330.8,-917.86 -4.6,-359.43 34.3,-651.81 -130.7,-1143.95 -165,-492.23 162.5,-803.38 68,-1075.14 -94.3,-271.76 -101.6,-593.49 -98.8,-837.45 2.9,-244.04 -373.6,-1051.49 -430.9,-1460.3 -31.3,-223.99 -23.6,-325.57 -10.1,-371.69 -50.9,357.59 263.8,1041.14 263.8,1041.14" /></g><g
         transform="scale(1.46363)"
         id="g46"><path
           id="path48"
           style="fill:#327f6b;fill-opacity:1;fill-rule:nonzero;stroke:none"
           d="m 14956.1,4466.29 c -247.1,-49.33 -468.1,-32.53 -761.5,-250.89 -293.4,-218.36 -465.9,-451.54 -465.9,-451.54 0,0 -131.8,-235.65 -186.4,-359.93 -7.8,-18.99 -12.4,-30.34 -12.4,-30.34 l 43.3,2.26 c 0,0 132.6,618.25 692.1,680.02 559.6,61.7 888.3,-48.92 1283.6,402.77 395.3,451.75 624.8,1168.53 751.1,1291.92 0,0 -420.4,-327.07 -680.2,-616.55 -259.8,-289.42 -416.5,-618.32 -663.7,-667.72" /></g><g
         transform="scale(1.2086)"
         id="g50"><path
           id="path52"
           style="fill:#327f6b;fill-opacity:1;fill-rule:nonzero;stroke:none"
           d="m 15518.4,7636.26 c -98.3,-112.44 -772.6,-565.61 -653,-1164.23 119.4,-598.55 775,-738.46 936.4,-914.7 161.4,-176.15 379.5,-175.98 380.8,-293.14 1.4,-117.17 43.9,-543.19 -28.5,-963.6 l 19.4,-35.08 c 35.3,164.07 84.4,413.95 100.4,603.67 26.1,308.04 -23.8,435.63 -122.8,685.17 -99.1,249.63 -714.4,757.99 -868.6,1025.24 -154.2,267.33 297.3,714.05 397.5,929.75 100.2,215.71 36.2,744.5 36.2,744.5 0,0 -99.6,-505.21 -197.8,-617.58" /></g><g
         transform="scale(1.35894)"
         id="g54"><path
           id="path56"
           style="fill:#50bfa5;fill-opacity:1;fill-rule:nonzero;stroke:none"
           d="m 15224.2,4146.82 93.6,226.43 c 72.7,166.52 258.7,246 415.4,177.56 395.1,-172.41 566.8,-652.34 383.6,-1072.01 l -133.9,-306.78 c -58.6,-134.37 -38.2,-282.28 40.9,-386.47 71.9,-94.71 83.6,-226.36 33.7,-340.49 l -70.5,-161.74 c -76.5,-175.07 -225.2,-304.8 -401.6,-358.3 -103.2,-31.27 -194.3,-108.68 -242.5,-219.06 l -99.9,-229 c -110.5,-253.14 -393.3,-374.04 -631.7,-270.07 l -136,59.39 c -238.3,104.05 -341.9,393.61 -231.4,646.82 178.8,302.74 164.5,528.65 101.1,681.93 -93.1,225.32 -92,484.57 8.8,715.33 l 14.1,32.38 c 106.3,243.57 311.7,425.4 556.1,503.26 108,34.36 220.5,118.33 300.2,300.82" /></g><g
         transform="scale(1.58981)"
         id="g58"><path
           id="path60"
           style="fill:#96d9c9;fill-opacity:1;fill-rule:nonzero;stroke:none"
           d="m 11571.6,811.671 c 163.8,212.479 1062.4,1350.599 1648.2,1540.309 646.8,209.33 37.2,-622.21 37.2,-622.21 0,0 1147.2,1254.49 1568.3,1141.39 385.9,-103.66 0,-881.24 0,-881.24 0,0 434.6,430.62 961.7,430.62 513,0 -358.4,-1527.098 -405.4,-1608.869 h -3810" /></g><g
         transform="scale(1.50478)"
         id="g62"><path
           id="path64"
           style="fill:#3c8f7c;fill-opacity:1;fill-rule:nonzero;stroke:none"
           d="M 15878.2,3458.85 C 15383,2685.38 15021.5,1826.18 14814.9,913.423 l -33.9,9.104 c 205.7,893.683 564.8,1751.353 1059.1,2523.953 114.9,179.5 239,392.55 454.2,462.6 4.1,1.33 5.7,-4.99 1.7,-6.45 -196.5,-74.03 -310.3,-275.92 -417.8,-443.78" /></g><g
         transform="scale(1.56748)"
         id="g66"><path
           id="path68"
           style="fill:#3c8f7c;fill-opacity:1;fill-rule:nonzero;stroke:none"
           d="m 14336.9,846.133 c 531.3,722.427 1177.1,1390.187 1945,1970.867 7.8,5.8 18.1,-7.59 10.4,-13.53 -728.4,-559.87 -1372.8,-1221 -1915.1,-1968.12 l -40.3,10.783" /></g><g
         transform="scale(1.48644)"
         id="g70"><path
           id="path72"
           style="fill:#3c8f7c;fill-opacity:1;fill-rule:nonzero;stroke:none"
           d="m 16119.9,3987.04 c 12.9,-18.97 62.3,-68.49 76.8,-133.47 19.5,-61.69 4.1,-138.93 2.5,-136.24 -3.7,-1.54 57.1,49.92 76.2,131.79 24.6,78.58 7.4,187.5 -23.3,223.56 -52.9,81.6 -145.3,89.88 -163.3,50.32 -19,-39.29 5.1,-92.77 31.1,-135.96" /></g><g
         transform="scale(1.49693)"
         id="g74"><path
           id="path76"
           style="fill:#3c8f7c;fill-opacity:1;fill-rule:nonzero;stroke:none"
           d="m 16126,3265.14 c -18.5,13.17 -66.8,63.2 -131,78.9 -60.9,20.51 -137.8,6.74 -135.2,5.07 -1.6,-3.67 50.7,55.79 132.4,73.02 78.4,22.92 186.2,3.68 221.4,-27.45 80,-54.11 86.4,-146.04 46.8,-163.07 -39.4,-18.1 -92,6.88 -134.4,33.53" /></g><g
         transform="scale(1.48043)"
         id="g78"><path
           id="path80"
           style="fill:#3c8f7c;fill-opacity:1;fill-rule:nonzero;stroke:none"
           d="m 16124,2994 c -18.7,13.3 -67.4,63.9 -132.4,79.7 -61.6,20.81 -139.4,6.89 -136.7,5.21 -1.7,-3.72 51.2,56.4 133.8,73.83 79.3,23.16 188.4,3.71 224,-27.77 80.8,-54.71 87.3,-147.66 47.2,-164.88 -39.8,-18.38 -93,6.95 -135.9,33.91" /></g><g
         transform="scale(1.5393)"
         id="g82"><path
           id="path84"
           style="fill:#3c8f7c;fill-opacity:1;fill-rule:nonzero;stroke:none"
           d="m 16130.8,2193.33 c -18,12.87 -64.9,61.53 -127.4,76.73 -59.2,20.01 -134.1,6.62 -131.5,5 -1.5,-3.57 49.3,54.24 128.7,71.01 76.3,22.28 181.2,3.57 215.4,-26.71 77.8,-52.61 84,-142.01 45.5,-158.57 -38.4,-17.67 -89.5,6.69 -130.7,32.54" /></g><g
         transform="scale(1.56938)"
         id="g86"><path
           id="path88"
           style="fill:#3c8f7c;fill-opacity:1;fill-rule:nonzero;stroke:none"
           d="m 16134.1,2426.56 c -17.7,12.56 -63.7,60.28 -125,75.26 -58.1,19.62 -131.5,6.43 -129,4.84 -1.5,-3.51 48.4,53.21 126.3,69.71 74.8,21.79 177.6,3.44 211.2,-26.19 76.3,-51.62 82.4,-139.29 44.6,-155.6 -37.6,-17.27 -87.7,6.56 -128.1,31.98" /></g><g
         transform="scale(1.46399)"
         id="g90"><path
           id="path92"
           style="fill:#3c8f7c;fill-opacity:1;fill-rule:nonzero;stroke:none"
           d="m 16110,3696.26 c 16,-16.94 73.4,-58.67 98.3,-121.59 29.5,-58.67 26.4,-138.59 24.3,-136.13 -3.5,-2.19 49.3,59.22 55.3,144.33 12.1,82.72 -22.6,189.14 -59.1,220.42 -66.1,73.37 -160.1,66.81 -171.8,24.32 -12.7,-42.48 20,-92.21 53,-131.35" /></g><g
         transform="scale(1.44509)"
         id="g94"><path
           id="path96"
           style="fill:#3c8f7c;fill-opacity:1;fill-rule:nonzero;stroke:none"
           d="m 16046.9,3387.34 c 23.1,-12.25 103.6,-34.39 144.1,-94.66 45.8,-53.56 51.6,-145.25 48.6,-143.39 -4.3,-3.94 57.4,88.44 54.7,187.33 5.7,98.75 -53,204 -104.7,223.45 -95.7,54.18 -218.2,5.88 -228.2,-47.34 -11.6,-53.56 37.6,-95.49 85.5,-125.39" /></g><g
         transform="scale(1.42118)"
         id="g98"><path
           id="path100"
           style="fill:#3c8f7c;fill-opacity:1;fill-rule:nonzero;stroke:none"
           d="m 16023.9,2894 c 25.2,-8.31 109.6,-16.75 160.5,-70.23 55.1,-45.87 76.6,-136.79 73.2,-135.45 -3.6,-4.64 42.4,98.44 22.8,197.09 -11.1,99.99 -87.9,195.47 -143.1,206.17 -105.2,37.85 -219.7,-31.46 -220.6,-86.48 -2.5,-55.66 53.9,-89.36 107.2,-111.1" /></g><g
         transform="scale(1.49119)"
         id="g102"><path
           id="path104"
           style="fill:#3c8f7c;fill-opacity:1;fill-rule:nonzero;stroke:none"
           d="m 16097.9,2392.79 c 17.5,-10.93 79.7,-32.79 108.3,-82.55 33.1,-44.73 32.6,-117.36 30.4,-115.68 -3.7,-2.89 50.1,66.52 53.4,144.58 10,77.52 -30.4,163.76 -70.1,182 -72.5,47.95 -171.7,16.63 -182.6,-24.74 -12,-41.58 24.4,-77.39 60.6,-103.61" /></g><g
         transform="scale(1.52146)"
         id="g106"><path
           id="path108"
           style="fill:#3c8f7c;fill-opacity:1;fill-rule:nonzero;stroke:none"
           d="m 16199.2,3774.93 c -10.2,8.48 -36.1,39.7 -72.8,51.59 -34.6,14.59 -80,9.86 -78.5,8.74 -1.1,-2.03 31.8,30.3 80.2,36.81 46.6,9.99 108.5,-5.85 127.7,-25.5 44.2,-34.9 43.9,-88.67 20.1,-96.88 -23.6,-8.88 -53.2,7.95 -76.7,25.24" /></g><g
         transform="scale(1.51177)"
         id="g110"><path
           id="path112"
           style="fill:#3c8f7c;fill-opacity:1;fill-rule:nonzero;stroke:none"
           d="m 16204.3,4019.01 c 0.4,-13.43 9.4,-53.19 -3.7,-89.77 -9.6,-36.51 -41.2,-69.78 -41.2,-68 -2.3,0.4 43.7,6.88 78.6,41.35 36.6,31.02 62,90.16 58.1,117.48 -0.7,56.68 -43.7,89.56 -64.8,75.6 -21.7,-13.43 -26.4,-47.3 -27,-76.66" /></g><g
         transform="scale(1.58447)"
         id="g114"><path
           id="path116"
           style="fill:#3c8f7c;fill-opacity:1;fill-rule:nonzero;stroke:none"
           d="m 16203.3,2681.14 c -9.9,8.08 -34.8,38.06 -70,49.49 -33.2,14.01 -76.8,9.46 -75.4,8.45 -1.1,-2.02 30.6,29.03 77,35.35 44.8,9.53 104.3,-5.68 122.6,-24.49 42.5,-33.58 42.2,-85.2 19.4,-93.09 -22.7,-8.52 -51.1,7.63 -73.6,24.29" /></g><g
         transform="scale(1.57306)"
         id="g118"><path
           id="path120"
           style="fill:#3c8f7c;fill-opacity:1;fill-rule:nonzero;stroke:none"
           d="m 16206.2,2913.69 c 1.6,-12.77 13.3,-50.22 3.6,-86.26 -6.4,-35.73 -34,-70.12 -34.1,-68.34 -2.3,0.19 41.3,9.98 72,45.71 32.6,32.67 52.3,91.22 46.5,117.09 -5.1,54.29 -48.9,82.39 -68.1,67.39 -19.7,-14.62 -21.5,-47.43 -19.9,-75.59" /></g><g
         transform="scale(1.55656)"
         id="g122"><path
           id="path124"
           style="fill:#3c8f7c;fill-opacity:1;fill-rule:nonzero;stroke:none"
           d="m 16297.4,1552.91 c -488.8,-53.58 -944.1,-269.37 -1382.4,-479.77 -295.6,-141.919 -280.7,-182.327 -340.9,-203.465 -9.7,-3.403 -19.5,7.197 -14.7,16.575 23.1,45.872 83.9,76.903 126.1,103.306 49.2,30.704 100.6,57.884 152.7,83.194 111.6,54.16 226,102.86 339.7,152.26 231.4,100.54 466.5,195.11 710.9,259.1 134,35.07 270.3,60.39 408.3,72.79 2.6,0.25 2.9,-3.67 0.3,-3.99" /></g><g
         transform="scale(1.52847)"
         id="g126"><path
           id="path128"
           style="fill:#3c8f7c;fill-opacity:1;fill-rule:nonzero;stroke:none"
           d="m 16148.3,1735.86 c 3.2,-20.48 24.5,-79.75 11.4,-138.31 -7.8,-57.77 -50,-114.82 -50.3,-112.01 -3.6,0.2 65.8,18.78 112.7,78.25 50.2,54.57 77.9,149.95 66.8,191.11 -11.8,86.82 -84,129.01 -113.8,103.63 -30.6,-24.73 -31.4,-77.53 -26.8,-122.67" /></g><g
         transform="scale(1.48734)"
         id="g130"><path
           id="path132"
           style="fill:#3c8f7c;fill-opacity:1;fill-rule:nonzero;stroke:none"
           d="m 16144,1622.42 c 3.4,-20.98 25.2,-81.89 11.7,-142.13 -8,-59.37 -51.3,-118 -51.6,-115.04 -3.7,0.21 67.5,19.3 115.8,80.35 51.6,56.07 80.1,154.16 68.7,196.46 -12.2,89.21 -86.4,132.58 -117,106.49 -31.4,-25.41 -32.3,-79.74 -27.6,-126.13" /></g><g
         transform="scale(1.44555)"
         id="g134"><path
           id="path136"
           style="fill:#3c8f7c;fill-opacity:1;fill-rule:nonzero;stroke:none"
           d="m 16139.6,1459.3 c 3.4,-21.58 25.8,-84.25 12,-146.24 -8.2,-61.08 -52.8,-121.4 -53.1,-118.36 -3.9,0.14 69.5,19.85 119.1,82.67 53.1,57.69 82.4,158.62 70.6,202.13 -12.4,91.73 -88.8,136.42 -120.3,109.58 -32.3,-26.15 -33.2,-82.04 -28.3,-129.78" /></g><g
         transform="scale(1.54096)"
         id="g138"><path
           id="path140"
           style="fill:#3c8f7c;fill-opacity:1;fill-rule:nonzero;stroke:none"
           d="m 16147.2,1315.29 c -8.9,16.74 -26.2,71.83 -68.2,107.4 -37.7,37.96 -100.1,56.26 -98.7,54.06 -2.6,-2.15 58.4,22.64 125.6,5.19 66.9,-12.07 140,-66.46 154.7,-102.73 39.4,-69.96 10,-140.76 -25.8,-138.75 -36,1.11 -66,39.33 -87.6,74.83" /></g><g
         transform="scale(1.49818)"
         id="g142"><path
           id="path144"
           style="fill:#3c8f7c;fill-opacity:1;fill-rule:nonzero;stroke:none"
           d="m 16142.9,1188.11 c -9.2,17.22 -27,73.89 -70.2,110.47 -38.8,39.04 -103,57.87 -101.6,55.6 -2.6,-2.2 60.2,23.29 129.3,5.34 68.8,-12.42 144,-68.35 159.1,-105.66 40.5,-71.96 10.3,-144.78 -26.6,-142.71 -37,1.14 -67.7,40.45 -90,76.96" /></g><g
         transform="scale(1.56824)"
         id="g146"><path
           id="path148"
           style="fill:#3c8f7c;fill-opacity:1;fill-rule:nonzero;stroke:none"
           d="m 16204.9,1454.44 c -7.6,9.18 -25.5,40.93 -56,57.38 -28.1,18.56 -69,21.75 -67.9,20.54 -1.3,-1.66 33.1,21.55 76.8,19.51 42.9,1.21 95,-22.83 108.8,-43.3 33.4,-38.07 24.5,-85.57 2.1,-88.95 -22.4,-4.02 -45.8,15.69 -63.8,34.82" /></g><g
         transform="scale(1.56276)"
         id="g150"><path
           id="path152"
           style="fill:#3c8f7c;fill-opacity:1;fill-rule:nonzero;stroke:none"
           d="m 16210.3,1669.29 c -1.8,-11.84 -0.3,-48.38 -17.8,-78.52 -14.4,-30.58 -47.7,-54.83 -47.4,-53.17 -1.9,0.7 39.7,-1.09 76,23.61 37.3,21.44 69.3,69.43 70.3,94.13 8.6,50.1 -24,86.07 -44.9,77.17 -21.2,-8.32 -30.9,-37.43 -36.2,-63.22" /></g><path
         id="path154"
         style="fill:#3c8f7c;fill-opacity:1;fill-rule:nonzero;stroke:none"
         d="M 5734.97,7069.6 C 4840.84,7866.9 4381.09,9011.8 4152.86,9832 c -247.77,890.3 -283.86,1600.9 -284.2,1608 l -48.6,3 c 0.34,-7.2 36.59,-723 285.86,-1619.3 230.35,-828.2 694.94,-1984.9 1600.15,-2792 l 28.9,37.9" /><path
         id="path156"
         style="fill:#3c8f7c;fill-opacity:1;fill-rule:nonzero;stroke:none"
         d="m 3970.5,11646.1 c 44.07,-205 7.18,-398.7 -86.78,-538.5 -147.33,108.5 -263.19,282.2 -307.26,487.2 -44.06,205 -7.17,398.7 86.79,538.5 147.33,-108.4 263.19,-282.2 307.25,-487.2" /><path
         id="path158"
         style="fill:#3c8f7c;fill-opacity:1;fill-rule:nonzero;stroke:none"
         d="m 3696.26,11062.3 c 154.05,-143.3 244.1,-331.6 261.55,-512.9 -169.11,-7.6 -355.17,61 -509.22,204.3 -154.05,143.4 -244.1,331.6 -261.55,512.9 169.11,7.7 355.17,-61 509.22,-204.3" /><path
         id="path160"
         style="fill:#3c8f7c;fill-opacity:1;fill-rule:nonzero;stroke:none"
         d="m 3623.98,10449 c 191.44,-60.1 348.45,-193.4 441.37,-355.3 -138.94,-89.3 -325.07,-114.9 -516.51,-54.9 -191.45,60.1 -348.45,193.4 -441.37,355.4 138.94,89.2 325.06,114.9 516.51,54.8" /><path
         id="path162"
         style="fill:#3c8f7c;fill-opacity:1;fill-rule:nonzero;stroke:none"
         d="m 3918.82,9711.2 c 151.64,-47.9 272.89,-170.2 341.57,-324.7 -114.97,-96.6 -265.52,-133.2 -417.17,-85.4 -151.64,47.9 -272.89,170.2 -341.58,324.7 114.97,96.6 265.53,133.2 417.18,85.4" /><path
         id="path164"
         style="fill:#3c8f7c;fill-opacity:1;fill-rule:nonzero;stroke:none"
         d="m 4177.76,10764.2 c 119.34,120.2 277.41,171.4 430.41,154.9 8.48,-161.9 -47.36,-326 -166.71,-446.2 -119.34,-120.1 -277.41,-171.3 -430.42,-154.9 -8.47,161.9 47.37,326.1 166.72,446.2" /><path
         id="path166"
         style="fill:#3c8f7c;fill-opacity:1;fill-rule:nonzero;stroke:none"
         d="m 4316.09,10235.4 c 119.35,120.2 277.42,171.4 430.42,155 8.48,-162 -47.36,-326.1 -166.71,-446.2 -119.34,-120.2 -277.41,-171.4 -430.42,-155 -8.47,162 47.37,326.1 166.71,446.2" /><path
         id="path168"
         style="fill:#50bfa5;fill-opacity:1;fill-rule:nonzero;stroke:none"
         d="m 5196.11,5988.4 c -825.68,120.3 -1532.29,609.5 -1979.66,998.7 -485.68,422.4 -779.32,821.6 -782.23,825.6 l -29.41,-16.9 c 2.94,-4 298.68,-406.2 787.51,-831.5 451.72,-393.1 1165.64,-887.2 2001.56,-1009.1 l 2.23,33.2" /><path
         id="path170"
         style="fill:#50bfa5;fill-opacity:1;fill-rule:nonzero;stroke:none"
         d="m 2414.33,7971.6 c 104.28,-102.2 157.14,-229 156.18,-346.3 -127.26,6.5 -261.3,63.1 -365.58,165.3 -104.27,102.3 -157.14,229 -156.18,346.4 127.27,-6.6 261.3,-63.1 365.58,-165.4" /><path
         id="path172"
         style="fill:#50bfa5;fill-opacity:1;fill-rule:nonzero;stroke:none"
         d="m 2478.91,7527 c 144.55,-24.2 269.13,-99 348.84,-197.7 -95.35,-69.4 -229.84,-100.9 -374.39,-76.7 -144.55,24.2 -269.14,99.1 -348.84,197.8 95.35,69.3 229.85,100.8 374.39,76.6" /><path
         id="path174"
         style="fill:#50bfa5;fill-opacity:1;fill-rule:nonzero;stroke:none"
         d="m 2672.24,7142.8 c 134.34,38.5 276.76,21.3 392.92,-37.2 -46.53,-105.2 -144.88,-191.5 -279.21,-230.1 -134.34,-38.5 -276.76,-21.3 -392.92,37.2 46.53,105.2 144.88,191.5 279.21,230.1" /><path
         id="path176"
         style="fill:#50bfa5;fill-opacity:1;fill-rule:nonzero;stroke:none"
         d="m 3126.75,6827 c 106.51,30.4 223.93,5.8 323.14,-57.6 -29.77,-100.3 -103.24,-179.4 -209.74,-209.7 -106.51,-30.4 -223.93,-5.8 -323.15,57.6 29.78,100.3 103.24,179.3 209.75,209.7" /><path
         id="path178"
         style="fill:#50bfa5;fill-opacity:1;fill-rule:nonzero;stroke:none"
         d="m 2873.2,7538.5 c 23.27,115.7 95.5,206.1 190.75,255.2 67.06,-90.8 97.58,-207.7 74.31,-323.3 -23.27,-115.6 -95.51,-206.1 -190.76,-255.2 -67.06,90.8 -97.58,207.7 -74.3,323.3" /><path
         id="path180"
         style="fill:#50bfa5;fill-opacity:1;fill-rule:nonzero;stroke:none"
         d="m 3156.51,7284.2 c 23.28,115.7 95.51,206.1 190.76,255.3 67.06,-90.9 97.57,-207.8 74.3,-323.4 -23.27,-115.6 -95.51,-206.1 -190.75,-255.2 -67.06,90.9 -97.58,207.7 -74.31,323.3" /><path
         id="path182"
         style="fill:#96d9c9;fill-opacity:1;fill-rule:nonzero;stroke:none"
         d="M 5693.29,3517.1 C 4740.84,3155.5 3692.4,3346.5 2980.58,3570.4 2207.83,3813.5 1653.75,4146.7 1648.23,4150 l -21.11,-40.3 c 5.54,-3.4 563.67,-339.2 1341.53,-584 718.8,-226.2 1778.04,-419 2742.29,-52.9 l -17.65,44.3" /><path
         id="path184"
         style="fill:#96d9c9;fill-opacity:1;fill-rule:nonzero;stroke:none"
         d="m 1531.02,4343.5 c 172.9,-67.2 305.8,-198.2 375.67,-350.9 -139.52,-71.3 -316.5,-82 -489.4,-14.9 -172.9,67.2 -305.8,198.2 -375.67,350.9 139.51,71.3 316.5,82 489.4,14.9" /><path
         id="path186"
         style="fill:#96d9c9;fill-opacity:1;fill-rule:nonzero;stroke:none"
         d="m 1868.47,3807.9 c 168.63,59.2 346.62,40.3 491.17,-37.7 -59.67,-149.6 -183.93,-274.7 -352.57,-334 -168.63,-59.2 -346.62,-40.2 -491.17,37.7 59.68,149.6 183.94,274.7 352.57,334" /><path
         id="path188"
         style="fill:#96d9c9;fill-opacity:1;fill-rule:nonzero;stroke:none"
         d="m 2306.65,3431.1 c 119.83,134.2 282.01,201.1 441.12,198.1 13.97,-165.5 -38.63,-339 -158.47,-473.1 -119.84,-134.2 -282.01,-201.1 -441.12,-198.1 -13.97,165.4 38.64,339 158.47,473.1" /><path
         id="path190"
         style="fill:#96d9c9;fill-opacity:1;fill-rule:nonzero;stroke:none"
         d="m 2919.73,3236.6 c 119.83,134.1 282.01,201 441.11,198 13.98,-165.4 -38.63,-338.9 -158.46,-473.1 -119.84,-134.1 -282.01,-201 -441.12,-198.1 -13.97,165.5 38.63,339 158.47,473.2" /><path
         id="path192"
         style="fill:#96d9c9;fill-opacity:1;fill-rule:nonzero;stroke:none"
         d="m 2342.89,3865.1 c -105.46,137.3 -152.46,302.8 -141.29,452.9 138.89,-16.2 280.89,-96.9 386.34,-234.2 105.45,-137.3 152.46,-302.8 141.28,-452.9 -138.88,16.2 -280.88,96.9 -386.33,234.2" /><path
         id="path194"
         style="fill:#96d9c9;fill-opacity:1;fill-rule:nonzero;stroke:none"
         d="m 2979.79,3665.8 c -107.43,135.7 -156.99,300.6 -148.26,451.2 138.84,-13.8 281.83,-92.1 389.27,-227.8 107.44,-135.7 157,-300.7 148.27,-451.3 -138.85,13.8 -281.84,92.1 -389.28,227.9" /><path
         id="path196"
         style="fill:#96d9c9;fill-opacity:1;fill-rule:nonzero;stroke:none"
         d="m 3725.45,3183.3 c 28.17,71.5 84.13,121.2 149.7,141.7 31.45,-66.1 36.93,-144.6 8.76,-216.1 -28.17,-71.5 -84.13,-121.2 -149.7,-141.7 -31.46,66.1 -36.92,144.6 -8.76,216.1" /><path
         id="path198"
         style="fill:#3c8f7c;fill-opacity:1;fill-rule:nonzero;stroke:none"
         d="m 7737.5,1360.2 c 0,0 1213.51,4799.4 811.09,5281.6 C 7992.47,7308.3 7533.72,5097.4 7488.71,5285.2 7063.61,7058.6 6950.38,9327.7 5579.05,9567.8 4799.51,9704.4 5759.12,7880.5 5701.38,7387.2 5643.65,6893.9 4238.83,8531.7 3385.17,9389.7 2531.5,10247.7 2090.62,9704.5 2630,8625.6 3151.58,7582.3 4838.89,6442.2 4491.08,6306.9 4143.28,6171.6 2031.76,7519 1773.19,6943 1456.15,6236.8 4623.53,5275.8 4325.27,5117.1 4027.01,4958.5 2513.19,5481 2554.55,4941 c 41.35,-540.1 2076.35,-519.9 2041.57,-757.5 -56.31,-384.6 -1402.25,486 -1461.41,-46.2 -60.51,-544.3 1770.71,-445 1738.99,-869.6 -18.23,-244 -411.16,124.1 -469.06,-213.9 -132.01,-770.5 2282,-1709.2 2282,-1709.2 l 1050.86,15.6" /><path
         id="path200"
         style="fill:#50bfa5;fill-opacity:1;fill-rule:nonzero;stroke:none"
         d="m 8662.79,1330.9 c 0,0 -1154.88,1770.7 -1710.62,2105 -592.15,356.2 -141.34,-710.3 -141.34,-710.3 0,0 -1210.06,1439.9 -1546.45,1147.4 -336.38,-292.6 -31.06,-631.4 -31.06,-631.4 0,0 -1086.36,321.9 -1281.62,-76.8 -300.03,-612.8 1488.51,-1120.9 1488.51,-1120.9 0,0 -767.79,8.2 -626.53,-405.5 213.03,-623.9 3849.11,-307.5 3849.11,-307.5" /><path
         id="path202"
         style="fill:#96d9c9;fill-opacity:1;fill-rule:nonzero;stroke:none"
         d="m 3951.7,3164.8 c 195.26,398.7 1281.62,76.8 1281.62,76.8 0,0 -305.32,338.8 31.06,631.4 336.39,292.5 1304.37,-583.2 1304.37,-583.2 0,0 -101.46,722.2 627.47,86 520.64,-454.4 1466.57,-2044.9 1466.57,-2044.9 L 3951.7,3164.8" /><path
         id="path204"
         style="fill:#96d9c9;fill-opacity:1;fill-rule:nonzero;stroke:none"
         d="m 7260.92,5776.8 51.83,35.4 c -940.28,1424 -1227.3,3114.7 -1302.52,4282.3 -81.61,1267 61.65,2208.8 63.11,2218.1 l -64.22,18.7 c -1.48,-9.5 -145.82,-957.5 -63.9,-2232.1 C 6020.9,8921.7 6310.6,7216 7260.92,5776.8" /><path
         id="path206"
         style="fill:#96d9c9;fill-opacity:1;fill-rule:nonzero;stroke:none"
         d="m 6258.44,12534.4 c 2.05,-286 -97.19,-522.5 -255.63,-664.4 -160.91,204.6 -263.83,480.8 -265.89,766.8 -2.04,286.1 97.2,522.6 255.63,664.5 160.92,-204.6 263.84,-480.8 265.89,-766.9" /><path
         id="path208"
         style="fill:#96d9c9;fill-opacity:1;fill-rule:nonzero;stroke:none"
         d="m 5749.13,11891.4 c 160.27,-252.9 226.06,-536.9 200.15,-780.6 -220.01,62.6 -441.47,231.9 -601.74,484.8 -160.27,252.9 -226.06,536.9 -200.15,780.7 220.01,-62.6 441.47,-231.9 601.74,-484.9" /><path
         id="path210"
         style="fill:#96d9c9;fill-opacity:1;fill-rule:nonzero;stroke:none"
         d="m 5492.22,11123.2 c 230.69,-160.4 397.43,-401.6 473.94,-652.5 -202.87,-56.6 -449.61,-10.2 -680.31,150.3 -230.69,160.4 -397.44,401.6 -473.95,652.5 202.89,56.6 449.62,10.2 680.32,-150.3" /><path
         id="path212"
         style="fill:#96d9c9;fill-opacity:1;fill-rule:nonzero;stroke:none"
         d="m 5793.08,9782 c 100.61,-60 177.04,-156.3 216.29,-259.7 -82.6,-30.8 -186.48,-19.5 -287.09,40.6 -100.61,60 -177.05,156.3 -216.29,259.7 82.6,30.8 186.48,19.5 287.09,-40.6" /><path
         id="path214"
         style="fill:#96d9c9;fill-opacity:1;fill-rule:nonzero;stroke:none"
         d="m 5874.86,9285.2 c 100.6,-60.1 177.04,-156.3 216.29,-259.8 -82.61,-30.7 -186.48,-19.4 -287.09,40.6 -100.61,60 -177.05,156.3 -216.29,259.8 82.6,30.7 186.48,19.4 287.09,-40.6" /><path
         id="path216"
         style="fill:#96d9c9;fill-opacity:1;fill-rule:nonzero;stroke:none"
         d="m 6290.08,11296.3 c 185.89,105.3 403.28,104.2 596.09,17.1 -32.32,-214.7 -148.11,-404.6 -334,-509.9 -185.89,-105.4 -403.27,-104.2 -596.09,-17.2 32.32,214.7 148.11,404.6 334,510" /><path
         id="path218"
         style="fill:#96d9c9;fill-opacity:1;fill-rule:nonzero;stroke:none"
         d="m 6327.19,10547.8 c 185.89,105.3 403.27,104.2 596.09,17.1 -32.32,-214.6 -148.11,-404.6 -334,-509.9 -185.89,-105.3 -403.27,-104.2 -596.09,-17.1 32.32,214.7 148.11,404.6 334,509.9" /><path
         id="path220"
         style="fill:#96d9c9;fill-opacity:1;fill-rule:nonzero;stroke:none"
         d="m 6290.32,9476.6 c 120.99,68.5 262.48,67.8 387.98,11.1 -21.04,-139.7 -96.4,-263.3 -217.39,-331.9 -120.99,-68.5 -262.49,-67.8 -387.98,-11.1 21.03,139.7 96.4,263.3 217.39,331.9" /><g
         transform="scale(1.30361)"
         id="g222"><path
           id="path224"
           style="fill:#f8a492;fill-opacity:1;fill-rule:nonzero;stroke:none"
           d="m 15003.4,4030.12 c 83.7,-13.65 78.8,-27.3 89.6,-28.76 12.7,-1.69 164,74.25 164,74.25 0,0 447.4,220.85 471.1,233.66 l 323,406.34 248.9,-114.84 c 0,0 -363.2,-431.95 -386.2,-450.98 -23,-19.02 -664.5,-244.01 -720.3,-265.72 0,0 -56.3,-51.4 -92.6,-82.46 -36.5,-30.99 -85.1,-43.35 -96.7,-50.4 -1.8,-1.08 -41.9,-22.25 -98.6,-34.6 -48.9,-10.66 -8.2,22.55 -8.2,22.55 0,0 86.6,36.52 82.3,43.11 -3.3,5.14 -49.3,-17.72 -103.2,-30.07 -13.9,-3.14 -27.6,-6.29 -40.2,-8.97 -33.1,-7.13 -47.6,11.81 -14.4,25.01 11.7,4.6 31.4,11.89 46.3,14.95 16,3.38 29.5,11.82 42.5,16.73 25.8,9.82 44.7,16.64 43.7,17.49 -1.4,1.15 2.3,6.9 -12.6,3.99 -17.8,-3.53 -53.8,-19.56 -80.5,-22.56 -15.1,-1.76 -46.5,-7.29 -46.5,-7.29 0,0 -55.5,-5.29 -55.9,2.46 -0.8,17.03 33.4,26.47 54.4,26.08 13.2,6.75 46.4,11.58 46.4,11.58 0,0 64.3,25.47 60.6,34.99 -1.5,3.75 -40.4,-2.07 -81.8,-4.92 -43.7,-2.99 -75.4,-2.99 -77.8,5.53 -3.6,13.42 31.2,18.49 31.2,18.49 0,0 30.7,4.45 40.7,6.75 11.7,2.68 46.3,13.57 46.3,13.57 0,0 118.5,43.5 114.2,52.17 -4.3,8.74 -23.9,27.08 -32.2,27 -8.4,0 -23.3,-8.36 -31.6,-8.44 -8.4,0 -26.3,1.61 -27.6,12.12 -1.3,10.51 45.1,32.22 45.1,32.22 0,0 32.3,12.89 56.6,8.97" /></g><g
         transform="scale(1.31316)"
         id="g226"><path
           id="path228"
           style="fill:#355389;fill-opacity:1;fill-rule:nonzero;stroke:none"
           d="m 15711.2,4431.45 c 0,0 80,-72.65 113.3,-96.56 27.6,-19.88 162.4,-84.83 162.4,-84.83 0,0 134.1,205.3 192.7,308.26 71.1,124.97 120.4,310.7 103.6,315.73 -47.2,14.16 -112.1,22.77 -172.1,-4.73 -207.4,-95.19 -399.9,-437.87 -399.9,-437.87" /></g><g
         transform="scale(1.20617)"
         id="g230"><path
           id="path232"
           style="fill:#fe875e;fill-opacity:1;fill-rule:nonzero;stroke:none"
           d="m 16300,4238.89 c -38.8,-6.14 -78.4,1.24 -95.6,36.73 -3.8,-42.12 59.9,-63.01 95.6,-36.73" /></g><path
         id="path234"
         style="fill:#13375b;fill-opacity:1;fill-rule:nonzero;stroke:none"
         d="m 6606.17,7004 c 6.49,157 -16.54,312.1 -86.49,458.2 -60.18,125.8 -209.09,197.2 -344.89,197.3 -431.2,0.6 -486.04,-571.6 -760.52,-792.3 -83.87,-67.4 -177.62,-122.3 -256.98,-195.1 -293.06,-268.5 -161.06,-765.6 108.03,-1001.1 186.74,-163.3 480.22,-256.2 710.36,-128.4 120.14,66.6 211.34,177.4 276.31,298.9 92.22,172.3 151.66,371.1 217.25,554.8 69.81,195.5 128.3,399 136.93,607.7" /><path
         id="path236"
         style="fill:#f7cc7f;fill-opacity:1;fill-rule:nonzero;stroke:none"
         d="m 6676.6,6243.7 c -134.69,408.6 -312.49,402.2 -312.49,402.2 l 143.66,-870 c 83.18,22.7 191.47,73.3 274.55,96.8 -27.54,129.2 -72.54,270.4 -105.72,371" /><path
         id="path238"
         style="fill:#f48c7f;fill-opacity:1;fill-rule:nonzero;stroke:none"
         d="m 7357.29,4850.2 -492.41,375.6 c 0,0 -49.53,350.5 -115.86,661.4 -83.08,-23.4 -158.07,-88.6 -241.25,-111.3 l 125.21,-696.4 645.38,-333 182.29,-234.2 41.46,240.5 -144.82,97.4" /><path
         id="path240"
         style="fill:#f47458;fill-opacity:1;fill-rule:nonzero;stroke:none"
         d="m 11845.8,5436.9 c 152.9,0 296.3,-40.3 420.4,-110.8 15.7,-8.9 32.7,-17 50.8,-24.5 378.4,-155.4 792.4,132.4 792.4,541.5 v 2011.7 h -2011.7 c -409.1,0 -696.9,414.1 -541.5,792.4 7.5,18.2 15.6,35.2 24.5,50.9 70.5,124 110.8,267.5 110.8,420.4 0,484.5 -404,874.7 -893.52,852 -442.97,-20.5 -799.7,-384.4 -812.07,-827.7 -4.4,-157.6 34.05,-305.9 104.52,-434.2 8.77,-15.9 16.83,-33.2 24.21,-51.6 154.15,-384.6 -138.26,-802.2 -552.57,-802.2 H 6567.65 V 3270.9 c 0,-1081.3 876.57,-1957.8 1957.87,-1957.8 h 4583.88 v 2005 c 0,411.1 -415.3,700.7 -796.1,545.8 -18.2,-7.4 -35.3,-15.5 -51,-24.3 -135.7,-76.2 -294.2,-116.3 -462.8,-107.4 -434.4,23 -785.2,376 -805.7,810.4 -23.1,489.9 367.2,894.3 852,894.3" /><g
         transform="scale(1.25056)"
         id="g242"><path
           id="path244"
           style="fill:#f7cc7f;fill-opacity:1;fill-rule:nonzero;stroke:none"
           d="m 12958.9,5239.87 c 5.6,122.19 43.2,235.26 104.2,331.69 7.6,12.24 14.8,25.51 21.4,39.67 138.2,296.42 -76.1,637.87 -402.9,653.14 l -1606.9,75.17 -75.1,-1606.96 c -15.3,-326.73 -356.8,-541.11 -653.2,-402.85 -14.2,6.63 -27.5,13.75 -39.7,21.43 -96.4,60.93 -209.5,98.51 -331.69,104.19 -387.02,18.07 -713.75,-290.03 -713.91,-681.85 -0.16,-354.64 277.15,-653.15 630.83,-679.62 125.67,-9.35 245.67,15.84 350.67,67.33 13.1,6.4 27.2,12.16 42.2,17.35 313,108.84 635.5,-140.33 620.1,-471.3 l -74.5,-1593.04 3661.5,-171.205 c 863.6,-40.382 1596.6,627.075 1637,1490.765 l 171.1,3661.47 -1601.5,74.84 c -328.3,15.36 -575.2,-305.54 -465.7,-615.48 5.3,-14.87 11.1,-28.78 17.5,-41.66 55.8,-111.23 81.9,-239.33 68.5,-373.67 -34.6,-346.09 -329.6,-613.16 -677.4,-613.32 -392.2,-0.16 -700.7,326.73 -682.5,713.91" /></g><path
         id="path246"
         style="fill:#50bfa5;fill-opacity:1;fill-rule:nonzero;stroke:none"
         d="m 10606.4,9716.9 c 7.7,-152.7 -25.3,-298 -89.5,-425.4 -8.1,-16.1 -15.4,-33.5 -21.9,-52 -136.2,-385.7 172,-784.8 580.5,-764.2 l 2009.2,101 -101,2009.2 c -20.5,408.5 378.5,716.8 764.2,580.6 18.5,-6.5 35.9,-13.8 52,-21.9 127.4,-64.2 272.7,-97.2 425.5,-89.6 483.9,24.4 853.3,447.5 806,935.2 -42.7,441.4 -424,779.4 -867.4,769.5 -157.7,-3.5 -303.8,-49.4 -428.4,-126.2 -15.5,-9.6 -32.3,-18.5 -50.4,-26.8 -376.3,-173.2 -808,97.8 -828.8,511.6 l -100.2,1991.9 -4578.1,-230.2 c -1079.94,-54.3 -1911.38,-973.8 -1857.08,-2053.7 l 230.21,-4578.1 2002.51,100.7 c 410.55,20.6 678.92,450 505.1,822.5 -8.3,17.8 -17.24,34.4 -26.86,49.7 -82.85,131.7 -130.88,288 -130.44,456.8 1.13,435 336.04,803.1 768.91,845.4 488.05,47.7 911.65,-321.8 935.95,-806" /><g
         transform="scale(1.2268)"
         id="g248"><path
           id="path250"
           style="fill:#184655;fill-opacity:1;fill-rule:nonzero;stroke:none"
           d="m 11997.7,8824.4 c -124.7,0 -241.6,32.82 -342.8,90.3 -12.7,7.26 -26.6,13.89 -41.4,19.96 -308.3,126.67 -645.9,-107.92 -645.9,-441.35 V 6853.5 h 1639.9 c 333.4,0 568,-337.54 441.3,-645.98 -6,-14.76 -12.7,-28.62 -20,-41.41 -57.4,-101.08 -90.3,-218.05 -90.3,-342.68 0,-394.93 329.3,-712.99 728.4,-694.49 361,16.71 651.9,313.33 661.9,674.68 3.6,128.46 -27.7,249.35 -85.2,353.93 -7.2,12.96 -13.7,27.06 -19.7,42.06 -125.7,313.5 112.6,653.89 450.4,653.89 H 16300 v 3736.4 c 0,881.4 -714.5,1595.9 -1595.9,1595.9 h -3736.5 v -1634.3 c 0,-335.1 338.6,-571.14 648.9,-444.9 14.9,6 28.8,12.6 41.7,19.8 110.5,62.1 239.8,94.8 377.2,87.5 354,-18.7 640,-306.4 656.7,-660.54 18.9,-399.31 -299.3,-728.96 -694.4,-728.96" /></g><path
         id="path252"
         style="fill:#f7a491;fill-opacity:1;fill-rule:nonzero;stroke:none"
         d="m 5258.25,1949.1 c 0,0 -30.37,-211.2 -82.64,-279.3 -17.55,-22.9 -49.59,-51.8 -70.62,-93.2 -32.74,-64.3 -14.64,-160.1 9.51,-212.9 12.39,-27.1 -0.87,-27 27.36,-35.8 83.59,-25.8 172.52,17.7 208.12,98 19.88,44.8 37.32,104.6 40.83,179.9 8.93,191.8 68.43,289.3 68.43,289.3 l -200.99,54" /><path
         id="path254"
         style="fill:#f7a491;fill-opacity:1;fill-rule:nonzero;stroke:none"
         d="m 6172.61,1852.5 c 0,0 18.75,-238.1 3.53,-315.5 -8.15,-41.5 -53.55,-126.8 -32.73,-165.8 20.83,-39 44.63,-48.7 44.63,-48.7 l 539.74,-8.8 c 29.4,-0.4 9.97,18.5 -13.74,36 -38.8,28.6 -70.11,47.5 -194.05,107.6 -8.09,3.9 -37.52,22.7 -48.13,29.2 -26.91,16.4 -53.94,42.4 -77.21,68.3 -38.75,43.3 -42.14,253 -42.14,253 l -179.9,44.7" /><path
         id="path256"
         style="fill:#355389;fill-opacity:1;fill-rule:nonzero;stroke:none"
         d="m 6594.46,5018.1 c 0,0 67.97,-386.6 23.34,-640.1 -44.62,-253.5 -258.82,-2603.3 -258.82,-2603.3 l -238.03,-13.4 c 0,0 -49.89,981.5 -40.96,1118 8.92,136.5 79.56,364.9 79.56,364.9 l -23.7,792.5 300.38,1041.1 158.23,-59.7" /><path
         id="path258"
         style="fill:#466eb6;fill-opacity:1;fill-rule:nonzero;stroke:none"
         d="m 5894.88,5099.5 c 0,0 -187.42,-282.8 -232.05,-516.8 -44.62,-234 32.76,-953.1 -53.08,-1259.8 -46.48,-165.9 -222.6,-422.3 -249.37,-636.8 -26.78,-214.5 -131.82,-776.3 -131.82,-776.3 l 237.92,-47.3 552.94,1403.2 433.72,1268.3 111.11,653.2 -669.37,-87.7" /><path
         id="path260"
         style="fill:#f7cc7f;fill-opacity:1;fill-rule:nonzero;stroke:none"
         d="m 6046.61,6708.2 c 0,0 -248.16,15.8 -346.33,-91.4 -98.18,-107.3 217.78,-955.7 235.63,-1092.2 17.84,-136.5 -91,-499.4 -91,-499.4 0,0 582.94,-117.6 749.55,-7.1 0,0 17.85,981.6 0,1079.1 -17.85,97.5 -166.61,494 -202.31,533 -35.7,39 -345.54,78 -345.54,78" /><path
         id="path262"
         style="fill:#f7a491;fill-opacity:1;fill-rule:nonzero;stroke:none"
         d="m 6129.22,7040.5 c 0,0 -1.29,-7.3 -3.59,-19.7 -11.07,-59.8 -53.67,-258.2 -82.46,-312.7 -34.78,-66 119.09,-276.1 267.18,-250.5 44.09,7.7 -37.26,193.1 -33.35,212.8 7.48,37.6 17.63,88.9 28.01,141.5 5.86,29.7 11.8,59.8 17.37,88.1 15.84,80.4 28.76,146.1 28.76,146.1 l -221.92,-5.6" /><path
         id="path264"
         style="fill:#f47458;fill-opacity:1;fill-rule:nonzero;stroke:none"
         d="m 6125.63,7020.8 c 2.3,12.4 3.59,19.7 3.59,19.7 l 221.92,5.6 c 0,0 -12.92,-65.7 -28.76,-146.1 -5.54,-28.1 -11.44,-58.1 -17.27,-87.6 -34.26,5.1 -70.06,21.8 -105.95,53.3 -39.14,34.3 -64.78,75.5 -80.26,119.6 2.73,14.1 5.01,26.2 6.73,35.5" /><path
         id="path266"
         style="fill:#f7a491;fill-opacity:1;fill-rule:nonzero;stroke:none"
         d="m 6278.58,7546.1 c 0,0 -104.6,12.1 -170.17,-72.9 -65.56,-85 -136.23,-347.8 26.64,-490.7 162.88,-142.9 323.81,18.9 347.67,190.4 23.87,171.5 33.14,379.4 -204.14,373.2" /><path
         id="path268"
         style="fill:#f7a491;fill-opacity:1;fill-rule:nonzero;stroke:none"
         d="m 6530.91,7175.4 c -19.44,-37.9 -52.07,-58.9 -72.89,-46.9 -20.81,12 -21.93,52.5 -2.48,90.4 19.44,37.8 52.07,58.8 72.88,46.8 20.81,-12 21.93,-52.4 2.49,-90.3" /><path
         id="path270"
         style="fill:#13375b;fill-opacity:1;fill-rule:nonzero;stroke:none"
         d="m 6290.28,7574.2 c 0,0 -139.74,-249.9 -239.71,-261.5 -99.97,-11.5 -113.09,-144.3 -113.09,-144.3 0,0 35.73,306 134.7,365 98.97,59 218.1,40.8 218.1,40.8" /><path
         id="path272"
         style="fill:#f47458;fill-opacity:1;fill-rule:nonzero;stroke:none"
         d="m 5366.19,1468.1 c -129.67,-23.7 -215.95,52.3 -260.84,109.2 -32.96,-64.4 -49.04,-160.6 -24.79,-213.6 21.34,-46.7 83.74,-45.3 132.87,-47.2 51.95,-1.9 92.14,27 117.91,72.4 12.03,21.1 24.45,47.5 34.85,79.2" /><path
         id="path274"
         style="fill:#f47458;fill-opacity:1;fill-rule:nonzero;stroke:none"
         d="m 6471.78,1486.5 c -142.74,-36.7 -248.25,-11.7 -307.28,12.1 -15.22,-43.2 -35.4,-97.5 -24.7,-128.7 13.1,-38.3 31.76,-47 48.24,-47.4 130.38,-3.5 477.59,-8.1 577.01,-9.4 13.89,-0.2 21.54,16 12.62,26.7 -24.66,29.5 -295.25,140.2 -305.89,146.7" /><path
         id="path276"
         style="fill:#f7a491;fill-opacity:1;fill-rule:nonzero;stroke:none"
         d="m 6076.79,7249.9 c 8.12,-44.4 -8.23,-85.1 -36.53,-90.9 -28.3,-5.8 -57.83,25.4 -65.96,69.8 -8.13,44.4 8.22,85.1 36.52,90.9 28.3,5.9 57.83,-25.4 65.97,-69.8" /><path
         id="path278"
         style="fill:#ffffff;fill-opacity:1;fill-rule:nonzero;stroke:none"
         d="m 6240.04,7096.2 126.17,-5.7 c 0,0 -5.08,-47.8 -60.63,-46.9 -67.75,1.1 -65.54,52.6 -65.54,52.6" /><g
         transform="scale(1.06253)"
         id="g280"><path
           id="path282"
           style="fill:#dd513a;fill-opacity:1;fill-rule:nonzero;stroke:none"
           d="m 15999.1,16147.7 c 14.9,-0.6 55.4,-14.2 114.6,-126.2 75.7,-143 186.3,-575 186.3,-575 l -330.2,-123 -42.4,90.2 -69.8,694.2 c 0,0 137.5,39.9 141.5,39.8" /></g><g
         transform="scale(1.05667)"
         id="g284"><path
           id="path286"
           style="fill:#f47458;fill-opacity:1;fill-rule:nonzero;stroke:none"
           d="m 15649,16299.9 c 95.1,-0.2 329.8,-27.9 438.9,-62.7 0,0 80.1,-688.3 -72.1,-1211.3 -34,-117.1 28.2,-485.4 28.2,-485.4 l -983.7,13 c 0,0 116.6,890.3 72.7,1034.1 -43.9,143.8 -45,645 -45,645 0,0 6.8,1 221,38.1 99.9,17.3 238.8,29.3 340,29.2" /></g><g
         transform="scale(1.01364)"
         id="g288"><path
           id="path290"
           style="fill:#f7a491;fill-opacity:1;fill-rule:nonzero;stroke:none"
           d="m 16193.8,13826 c 0,0 22.7,-261.9 64.5,-334.4 41.7,-72.5 -2.2,-195.7 -4.4,-212.7 -2.2,-16.9 -87.8,-41 -223.9,-26.5 -136.2,14.5 -134,45.9 -122.9,96.6 10.9,50.8 83.3,116 87.8,164.4 4.3,48.3 -41.8,222.3 -41.8,222.3 l 240.7,90.3" /></g><g
         transform="scale(1.09656)"
         id="g292"><path
           id="path294"
           style="fill:#e0973f;fill-opacity:1;fill-rule:nonzero;stroke:none"
           d="m 15353.4,14211.4 c 0,0 654.3,36.3 800.5,-52.2 146.1,-88.5 -103.9,-522.8 -103.9,-522.8 0,0 -455.2,21 -1347,-30.4 -211.2,-12.2 -229.4,550.6 -190,597.2 39.5,46.5 840.4,8.2 840.4,8.2" /></g><g
         transform="scale(1.01315)"
         id="g296"><path
           id="path298"
           style="fill:#dd513a;fill-opacity:1;fill-rule:nonzero;stroke:none"
           d="m 16020.8,13238.4 c -140.3,15 -122.9,83.9 -111.7,136.2 7.2,32.7 47.4,71.3 71.4,107.8 12.5,-10 32.9,-27.6 93.8,-45.6 63.2,-18.7 149.9,18.3 205.2,41.4 19.6,-73.2 20.5,-166.7 18.6,-180.8 -2.1,-17.5 -137.2,-73.9 -277.3,-59" /></g><g
         transform="scale(1.01107)"
         id="g300"><path
           id="path302"
           style="fill:#f7cc7f;fill-opacity:1;fill-rule:nonzero;stroke:none"
           d="m 16131.3,14905.3 c 28.4,-214.6 168.7,-1282.6 168.7,-1282.6 l -325.7,-40.4 c 0,0 -400.6,1394 -380,1607.2 20.5,213.3 170.4,231.2 170.4,231.2 0,0 291.5,52.5 366.6,-515.4" /></g><g
         transform="scale(1.05232)"
         id="g304"><path
           id="path306"
           style="fill:#f7a491;fill-opacity:1;fill-rule:nonzero;stroke:none"
           d="m 15139.7,16222.9 c 92.3,34.6 137.5,-797.4 150,-1139.9 163.5,-15.8 448.6,-0.2 519.5,5.2 33.4,2.5 110.4,30.7 143.6,35 34,4.5 64.9,6.8 81.6,3.9 6.1,-1.1 176.6,-70.8 191.1,-86.1 18.1,-18.9 67,-66.8 58.7,-87.4 -8.1,-20.7 -94,57.6 -94,57.6 l -41.9,23.5 c 52.2,-51 151.7,-118.1 137.4,-142.6 -14,-23.8 -103.7,44.3 -167.8,90.8 55,-49.6 123.1,-138.3 107.4,-152.2 -14.2,-12.4 -91.7,90.3 -174.6,119.9 -30.7,10.9 -61.3,-19.4 -85.5,-23.1 -17.8,-2.7 -45.1,-8.4 -62.6,-3.5 l -89.7,25.5 c -30.6,-2.8 -31.4,-20.9 -62.3,-27.4 -35.8,-7.7 -94.6,-15.7 -140.2,-26.8 -263,-64.3 -350.6,-94.1 -431.1,-94 -243.7,0.1 -257.9,1339.7 -39.6,1421.6" /></g><g
         transform="scale(1.05412)"
         id="g308"><path
           id="path310"
           style="fill:#dd513a;fill-opacity:1;fill-rule:nonzero;stroke:none"
           d="m 14938.9,15415.4 c -17.3,350.2 -14.7,781.9 181.6,855.5 77.5,29.1 214.1,-145.6 189.5,-862.6 -104.8,-8.7 -258.7,-15.6 -371.1,7.1" /></g><g
         transform="scale(1.08724)"
         id="g312"><path
           id="path314"
           style="fill:#f7a491;fill-opacity:1;fill-rule:nonzero;stroke:none"
           d="m 15983.5,12681.3 c 0,0 -26.5,-84.8 20.9,-140.8 47.3,-56 243.9,-111 269.8,-141.4 25.8,-30.3 23.8,-56.2 23.8,-56.2 l -552,15.2 6.1,166.7 25.4,119.8 206,36.7" /></g><g
         transform="scale(1.09396)"
         id="g316"><path
           id="path318"
           style="fill:#dd513a;fill-opacity:1;fill-rule:nonzero;stroke:none"
           d="m 15940.1,12435.7 c 0,0 -140.9,-57.1 -209,-23.3 -68.1,33.7 -66,43.1 -85.8,30.5 -19.6,-12.6 -26.7,-167.9 -26.7,-167.9 l 616.8,-18.1 c 42.9,1 64.6,32.6 29.8,59.7 -24,18.5 -51.6,30.9 -67.3,39.9 -48.3,27.7 -257.8,79.2 -257.8,79.2" /></g><g
         transform="scale(1.09921)"
         id="g320"><path
           id="path322"
           style="fill:#f7cc7f;fill-opacity:1;fill-rule:nonzero;stroke:none"
           d="m 15788.7,14022.4 c 42.2,88.8 138.2,204.4 307.1,134.8 161,-66.4 204.2,-229.7 153.4,-396.8 -50.8,-167.1 -385.3,-1149.6 -397,-1284.7 l -267.1,-1.8 c 0,0 48.6,778 60.5,966 11.5,181 70.1,428.8 143.1,582.5" /></g><g
         transform="scale(1.09872)"
         id="g324"><path
           id="path326"
           style="fill:#000000;fill-opacity:1;fill-rule:nonzero;stroke:none"
           d="m 16229.6,14934 h -893.3 c -23.5,0 -44.8,-14.3 -53.9,-36.3 l -274.9,-673 H 14515 c -13.7,0 -24.8,-11.2 -24.8,-25 0,-13.8 11.1,-25 24.8,-25 h 1401.6 c 38.5,0 73.4,22.7 89.1,57.9 l 277,619 c 17.3,38.7 -10.9,82.4 -53.1,82.4" /></g><g
         transform="scale(1.06196)"
         id="g328"><path
           id="path330"
           style="fill:#ffffff;fill-opacity:1;fill-rule:nonzero;stroke:none"
           d="m 16293.7,15045.4 c -6.2,-31.3 -33.4,-52.2 -60.7,-46.7 -27.3,5.4 -44.4,35.2 -38.2,66.5 6.3,31.3 33.5,52.2 60.9,46.7 27.2,-5.5 44.3,-35.3 38,-66.5" /></g><g
         transform="scale(1.1161)"
         id="g332"><path
           id="path334"
           style="fill:#0e2e35;fill-opacity:1;fill-rule:nonzero;stroke:none"
           d="m 15024.8,16227.9 c -26.5,8.9 -52.6,19 -77.8,31.1 -28.5,13.7 -65.4,29.8 -88.7,33.4 -49.1,7.6 -133.4,2.5 -180,-47.9 -57.9,-63 -161,-11.4 -140.2,-340.9 23.5,-373 230.9,-332.1 235.9,-325.7 5,6.3 184.9,238.6 184.9,238.6 0,0 62.9,-137.7 62.9,-132.6 0,4.9 321.2,436.8 3,544" /></g><g
         transform="scale(1.07914)"
         id="g336"><path
           id="path338"
           style="fill:#f7a491;fill-opacity:1;fill-rule:nonzero;stroke:none"
           d="m 15376.5,16082.9 18.5,-137.8 c 0,0 41.5,-198.6 -11.8,-236.9 -53.4,-38.3 -227,242.5 -227,242.5 l 18.4,349.3 201.9,-217.1" /></g><g
         transform="scale(1.07914)"
         id="g340"><path
           id="path342"
           style="fill:#f47458;fill-opacity:1;fill-rule:nonzero;stroke:none"
           d="m 15168.6,16186.8 c 44.1,-119.1 149.1,-192.3 223.6,-220.8 l -15.7,116.9 -201.9,217.1 -6,-113.2" /></g><g
         transform="scale(1.10551)"
         id="g344"><path
           id="path346"
           style="fill:#f7a491;fill-opacity:1;fill-rule:nonzero;stroke:none"
           d="m 14999,16282.2 c 110.4,17.8 209.4,-71 206.6,-181.5 -1.1,-48 -5,-107.9 -15.1,-172.5 -23.9,-155.3 -130,-292.1 -200,-279.9 -70.1,12.2 -246.4,146.2 -215.3,367.2 19.1,136.5 108,248 223.8,266.7" /></g><g
         transform="scale(1.08955)"
         id="g348"><path
           id="path350"
           style="fill:#f7a491;fill-opacity:1;fill-rule:nonzero;stroke:none"
           d="m 15041,16223.4 c -5.9,-34.6 -33.8,-58.7 -62,-53.8 -28.2,4.9 -46.3,37 -40.2,71.6 5.9,34.7 33.7,58.8 61.9,53.9 28.3,-4.9 46.3,-37 40.3,-71.7" /></g><g
         transform="scale(1.10795)"
         id="g352"><path
           id="path354"
           style="fill:#0e2e35;fill-opacity:1;fill-rule:nonzero;stroke:none"
           d="m 14751.5,16024.4 c 0,0 84.6,-21 115.9,33.3 31.4,54.4 143.6,171.7 286.1,123.1 142.6,-48.7 -125.4,118.3 -136.8,118.3 -11.5,0 -148.3,0.9 -148.3,0.9 0,0 -105.5,-86.8 -109.3,-96.3 -3.9,-9.6 -34.3,-113.5 -34.3,-113.5 l 26.7,-65.8" /></g><g
         transform="scale(1.0738)"
         id="g356"><path
           id="path358"
           style="fill:#ffffff;fill-opacity:1;fill-rule:nonzero;stroke:none"
           d="m 15380.3,16300 158.7,-30.3 c 0,0 -15.2,-59.8 -85.3,-48.5 -85.6,13.8 -73.4,78.8 -73.4,78.8" /></g><path
         id="path360"
         style="fill:#f8a492;fill-opacity:1;fill-rule:nonzero;stroke:none"
         d="m 13632.7,5638.2 c 6.5,-22.5 10.2,-29.9 18.5,-45 53.4,-97.3 177.4,-236.1 177.4,-236.1 l 96,216.1 c 0,0 -15.7,67.9 -42.8,164.9 -92.6,-24.2 -180.9,-38.2 -249.1,-99.9" /><path
         id="path362"
         style="fill:#13375b;fill-opacity:1;fill-rule:nonzero;stroke:none"
         d="m 14182.6,5825.6 c 0,0 -535,-230.4 -552.3,-226 -11.1,2.9 -219.4,351.5 -221.7,679.4 -1,151.4 156.3,333.6 331.7,297.5 88.4,-18.1 87,-42.7 217.7,-232.6 130.7,-189.9 224.6,-518.3 224.6,-518.3" /><path
         id="path364"
         style="fill:#f7a491;fill-opacity:1;fill-rule:nonzero;stroke:none"
         d="m 14639.2,1695.3 -12.7,-210.5 c -4.7,-26.7 -23.1,-92.6 -23.1,-116.9 0,-91.1 432.6,77.4 335.7,117.8 -8.8,3.6 -54.8,31.2 -57.7,62.2 -4.4,47.8 -15.7,144.5 -15.7,144.5 l -226.5,2.9" /><path
         id="path366"
         style="fill:#dd513a;fill-opacity:1;fill-rule:nonzero;stroke:none"
         d="m 14938,1486.5 c 0,0 -101.6,-27.8 -153.6,-34.8 -52,-7 -120.6,51.7 -157.4,35.8 -40.5,-17.4 -38.9,-174.4 -38.9,-174.4 0,0 544.6,-44.7 697.8,1.5 60.7,18.4 -140.3,107 -347.9,171.9" /><path
         id="path368"
         style="fill:#f7a491;fill-opacity:1;fill-rule:nonzero;stroke:none"
         d="m 13754.3,1695.3 -12.8,-210.5 c -4.6,-26.7 -23,-92.6 -23,-116.9 0,-91.1 432.6,77.4 335.6,117.8 -8.7,3.6 -68.3,51.9 -71.2,82.9 -4.5,47.7 -2.1,123.8 -2.1,123.8 l -226.5,2.9" /><path
         id="path370"
         style="fill:#dd513a;fill-opacity:1;fill-rule:nonzero;stroke:none"
         d="m 14053.1,1486.5 c 0,0 -101.6,-27.8 -153.6,-34.8 -52,-7 -120.6,51.7 -157.4,35.8 -40.5,-17.4 -42.1,-174.4 -42.1,-174.4 0,0 547.1,-52.1 701,1.5 59.7,20.9 -140.3,107 -347.9,171.9" /><path
         id="path372"
         style="fill:#f7a491;fill-opacity:1;fill-rule:nonzero;stroke:none"
         d="m 13886.5,5521.7 381,533.8 c 1.6,4.6 5.1,14.2 10.4,28.8 19.2,53 59.1,163.2 93.9,272.8 l 0.3,1.2 c 11,38.3 34.1,105.1 56.5,169.8 24.9,71.9 55.8,161.1 56.9,176.3 -0.9,2.6 -2.7,7.3 -5.1,13.5 -14,36.2 -32.9,122.6 -39.6,160.1 -4.2,23.9 -8.5,82.1 20,82.1 44.6,0 23.4,-58.1 44,-94.3 7.5,24.2 22.8,72.3 30.9,120.9 l 7.5,113.5 c 1.4,8.5 -7.7,71.1 23.7,71.1 h 1.5 c 28.1,-2.1 27.5,-68.6 39.2,-181.2 3.7,13 7.4,28.6 10.2,42.9 -0.3,7.7 5.3,41.6 9.5,59.4 -5.6,31.4 -2.3,80.9 31.1,76.2 16.7,-2.3 15.3,-71.4 15.3,-71.4 -0.1,-9.4 -1.1,-82.4 -0.6,-96.9 3.4,24.5 16.8,129 43,129 21.7,0 23.5,-28.1 23,-50.4 -0.2,-13.1 -13.9,-126.3 -14.6,-139.5 10.2,17.2 22.3,116.9 32.5,116.9 42.3,0 27,-141.8 11.4,-178.7 -1.4,-3.8 -3,-11.2 -4.8,-19.8 -5.3,-25.3 -14.1,-67.6 -36.3,-105.5 -26.6,-45.5 -63.3,-117.9 -68.9,-129 -4.1,-22.6 -16.9,-103.9 -32.9,-206.2 -6.9,-43.7 -14.4,-91.7 -22.2,-141.4 l -0.4,0.1 c -1.5,-10.8 -9.4,-45 -39.6,-173.3 -41.2,-175.6 -45.5,-183.2 -47.3,-186.4 -17.9,-31.7 -428.7,-589.5 -446.2,-613.3 l -10.3,-14 -173,232.9" /><path
         id="path374"
         style="fill:#f47458;fill-opacity:1;fill-rule:nonzero;stroke:none"
         d="m 14595.1,6766.5 c 0,0 -30.9,79.1 -85.9,79.3 0,0 30.7,11.1 57.1,-9.8 26.4,-20.9 28.8,-69.5 28.8,-69.5" /><path
         id="path376"
         style="fill:#f7a491;fill-opacity:1;fill-rule:nonzero;stroke:none"
         d="m 13794.5,6919.3 -49.1,-310.1 c 0,0 186.9,-150.1 295.8,-118.4 91.4,26.5 28.8,146 28.8,146 0,0 -48.7,165.6 -33.8,252.4 14.9,86.8 -241.7,30.1 -241.7,30.1" /><path
         id="path378"
         style="fill:#fe875e;fill-opacity:1;fill-rule:nonzero;stroke:none"
         d="m 13829.7,6825.6 c 46.8,-22.2 139.4,-52.3 211.5,-59.7 -6.9,43.5 -10.8,89.4 -5,123.3 6.9,40 -44.1,49.5 -100.9,48.1 -74.5,-6.3 -140.8,-18 -140.8,-18 l -9.5,-59.6 c 14.2,-14.9 29.1,-26.8 44.7,-34.1" /><path
         id="path380"
         style="fill:#f7a491;fill-opacity:1;fill-rule:nonzero;stroke:none"
         d="m 13558.6,7277.1 c -7.7,0 73.9,-346.5 200.2,-406.1 126.2,-59.6 314.5,-28.6 349.8,64.8 39.1,103.2 -103.4,456.7 -281,501.6 -177.6,44.9 -269,-160.3 -269,-160.3" /><path
         id="path382"
         style="fill:#13375b;fill-opacity:1;fill-rule:nonzero;stroke:none"
         d="m 13704.7,7595.5 c -100.8,-58.2 -147.1,-144.5 -162.7,-179.8 -47.3,-22.5 -104.6,-71 -132.1,-202 -33.8,-160.9 86.4,-285 213.8,-322.3 127.4,-37.3 147.1,-121.6 147.1,-121.6 l 14.5,90.7 c 0,0 -28.4,79 -71,118.6 -42.6,39.5 20.2,97.1 25.7,144.1 4.3,36.2 -22.4,106.5 -16.6,165.9 0,0 70.8,107.3 140.6,133.8 119,45.2 -29.9,247.2 -159.3,172.6" /><path
         id="path384"
         style="fill:#f7a491;fill-opacity:1;fill-rule:nonzero;stroke:none"
         d="m 13758.4,7062.9 c 16.5,-40 9.7,-79.8 -15.1,-88.8 -24.8,-8.9 -58.3,16.2 -74.8,56.2 -16.5,40 -9.8,79.8 15.1,88.8 24.8,9 58.3,-16.2 74.8,-56.2" /><path
         id="path386"
         style="fill:#f8a492;fill-opacity:1;fill-rule:nonzero;stroke:none"
         d="m 14228.7,5513.2 734.9,119.8 c 0,0 -83.6,210.5 -113.5,210.5 -29.9,0 -555.7,-229.6 -555.7,-229.6 l -41.8,-83.9 -23.9,-16.8" /><path
         id="path388"
         style="fill:#184655;fill-opacity:1;fill-rule:nonzero;stroke:none"
         d="m 13852.3,5009.3 c 0,0 -73.3,-354.4 -43.5,-623.2 29.9,-268.7 32.3,-1223.3 32.3,-1223.3 l -114.1,-1527.4 270.5,-5.9 c 0,0 320.8,1526.7 314.8,1487.5 -5.9,-39.2 107.6,1074.9 107.6,1074.9 l -382.4,851 -185.2,-33.6" /><path
         id="path390"
         style="fill:#13375b;fill-opacity:1;fill-rule:nonzero;stroke:none"
         d="m 13924,5026.1 c 0,0 -47.8,-319.1 11.9,-459.1 59.8,-140 512.5,-1513.3 518.5,-1625.2 6,-112 156.5,-1349.6 156.5,-1349.6 l 314.5,8.8 68.1,1376 -142.5,1729.4 -138.3,437.3 -788.7,-117.6" /><path
         id="path392"
         style="fill:#f7a491;fill-opacity:1;fill-rule:nonzero;stroke:none"
         d="m 13745.4,6609.2 c 0,0 77.6,-50.9 149.9,-45 72.4,5.8 174.7,72.6 174.7,72.6 l -14.3,48.2 c 0,0 -187.1,27.3 -191.8,24.3 -4.7,-2.9 -118.5,-100.1 -118.5,-100.1" /><path
         id="path394"
         style="fill:#f8a492;fill-opacity:1;fill-rule:nonzero;stroke:none"
         d="m 14572.1,5853.9 c 0,0 278,-262.4 403.5,-217.6 125.5,44.8 177.4,197.9 -128.8,421.9 -274,200.5 -274.7,-204.3 -274.7,-204.3" /><path
         id="path396"
         style="fill:#355389;fill-opacity:1;fill-rule:nonzero;stroke:none"
         d="m 14760.5,5530 c -41.3,224.6 -340.6,923.7 -364.5,1052.5 -11.6,62.6 -173.1,64 -326.8,55.8 -162.4,-8.6 -323.8,-29.1 -323.8,-29.1 0,0 -143.8,-23.7 -207,-82.9 -63.3,-59.3 -80.1,-223.2 10.8,-534.4 71.8,-245.7 160.8,-380.6 204.9,-559.5 8.9,-60 16.5,-119.2 26.7,-188.4 16.1,-267.6 -0.2,-621 -0.2,-621 0,0 782.7,-162.4 1075.5,84 0,0 -53.3,592.8 -95.6,823" /><path
         id="path398"
         style="fill:#466eb6;fill-opacity:1;fill-rule:nonzero;stroke:none"
         d="m 14960,6013 c 0,0 -307.1,-253.5 -325,-253.5 -11.5,0 -438.3,313.9 -536.8,571.8 -54.4,142.6 59.8,302.1 190.2,301.6 90.5,-0.4 130.7,-23.7 309.9,-174.8 179.3,-151.2 361.7,-445.1 361.7,-445.1" /><g
         transform="scale(1.08485)"
         id="g400"><path
           id="path402"
           style="fill:#13375b;fill-opacity:1;fill-rule:nonzero;stroke:none"
           d="m 8809.65,15974.2 c 46.39,111.6 93.59,223.5 213.96,280 97.41,45.8 199.19,28.6 285.75,-36.5 245.29,-184.4 31.52,-387.6 310.73,-737.4 86.74,-108.6 191.73,-196.4 243.72,-323.7 72.73,-178.3 -13.92,-263.9 -152.83,-349.2 -664.48,-408.5 -1012.81,430.2 -1000.31,622 9.31,142.7 69.11,472.9 98.98,544.8" /></g><g
         transform="scale(1.01335)"
         id="g404"><path
           id="path406"
           style="fill:#f7a491;fill-opacity:1;fill-rule:nonzero;stroke:none"
           d="m 8693,14774.3 c 30,4.7 102.84,56.9 128.55,61.7 19.94,3.6 63.03,10.2 81.4,12.9 22.5,84 136.76,542.1 149.56,676.4 13.86,145.4 116.72,774.7 116.72,774.7 l 266.36,-48.4 c 0,0 -110.62,-484.1 -141.21,-718.9 -26.26,-201.6 -247.48,-654.9 -275.6,-702.7 -0.04,-1.2 -0.05,-2.3 -0.13,-3.5 -4.28,-71.2 -38.55,-47.5 -38.55,-47.5 l -55.71,-14.2 c 0,0 -197.11,-19 -209.97,-23.7 -12.85,-4.7 -51.41,28.5 -21.42,33.2" /></g><g
         transform="scale(1.03622)"
         id="g408"><path
           id="path410"
           style="fill:#6a97ce;fill-opacity:1;fill-rule:nonzero;stroke:none"
           d="m 9193.99,16300 c -184.14,-62.4 -288.84,-563 -288.84,-563 0,0 288.9,-80.7 362.92,-38.4 0,0 84.01,372.4 114.11,359.4 l -188.19,242" /></g><path
         id="path412"
         style="fill:#f7a491;fill-opacity:1;fill-rule:nonzero;stroke:none"
         d="m 8051.03,14075.3 c -58.39,-154 -88.68,-302.3 -91.41,-320.2 -1.31,-8.7 10.87,-50.5 9.74,-59.5 -117.2,-159.8 -285.63,-194.8 -430,-205 73.58,71.8 181.63,139.9 186.82,162.7 8.26,36.2 52.71,197.4 74.57,420.9 89.8,-41.6 150.73,-8.6 250.28,1.1" /><path
         id="path414"
         style="fill:#256653;fill-opacity:1;fill-rule:nonzero;stroke:none"
         d="m 9711.6,15797.9 257.87,-726.3 c 0,0 -414.38,-78 -569.3,-106.4 -154.91,-28.4 -1020.47,-66.2 -1042.4,-81.6 -16.28,-11.4 -195.08,-589.7 -274.95,-908.5 -90.61,-20 -245.71,4 -328.22,32.4 44.58,456.3 205.6,1179.1 257.16,1257.8 83.97,128.1 1699.84,532.6 1699.84,532.6" /><path
         id="path416"
         style="fill:#f7a491;fill-opacity:1;fill-rule:nonzero;stroke:none"
         d="m 8704.26,13756.9 c -28.5,-162.1 -30.46,-313.5 -29.77,-331.6 0.32,-8.8 20.13,-47.6 20.7,-56.6 -85.17,-179 -244.06,-244.9 -383.97,-282 58.82,84.4 152.2,171.5 153.04,194.8 1.33,37.1 14.77,203.9 -5.64,427.4 96,-23.9 149.69,19.8 245.64,48" /><path
         id="path418"
         style="fill:#327f6b;fill-opacity:1;fill-rule:nonzero;stroke:none"
         d="m 10012.6,15760.2 100.1,-170.8 c 152.2,-260.1 35.5,-594.7 -245.47,-703.7 -1.52,-0.6 -3.02,-1.2 -4.49,-1.8 -146.84,-56.9 -989.98,-256.3 -1008.64,-275.5 -13.86,-14.2 -81.12,-615.8 -99.82,-944 -85.27,-36.5 -242.11,-42.1 -328.48,-29.6 -41.71,456.5 -19,1196.7 16.9,1283.7 58.47,141.6 1569.9,841.7 1569.9,841.7" /><path
         id="path420"
         style="fill:#13375b;fill-opacity:1;fill-rule:nonzero;stroke:none"
         d="m 8661.56,13420.2 c 22.45,24.8 104.87,-111.7 125.46,-140.8 23.16,-32.7 16.57,-57.4 13.8,-62.5 -7.31,-13.5 -441.91,-269.2 -547.9,-287.4 -10.01,-1.7 -27.36,4.6 -31.73,8.4 -41.42,36.7 149.24,307.5 234.86,343 55.33,23 104.52,27.8 205.51,139.3" /><path
         id="path422"
         style="fill:#13375b;fill-opacity:1;fill-rule:nonzero;stroke:none"
         d="m 7945.75,13750.2 c 26.7,20.1 82.09,-129.4 96.86,-161.8 16.62,-36.5 5.52,-59.6 1.83,-64.1 -9.71,-11.9 -484.53,-181.6 -592.05,-179.6 -10.15,0.2 -26.01,9.7 -29.57,14.3 -33.83,43.7 204.2,274 294.96,292.9 58.67,12.2 107.87,7.6 227.97,98.3" /><g
         transform="scale(1.03751)"
         id="g424"><path
           id="path426"
           style="fill:#9bc1f9;fill-opacity:1;fill-rule:nonzero;stroke:none"
           d="m 9356.94,16281.1 v 0 h -0.01 c -4.75,0 -11.57,1.7 -18.55,3.8 -34.14,6.2 -108.82,15.1 -166.93,-9.4 -70.66,-29.8 -180.18,-308.4 -173.66,-594.4 2.62,-43.7 5.27,-82.8 7.53,-110.1 17.84,-216 79.8,-621.3 83.15,-623.4 84.29,-54.3 592.88,156 627.87,202.2 34.98,46.3 55.61,607.7 72.57,635.7 l 33.45,488.2 c -58.99,17.6 -374.99,8.1 -465.42,7.4" /></g><g
         transform="scale(1.05338)"
         id="g428"><path
           id="path430"
           style="fill:#f7a491;fill-opacity:1;fill-rule:nonzero;stroke:none"
           d="m 9419.03,16213 c 0,0 -32.26,-166.8 -25.81,-232.6 6.46,-65.9 -24.59,-278 -163.89,-278.7 -139.3,-0.6 -26.45,269.7 -13.33,334.2 13.12,64.5 16.23,264.1 16.23,264.1 l 186.8,-87" /></g><g
         transform="scale(1.05338)"
         id="g432"><path
           id="path434"
           style="fill:#f47458;fill-opacity:1;fill-rule:nonzero;stroke:none"
           d="m 9229.35,16199.8 c 2.17,54.7 2.88,100.2 2.88,100.2 l 186.8,-87 c 0,0 -6.6,-34.1 -13.23,-77.6 -81.77,-16.4 -141.02,13.8 -176.45,64.4" /></g><g
         transform="scale(1.08296)"
         id="g436"><path
           id="path438"
           style="fill:#f7a491;fill-opacity:1;fill-rule:nonzero;stroke:none"
           d="m 9228.15,16218 c 0,0 70,-38.8 95.57,-123 25.68,-84.2 -3.5,-301.4 -184.36,-353.9 -180.86,-52.4 -259.2,119.6 -221.95,254.1 37.24,134.5 118.27,304.8 310.74,222.8" /></g><g
         transform="scale(1.0709)"
         id="g440"><path
           id="path442"
           style="fill:#f7a491;fill-opacity:1;fill-rule:nonzero;stroke:none"
           d="m 8994.92,16228 c 3.59,-36.5 23.74,-64.4 45.02,-62.4 21.28,2.1 35.62,33.4 32.04,70 -3.59,36.5 -23.74,64.4 -45.02,62.3 -21.27,-2.1 -35.61,-33.4 -32.04,-69.9" /></g><g
         transform="scale(1.07824)"
         id="g444"><path
           id="path446"
           style="fill:#13375b;fill-opacity:1;fill-rule:nonzero;stroke:none"
           d="m 9247.24,16300 c 0,0 32.89,-243.4 111.64,-287.3 78.64,-43.9 45.72,-151.9 45.72,-151.9 0,0 71.41,250.7 9.18,331.2 -62.23,80.5 -166.54,108 -166.54,108" /></g><g
         transform="scale(1.05995)"
         id="g448"><path
           id="path450"
           style="fill:#f7a491;fill-opacity:1;fill-rule:nonzero;stroke:none"
           d="m 9472.93,16253.5 c -21.7,-32.3 -21.61,-70.3 0.19,-85 21.79,-14.7 57.08,-0.4 78.77,31.9 21.7,32.2 21.7,70.3 -0.18,84.9 -21.8,14.7 -57.08,0.4 -78.78,-31.8" /></g><g
         transform="scale(1.05603)"
         id="g452"><path
           id="path454"
           style="fill:#ffffff;fill-opacity:1;fill-rule:nonzero;stroke:none"
           d="m 9237.9,16300 130.72,-32.9 c 0,0 -15.71,-49.6 -73.62,-36.9 -70.62,15.6 -57.1,69.8 -57.1,69.8" /></g><path
         id="path456"
         style="fill:#50bfa5;fill-opacity:1;fill-rule:nonzero;stroke:none"
         d="m 10440.8,14993.4 c 6.6,0.3 595.1,29.9 595.1,29.9 0,0 -244.2,-175.5 -249.2,-175.5 -5,0 -194.5,74.8 -202.8,74.8 -8.3,0 -143.1,70.8 -143.1,70.8" /><g
         transform="scale(1.37351)"
         id="g458"><path
           id="path460"
           style="fill:#f7a491;fill-opacity:1;fill-rule:nonzero;stroke:none"
           d="m 16276,1228.02 8.6,-150.56 c 3.1,-19.08 15.4,-66.25 15.4,-83.581 0,-65.162 -289.1,55.331 -224.3,84.161 5.8,2.62 36.5,22.43 38.5,44.56 3,34.22 10.5,103.31 10.5,103.31 l 151.3,2.11" /></g><g
         transform="scale(1.37417)"
         id="g462"><path
           id="path464"
           style="fill:#f7cc7f;fill-opacity:1;fill-rule:nonzero;stroke:none"
           d="m 16065.2,1076.87 c 0,0 67.9,-19.86 102.6,-24.88 34.8,-4.95 80.5,36.96 105.1,25.61 27.1,-12.45 26,-124.658 26,-124.658 0,0 -363.8,-31.946 -466.1,1.092 -40.5,13.098 93.7,76.486 232.4,122.836" /></g><g
         transform="scale(1.41407)"
         id="g466"><path
           id="path468"
           style="fill:#f7a491;fill-opacity:1;fill-rule:nonzero;stroke:none"
           d="m 16276.7,1200.36 8.4,-146.24 c 3,-18.53 14.9,-64.354 14.9,-81.186 0,-63.292 -280.8,53.746 -217.9,81.756 5.7,2.54 44.4,36.06 46.3,57.63 2.9,33.17 1.4,85.99 1.4,85.99 l 146.9,2.05" /></g><g
         transform="scale(1.41512)"
         id="g470"><path
           id="path472"
           style="fill:#f7cc7f;fill-opacity:1;fill-rule:nonzero;stroke:none"
           d="m 16071,1054.54 c 0,0 65.8,-19.36 99.6,-24.16 33.7,-4.88 78.2,35.82 102.1,24.87 26.2,-12.15 27.3,-121.123 27.3,-121.123 0,0 -350.8,-14.415 -454.7,1.063 -40.9,6.075 91,74.27 225.7,119.35" /></g><g
         transform="scale(1.41323)"
         id="g474"><path
           id="path476"
           style="fill:#355389;fill-opacity:1;fill-rule:nonzero;stroke:none"
           d="m 16203.2,3521.02 c 0,0 47.6,-246.39 28.2,-433.26 -19.4,-186.81 -20.9,-850.47 -20.9,-850.47 l 89.5,-1061.47 -191.2,-4.46 c 0,0 -208.3,1061.33 -204.5,1034.09 3.9,-27.24 -69.8,747.3 -69.8,747.3 l 248.3,591.62 120.4,-23.35" /></g><g
         transform="scale(1.41776)"
         id="g478"><path
           id="path480"
           style="fill:#466eb6;fill-opacity:1;fill-rule:nonzero;stroke:none"
           d="m 16084.9,3668.32 c 0,0 215.1,-226.48 135.1,-473.85 -32.1,-99.38 -331.8,-1048.69 -335.7,-1126.28 -3.8,-77.59 -101.3,-935.21 -101.3,-935.21 l -203.6,6.14 -44.1,953.55 58.2,1284.77 123.6,216.68 367.8,74.2" /></g><g
         transform="scale(1.41137)"
         id="g482"><path
           id="path484"
           style="fill:#f47458;fill-opacity:1;fill-rule:nonzero;stroke:none"
           d="m 14846.4,4425.49 c 70.8,78.94 224.7,191.23 224.7,191.23 0,0 91.7,78.3 129,91.2 55.1,18.98 149.3,69.57 285.7,-137.04 97.5,-147.87 713.2,-913.44 814.2,-939.16 L 15640.1,3316 c -18.1,150.78 -344.2,435.68 -391.1,488.82 -105,118.75 -469.6,545.92 -402.6,620.67" /></g><g
         transform="scale(1.30647)"
         id="g486"><path
           id="path488"
           style="fill:#f7a491;fill-opacity:1;fill-rule:nonzero;stroke:none"
           d="m 16071.7,5127.32 222,-129.97 c 0,0 6.3,-189.6 -66.3,-238.81 -61,-41.33 -107.3,57.86 -107.3,57.86 0,0 -82.6,114.44 -145.3,150.03 -62.7,35.67 96.9,160.89 96.9,160.89" /></g><g
         transform="scale(1.29181)"
         id="g490"><path
           id="path492"
           style="fill:#f47458;fill-opacity:1;fill-rule:nonzero;stroke:none"
           d="m 16291.7,5101.14 c -8.4,-40.02 -27.9,-97.85 -58.3,-145.46 -24.7,26.79 -52.5,53.03 -77.3,67.12 -29.3,16.64 -10.6,52.56 17.9,86.47 40.3,41.95 80.1,76.25 80.1,76.25 l 43.1,-25.24 c 2.8,-16.41 -2.6,-45.83 -5.5,-59.14" /></g><g
         transform="scale(1.29383)"
         id="g494"><path
           id="path496"
           style="fill:#f7a491;fill-opacity:1;fill-rule:nonzero;stroke:none"
           d="m 16111.9,5506.45 c 3.8,4.64 188.1,-224.84 165.4,-332.42 -22.7,-107.67 -134.2,-205.83 -211.6,-178.85 -85.7,29.91 -245,300.04 -187.9,431.2 57.2,131.08 234.1,80.07 234.1,80.07" /></g><g
         transform="scale(1.29917)"
         id="g498"><path
           id="path500"
           style="fill:#13375b;fill-opacity:1;fill-rule:nonzero;stroke:none"
           d="m 15844.6,5555.85 c 80.1,44.56 210.6,57.34 308.2,6.23 119.9,-62.73 147.2,-220.75 109.6,-317.12 -37.5,-96.37 5.5,-150.79 5.5,-150.79 l -63.7,37.1 c 0,0 -37.1,58.04 -42,104.22 -4.8,46.26 -72.3,38.02 -105.1,59.04 -25.4,16.16 -57.8,68.58 -98.8,95.83 0,0 -103.2,12.62 -154,-15.86 -86.6,-48.57 -74.3,117.61 40.3,181.35" /></g><g
         transform="scale(1.28991)"
         id="g502"><path
           id="path504"
           style="fill:#f7a491;fill-opacity:1;fill-rule:nonzero;stroke:none"
           d="m 16224.3,5293.71 c -0.6,-34.5 15.8,-62.72 36.5,-63.1 20.7,-0.31 38,27.36 38.6,61.94 0.6,34.5 -15.8,62.8 -36.5,63.1 -20.7,0.31 -37.9,-27.36 -38.6,-61.94" /></g><g
         transform="scale(1.27873)"
         id="g506"><path
           id="path508"
           style="fill:#ffffff;fill-opacity:1;fill-rule:nonzero;stroke:none"
           d="m 16175.1,5155.19 98.8,73.83 c 0,0 26.1,-39.96 -16.4,-73.67 -51.8,-41.14 -82.4,-0.16 -82.4,-0.16" /></g><g
         transform="scale(1.33125)"
         id="g510"><path
           id="path512"
           style="fill:#f8a492;fill-opacity:1;fill-rule:nonzero;stroke:none"
           d="m 15298.8,3540.97 c 23.8,34.71 34.1,84.81 67,123.04 11,12.85 28.6,27.27 48.6,41.69 158,92.47 569.7,330.82 585.7,349.3 19,21.94 299.9,488.72 299.9,488.72 l -252.3,57.16 -246.6,-435.46 c -20.6,-16.3 -412.1,-305.65 -412.1,-305.65 0,0 -77.8,-60.77 -120.4,-89.24 -21.4,-12.54 -42.3,-20.66 -60.5,-27.04 -23,-7.96 -66.7,-29.82 -75.6,-37.56 -10.3,-9.09 -30.9,-28.4 -43.1,-40.19 -12.2,-11.87 -27,-25.16 -32.7,-32.22 -3.6,-4.29 -14.4,-10.14 -22.3,-14.13 -11.9,-5.86 -10.3,-23.36 2.4,-26.96 12,-3.38 28.2,4.13 38.2,8.79 28.4,13.36 63,49.27 64.8,44.92 1.8,-4.44 -33.3,-81.43 -36.8,-90.52 -3.4,-9.09 -43.8,-98.86 -45.9,-118.84 -2,-20.05 10,-24.64 19,-17.35 7.7,6.31 72.6,126.2 72.6,126.2 0,0 8.4,15.25 11.6,6.53 3.2,-8.79 -55.5,-117.71 -61.3,-135.58 -5.7,-17.88 -1.1,-32.53 15.4,-26.3 20.2,7.67 75.7,127.78 75.7,127.78 0,0 7.2,14.95 12.1,9.77 4.9,-5.19 -46.5,-97.06 -47.1,-107.65 -0.6,-10.59 9,-21.03 22.9,-12.17 16.3,10.44 64.9,118.09 64.9,118.09 0,0 6.1,7.13 7.9,2.1 1.9,-4.96 -36.4,-86.46 -33.5,-98.33 2.4,-9.99 11.4,-7.96 11.4,-7.96 20,0 46.4,84.35 70.1,119.06" /></g><g
         transform="scale(1.34367)"
         id="g514"><path
           id="path516"
           style="fill:#355389;fill-opacity:1;fill-rule:nonzero;stroke:none"
           d="m 16080.8,4257.37 c 0,0 -81.4,25.9 -133.6,49.87 -34.9,16 -187.5,91.91 -187.5,91.91 0,0 65.8,277.45 110.2,377.25 163.2,366.09 348.6,113.57 373.8,54.7 56.3,-131.58 -162.9,-573.73 -162.9,-573.73" /></g><path
         id="path518"
         style="fill:#ffffff;fill-opacity:1;fill-rule:nonzero;stroke:none"
         d="m 13966.1,7008.7 104.1,77.9 c 0,0 27.6,-42.1 -17.2,-77.7 -54.6,-43.4 -86.9,-0.2 -86.9,-0.2" /><g
         transform="scale(1.60996)"
         id="g520"><path
           id="path522"
           style="fill:#184655;fill-opacity:1;fill-rule:nonzero;stroke:none"
           d="M 16266,820.208 H 1242.7 c -18.78,0 -34,-19.439 -34,-43.416 0,-23.977 15.22,-43.356 34,-43.356 H 16266 c 18.8,0 34,19.379 34,43.356 0,23.977 -15.2,43.416 -34,43.416" /></g><g
         transform="scale(1.01455)"
         id="g524"><path
           id="path526"
           style="fill:#f7a491;fill-opacity:1;fill-rule:nonzero;stroke:none"
           d="m 10890.9,14808.4 c -2.4,6.2 -7.9,6.3 -13.4,6.5 -53.8,1.6 -107.6,4.1 -160.9,12 -9,1.4 -17.8,3.4 -26,6.6 -14.8,6 -29.4,5.8 -44.5,1.7 -8.1,-2.3 -16.4,-2.7 -24.7,-2.6 -27.1,0.1 -104.3,26.3 -143.9,33.3 -9.1,1.6 -16.3,8.4 -18.6,17.3 -39,154.4 -122.7,500.7 -133.5,614.6 -13.9,145.6 -114.5,802.2 -114.5,802.2 l -269.06,-75 c 0,0 110.66,-484.7 141.36,-719.7 23.6,-181.5 205,-566.6 261.9,-677.3 27.7,-82.4 90.1,-84.7 104.5,-86.5 8.2,-1 15.9,-5 21.3,-11.4 9.8,-11.4 21,-21.4 33.9,-29.5 9.6,-6 16.9,-13.9 23.2,-23.1 11.4,-16.7 21.7,-34.1 31.8,-51.6 6.8,-11.6 13.8,-15.2 23.7,-12.5 10.7,2.9 15.8,10.8 15.6,23.8 -0.3,19.2 -6.5,36.6 -16.1,53 -9.1,15.4 -8.4,24.3 2.1,38.4 6.1,8.2 12.3,16 20.2,22.5 8.1,6.6 16.6,11.5 27.6,10 19.3,-4.8 38.8,-8.7 58.6,-10.9 l 16.3,-3.3 8.9,-1.9 c 1.3,-0.4 30,-3.5 39.8,-3.5 7.9,0 20.6,-0.6 31.4,-1.1 9.9,-0.5 30.7,4.7 31.4,4.7 9.5,0.2 18,3.6 25.1,10 2.9,2.7 5.7,5.6 4.2,10.1 -1.3,4.1 -4.5,5.8 -8.7,6.5 -6.4,1.2 -39.8,5.3 -39.5,6.7 9.9,0 41,0.7 50.9,1 13.4,0.3 24.9,5.1 34.2,15 3.7,3.9 7.9,7.8 5.4,14" /></g><g
         transform="scale(1.03741)"
         id="g528"><path
           id="path530"
           style="fill:#9bc1f9;fill-opacity:1;fill-rule:nonzero;stroke:none"
           d="m 9826.51,16276.4 c 129.84,23.6 236.99,-557.5 236.99,-557.5 0,0 -288.56,-80.5 -362.49,-38.3 0,0 -83.91,372 -113.99,359 l 239.49,236.8" /></g><path
         id="path532"
         style="fill:#f7a491;fill-opacity:1;fill-rule:nonzero;stroke:none"
         d="m 6936.25,6049.7 c 8.92,25.6 -115.34,46.2 -121.95,72 -6.62,25.9 156.89,27.9 162.74,50.6 10.79,41.8 -179.21,8.8 -175.47,28.4 3.75,19.5 198,63.2 177,96.8 -21,33.6 -196.69,-66.3 -202.02,-43.6 -5.31,22.8 171.75,78.2 168.58,128.2 -1.69,26.7 -290.61,-133.1 -324.12,-118.6 -33.51,14.5 36.04,139.9 9.36,158.6 -26.68,18.6 -103.25,-255 -121.66,-264.1 -18.35,-9.1 -408.72,-231.9 -547.61,-267.3 -16.86,46.5 -53.32,109.2 -68.2,153.2 -77.93,-55.4 -135.79,-83.3 -216.22,-133.8 58.27,-146 141.2,-305.9 181.8,-324.3 123.6,-55.8 601.64,340.7 697.06,408.5 95.5,67.9 150.16,45.9 214.74,67.4 64.57,21.4 157.05,-37.5 165.97,-12" /><path
         id="path534"
         style="fill:#f7cc7f;fill-opacity:1;fill-rule:nonzero;stroke:none"
         d="m 5660,5840 c 0,0 -107,472.5 -88.44,609.6 18.56,137.1 181.49,264.8 294.38,217.5 C 5978.83,6619.6 6030,5960 6030,5960 l -370,-120" /></g></g></svg>