<?xml version="1.0" encoding="UTF-8" standalone="no"?>
<svg
   xmlns:dc="http://purl.org/dc/elements/1.1/"
   xmlns:cc="http://creativecommons.org/ns#"
   xmlns:rdf="http://www.w3.org/1999/02/22-rdf-syntax-ns#"
   xmlns:svg="http://www.w3.org/2000/svg"
   xmlns="http://www.w3.org/2000/svg"
   viewBox="0 0 2666.6667 2666.6667"
   height="2666.6667"
   width="2666.6667"
   xml:space="preserve"
   id="svg2"
   version="1.1"><metadata
     id="metadata8"><rdf:RDF><cc:Work
         rdf:about=""><dc:format>image/svg+xml</dc:format><dc:type
           rdf:resource="http://purl.org/dc/dcmitype/StillImage" /></cc:Work></rdf:RDF></metadata><defs
     id="defs6" /><g
     transform="matrix(1.3333333,0,0,-1.3333333,0,2666.6667)"
     id="g10"><g
       transform="scale(0.1)"
       id="g12"><g
         transform="scale(1.13776)"
         id="g14"><path
           id="path16"
           style="fill:#6bcccf;fill-opacity:1;fill-rule:nonzero;stroke:none"
           d="m 14814.8,1210.1 c 25.5,4.74 50.9,9.67 76.2,14.94 20,4.13 40,8.44 59.8,13.27 42.2,10.37 84.3,21.54 125.7,34.8 34.9,11.26 69.7,23.03 103.9,36.39 35.2,13.71 69.8,28.83 104,45 16.7,7.91 33.1,16.17 49.5,24.7 13.1,6.77 26.1,13.54 38.8,20.83 18.8,10.9 37.7,21.89 56,33.58 17.5,11.25 34.8,22.93 51.9,34.98 29.9,21.18 59.7,42.71 87.5,66.71 31.1,26.8 61.6,54.23 90.7,83.23 28.3,28.39 55.8,57.39 82.5,87.19 28.7,32.17 57,64.86 83.9,98.62 25,31.37 49.1,63.36 72.3,96.15 41,58.01 79.9,117.42 116.9,178.15 10.3,17.05 20.4,34.28 30.5,51.51 0.8,1.32 1.6,2.64 2.3,3.87 1.1,1.67 2,3.6 3.2,5.45 8.3,14.24 16.2,28.56 24.1,42.98 18.3,33.92 36.4,68.2 53.7,102.65 15.1,30.24 29.1,61.09 42.2,92.29 13,31.11 25.8,62.4 37.2,94.13 12.8,35.86 25,71.9 35.4,108.46 5.7,20.04 11.4,40.08 16,60.47 3.8,18.02 7.6,36.12 11.1,54.23 7.1,37.97 12.9,76.29 17.2,114.7 4.2,39.2 7.1,78.48 9,117.86 3.7,74.36 2.5,148.98 -1.9,223.34 -2.3,39.63 -5,79.27 -9.3,118.74 -3.7,35.51 -8.2,71.01 -13.1,106.26 -5.6,40.87 -11.4,81.74 -18.6,122.43 -7.2,40.08 -15.1,80.07 -23.7,119.89 -15.8,73.56 -34.3,146.6 -53.6,219.29 -17.4,65.13 -36.3,129.9 -56.9,194.06 -10.3,32.17 -20.6,64.34 -31.7,96.24 -13.9,39.64 -28.1,79.11 -43.1,118.31 -15.1,39.64 -30.6,79.1 -46.9,118.12 -15.5,37.27 -31.8,74.18 -48.5,110.92 -63.6,140.37 -130.7,279.24 -197.9,417.93 -33.7,69.7 -67.6,139.31 -101.8,208.83 -32.9,66.97 -66.1,133.68 -99.2,200.57 -59.6,120.59 -118.2,241.61 -178.2,362.12 -32.8,66.09 -65.9,132.1 -100.1,197.4 -31,59.59 -62.7,118.74 -95,177.63 -33,60.38 -66.4,120.59 -99.8,180.79 -37.6,67.94 -75.3,135.88 -113.8,203.3 -70.3,122.61 -141.9,244.34 -212.9,366.42 -34.7,59.5 -69.4,119.09 -103.9,178.68 -37.2,64.16 -74.2,128.41 -112.4,191.96 -42.1,70.05 -85.2,139.57 -129.3,208.3 -41,63.99 -84.4,126.48 -129.6,187.65 -43.1,58.45 -87.4,115.93 -133.8,171.83 -39.9,48.16 -80.6,95.8 -121.6,143.09 -37.1,43.06 -74.8,85.78 -112.8,128.14 -36.8,40.87 -74,81.48 -111.4,122 -38.4,41.75 -76.9,83.5 -115.6,124.98 -38.5,41.22 -77.6,82.18 -117.8,121.82 -35.6,35.07 -72.1,69.26 -110.2,101.52 -26.1,21.7 -52.5,42.89 -79.5,63.28 -0.3,1.49 -1.1,2.9 -2.1,4.13 -4.8,5.89 -9.6,12.04 -15.1,17.23 -4.3,4.21 -9,7.73 -14.1,10.98 -10.4,6.68 -21.3,12.39 -32.7,17.32 -4.5,2.02 -9,3.86 -13.7,5.62 h -0.1 c -7.3,4.75 -14.6,9.4 -22.1,13.89 -31.3,18.98 -63.6,36.65 -96.6,52.56 -83.6,40.34 -171.9,70.14 -262,91.67 -56,13.45 -112.9,23.11 -170,30.85 -26.8,3.69 -53.7,7.03 -80.6,10.37 -77.3,33.57 -154.4,67.59 -232.4,99.75 -43.4,17.97 -87.2,35.21 -131.4,51.07 -44.8,16.04 -90.3,30.32 -136.3,42.73 -21.2,5.74 -42.5,11.3 -64,16.29 -21.4,15.68 -42.9,31.32 -64.7,46.51 -24.7,17.28 -49.7,34.08 -75,50.5 -29.1,18.89 -58.6,37.22 -88.8,54.26 -28.9,16.26 -57.9,32.12 -87.4,47.31 -31,16.05 -62.5,31.29 -94,46.3 -10.9,5.19 -21.7,10.62 -32.9,15.19 -8.8,3.65 -17.4,6.98 -26.5,9.87 -4.3,1.13 -8.5,2.24 -12.7,3.22 -5.4,0.86 -11,2.04 -16.4,1.73 -1.5,-0.12 -3,-0.18 -4.4,-0.74 -1.4,-0.43 -2.8,-1.16 -4,-2.09 -0.2,-0.08 -0.2,-0.14 -0.2,-0.2 -4.1,-3.38 -5.3,-9.31 -3,-14.07 2.3,-4.69 7.6,-7.67 12.8,-6.6 1.3,-0.07 2.7,-0.13 4.1,-0.26 5.7,-0.77 11.3,-2.05 16.7,-3.67 0,0.02 0,0.03 -0.1,0.03 0.3,-0.06 0.6,-0.12 0.9,-0.18 -0.2,0.07 -0.5,0.09 -0.8,0.15 8.6,-2.78 16.9,-5.9 25.3,-9.41 21.1,-9.46 41.8,-19.51 62.5,-29.64 18.7,-9.07 37.4,-18.11 55.8,-27.6 37,-19.14 73.7,-39.09 109.9,-59.9 48,-28.46 94.9,-58.9 140.8,-90.88 8.4,-5.93 16.8,-11.85 25.1,-17.9 -13,2.52 -26,5.05 -39.1,7.28 -17.7,3.02 -35.5,5.92 -53.2,8.65 -30.2,4.5 -60.5,7.58 -90.7,10.37 -35.1,3.21 -70.1,6.05 -105.2,7.96 -72.4,3.88 -144.9,6.55 -217.1,11.79 -71.5,5.12 -142.8,12.66 -213.7,22.48 0.3,-0.06 0.6,-0.13 1,-0.19 -29.6,4.39 -59,8.9 -88.4,13.59 -29.8,4.75 -59.5,10.12 -89.1,15.43 -56.2,10.13 -112.5,20.56 -168.8,30.19 -34.2,5.82 -68.5,10.55 -102.7,15.45 -34.1,4.82 -68.3,9.19 -102.5,13.08 -19.3,2.23 -38.6,4.21 -58.1,6.19 -16.2,1.59 -32.5,3.27 -48.7,4.49 -33.3,2.6 -66.7,5.37 -100.1,6.36 -18.2,0.56 -36.3,1.17 -54.5,1.17 -9.5,0 -19.1,0.32 -28.7,0 -9.2,-0.36 -18.5,-0.68 -27.7,-0.97 -33.8,-1.19 -67.7,-4.22 -101.2,-8.34 -19.5,-2.41 -39.1,-4.82 -58.7,-7.54 -17.6,-2.47 -35.3,-5.12 -53,-7.84 -35.6,-5.56 -71.1,-12.1 -106.6,-18.71 -34.6,-6.42 -68.9,-14.57 -103.1,-22.66 -7,-1.67 -14,-3.65 -21,-5.49 -9.9,-2.6 -19.83,-5.25 -29.76,-7.84 -6.42,-1.73 -12.75,-3.71 -19.16,-5.57 -9.76,-2.89 -19.52,-5.74 -29.27,-8.58 -8.26,-2.4 -16.53,-5.25 -24.79,-7.91 -7.91,-2.53 -15.91,-4.86 -23.82,-7.58 -8.79,-3.09 -17.58,-6.12 -26.45,-9.2 -7.03,-2.46 -14.15,-4.76 -21.18,-7.41 -33.05,-12.41 -66.1,-25.02 -98.88,-38.41 -33.93,-13.89 -67.85,-27.77 -101.25,-42.9 -17.58,-7.97 -35.07,-15.93 -52.47,-24.22 -16,-7.65 -31.91,-15.37 -47.73,-23.33 -32.7,-16.48 -64.95,-33.65 -97.12,-51.25 -29.71,-16.24 -59.15,-33.03 -88.16,-50.57 -123.05,-74.37 -243.54,-152.68 -364.39,-230.64 -60.91,-39.2 -121.82,-78.49 -183.88,-115.58 -30.2,-18.19 -60.51,-36.21 -91.27,-53.61 -32.05,-18.02 -64.28,-36.04 -96.63,-53.62 -31.29,-16.52 -62.61,-33.04 -94.71,-47.81 -17.55,-8.17 -35.14,-16.17 -52.86,-23.73 -13.96,-5.98 -27.96,-11.6 -42.11,-17.05 -0.25,-0.09 -0.55,-0.18 -0.8,-0.35 -36.92,-13.89 -74.02,-27.07 -111.82,-38.67 -33.58,-10.38 -67.37,-20.04 -101.26,-29.27 -34.03,-9.23 -68.17,-18.11 -101.93,-28.22 -28.85,-8.7 -57.06,-18.98 -84.96,-30.41 -64.64,-26.28 -127.64,-58.53 -182.09,-102.57 -9.57,-7.82 -18.83,-15.91 -27.86,-24.26 -2.52,-2.28 -4.98,-4.56 -7.45,-6.85 -1.55,-1.58 -3.4,-2.99 -4.95,-4.66 -1.3,-1.14 -2.41,-2.37 -3.57,-3.52 -4.34,-4.04 -8.59,-8.17 -12.8,-12.39 -42.78,-42.19 -83.04,-86.75 -119.47,-134.65 -52.48,-69 -97.67,-143.17 -138.93,-219.29 -28.09,-51.77 -54.58,-104.33 -79.39,-157.68 -26.17,-56.16 -50.33,-113.11 -73.17,-170.68 -21.92,-55.02 -42.3,-110.66 -61.74,-166.56 -22.48,-64.77 -43.17,-130.25 -61.93,-196.17 -35.56,-124.81 -65.89,-251.11 -94.42,-377.68 -13.5,-60.2 -26.43,-120.49 -39.2,-180.79 -12.97,-61.43 -25.44,-122.87 -37.36,-184.48 -12.96,-67.59 -25.3,-135.27 -36.98,-203.21 -10.87,-63.2 -21.11,-126.56 -31.3,-189.85 -20.87,-130.34 -42.23,-260.59 -62.92,-390.94 -21.18,-133.33 -42.06,-266.67 -63.22,-400 -10.81,-68.11 -21.92,-136.14 -32.97,-204.17 -10.56,-65.04 -20.89,-130.08 -31.38,-195.12 -20.06,-123.84 -42.72,-247.24 -66.86,-370.38 -12.66,-64.16 -25.68,-128.23 -39.58,-192.13 -14.76,-68.03 -30.12,-135.97 -45.44,-203.91 -14.77,-65.21 -29.33,-130.43 -43.54,-195.82 -13.95,-64.25 -27.6,-128.67 -38.77,-193.45 -11.62,-67.68 -21.6,-135.62 -28.04,-203.91 -3.2,-34.01 -5.61,-68.21 -7.22,-102.39 -0.75,-15.12 -1.23,-30.24 -1.23,-45.36 -0.07,-13.88 -0.18,-27.86 0.24,-41.75 1.24,-34.71 5.07,-69.25 10.87,-103.44 2.59,-15.39 5.92,-30.77 9.45,-45.97 3.21,-14.07 6.61,-28.12 10.37,-42.1 4.45,-16.35 8.9,-32.7 13.66,-48.96 4.67,-16.17 9.24,-32.43 14.68,-48.34 4.57,-13.53 9.33,-26.89 14.38,-40.25 0.06,-0.09 0.06,-0.18 0.14,-0.27 1.41,-3.69 2.77,-7.29 4.19,-10.89 3.51,-9.15 7.04,-18.2 10.69,-27.25 -1.87,-27.43 -3.16,-54.93 -4.01,-82.53 -1.19,-35.07 -1.49,-70.31 -0.56,-105.38 0.98,-35.95 3.21,-71.81 6.3,-107.59 1.54,-17.57 3.52,-34.97 5.73,-52.38 2.17,-17.58 4.5,-35.06 7.61,-52.47 6.28,-36.3 13.51,-72.33 21.86,-108.19 2.34,-10.29 4.87,-20.48 7.39,-30.68 1.98,-8.08 4.08,-16.17 6.48,-24.08 5.2,-17.14 10.46,-34.37 16.19,-51.5 6.23,-18.46 12.77,-36.74 19.82,-54.94 2.82,-7.47 6.05,-14.85 9.43,-22.06 3.72,-7.91 7.29,-15.91 11.24,-23.64 7.91,-15.74 16.32,-31.2 25.26,-46.32 5.06,-8.52 10.13,-17.05 15.45,-25.49 4.68,-7.38 9.68,-14.68 14.68,-21.97 5.08,-7.3 10.56,-14.42 15.99,-21.53 5.38,-7.12 10.81,-14.24 16.43,-21.19 11.3,-14.15 22.77,-28.12 34.53,-41.92 10.72,-12.66 22.15,-24.96 33.64,-36.92 12.22,-12.74 24.82,-25.13 37.85,-37.09 27.4,-25.13 56.06,-48.78 86.18,-70.48 29.22,-21.19 59.28,-40.88 90.04,-59.6 14.87,-9.05 30.25,-17.31 45.55,-25.66 15.32,-8.26 30.77,-16.26 46.32,-24.08 17.48,-8.7 35.01,-17.23 52.67,-25.49 16.06,-7.47 32.29,-14.5 48.46,-21.63 17.05,-7.38 34.02,-14.93 51.32,-21.79 8.39,-3.34 16.73,-6.68 25.12,-9.85 4.76,-1.75 9.58,-3.6 14.33,-5.45 0.5,-0.17 1.05,-0.35 1.54,-0.52 l 0.94,-0.35 c 4.75,-1.67 9.56,-3.43 14.31,-5.19 57.92,-20.92 116.77,-39.11 176.1,-55.72 59.64,-16.7 120.27,-30.06 181.09,-42.01 16.73,-3.17 33.54,-6.51 50.38,-9.15 18.6,-2.9 37.25,-5.62 55.88,-8.08 35.57,-4.75 71.25,-8.79 107.01,-11.69 35.93,-2.99 71.88,-5.1 107.93,-5.8 17.1,-0.27 34.27,-0.62 51.37,-0.62 h 4.14 c 18.46,0 36.93,0.44 55.32,1.23 41.06,1.85 82.06,4.4 122.99,8.18 43.53,4.04 87,8.43 130.4,13.27 35.02,3.95 69.9,8.79 104.66,14.33 34.27,5.53 68.35,12.21 102.38,19.07 35.56,7.2 71.13,14.76 106.2,23.91 33.3,8.7 66.53,17.75 99.22,28.38 0,-0.08 0,-0.08 -0.08,-0.08 32.95,10.72 65.74,21.79 98.17,33.92 31.99,11.78 63.72,24.7 95.19,37.79 32.87,13.45 65.65,27.25 97.91,42.11 9.23,4.13 18.37,8.43 27.51,12.74 2.81,1.32 5.54,2.55 8.35,3.96 0.61,0.26 1.23,0.61 1.84,0.88 0.8,0.43 1.59,0.78 2.46,1.22 0.36,0.09 0.8,0.27 1.23,0.44 0,0.09 0.09,0.18 0.18,0.18 2.28,1.14 4.92,2.11 7.21,3.43 2.72,1.14 5.45,2.72 7.99,3.95 15.47,7.56 30.94,15.12 46.15,23.03 17.58,9.05 34.98,18.63 52.21,28.21 15.55,8.71 31.02,17.49 46.14,26.72 29.44,18.02 58.45,36.74 87.01,56.08 30.15,20.39 60.12,41.22 89.56,62.75 27.78,20.48 55.2,41.4 81.39,63.81 25.14,21.62 49.75,43.69 73.92,66.27 12.13,11.34 23.99,22.85 35.95,34.37 11.86,11.51 23.64,23.03 34.98,35.07 22.85,24.17 44.12,49.66 64.34,76.11 20.21,26.46 39.63,53.44 58.27,81.04 39.11,57.92 75.32,117.6 110.63,177.89 9.5,16.17 18.9,32.35 28.3,48.52 0.4,0 0.7,-0.09 1.2,-0.09 8.8,-0.61 17.7,-1.41 26.6,-2.37 7.6,-1.06 15.2,-2.02 22.7,-3.61 6.9,-1.49 13.9,-3.16 20.8,-4.92 10.1,-2.9 20,-6.15 29.9,-9.93 5.5,-2.29 11,-4.57 16.2,-7.21 5,-2.55 9.7,-5.09 14.6,-7.73 6.5,-4.05 12.9,-8.35 19.2,-12.75 4.7,-3.86 9.1,-7.82 13.4,-12.04 4.7,-5.27 9.3,-10.72 13.6,-16.43 10,-13.8 18.7,-28.3 27,-43.16 21.3,-38.49 41.1,-77.7 60.2,-117.25 21.9,-45.97 43,-92.28 65.1,-138.16 31,-64.87 64.1,-128.5 99,-191.34 0.1,-0.09 0.1,-0.18 0.1,-0.18 2,-3.6 3.9,-7.03 5.8,-10.54 35.1,-62.59 71.3,-124.81 111.7,-184.14 44.2,-65.22 91.1,-128.67 143.1,-187.83 32.6,-36.91 67.5,-72.07 107.4,-101.07 14,-10.2 28.5,-19.78 43.4,-28.57 13,-7.73 26.4,-14.85 40.4,-20.83 23.9,-10.37 49,-18.45 74.7,-23.46 23.9,-4.75 48.2,-7.56 72.4,-9.59 54.3,-4.56 108.8,-7.11 163.2,-7.9 21.1,-0.36 42.2,-0.27 63.2,-0.27 8.5,0 16.9,0 25.4,-0.09 34.6,0 69.1,0 103.8,-0.44 38.1,-0.43 76.2,-1.22 114.3,-3.34 37.7,-2.1 75.2,-5.62 112.5,-10.8 27.3,-3.78 54.6,-8.18 81.7,-12.93 h 3064.3 c 9.5,1.59 19,3.26 28.4,4.93" /></g><path
         id="path18"
         style="fill:#fff6e8;fill-opacity:1;fill-rule:nonzero;stroke:none"
         d="m 10142.4,1932.4 c -2.7,2.2 -4.5,5.5 -4.9,9 0,0.1 -0.1,0.3 -0.1,0.4 0,0.3 0,0.5 0,0.7 -4.6,20.2 -10,40.3 -15.2,60.2 -5.6,21.9 -11.5,43.7 -17.3,65.6 -3,11 -5.9,22 -8.9,33 -22,-6.5 -44,-13 -66,-19.6 -30.33,-8.9 -60.69,-17.9 -91.05,-27 -1.47,-0.5 -2.94,-0.7 -4.35,-0.7 -5.61,0 -10.81,3.1 -12.91,8.9 -2.32,6.6 1.11,15.1 8.14,17.2 l 117.37,34.8 c 13.9,4.2 27.8,8.2 41.7,12.3 -5.4,20.2 -10.9,40.5 -16.4,60.6 -20.8,76.6 -41.9,153.1 -62.5,229.7 -38.73,143.9 -73.85,288.8 -109.32,433.6 -16.09,65.8 -32.53,131.5 -50.44,196.9 -18.47,67.4 -38.43,134.5 -59.37,201.2 -22.62,71.6 -46.07,142.9 -71.31,213.6 -24.29,68.4 -50.35,136.3 -76.91,203.9 -27.05,68.5 -55.72,136.4 -84.94,204.1 -30.27,70 -61.11,139.7 -93.01,208.8 -30.27,65.4 -61.4,130.3 -93.36,194.9 -33.72,68.1 -68.5,135.7 -102.49,203.6 -32.68,65.3 -62.94,131.9 -91.61,199 -31.11,72.8 -60.21,146.5 -86.34,221.3 -13.13,37.6 -26.2,75.3 -38.15,113.2 -12.22,38.9 -23.88,77.9 -34.83,117.1 -10.76,38.5 -20.38,77.3 -29.66,116.1 -9.06,38.5 -16.65,77.2 -23.88,116 -14.89,79.8 -25.57,160.4 -34.35,241.1 -8.07,73.5 -13.92,147.3 -18.34,221 -4.91,83.7 -6.17,167.6 -6.17,251.4 0.07,80.1 2.25,160.1 5.54,240 6.4,152.9 20.79,305.2 27.82,458 3.51,76.1 5.12,152.4 6.33,228.6 1.19,78.3 1.67,156.6 1.82,234.9 0.36,163.5 -2.52,326.9 -9.34,490.1 -2.88,68.2 -6.33,136.4 -9.69,204.7 -0.14,2.5 -0.29,5.2 -0.43,7.7 -0.08,2 -0.34,4.1 -0.34,6.2 -0.37,2.7 -0.29,5.5 -0.37,8.1 -0.07,1.6 -0.26,3.1 -0.26,4.7 -0.08,1.2 -0.15,2.3 -0.15,3.4 -0.36,6.5 -0.7,13 -0.99,19.5 -0.49,9.4 -1.06,18.9 -1.54,28.3 -1.06,20.5 -2.25,40.9 -3.44,61.4 -2.39,40.3 -5.27,80.5 -8.02,120.9 -5.34,78.1 -10.4,156.2 -15.23,234.3 -9.91,159.3 -19.75,318.6 -22.63,478.1 -0.7,37.6 -0.55,75.1 0.08,112.5 0.48,27.1 1.04,54.2 1.88,81.2 l 0.44,12 c 0.34,8.7 0.69,17.3 1.11,26 0,0.2 0,0.6 0.07,0.9 9.43,9 18.9,18 28.38,26.9 2.18,2.1 4.43,4.2 6.6,6.2 39.69,37.1 80.3,73 121.68,108.1 43,36.6 86.2,72.8 130.39,107.8 41.38,32.8 83.46,64.8 126.37,95.6 42.93,30.7 86.49,60.7 132.77,86.3 21.08,11.6 43.35,21.8 67.59,24 9.21,0.9 18.4,0.2 27.39,-1.5 8.02,-1.4 15.74,-4.5 23.25,-7.5 17.16,-6.9 33.67,-15.3 49.96,-24 22.27,-11.9 44.26,-24.1 66.67,-35.6 25.36,-13.1 51,-25.4 77.2,-36.6 32.95,-13.7 66.6,-24.9 100.95,-34.5 -0.63,0.1 -1.19,0.3 -1.81,0.4 57.79,-15.5 116.94,-26.6 176.23,-34.5 7.3,-1 14.5,-1.8 21.8,-2.6 0.5,-1.8 1.3,-3.6 2.2,-5.3 5.1,-10.3 10.2,-20.5 15.4,-30.7 0.8,-1.6 1.5,-3.2 2.2,-4.8 -10.4,-23 -20.7,-46 -30.9,-69 -10.5,-23.9 -21.2,-47.5 -31.27,-71.5 -10.12,-24 -19.96,-48.1 -29.73,-72.3 -0.07,-0.1 -0.12,-0.2 -0.12,-0.3 -0.51,-1.2 -0.92,-2.5 -1.47,-3.6 -0.22,-0.5 -0.44,-1 -0.58,-1.5 v -0.1 c -0.77,-1.8 -1.47,-3.6 -2.25,-5.5 -0.27,-0.8 -0.56,-1.6 -0.9,-2.3 0,-0.1 -0.07,-0.1 -0.07,-0.2 0,0 -0.07,-0.2 -0.14,-0.3 -0.08,-0.1 -0.08,-0.2 -0.15,-0.4 -1.76,-4.4 -3.43,-8.8 -5.27,-13.2 -6.96,-17.5 -14.04,-34.8 -20.37,-52.5 -1.33,-3.8 -4.14,-6.6 -7.59,-8.1 0.07,-1.1 0.21,-2.3 0.29,-3.4 1.47,-19.2 3.02,-38.3 4.42,-57.5 2.81,-36.5 5.19,-72.9 8.51,-109.3 2.51,-28 5.05,-56 7.86,-84 2.6,-26.3 5.48,-52.6 9.27,-78.7 0,-0.5 0.08,-0.9 0.22,-1.3 v -0.2 c 0,-0.2 0,-0.3 0.06,-0.5 0.29,-1.6 0.5,-3.3 0.71,-4.9 -0.07,0.6 -0.14,1.3 -0.21,1.8 l 0.63,-4.4 c 5.41,-35.9 11.65,-71.7 18.12,-107.5 6.32,-34.6 13.06,-69.3 21.78,-103.5 2.45,-9.7 4.99,-19.4 7.75,-29.1 0.3,-1.1 0.7,-2.2 1,-3.3 5.5,-18.9 11.6,-37.5 19.3,-55.5 4.3,-9.4 8.8,-18.6 14,-27.5 2.3,-3.4 4.7,-6.8 7.3,-10.1 2.8,-3.4 5.6,-6.7 8.8,-9.8 2.9,-2.5 5.8,-5 8.9,-7.3 2.1,-1.5 4.3,-3.1 6.5,-4.3 0.7,-0.5 1.3,-0.8 2,-1.2 0.5,-0.3 1.1,-0.6 1.7,-0.9 4.2,-2 8.3,-3.9 12.6,-5.6 4.1,-1.5 8.4,-2.9 12.6,-4.1 3.3,-0.7 6.4,-1.2 9.6,-1.6 0.1,-0.1 0.3,-0.1 0.4,-0.1 3.3,-0.4 6.5,-0.6 9.8,-0.7 6.1,0.2 12.1,0.9 18.1,1.7 4.6,0.8 9.1,1.7 13.6,2.9 10.2,3.1 20,6.4 29.8,10.5 11.5,5.5 22.8,11.6 33.8,18.1 6.4,4.1 12.9,8.1 19,12.5 6.6,4.6 12.9,9.4 19.2,14.4 24.5,20.6 47.9,42.3 70.1,65.3 0.7,0.6 1.4,1.3 2.1,2.1 1.1,1.2 2.3,2.4 3.4,3.5 1.1,1.1 2.2,2.3 3.3,3.5 0.2,0.2 0.4,0.4 0.5,0.6 0.2,0 0.3,0.3 0.4,0.3 0.7,0.7 1.3,1.4 2,2.1 v 0.1 c 25.8,27.3 50.6,55.4 74.4,84.4 25.1,30.5 50,61.2 74.6,92.1 48.1,60.2 96.5,120.3 147.2,178.3 18.5,21 37.1,41.6 56.5,61.7 1,1 1.9,2 2.8,3 2.9,3 5.7,5.9 8.5,8.9 52.5,54.9 108.6,106.1 163.4,158.7 0.4,0.4 0.9,0.8 1.3,1.3 0.3,7.5 0.5,15.1 0.7,22.7 1,38.5 2.2,77.1 3.5,115.6 2.5,76.6 5.7,153.3 9.4,229.9 1.6,33.8 3.3,67.9 6,101.7 -0.7,-0.6 -1.4,-1.1 -2.1,-1.6 1.8,5.5 3.4,11 5.1,16.5 2.6,8.2 2.6,16.6 0.5,24.4 0.9,7.2 6.8,12.8 14.2,12.4 1.6,0 3.2,-0.5 4.6,-1.2 33.9,26.4 66.9,53.8 99.2,82.1 35.9,31.4 70.7,63.8 105.5,96.5 3.4,3.3 6.7,6.7 10.1,10 -13.5,-1.8 -27,-4.5 -40.5,-7 -14,-3.1 -27.8,-6.4 -41.8,-9.9 -12.7,-3.2 -25.2,-7.2 -37.7,-11.2 -38.8,-13 -76.9,-27.6 -115.1,-42.4 -38.1,-14.9 -76,-30.1 -113.8,-45.9 -6.8,-2.8 -14.8,0.6 -17.6,7.4 -2.8,6.8 0.6,14.8 7.3,17.6 47,19.5 94.3,38.3 141.7,56.6 46.3,17.8 92.7,35.1 140.9,47.1 10.8,2.8 21.6,5.3 32.5,7.4 7,1.3 14,2.6 20.9,4 7.6,1.4 15.3,2.3 23,3.5 10.4,1.7 20.9,2.6 31.3,3.6 5.3,5.3 10.4,10.7 15.7,16 6.2,6.4 12.4,12.8 18.4,19.3 9.2,9.9 18.3,19.8 27.5,29.7 7.1,7.5 13.7,15.4 20.5,23.1 15.8,17.8 31.2,35.8 46.6,54 13.6,16 26.6,32.6 39.9,49 11,14.2 22.2,28.5 33.2,42.7 11.3,14.5 22,29.4 33,44.1 4.8,6.4 9.2,13 13.8,19.4 4.7,6.6 9.5,13.1 14,19.8 10.6,15.7 21.2,31.5 31.6,47.4 0.8,1.7 1.8,3.4 2.8,5 v 0 c 0.3,0.5 0.6,1 0.9,1.5 3.5,5.7 11.4,7.4 17.2,4.4 6.4,-3.1 9.5,-11.6 6,-18.1 -1.1,-1.9 -2.2,-3.8 -3.3,-5.7 -1.1,-2.1 -2.1,-4.1 -3.1,-6.2 -0.9,-1.8 -2.1,-3.3 -3.6,-4.5 -4.9,-7.5 -10,-14.9 -15,-22.3 -8.7,-13 -17.7,-25.8 -26.7,-38.7 -16.1,-22.6 -32.6,-45 -49.7,-67 -10.2,-13.2 -20.3,-26.8 -30.9,-39.8 -10.6,-12.9 -21.2,-26 -31.7,-39 -9.1,-11.2 -18.7,-22.2 -28,-33.3 -8.8,-10.3 -17.8,-20.5 -26.8,-30.7 -9.1,-10.2 -18.2,-20.6 -27.5,-30.6 -10,-10.8 -19.8,-21.7 -30,-32.2 -1.6,-1.6 -3.1,-3.2 -4.6,-4.8 l 3.8,0.3 c 12.9,0.6 26.1,0.3 39,0 13.4,-0.3 26.7,-1 40.1,-1.7 5.8,-0.3 11.7,-1 17.6,-1.5 5,-0.4 10,-0.8 14.9,-1.4 15.1,-1.8 30,-3.7 45.1,-5.8 32,-4.5 63.9,-10.4 95.7,-16.3 6,-1.2 11.9,-2.3 17.9,-3.5 0.1,3.4 0.3,6.8 0.5,10.2 5.1,-5.4 11,-9.9 17,-14.6 0.3,-0.2 0.6,-0.5 0.9,-0.7 -0.2,0.2 -0.4,0.3 -0.6,0.4 0.3,-0.2 0.5,-0.3 0.8,-0.6 8.2,-6.8 16.3,-13.8 24.3,-20.7 l 0.5,-0.5 c 3.3,-3.6 6.6,-7.2 9.8,-11 -5.5,1.1 -11,2.1 -16.4,3.2 l -11.2,2.1 c -0.1,-1.2 -0.1,-2.4 -0.1,-3.6 -1.3,-37.4 -2.6,-74.7 -3.3,-112.1 -0.7,-33.1 -0.5,-66.3 -0.2,-99.4 v -0.4 -2.6 c 0,-1.6 0.1,-3.3 0.1,-5 0.9,-76.5 3.7,-152.9 9.1,-229.2 5.3,-76.8 12,-153.6 20.4,-230.1 8.1,-72.6 17.7,-145 27.5,-217.3 6.1,-6.6 12.2,-13.2 18.3,-19.8 13,-14.1 25.7,-28.6 38.4,-43 24.5,-27.9 48.6,-56.2 72.3,-84.6 31.1,-37.2 61.8,-75 94.1,-111.3 1,-1 1.9,-2.2 3,-3.3 20.1,-22.3 41.8,-42.8 64.5,-62.4 10.7,-9 22.3,-17.2 33.9,-25.1 9.1,-5.6 18.4,-10.8 27.8,-15.5 11.3,-5.2 22.7,-9.5 34.3,-13.6 h 0.2 c 0.4,-0.2 0.9,-0.4 1.4,-0.6 -0.3,0.2 -0.5,0.2 -0.7,0.4 7.8,-2.5 15.7,-4.4 23.8,-6.1 10.3,-2.1 20.7,-3.9 31.2,-5 12.5,-0.8 25,-1.1 37.4,-0.6 11.2,0.9 22.1,2.4 33,4.4 13.8,3 27.4,6.6 40.8,11.1 0,0 0.1,0.1 0.2,0.1 17.4,6.1 34.5,13 51.1,21.2 17.3,9 34,18.9 50.1,29.9 11.5,8.3 22.6,16.9 33.2,26.1 2.2,1.9 4.3,3.8 6.5,5.8 -0.1,-0.1 -0.1,-0.2 -0.1,-0.2 0.1,0.2 0.3,0.3 0.4,0.5 0.3,0.2 0.6,0.5 0.9,0.7 -0.2,-0.1 -0.2,-0.2 -0.3,-0.2 19.4,17.5 37.1,36.8 54.4,56.4 0.1,0.3 0.3,0.5 0.5,0.7 0,0.1 0.1,0.1 0.2,0.1 0,0.1 0.1,0.1 0.1,0.2 0.1,0.1 0.2,0.2 0.3,0.4 0.1,0.1 0.2,0.3 0.4,0.4 0,0.1 0.2,0.3 0.3,0.4 l -0.1,-0.1 c 0.2,0.3 0.4,0.5 0.7,0.8 0.3,0.4 0.5,0.7 0.8,1.1 l 0.2,0.1 c 0.3,0.5 0.7,0.8 1.1,1.2 0.3,0.4 0.8,0.9 1.1,1.4 0.3,0.3 0.6,0.6 0.8,0.9 0,0.1 0.1,0.2 0.2,0.2 0,0.1 0.1,0.1 0.1,0.2 0.3,0.3 0.6,0.7 0.9,1 l 0.3,0.3 c 0.2,0.2 0.5,0.6 0.7,0.9 0,0 0.1,0.2 0.2,0.2 0,0 0,0 -0.1,0 12.8,15.1 25,30.7 36.8,46.6 11.8,16.1 23.3,32.6 34.4,49.3 0,0 -0.1,-0.1 -0.1,-0.2 0.9,1.4 1.7,2.8 2.7,4.1 -0.4,-0.5 -0.7,-1 -1,-1.4 1.4,2.3 2.9,4.9 4.6,7.2 0.4,0.6 0.9,1.2 1.3,1.8 0.3,0.5 0.6,1 0.9,1.5 9.9,15.8 19.9,31.8 29.4,47.9 9.9,17 19.5,34.1 29,51.3 18.8,34.2 37,68.7 54.5,103.6 6.7,13.5 13.3,27.1 20,40.7 0.1,0 0.2,0.2 0.2,0.3 3.2,6.5 6.3,13.1 9.5,19.6 0.1,0.1 0.2,0.3 0.2,0.4 v 0 c 0,0.1 0.1,0.2 0.1,0.2 0,0.1 0,0.1 0,0.1 0,0.1 0.1,0.2 0.2,0.4 0.1,0.2 0.2,0.6 0.4,0.8 0.7,1.5 1.4,2.9 2.1,4.4 1.2,2.5 2.4,4.9 3.7,7.4 0.9,2 1.8,3.9 2.7,5.9 0.2,0.3 0.4,0.6 0.5,0.9 0.1,0.2 0.2,0.4 0.3,0.6 0.1,0.2 0.2,0.4 0.3,0.6 0,0.2 0,0.2 0.1,0.3 l 0.2,0.4 c 0.1,0.3 0.3,0.6 0.4,0.8 0,0 0,-0.1 -0.1,-0.1 0.4,0.6 0.6,1.2 0.9,1.8 0.9,1.7 1.8,3.5 2.6,5.2 0.7,1.7 1.6,3.3 2.3,4.8 0,-0.1 -0.1,-0.1 -0.2,-0.3 l 1.7,3.4 c -0.1,-0.1 -0.1,-0.2 -0.2,-0.3 0.6,1.3 1.3,2.5 1.8,3.8 0,-0.1 -0.1,-0.2 -0.1,-0.3 0.1,0.3 0.3,0.5 0.4,0.7 l 0.4,0.9 c 0.6,1.4 1.2,2.6 1.9,4 0.5,1 1,2 1.5,2.9 0.7,1.8 1.5,3.4 2.4,5.1 1.1,2.2 2.2,4.6 3.3,6.8 0.1,0.2 0.2,0.5 0.3,0.7 v 0.1 c 0,0.1 0,0.1 0.1,0.1 0.3,0.6 0.6,1.2 0.9,1.8 0.4,0.7 0.7,1.5 1.1,2.2 0.3,0.5 0.5,1 0.8,1.6 0.7,1.7 1.6,3.4 2.4,5.1 0.2,0.6 0.5,1.1 0.8,1.5 0.2,0.6 0.5,1.1 0.8,1.6 -0.1,0 -0.1,-0.1 -0.2,-0.1 0.6,1.1 1.1,2.2 1.6,3.2 0.7,1.5 1.4,2.9 2.1,4.4 0,-0.1 -0.1,-0.1 -0.1,-0.3 l 1.5,3.2 v -0.1 c 1.1,2.4 2.3,4.9 3.5,7.3 1.1,2.3 2.1,4.9 3.4,7.3 1.1,2.7 2.6,5.3 4,7.9 0,-0.1 -0.1,-0.1 -0.1,-0.3 0.1,0.2 0.1,0.4 0.2,0.5 0.1,0.3 0.3,0.6 0.5,0.9 h -0.1 c 3,6.3 6.1,12.6 9.2,18.8 0,0.3 0.2,0.5 0.2,0.8 0.2,0.2 0.3,0.4 0.5,0.7 2.8,5.7 5.5,11.4 8.3,17.1 0.6,1.3 1.3,2.7 1.9,3.9 33.3,69.4 68.4,138.1 106.2,205.1 15.6,27.9 31.8,55.6 48.3,83 7.9,13.4 16.1,26.5 24.3,39.8 3.2,5.2 6.5,10.3 9.8,15.5 4.3,6.7 8.3,13.6 12.8,20.1 0,0.2 0.1,0.3 0.2,0.4 6.5,10.1 13.1,20.1 19.6,30.2 42.9,65.8 88.8,129.6 135.8,192.5 47.1,63 96.1,124.6 144.8,186.2 23.3,29.5 46.7,59.1 70,88.6 1.9,52.7 3.9,105.4 6.4,158.1 3.7,76.6 7.3,153.1 11.4,229.6 2.1,37 4.3,74 6.8,111 0.1,1.1 0.2,2.3 0.3,3.4 7.8,8.1 15.8,16 24,23.7 3.3,3.1 6.6,6.2 10,9.2 21,2.6 42.1,4.7 63.2,6.6 23.7,2.1 47.5,4.1 71.2,5.5 25.9,1.4 51.7,2.4 77.6,3.1 24.5,0.7 49,1.1 73.4,0.2 25.7,-0.9 51.5,-1.9 77,-4.4 11.8,-1.2 23.6,-2.5 35.3,-4 13.1,-1.6 26.2,-4 39.3,-6.2 23.9,-4.2 47.8,-9.3 71.4,-15.3 20.9,-5.3 41.5,-11.4 61.9,-18.2 18.5,-6 36.8,-12.5 55.2,-19 21,-7.5 42,-15.2 62.9,-23.3 19.3,-7.5 38.4,-15.2 57.5,-22.7 34.8,-13.7 69.6,-26.9 104.6,-39.9 81.1,-30.4 161.5,-63.1 240.9,-97.8 54.9,-24 109.6,-48.9 163.1,-75.9 37.6,-18.9 74.6,-38.9 110.8,-60.3 38.2,-22.4 75.5,-46.6 112.3,-71.3 39,-26 77.3,-53.1 115.2,-80.8 39.7,-28.7 79.1,-57.9 117.9,-87.8 65.7,-50.7 129.4,-104 192.5,-157.8 47.3,-40.3 94.6,-80.8 141.5,-121.7 13.9,-12.1 27.8,-24.3 41.8,-36.5 -1.8,0.5 -3.6,0.9 -5.4,1.4 -13.5,3.1 -27.1,6.1 -40.8,8.5 -2.5,0.4 -4.9,0.8 -7.4,1.2 -11.6,1.8 -23.3,3.3 -35,4.6 h 0.8 c -0.5,0 -1,0.1 -1.5,0.1 -18.7,1.5 -37.5,2.2 -56.3,2.7 -3.7,0 -7.5,0 -11.2,0 -2.4,0 -5,-0.3 -7.5,-0.1 -2.1,-0.2 -4.2,-0.2 -6.3,-0.2 h -1.8 c -27.2,-0.7 -54.5,-4 -81.5,-7.9 -14.9,-2.5 -29.9,-5.2 -44.7,-8.5 -14.4,-3.2 -28.6,-7 -42.8,-10.8 -15,-4.4 -29.7,-9.2 -44.4,-14.4 -14.2,-5 -28.2,-11 -42.1,-16.8 -29.5,-13 -58.3,-27.3 -86.1,-43.8 -9.3,-5.8 -18.6,-11.7 -27.5,-18.2 -9.2,-6.6 -18.1,-13.7 -27,-20.6 -0.2,-0.2 -0.4,-0.3 -0.6,-0.4 -0.2,-0.3 -0.3,-0.4 -0.5,-0.5 -12.7,-10.4 -25,-21.1 -36.9,-32.2 -13.4,-12.6 -26.4,-25.7 -39.1,-38.9 -0.2,-0.2 -0.3,-0.3 -0.4,-0.4 -0.2,-0.3 -0.4,-0.4 -0.6,-0.6 -32.6,-34.8 -62.9,-71.5 -91.3,-109.7 -19.7,-27.3 -39,-54.9 -57.2,-83.2 -9.4,-14.6 -18.1,-29.5 -26.9,-44.4 -8.6,-14.6 -16.8,-29.4 -24.9,-44.4 -11,-20.7 -21.8,-41.5 -31.5,-62.8 -10.5,-23.1 -20.5,-46.5 -29.6,-70.1 -0.8,-2.1 -1.6,-4.2 -2.3,-6.2 -13.5,-35.9 -26.3,-72.2 -37.1,-109.1 -10.9,-36.7 -20.4,-73.8 -29.3,-111 -9.9,-42.9 -18.9,-86 -26.8,-129.4 -7.7,-42.7 -13.3,-85.7 -17.9,-128.8 -2.7,-27 -5.2,-54 -6.9,-81 -1.8,-28.4 -2.9,-56.6 -3.7,-84.9 -1.8,-59.3 -2.5,-118.7 -1.1,-177.9 2.7,-83.7 10.1,-167 20.9,-250.1 2.6,-20.3 5.5,-40.6 8.4,-61 0.6,-4.2 1.2,-8.4 1.8,-12.7 0.3,-2.4 0.9,-4.9 1.1,-7.3 0.6,-2.7 0.9,-5.6 1.3,-8.3 8.9,-55.9 19.1,-111.6 30.8,-167 10.8,-51.2 22.3,-102.4 33.4,-153.5 10.7,-49 22,-97.8 33.8,-146.6 11.8,-49.1 23.6,-98.4 35.4,-147.6 16,-66.8 32.9,-133.4 50.6,-199.9 18.5,-69 36.6,-137.9 56.4,-206.7 13.7,-47.4 27.9,-94.7 42.6,-141.9 15.9,-50.8 32.5,-101.5 48.3,-152.3 16.5,-52.8 32.7,-105.6 48.9,-158.4 15.3,-50.1 30.7,-100 45.7,-150 16.8,-55.3 33.4,-110.5 50.9,-165.5 17.7,-55.5 36.2,-110.6 54.2,-166 17.7,-54.6 35.8,-109 53.9,-163.4 17.6,-52.5 34.5,-105.2 51.2,-158 33,-104.5 64.5,-209.5 95.6,-314.7 32,-107.4 62.3,-215.3 92.9,-323.1 31,-108.7 62.3,-217.4 92.3,-326.4 25.7,-93.3 51.3,-186.7 77.5,-280 2.4,-8.7 4.9,-17.4 7.3,-26.1 -4.3,-1 -8.7,-2 -13,-3.1 -4.4,-1 -8.7,-2.2 -13,-3.3 -5.2,-1.3 -10.4,-2.8 -15.6,-4.3 -43.1,-12.5 -85,-28.7 -126.1,-46.7 -80.7,-36.1 -157.8,-79.5 -233.5,-125.1 -61.7,-37.7 -122.6,-76.4 -184,-114.6 -65.6,-40.8 -132.3,-79.9 -201.6,-114 -67.3,-33.1 -136.5,-62.2 -207.8,-85.2 -36.2,-11.7 -73.2,-21.5 -110.3,-29.9 -33.8,-7.8 -68,-14.2 -102.3,-19.5 -3.9,-0.6 -7.7,-1.2 -11.5,-1.8 0.5,0.1 1.2,0.2 1.8,0.3 -50,-7.6 -100.3,-12.2 -150.7,-16.6 -45.9,-4 -91.7,-7.7 -137.4,-14.4 -74.3,-11.3 -148.2,-27.2 -220.8,-47.6 -21.7,-6.4 -43.3,-12.8 -64.8,-19.8 -24.1,-7.9 -48,-16.4 -71.8,-25.2 -21.8,-8.1 -43.4,-16.7 -65,-25.4 -21.9,-8.9 -43.8,-18 -65.4,-27.4 -2.9,-1.3 -5.9,-2.6 -8.7,-3.9 -1.6,-0.7 -3.1,-1.4 -4.7,-2 -29.8,-13.4 -59.2,-27.4 -88.3,-42 -29.8,-15 -59.5,-30.7 -89,-46.4 -57.8,-30.9 -114.8,-63.4 -171.1,-97.2 -5.4,-3.3 -11,-6.7 -16.6,-10 -32.9,-20.2 -65.5,-40.6 -97.9,-61.7 -32.6,-21.1 -64.9,-43 -96.8,-65 -64.3,-44.2 -127.2,-90.5 -188.7,-138.3 -23.3,-18.1 -46.5,-36.4 -69.6,-54.8 -56.2,-45.2 -113.1,-89.6 -171.3,-132.1 -24.8,-18 -49.7,-36.6 -77.5,-49.6 -15.4,-7.3 -32,-10.3 -48.7,-12.4 -28.4,-3.7 -57.1,-6 -85.7,-8.6 -35.3,-3.3 -70.6,-6.6 -105.8,-11.7 -23.2,-3.6 -46.5,-7.8 -69.2,-14.3 -0.7,-0.1 -1.3,-0.3 -2,-0.5 -11,-3.3 -21.9,-7 -32.4,-11.6 h -0.1 c 0,0 -0.1,-0.1 -0.2,-0.1 h -0.1 c 0,0 -0.2,0 -0.2,-0.1 -7.2,-3.3 -14.2,-6.9 -21,-10.8 -5,-3.1 -9.9,-6.5 -14.6,-10.2 -5.5,-4.6 -10.7,-9.5 -15.8,-14.7 -8.5,-8.9 -16.5,-18.3 -23.9,-28.2 -5.9,-7.9 -11.4,-16.1 -16.3,-24.7 -5.4,-9.6 -10,-19.5 -14.1,-29.6 -9.1,-23.4 -16.1,-47.8 -22.6,-72.1 0.1,0.2 0.2,0.4 0.3,0.7 -3,-11.7 -5.9,-23.4 -8.5,-35.2 12.4,3.3 24.9,6.6 37.3,9.9 7.1,1.9 14.6,-3.5 16.1,-10.4 1.5,-7.5 -3.3,-14.1 -10.4,-16 -16.6,-4.4 -33.1,-8.8 -49.6,-13.2 -0.7,-2.9 -1.4,-6 -2,-8.9 -2.7,-12.9 -5.5,-25.8 -7.3,-38.9 -1.5,-11.5 -3,-23.1 -4.5,-34.6 -0.7,-6.5 -1.5,-13 -1.9,-19.5 -0.2,-6.9 -5.2,-12.9 -12.4,-13.5 -0.2,0 -0.6,-0.1 -1,-0.1 -6.7,0 -13.2,5.5 -13.5,12.5 -0.3,6.5 0.8,13.2 1.5,19.7 1,8 2.1,16 3.1,24 1,7.9 2.1,15.8 3.2,23.7 1.3,8.9 3.4,17.8 5.2,26.6 0.1,0.4 0.2,0.8 0.3,1.2 -51,-13.5 -102,-27.1 -152.9,-40.8 -79.7,-21.3 -159.4,-42.8 -239.2,-64.2 -78,-20.8 -155.7,-42.1 -233.5,-63.4 -11,-3 -22,-6.1 -32.9,-9.2 -14.2,-3.8 -28.2,-8 -42.3,-11.7 0.5,0.2 1.1,0.4 1.7,0.6 -18,-5.2 -36.2,-10.2 -54.3,-15.3 -0.2,0 -0.3,-0.1 -0.6,-0.1 -0.2,-0.1 -0.6,-0.2 -0.9,-0.3 -6.6,-1.9 -13.2,-3.7 -19.8,-5.6 -0.2,0 -0.3,-0.1 -0.5,-0.2 -0.4,0 -0.7,-0.2 -1.2,-0.2 -1.7,-0.5 -3.4,-1 -5.2,-1.5 -0.2,-0.1 -0.5,-0.2 -0.7,-0.3 l -0.9,-0.2 c -2,-0.5 -4,-1.1 -5.9,-1.6 -7.8,-2.3 -15.6,-4.5 -23.4,-6.6 -0.1,0 -0.3,-0.1 -0.3,-0.1 -0.4,-0.1 -0.9,-0.3 -1.4,-0.4 -1.8,-0.5 -3.7,-1 -5.4,-1.6 l -1.5,-0.4 c -0.1,0 -0.3,0 -0.4,0 -0.3,-0.2 -0.7,-0.3 -1,-0.4 h -0.1 c -1.9,-0.6 -3.8,-1.1 -5.6,-1.6 v 0 c -0.1,0 -0.1,0 -0.2,0 -0.4,-0.2 -0.8,-0.2 -1.2,-0.4 -10.3,-2.9 -20.6,-5.8 -30.9,-8.7 0.3,0 0.6,0.1 0.9,0.2 -2,-0.7 -4.2,-1.5 -6.4,-1.9 -1.6,-0.4 -3.3,-0.8 -4.8,-1.3 -0.6,-0.1 -1.2,-0.4 -1.7,-0.5 -0.1,0 -0.2,0 -0.2,-0.1 -0.3,0 -0.5,-0.1 -0.8,-0.2 h -0.1 c -0.2,0 -0.3,0 -0.5,-0.1 -21.1,-6.1 -42.2,-12.3 -63.4,-18.1 -22.6,-6.6 -45.4,-13.4 -68.1,-19.6 -0.5,-0.2 -0.9,-0.3 -1.4,-0.5 -0.1,0 -0.1,0 -0.2,0 -23,-6.8 -46.2,-13.7 -69.3,-20.1 -0.4,-0.1 -0.8,-0.2 -1.2,-0.3 -0.1,0 -0.2,-0.1 -0.3,-0.1 -12.2,-3.6 -24.4,-7.1 -36.6,-10.6 -12.3,-3.6 -24.5,-7.4 -36.8,-10.7 -25.4,-7.4 -50.8,-14.6 -76.3,-22.2 -26.1,-7.9 -52.4,-15.6 -78.7,-23.1 -26.5,-7.9 -53,-15.7 -79.5,-23.2 -0.1,0 -0.1,0 -0.2,-0.1 0,0 -0.1,-0.1 -0.2,-0.1 -0.1,0 -0.2,0 -0.3,0 -0.1,0 -0.2,-0.1 -0.2,-0.1 -0.4,-0.1 -0.5,-0.2 -0.7,-0.2 -25.9,-7.7 -51.8,-15.5 -78,-22.9 -46.1,-13.4 -92.1,-27.1 -138.2,-40.7 8.9,-33.2 17.8,-66.5 26.5,-99.8 4.3,-16.2 8.4,-32.5 12.5,-48.8 1.5,-5.5 3.9,-13.1 3.4,-19.3 -0.3,-2.5 -1.5,-4.6 -2.9,-6.7 -2.4,-3.3 -6.4,-5 -10.3,-5 -3.1,0 -6.3,1 -8.7,3" /><path
         id="path20"
         style="fill:#f1bb90;fill-opacity:1;fill-rule:nonzero;stroke:none"
         d="m 11480.1,9792.2 c -0.6,0.5 -1.2,0.9 -1.7,1.4 0.7,-0.6 1.3,-1.1 2,-1.6 l -0.3,0.2" /><path
         id="path22"
         style="fill:#f1bb90;fill-opacity:1;fill-rule:nonzero;stroke:none"
         d="m 11770.1,2632.8 c 0,-0.2 -0.1,-0.3 -0.1,-0.4 0,0.1 0,0.2 0.1,0.4" /><path
         id="path24"
         style="fill:#f1bb90;fill-opacity:1;fill-rule:nonzero;stroke:none"
         d="m 12576,9122.8 -0.1,-0.2 c 0.1,0.1 0.1,0.1 0.1,0.2" /><path
         id="path26"
         style="fill:#c19472;fill-opacity:1;fill-rule:nonzero;stroke:none"
         d="m 14046.8,10443.2 c 3.7,-5.2 2.1,-12.7 -2.4,-16.8 0,-0.1 -0.1,-0.1 -0.1,-0.1 0,-0.3 -0.1,-0.5 -0.2,-0.7 -0.6,-1.5 -1.3,-2.7 -2.4,-3.9 -0.1,-0.2 -0.3,-0.4 -0.5,-0.6 l -0.5,-0.5 c -0.6,-0.6 -1.3,-1.2 -2.1,-1.7 -50.6,-31.5 -100.8,-63.7 -149.8,-97.7 -46.2,-32.8 -91.5,-66.8 -135.4,-102.6 -45.2,-37 -89.3,-75.3 -132.6,-114.7 -37.5,-34.3 -74.3,-69.3 -111.2,-104.2 -39.3,-37.3 -78.9,-74.3 -118.9,-110.9 -138.2,-126.7 -281.6,-247.5 -427.9,-364.9 -73,-58.5 -147.3,-115.4 -222.5,-171 -76.9,-56.8 -154.9,-111.9 -234.3,-165 -80.6,-53.9 -162.7,-105.8 -245.3,-156.6 -82.6,-50.7 -166,-100.3 -251.7,-145.6 -84.3,-44.8 -170.7,-85.5 -259.3,-121.3 -85.4,-34.6 -173.7,-63.1 -263.7,-83.2 -47.7,-10.6 -95.9,-19.2 -144.3,-25.8 -46.6,-6.2 -93.2,-9.6 -140.1,-11.4 -17.6,-0.6 -35.4,-1 -53.2,-1 -27.8,0 -55.7,0.8 -83.5,1.9 -48.4,2 -96.8,5.3 -145,9.7 -186.4,17.1 -371.9,51.8 -549.2,112.7 -45.2,15.6 -90.2,32.2 -134.1,51.3 -41.8,18.2 -82.9,37.7 -123,59.4 -43,23.2 -85,48.2 -125.73,75.4 -40.89,27.2 -80.78,55.8 -119.65,85.8 -36.38,28.1 -71.36,58.1 -105.08,89.4 -33.45,30.8 -65.33,63.3 -95.4,97.3 -28.88,32.6 -56.06,66.7 -82.62,101.2 -24.94,32.3 -48.61,65.5 -71.58,99.3 -19.53,28.7 -38.07,57.9 -56.13,87.5 -8.02,13.1 -15.88,26.2 -23.61,39.5 -0.77,1.3 -1.47,2.7 -2.25,3.9 -3.93,6.8 -7.73,13.6 -11.53,20.5 2.54,3.2 5.15,6.3 7.81,9.5 2.54,3.2 5.2,6.3 7.93,9.3 0.99,1.2 1.98,2.3 2.97,3.4 36.79,41.7 79.09,78.4 125.82,108.7 16.99,11 34.49,21.1 52.33,30.6 -0.15,-0.1 -0.29,-0.2 -0.5,-0.2 28.11,14.8 57.04,27.9 85.15,42.6 20.72,10.9 40.88,22.9 60.19,36.2 -0.05,0 -0.12,0 -0.2,0 0.2,0 0.34,0.2 0.49,0.3 0.14,0.1 0.29,0.2 0.36,0.2 14.46,10.4 28.45,21.5 41.79,33.4 10.69,10 20.94,20.4 30.49,31.4 7.37,8.8 14.4,17.9 20.86,27.4 6.26,9.8 12.01,19.9 17.14,30.4 7.52,16 13.92,32.5 19.46,49.4 10.89,34 18.34,68.9 27.19,103.6 9.06,35.2 20.08,70 33.57,103.9 13.71,34.2 29.37,68 48.23,99.7 9.6,16 19.6,31.9 30.5,47.1 3.1,4.5 6.4,9 9.6,13.4 -5.9,2.3 -11.9,5 -17.7,7.7 -8,3.8 -16.1,7.5 -23.91,11.9 -7.93,4.4 -15.66,9.2 -23.1,14.4 -15.32,10.7 -29.93,22.1 -43.78,34.6 -12.71,11.5 -24.8,23.7 -36.38,36.4 -25.09,27.1 -47.76,56.5 -69.27,86.5 -10.74,15 -21.28,30.1 -31.47,45.4 -1.68,2.5 -3.37,5 -4.99,7.6 -11.38,4.3 -22.76,8.8 -34,13.5 -21.64,9.2 -42.99,19 -64.21,28.9 -43.48,20.3 -86.19,42.1 -127.65,66.2 -84.85,49.2 -165.43,105.5 -243.27,165.1 -37.8,29 -75.3,58.5 -111.77,89.1 -0.84,0.8 -1.69,1.5 -2.52,2.2 -1.06,0.8 -2.12,1.8 -3.16,2.6 -37.52,31.5 -73.77,64.8 -107.98,99.8 -34.08,34.8 -66.74,71 -98.77,107.6 -32.24,37.1 -63.52,74.8 -94.07,113.2 -30.7,38.6 -60.7,77.7 -89.36,117.8 -9.55,13.4 -19.1,26.6 -28.38,40.1 -0.27,0.4 -0.49,0.7 -0.7,1.1 -0.15,0.1 -0.2,0.2 -0.2,0.3 -0.65,0.9 -1.35,1.9 -1.98,2.8 -27.97,40.2 -55.43,80.8 -81.2,122.4 -25.72,41.5 -49.89,83.8 -73.21,126.6 -14.46,26.6 -28.72,53.4 -42.64,80.2 -0.14,0.3 -0.27,0.5 -0.35,0.7 -0.14,0.3 -0.21,0.4 -0.28,0.5 -0.63,1.2 -1.18,2.5 -1.89,3.7 l -0.43,0.8 c -0.29,0.5 -0.56,1 -0.77,1.6 -0.63,1.2 -1.26,2.4 -1.82,3.5 -21.99,42.4 -43.36,85.3 -64.29,128.2 -21.98,45.2 -43.49,90.6 -63.85,136.5 -27.82,62.9 -52.42,127.1 -75.8,191.7 -16.36,44.6 -29.92,90.2 -41.87,136.2 -6.32,24.3 -12.3,48.6 -17.78,73 -5.2,23.3 -8.71,47.2 -11.87,70.9 -6.12,46.1 -8.78,92.7 -10.61,139.2 -0.49,11.8 -0.63,23.5 -0.7,35.3 -21.08,24.6 -41.73,49.4 -61.74,74.9 -17.21,21.8 -34.22,43.8 -50.52,66.2 -15.11,20.9 -29.51,42.2 -43.06,64 -24.31,39 -47.15,79 -67.94,119.9 -21.56,42.5 -41.58,85.9 -58.79,130.2 -9.13,23.5 -17.91,47.2 -25.64,71.3 -7.45,23.3 -14.55,46.7 -21.22,70.4 -13.49,47.2 -25.07,95.1 -32.39,143.8 -6.68,43.8 -11.32,87.8 -14.19,132.1 -1.48,22 -2.37,44.2 -3.02,66.3 -0.08,2.5 -0.35,5 -0.2,7.4 -0.65,24 -1.06,48 -1.2,72 -0.15,25.6 0.14,51.3 0.98,77 0.78,23.4 2.39,46.7 4.21,70.1 3.65,47 9.5,93.8 17.29,140.3 4.15,24.8 8.98,49.4 13.91,74 5.06,25 10.81,49.9 17.41,74.6 13.49,50.4 29.44,100.1 47.43,149 8.07,22.1 16.43,44 25.16,65.8 9.4,23.4 19.45,46.6 29.85,69.6 41.16,91.3 89.7,179.1 142.81,263.9 54.87,87.8 111.7,174.3 173.24,257.6 28.74,38.9 58.59,77 89.78,114 30.84,36.6 63.23,71.7 96.18,106.4 18.54,19.6 37.44,38.9 56.68,57.7 18.69,18.4 38,36.2 57.34,53.9 35.26,32.2 72.49,62.2 110.49,91.1 20.45,15.6 41.23,30.5 62.39,45.2 19.94,13.6 40.53,26.4 61.25,38.8 45.73,27.4 92.17,53.7 140.01,77.4 91.82,45.3 185.95,86.2 281.91,122.2 50.93,19.2 102.42,36.9 154.56,52.5 51.7,15.4 103.75,29.8 156.03,43.1 25.91,6.6 52.04,12.6 78.1,18.6 27.19,6.3 54.46,12.2 81.77,17.7 26.28,5.2 52.48,10.2 78.83,14.8 6.53,1.2 13.07,2.3 19.6,3.3 2.39,0.5 4.84,1.1 7.23,1.3 2.32,0.5 4.72,0.7 6.96,1.1 l 9.48,1.4 c 13.29,2.1 26.49,4 39.76,6 52.45,7.9 105.15,13.8 157.95,18.4 54.5,4.8 109.1,8.8 163.7,10.5 6.8,0.2 13.7,0.5 20.5,0.7 2.7,0 5.4,0.1 8.1,0.2 h 0.4 0.5 c 1.4,0.1 2.6,0.1 3.9,0.1 3.4,0.4 7.1,0.2 10.5,0.3 l 44.2,0.9 c 25.9,0.4 51.7,0.7 77.7,0.4 27.5,-0.3 55,-0.5 82.6,-1.5 28.4,-1.1 56.7,-2.7 85,-4.4 54.5,-3.3 108.9,-8.7 163.2,-14.6 26.5,-2.9 52.9,-6.7 79.3,-10.6 26.7,-4 53.5,-8.3 80.1,-13.1 27.1,-4.9 54.3,-10 81.2,-15.9 26.6,-5.8 53.2,-11.4 79.6,-17.9 27.8,-6.9 55.5,-13.9 83.1,-21.8 26.2,-7.4 52.5,-14.8 78.5,-22.9 53.9,-16.9 107.2,-35.5 160.3,-54.7 51.8,-18.7 102.8,-39.7 153.4,-61.5 24.1,-10.5 48,-21.5 71.8,-32.6 24.6,-11.5 49.2,-23.1 73.6,-35.1 49.2,-24.3 97.5,-50 145.4,-76.7 96,-53.6 190.2,-110.2 282.9,-169.2 90.8,-57.9 180.2,-118 271.7,-174.8 23.5,-14.6 47.2,-28.8 71.1,-42.8 24.6,-14.3 49.6,-28 74.5,-41.6 92.4,-50.2 185.8,-98.6 281.6,-142 49.1,-22.2 98.5,-43.9 148.4,-64.3 51.1,-20.8 102.5,-40.8 154.1,-60.5 l 1.6,-0.6 c 17.3,-6.6 34.6,-12.9 52.1,-18.9 4.3,-1.4 7.5,-4.7 8.8,-8.7 v 0 c 9.3,-3.8 18.3,-7.7 27.3,-11.9 0.3,-0.2 0.5,-0.2 0.8,-0.4 15.4,-7.4 30.5,-15.4 44.9,-24.9 10,-6.7 19.4,-14.3 28.5,-22.1 10.2,-8.5 19.9,-17.4 29.5,-26.7 21.8,-21 41.9,-43.6 60.8,-67.2 9.5,-11.7 18.6,-23.7 27.3,-36 1.4,-1.9 3,-3.7 4.3,-5.8 1.3,-1.7 2.4,-3.7 3.7,-5.3 l 5.9,-8.7 c 4.5,-6.7 9,-13.5 13.4,-20.3 16.5,-25.6 32.1,-51.9 47.3,-78.4 31.2,-54.7 59.3,-111.1 84.9,-168.6 12.4,-27.9 24,-56.2 34.8,-84.8 11.4,-29.5 20.9,-59.6 29.9,-89.9 8.7,-29.8 16.2,-60.1 23.5,-90.4 7.2,-30.3 14.2,-60.6 20.4,-91.2 11.1,-54.9 20.2,-110.1 28.5,-165.6 8.1,-55.6 15,-111.5 19.9,-167.5 0,0.4 0,0.8 0,1.3 5.6,-62.7 9.5,-125.4 12.1,-188.2 1.6,-32.6 2.3,-65.3 2.4,-98 0.1,-32.2 -1,-64.5 -2.2,-96.7 -1.3,-30.6 -3.7,-61.3 -6.8,-91.8 -3.1,-31.8 -7.8,-63.4 -13.2,-94.9 -2.4,-14.8 -5.3,-29.6 -8.3,-44.4 -3.2,-15.8 -6.3,-31.6 -10.1,-47.4 -7.2,-31.3 -15,-62.4 -24.2,-93.3 -8.4,-29 -17.5,-57.7 -27.2,-86.3 -9.6,-28 -19.7,-55.9 -31.2,-83 -23.3,-55 -50.3,-108.3 -72.1,-163.9 -4.3,-11.1 -8.2,-22.3 -11.8,-33.5 -0.1,-0.2 -0.1,-0.3 -0.1,-0.5 -5.3,-16.4 -10.3,-32.9 -14.5,-49.6 -4.4,-17.5 -8.2,-34.9 -11.7,-52.5 0,-0.4 0,-0.6 -0.1,-0.8 -0.1,-0.3 -0.1,-0.6 -0.1,-0.8 -0.3,-1.1 -0.5,-2.2 -0.7,-3.3 0,-0.4 -0.1,-0.9 -0.2,-1.3 -6.4,-36.3 -10,-73.1 -11.8,-109.9 -1.1,-30.5 -1.7,-60.9 -1.2,-91.2 0.5,-29.8 2.3,-59.5 4.3,-89.2 4.4,-61.9 9.1,-123.8 8.7,-185.9 -0.4,-34.7 -1.7,-69.4 -6.3,-103.9 -0.2,-1.9 -0.5,-3.8 -0.8,-5.7 4.6,-1.6 9.2,-3.2 13.9,-4.8 17.2,-6 34,-13.4 50.7,-20.7 17.7,-7.7 35.3,-15.4 52.5,-23.8 17.7,-8.7 35.1,-17.8 52.3,-27.3 16.2,-8.9 31.9,-18.7 47.2,-29.1 15.7,-10.6 30.2,-22.7 44.7,-34.9 30.2,-25.3 57.2,-54.1 81,-85.5 10.9,-14.5 21.5,-29.3 31.2,-44.6 4.5,-7 8.5,-14.2 12.7,-21.4 3.9,-6.9 7.9,-13.7 11.6,-20.7 0.1,-0.1 0.1,-0.3 0.1,-0.3 0.1,-0.2 0.3,-0.4 0.4,-0.7 0.1,-0.2 0.2,-0.4 0.3,-0.6 0.2,-0.5 0.5,-1 0.8,-1.5 0.1,-0.2 0.3,-0.4 0.3,-0.7 l 0.2,-0.1 c 0.3,-0.4 0.5,-0.9 0.7,-1.4 l 0.8,-1.7 c 0,0.1 0,0.2 0,0.3 0.2,-0.6 0.6,-1.3 0.9,-1.9 18,-33.8 32.4,-69.4 44.9,-105.6 5.9,-16.9 10.6,-34.2 15.1,-51.5 4.8,-18.8 9,-37.7 12.2,-56.9 5.9,-34.8 9.7,-70 11,-105.3 0.7,-17.5 0.9,-35.1 -0.2,-52.5 -1.1,-16.6 -3.4,-32.9 -6.4,-49.3 -0.3,-1.5 -0.6,-3.1 -0.8,-4.6 -3.3,-18.2 -7.5,-36.3 -12.1,-54.3 -4.7,-18.2 -9.8,-36.4 -16.5,-53.9 -6.4,-17.1 -13.6,-34 -21.5,-50.3 -4.2,-8.7 -8.4,-17.4 -12.9,-25.8 -4.5,-8.4 -9.7,-16.4 -14.8,-24.2 -34.8,-53.3 -75.6,-102.5 -121.3,-146.7 -0.2,-0.2 -0.4,-0.4 -0.7,-0.6 3.5,-3.6 6.9,-7.1 10.3,-10.7 7.4,-8 14.6,-16.1 22,-24.1 -0.4,0.5 -0.8,0.9 -1.2,1.4 19.2,-20.5 40.6,-38.5 62.2,-56.3 0.7,-0.5 1.4,-1 2,-1.6 41.4,-33.8 82.6,-68.6 117.3,-109.5 7.7,-9.2 15.3,-18.4 22.1,-28.3" /><path
         id="path28"
         style="fill:#fcc6ab;fill-opacity:1;fill-rule:nonzero;stroke:none"
         d="m 9961.12,10438.7 c -62.39,5.6 -124.06,18.2 -184.41,34.4 -55.57,14.9 -110.23,33.5 -163.82,54.2 -57.48,22.2 -114.16,46.4 -169.8,73 -1.33,0.6 -2.67,1.3 -3.92,1.9 -0.58,0.2 -1.14,0.4 -1.7,0.8 -0.06,0 -0.21,0 -0.28,0.1 l -1.26,0.6 c -117.33,55.9 -230.55,122.1 -332.08,203.6 -25.28,20.3 -50.01,41.3 -74.32,62.8 -24.8,21.9 -48.69,44.7 -72.35,67.8 -22.29,21.8 -43.7,44.5 -64.64,67.7 -21.08,23.2 -41.79,46.7 -61.95,70.7 -39.14,46.7 -76.24,94.9 -111.77,144.3 -16.95,23.6 -32.81,48.1 -47.99,72.8 -15.24,24.9 -29.99,49.9 -44.25,75.3 -31.77,56.5 -61.19,114.2 -88.04,173.2 -26.4,57.9 -51.27,116.4 -74.74,175.4 -22.26,55.9 -44.53,111.8 -64.97,168.4 -10.26,28.3 -20.1,56.9 -29.37,85.6 -8.85,27.5 -16.93,55.1 -25.29,82.7 -10.39,34.6 -21.36,69 -32.32,103.4 -11.24,35.5 -23.03,70.6 -35.89,105.4 l -0.63,1.7 c -12.3,33.1 -25.36,65.9 -39.13,98.5 -4.01,9.6 -8.01,19.2 -12.09,28.8 -2.48,0.7 -4.6,2.1 -6.24,4 -5.61,16 -10.84,31.9 -15.05,48.3 -9.77,38.2 -20.57,75.9 -33.92,112.9 0.63,-1.7 1.26,-3.5 1.89,-5.1 -4.14,11.4 -8.36,22.8 -12.5,34.2 -6.12,17.7 -11.31,35.7 -16.8,53.5 -5.61,18.1 -12.09,35.8 -17.91,53.8 -0.77,2.5 -1.55,5 -2.32,7.5 0,0 -0.02,0.1 -0.04,0.2 -0.01,0 -0.01,0.1 -0.03,0.1 0,0 0.02,-0.1 0.03,-0.1 l 0.04,-0.2 c -0.27,0.9 -0.56,1.7 -0.85,2.5 -0.97,3.3 -2.03,6.5 -3.02,9.8 0.58,-1.8 1.13,-3.6 1.69,-5.3 -0.84,2.6 -1.61,5.2 -2.46,7.8 0.58,-1.8 1.13,-3.5 1.69,-5.4 -9.96,32.6 -17.07,65.9 -26.47,98.6 -7.95,27.6 -16.31,55.1 -23.95,82.8 -7.4,26.9 -14.07,53.9 -21.3,80.8 -6.96,26.2 -13.7,52.3 -19.24,78.9 0.12,-0.8 0.27,-1.6 0.48,-2.4 -0.21,0.8 -0.36,1.5 -0.48,2.3 l 0.19,-1 c -9.62,47.7 -15.37,96.1 -23.25,144.1 0.29,-1.9 0.58,-3.8 0.85,-5.6 -0.98,6.1 -1.96,12.2 -2.95,18.3 0.28,-1.9 0.63,-3.7 0.91,-5.6 -6.88,44.2 -8.7,88.7 -9.83,133.3 -1.19,45.7 -1.33,91.4 0.77,137.1 2.88,51.8 9.55,103 16.92,154.3 6.39,44 13.87,87.7 24.01,130.9 5.09,13.1 10.36,26.2 15.83,39.1 23.25,55.1 51.77,108.2 84.17,158.5 -0.08,-0.2 -0.22,-0.5 -0.29,-0.6 1.2,1.8 2.24,3.9 3.59,5.6 18.69,28.9 38.7,56.8 60.05,83.6 43.99,55.5 92.46,107.2 144.16,155.4 26.49,24.7 54.1,48.1 82.69,70.3 14.34,11.1 29.37,21.2 44.33,31.3 14.12,9.4 28.53,18.4 42.91,27.4 30.58,19.1 61.54,37.4 93.72,53.5 32.75,16.5 66.47,31.2 100.53,44.9 34.85,14 70.17,26.4 106.02,37.7 33.64,10.7 67.85,20.1 102.27,27.9 36.11,8 72.49,14.9 108.97,21 36.3,6.4 72.78,10.7 109.44,13.5 16.37,1.3 32.74,2.4 49.17,3 18.62,0.5 37.23,1.2 55.84,1.1 38.29,-0.4 76.39,-3.2 114.38,-7.3 71.02,-7.6 141.48,-21.9 209.35,-44.1 34.29,-11.3 67.79,-24.3 101.17,-38 15.79,-6.4 31.45,-13 47.13,-19.8 15.38,-6.6 30.41,-14 45.45,-21.2 15.25,-7.4 30.28,-15.5 45.1,-23.6 15.59,-8.5 31.11,-17.1 46.44,-26 31.61,-18.5 62.51,-37.9 93.01,-58.1 61.1,-40.5 119.8,-84.6 177.6,-129.7 55.6,-43.4 109.4,-89 161.1,-137 55.6,-51.6 109.8,-104.6 162.7,-158.8 27.4,-28.1 54.4,-56.5 81,-85.4 23.6,-25.4 46.9,-51.1 69.5,-77.6 23.2,-26.9 45.5,-54.5 66.9,-82.9 10.4,-13.7 20.7,-27.6 30.8,-41.5 4.9,-6.9 9.9,-13.8 14.7,-20.7 1.8,-2.5 3.7,-5.2 5.6,-7.8 1.6,-1.8 2.8,-4 4.3,-6 0,-0.1 0,-0.1 0.1,-0.2 0.1,-0.2 0.2,-0.3 0.3,-0.5 3,-4.2 5.9,-8.4 8.8,-12.6 20.4,-29 40.3,-58.5 59.8,-88.1 40.8,-62 80.7,-124.8 119.8,-187.9 37.8,-60.7 74.8,-121.8 110.8,-183.6 37.1,-63.8 72.7,-128.4 108,-193.2 17.1,-31.2 33.9,-62.4 50.6,-93.7 4.1,-7.7 8.3,-15.5 12.4,-23.3 0.9,-1.7 1.8,-3.4 2.7,-5.1 0.1,-0.2 0.1,-0.4 0.3,-0.5 0,-0.2 0.2,-0.5 0.3,-0.7 l 0.7,-1.3 c 1.6,-2.5 2.9,-5.5 4.3,-8.2 2.5,-4.7 5.1,-9.5 7.5,-14.3 8.3,-16 16.6,-32 24.8,-48 16.1,-31.8 31.7,-63.7 47,-95.9 30.6,-64.3 59.2,-129.8 85.7,-196.1 24.6,-61.3 45.9,-124.1 66.1,-187.1 -1.5,-15.4 -3,-30.6 -4.7,-45.9 -0.7,-6.8 -1.5,-13.6 -2.3,-20.3 -0.1,-0.4 -0.1,-0.6 -0.1,-1 -2,-17.6 -4.1,-35.1 -6.3,-52.6 -8.3,-65.3 -18.7,-130.5 -29.6,-195.5 -10.6,-62.3 -21.7,-124.5 -35.6,-186.3 -27,-120.8 -62.7,-240.1 -112.9,-353.5 -5.4,-12.1 -11,-24.2 -16.7,-36.2 -27.5,-57.8 -58.6,-113.8 -92.8,-168 -33.3,-52.7 -69.9,-103.3 -108.9,-151.9 -8.5,-10.5 -17.1,-21 -25.8,-31.3 -0.9,-0.9 -1.6,-1.8 -2.4,-2.8 l -0.1,-0.1 c -0.3,-0.3 -0.7,-0.7 -1,-1.1 -20.4,-24.2 -41.5,-47.8 -63.1,-70.9 -21.9,-23.7 -44.3,-46.8 -67.6,-69 -46.6,-44.3 -95.1,-86.8 -146.2,-126.1 -30.2,-23.1 -61.2,-45.1 -93,-66.1 -32,-21.1 -64.8,-41.4 -98.7,-59.3 -29.1,-15.3 -58.7,-29.6 -89,-42.3 -29.2,-12.2 -59.2,-23.2 -89.2,-33.4 -29,-9.8 -58.6,-18 -88.2,-25.6 -32.8,-8.4 -66,-15.3 -99.5,-20.2 -30.8,-4.5 -61.9,-8.6 -93,-9.4 -7.3,-0.2 -14.7,-0.3 -22.1,-0.3 -24.9,0 -49.81,1.1 -74.68,3.3" /><path
         id="path30"
         style="fill:#fcc6ab;fill-opacity:1;fill-rule:nonzero;stroke:none"
         d="m 8121.26,12700.9 v 0 c 0.07,-0.3 0.14,-0.5 0.21,-0.7 -0.09,0.3 -0.16,0.5 -0.21,0.7" /><path
         id="path32"
         style="fill:#fcc6ab;fill-opacity:1;fill-rule:nonzero;stroke:none"
         d="m 12415.4,1449.1 4.8,-26.5 -26.8,-3.2 c -73.4,-8.7 -146.8,-17.7 -220.2,-26.4 -10.5,-1.3 -20.9,-2.5 -31.5,-3.7 -4.6,-0.6 -9.4,-1.1 -14.1,-1.7 -0.8,0 -1.7,-0.1 -2.5,-0.2 -43.5,-5 -87,-9.4 -130.7,-12.2 -36.9,-2.2 -73.9,-4 -110.9,-4 -6.1,0 -12.2,0.1 -18.3,0.2 -39.9,0.5 -79.8,2.3 -119.6,5.4 -39.1,3 -78.3,7.1 -117.2,12.8 -49.5,7 -98.5,16 -147.4,26.2 -49.3,10.3 -98.2,21.9 -147.5,32 -76.9,15.7 -154.3,29.1 -232,40.4 -3.5,0.5 -7.1,1.1 -10.8,1.6 -27.6,3.7 -55.2,6.9 -82.9,9.2 -26.9,2.2 -53.9,3.4 -80.8,3.8 0.2,0 0.3,0 0.3,0 -1.3,0 -2.6,0 -3.9,0 -1.5,0 -3,0.1 -4.4,0.1 h -1 c -47.2,0.4 -94.2,-1.3 -141.3,-3.7 -46.1,-2.4 -91.9,-6.9 -137.8,-11.9 -0.7,-0.1 -1.4,-0.2 -2.1,-0.3 0.6,0.1 1.2,0.1 1.8,0.2 -3.2,-0.4 -6.3,-0.7 -9.4,-1.1 -38,-4.4 -75.8,-9.5 -113.8,-13.8 -0.5,-0.1 -0.9,-0.1 -1.4,-0.2 l -1.4,-0.2 c -43,-4.8 -86.3,-8.2 -129.5,-8.9 -24.1,-0.5 -48.2,0.2 -72.2,1.6 -24.7,1.4 -49.3,3.3 -73.8,6.3 -24.3,2.9 -48.3,8.7 -71.6,15.9 -11.8,3.7 -23.6,7.8 -35,12.6 -11.3,4.8 -22.3,10 -33.2,15.7 -10.7,5.6 -21,12 -30.7,19 -4.6,3.4 -9.2,7.6 -12.8,12 -1.9,2.2 -3.6,4.5 -5.1,6.8 -21.5,-6.7 -42.9,-13.5 -64.42,-20 -34.62,-10.5 -69.69,-19.5 -105.23,-26.4 -16.79,-3.2 -33.65,-6.3 -50.66,-8.3 -18.47,-2.3 -37.08,-4.4 -55.7,-4.4 h -0.91 c -15.52,0.1 -30.7,1.7 -45.81,5.3 -12.5,2.9 -24.51,8.6 -35.6,15.2 -16.1,9.6 -28.74,23.8 -36.12,41.1 -3.23,7.6 -5.55,15.5 -6.81,23.6 -18.28,-11.8 -36.67,-23.2 -55.79,-33.5 -14.46,-7.7 -29.71,-13.8 -45.23,-19 -16.17,-5.4 -33.09,-8.9 -50.16,-9.1 h -2.68 c -15.81,0 -31.61,2.4 -46.36,8.3 -15.11,6 -28.45,15.7 -38.63,28.4 -10.27,12.7 -17.01,28.5 -21.29,44.2 -4.79,17.2 -6.46,35.1 -6.05,53 0,0.7 0,1.5 0.08,2.2 -8.78,-9.8 -17.99,-19.1 -27.9,-27.8 -10.8,-9.4 -22.55,-17.6 -35.12,-24.6 -11.09,-5.9 -22.96,-10.8 -35.27,-14 -0.14,-0.1 -0.34,-0.1 -0.56,-0.2 -0.69,-0.2 -1.4,-0.4 -2.1,-0.4 -9.98,-2.5 -20.23,-3.8 -30.5,-3.8 -6.45,0 -12.91,0.5 -19.39,1.6 -15.73,2.7 -30.14,9.4 -42.28,19.8 -12.16,10.4 -21.36,23.8 -27.82,38.5 -15.88,36.4 -15.95,77.7 -11.38,116.5 5.97,51.2 19.39,101.4 36.18,150 10.33,30.1 21.91,59.8 34.5,89 v -0.1 c 0.55,1.4 1.18,2.7 1.74,4.1 11.04,25.6 22.98,50.7 35.63,75.5 13.75,27 29.29,53 45.8,78.4 15.81,24.2 32.95,47.7 50.3,70.8 16.01,21.3 32.38,42.3 49.17,62.9 73.63,90.6 153.78,175.9 237.44,257.2 41.39,40.3 83.74,79.5 126.74,118 44.11,39.6 89.63,77.6 135.87,114.7 25.57,20.6 51.7,40.5 77.9,60.3 24.72,18.7 49.72,37.2 74.82,55.5 23.8,17.3 47.8,34.4 72.1,51.1 25.6,17.6 51.5,34.6 78.3,50.4 24.7,14.4 50.2,27.8 76.4,39.2 27.2,11.7 55.6,20.6 84.1,28.3 27.7,7.5 56.1,13.3 84.4,17.9 29.2,4.8 58.7,7.3 88.3,7.5 55.4,0.3 110.1,-11 163.9,-23 113.4,-25.4 225.5,-56.7 338.2,-85 59.5,-14.9 119,-29.4 178.8,-42.7 59.4,-13.2 119,-25 178.7,-35.8 43.1,-7.8 86.2,-15.1 129.4,-21.4 1.7,-0.3 3.3,-0.5 5,-0.7 2.2,-0.3 4.5,-0.7 6.7,-1 61,-8.7 122.3,-16 183.7,-21.5 45.7,-4.1 91.5,-7 137.3,-9.2 h 0.3 c 10.5,-0.4 21,-0.9 31.4,-1.3 5.3,-9.1 10.5,-18.3 15.8,-27.4 23.1,-40.6 46.1,-81.2 67.9,-122.4 3,-5.7 6.1,-11.4 9.1,-17.1 l 0.6,-1.3 c 0.2,-0.3 0.4,-0.7 0.6,-1.1 0.3,-0.5 0.6,-1 0.9,-1.5 2.4,-4.7 4.9,-9.3 7.3,-14 0.3,-0.5 0.5,-1.1 0.9,-1.6 3.6,-6.9 7.1,-13.8 10.6,-20.5 -0.1,0.2 -0.2,0.4 -0.4,0.8 36.7,-69.3 70.5,-140.1 103,-211.5 33,-72.8 65.7,-145.9 95.4,-220.1 14.8,-36.5 29.5,-73.1 43,-110.1 2,-5.3 4,-10.6 5.9,-15.9 13.2,-35.7 25.2,-71.8 37.2,-107.8 12,-36.1 23.4,-72.3 33.4,-108.9 13.3,-48.8 26.2,-97.5 37.3,-146.8 -0.2,0.6 -0.2,1.2 -0.4,1.7 1.4,-5.7 2.6,-11.5 3.9,-17.2 16.8,-74.2 31.6,-148.8 45.2,-223.6 2,-10.9 4,-21.8 6.1,-32.8" /><path
         id="path34"
         style="fill:#8a6a51;fill-opacity:1;fill-rule:nonzero;stroke:none"
         d="m 11433.5,12192.7 c 0.7,-0.1 1.4,-0.1 2.1,-0.1 19.2,0 34,15.1 35.9,33.8 11.1,113.4 24.3,226.5 37.5,339.5 8.7,73.7 17.1,147.4 25.1,221.2 5.4,49.6 10.5,99.2 16,148.7 2.3,4.3 3.6,9.1 3.8,14.1 0.6,12.4 1.3,24.6 2.1,36.9 0,-0.4 -0.1,-0.9 -0.2,-1.3 0.1,0.5 0.2,1 0.2,1.5 0,0 0,0.1 0,0.1 v 0 c 0.1,0.7 0.2,1.3 0.3,2 -0.1,-0.3 -0.1,-0.5 -0.1,-0.7 0.1,1 0.3,2.1 0.4,3.1 -0.1,-0.6 -0.1,-1.2 -0.2,-1.8 5.4,43.8 11.9,87.5 22.6,130.3 10.5,39.4 25.2,77.2 37.1,116.1 12.2,40 21.8,82.8 16.7,124.7 -2.1,17 -5.9,34.2 -14.2,49.3 -6.5,11.7 -15.1,21.3 -27,27.7 -15,8.1 -35.1,8 -50.1,-0.3 -37.9,-20.9 -41.6,-68.2 -42.5,-106.9 -0.9,-39.5 1.8,-79.1 2.2,-118.6 0.1,-31.9 -2.4,-63.6 -6.1,-95.1 -0.2,-1.2 -0.3,-2.3 -0.5,-3.4 0.2,1 0.3,2 0.4,3 0.1,0.2 0.1,0.4 0.1,0.6 -0.1,-0.7 -0.1,-1.5 -0.2,-2.2 -3.4,-25.6 -7.1,-51.1 -8.2,-76.9 -0.7,-16.3 -1.8,-32.5 -2.7,-48.7 -12.7,-105 -22.8,-210.1 -34.7,-315.1 -16.8,-147.8 -35,-295.4 -49.6,-443.5 -1.9,-19.6 14.8,-37 33.8,-38" /><path
         id="path36"
         style="fill:#8a6a51;fill-opacity:1;fill-rule:nonzero;stroke:none"
         d="m 11033.2,10916.4 c 19.4,0 35.2,14.5 50.3,25.3 13.2,9.5 26.3,19.1 39.2,28.8 26.9,20.5 52.4,43.2 77,66.5 11.8,11.4 23.7,22.8 35.2,34.5 3.2,2.4 6,5.3 8.4,8.5 3.9,3.8 7.4,7.9 11,11.8 5.5,6 11.1,12 16.5,18 23.5,26.3 46.7,52.9 69.4,79.9 47.1,56.4 92.1,114.7 133.7,175.4 41.7,60.9 80.9,123.4 119.4,186.3 39.2,64.2 77.3,129.1 113.7,194.8 33.9,61.4 65.5,124.2 95.8,187.4 32.6,67.7 64.6,135.7 94.4,204.7 14.4,33.6 28.5,67.4 42.2,101.4 13.3,32.8 26.6,65.7 38,99.2 22.9,66.6 42.4,134.4 60.6,202.5 15.8,59.7 30.6,119.8 43.1,180.3 6.4,31.3 12.5,62.7 16.4,94.4 0,-0.3 -0.1,-0.7 -0.1,-1.1 2.4,20 4.8,40.7 2.7,60.8 -1.3,12.6 -4.2,23.6 -12.5,33.6 -14.4,17.2 -41.9,15.8 -57.4,1.2 -8.3,-7.6 -13.4,-17.9 -18,-28 -4.1,-9.2 -7.7,-18.7 -11,-28.2 -8.8,-26 -15.4,-52.9 -21.8,-79.5 -7.5,-31.5 -14.1,-63.1 -20.4,-94.8 -14.2,-71.3 -28.1,-142.8 -43.1,-214 -5.4,-26 -11.7,-51.9 -18,-77.7 -5.3,-21.1 -9.1,-42.6 -14.3,-63.8 -6.9,-26.6 -14,-53.2 -23.6,-78.9 -1.8,-4.9 -2.3,-9.9 -1.8,-14.8 -9.8,-23.8 -19.9,-47.6 -30.1,-71.4 -29.5,-68 -61.2,-135 -93.5,-201.7 -30.6,-63.4 -62.5,-126.3 -96.6,-187.8 -10.9,-19.4 -22,-38.7 -33.1,-57.9 -36.8,-63.9 -74.9,-126.7 -113.9,-189.3 -38.6,-61.7 -78.9,-122.4 -122.1,-181 -13,-17.2 -26.1,-34.4 -39.6,-51.3 -23,-29 -46.4,-57.5 -70.6,-85.6 -22.4,-25.8 -44.8,-51.7 -68.5,-76.4 -0.3,-0.2 -0.5,-0.5 -0.8,-0.8 -0.7,-0.7 -1.4,-1.5 -2.1,-2.3 -0.6,-0.5 -1.2,-1 -1.7,-1.6 -30.7,-31.1 -62.8,-60.9 -96.6,-88.4 -22.8,-17.8 -46.2,-34.9 -70.2,-51.1 l -0.3,-0.2 c 0,0.1 0.1,0.1 0.1,0.1 -0.3,-0.2 -0.6,-0.5 -1,-0.7 0.4,0.3 0.8,0.5 1.1,0.7 0.5,0.1 0.9,0.2 1.4,0.3 -11.6,-5.4 -20.1,-16.2 -20.9,-30.3 -1,-18.8 14.4,-37.8 34,-37.8" /><path
         id="path38"
         style="fill:#8a6a51;fill-opacity:1;fill-rule:nonzero;stroke:none"
         d="m 12038.2,11535.5 c 0.9,1.2 1.8,2.4 2.7,3.7 -0.8,-1.1 -1.6,-2.3 -2.5,-3.4 0.2,0.3 0.4,0.5 0.6,0.8 -0.5,-0.7 -1,-1.4 -1.5,-2.2 -0.5,-0.5 -0.8,-1 -1.2,-1.6 0.1,0.2 0.2,0.4 0.4,0.6 -5.3,-7.2 -10.7,-14.4 -16,-21.6 -0.4,-0.6 -0.8,-1.2 -1.2,-1.7 -0.2,-0.2 -0.4,-0.4 -0.5,-0.7 -0.6,-0.7 -1.2,-1.5 -1.8,-2.4 0.4,0.5 0.8,1.1 1.1,1.6 -25.2,-34.1 -51.1,-67.8 -76.9,-101.4 -12.7,-16.4 -25.6,-32.6 -38.3,-48.8 -6.3,-7.9 -12.5,-15.9 -18.9,-23.7 -7.5,-9.2 -16.5,-18.2 -20.8,-29.5 -5,-13.4 0.3,-29.6 11.1,-38.7 6.7,-5.6 14.5,-8.1 22.7,-8.1 4.1,0 8.3,0.6 12.5,1.8 0,0 0.2,0 0.3,0 8,2.6 14.3,8.1 18.4,15 24.3,31.1 49.3,61.6 73.4,92.7 25,32.4 49.9,65 74.2,97.9 1.3,1.8 2.6,3.6 4,5.3 -0.1,0 -0.2,-0.1 -0.3,-0.2 6.1,8.2 12.1,16.4 18.2,24.6 0,-0.1 -0.1,-0.2 -0.2,-0.3 83.7,113.6 164.1,229.8 241.1,348.1 42.2,65 83.9,130.3 123.6,196.8 38.9,65.1 76.5,130.7 113,197.1 37,67 73,134.4 106.9,203.1 34.5,69.8 67.3,140.5 99.2,211.6 61,136.1 116,275 164.2,416.2 23.7,69.7 46.6,139.7 65.2,210.9 18.8,71.6 35.6,143.7 51.8,215.8 4.3,19.2 -9.9,38.5 -28.6,42.1 -19.7,3.7 -37.8,-9.5 -42.1,-28.6 -14.5,-64.9 -29.7,-129.6 -46.1,-194 -5.5,-21 -11.1,-41.9 -17.1,-62.8 -20,-69.8 -43.2,-138.9 -67.5,-207.2 -24.4,-68.7 -50.6,-136.8 -77.5,-204.4 -22.1,-54.9 -45.7,-108.9 -69.9,-162.8 -31.3,-70 -63.4,-139.8 -97.7,-208.3 -34.1,-68 -69.5,-135.3 -106.3,-201.8 -66.8,-120 -136.7,-238.1 -211.3,-353.4 -83.1,-128.4 -169.7,-254.9 -260.4,-378.1" /><path
         id="path40"
         style="fill:#8a6a51;fill-opacity:1;fill-rule:nonzero;stroke:none"
         d="m 10069.6,10328.4 c 4.9,-0.6 9.9,-0.7 14.8,-0.7 4,0 8,0.1 11.9,0.1 8.1,0.1 16.2,0.2 24.3,0.4 73,1.7 146.2,3.4 218.9,10.2 70.3,6.5 140.3,16.2 209.7,28.5 141.5,25.3 281.2,61.5 415.3,113.8 68.9,26.9 136.6,56.7 203.2,88.7 67.8,32.4 134.4,67.5 199,105.9 54.7,32.4 108.2,67.3 160.6,103.6 15.3,9 30.5,18.2 45.8,27.4 36.4,22.1 72.2,45 106.2,70.7 12.6,9.5 26.4,19.3 36.4,31.6 5.4,6.7 9.4,13.2 11.7,21.7 2.7,9.5 0.5,21 -5.2,29.1 -12.6,18.3 -34.8,20.2 -53.6,11.2 -15.9,-7.6 -30,-18.4 -43.8,-29.3 -20.7,-16.4 -41.3,-32.8 -62.4,-48.7 -24.5,-18.2 -49.3,-36.1 -74.4,-53.4 -18.3,-10.9 -36.6,-21.6 -55,-32 0.1,0 0.2,0.1 0.2,0.1 -22.1,-12.4 -44.7,-24 -67.2,-35.7 -9.9,-5.1 -16.8,-14.1 -19.2,-24.3 -16.4,-10 -32.9,-19.8 -49.6,-29.4 -102.9,-58.2 -210,-109.7 -319.4,-154.7 -0.1,0 -0.2,-0.1 -0.3,-0.1 -1.2,-0.5 -2.4,-1 -3.5,-1.4 0.4,0.1 0.8,0.3 1.2,0.5 -78.7,-31.6 -159,-59.1 -241,-81 -54.3,-14 -108.8,-26.9 -163.9,-37.3 -54.8,-10.2 -109.8,-18.9 -165,-26.1 -52.5,-6.5 -105.1,-11.1 -158,-13.5 -54.2,-2.5 -108.6,-4.5 -162.9,-4.6 -3.1,0 -6.2,0.1 -9.2,0.5 -19.5,2.3 -37.2,-14.2 -38.6,-33.1 -1.6,-20.2 13.6,-36.4 33,-38.7" /><path
         id="path42"
         style="fill:#8a6a51;fill-opacity:1;fill-rule:nonzero;stroke:none"
         d="m 13848.1,10686.9 c -8.5,17.5 -30.5,25.3 -48.1,16.7 -3.6,-1.8 -7.3,-3.5 -11.1,-5.1 0.7,0.3 1.4,0.5 2.1,0.8 -0.8,-0.4 -1.6,-0.7 -2.4,-1 -0.7,-0.2 -1.3,-0.5 -1.9,-0.8 0.5,0.3 1.1,0.5 1.6,0.7 -12,-4.7 -24.4,-8.5 -36.9,-11.8 0.3,0 0.5,0.1 0.8,0.2 -0.4,-0.2 -0.9,-0.3 -1.4,-0.4 -1.1,-0.3 -2.1,-0.6 -3.1,-0.8 0.6,0.2 1.3,0.4 2,0.5 -31.6,-8 -63.7,-13.6 -95.9,-17.7 -41.5,-5 -83.1,-7 -124.8,-6.8 -91.3,1.3 -182.6,8.9 -273.6,15.7 -148.6,11.2 -297.3,20.8 -446.3,22.4 0.2,0 0.4,0 0.6,0 -3.2,0 -6.5,0 -9.7,0.1 -149.8,1.7 -300.5,-9.2 -445.9,-46.8 -72.8,-18.8 -144.4,-41.6 -215.3,-66.4 -69.9,-24.4 -140,-48.2 -210.3,-71.1 -72.5,-23.6 -144.9,-47.2 -217.3,-70.9 -69.3,-22.8 -138.4,-45.3 -208.9,-64 0.3,0 0.6,0.1 0.9,0.2 -0.5,-0.2 -1,-0.3 -1.5,-0.4 -1,-0.3 -2.1,-0.6 -3.1,-0.8 0.7,0.2 1.5,0.4 2.2,0.6 -99.4,-25.1 -200.3,-42.6 -302,-55.4 -114,-13.8 -229,-20 -343.9,-20.2 -9.6,0.3 -19,0.6 -28.5,1.8 0.8,-0.1 1.5,-0.3 2.3,-0.4 -0.8,0.1 -1.6,0.2 -2.3,0.4 -0.1,0 -0.2,0 -0.3,0 -0.7,0.1 -1.5,0.2 -2.3,0.3 0.7,-0.1 1.4,-0.2 2.1,-0.3 -19.1,3.2 -38,-8 -42.3,-27.6 -4,-18.5 8.2,-39.3 27.5,-42.8 17,-2.9 34,-3.3 51.2,-3.3 2.8,0 5.6,0 8.4,0 20.5,0.1 41,0.6 61.6,1.2 39.2,1.1 78.5,2.3 117.6,4.8 78.1,5.2 156.2,13.1 233.6,24.9 74.6,11.5 149,25.1 222.2,43.7 74,18.8 146.7,42.3 219.3,66 71.6,23.5 143.2,46.9 214.8,70.2 69.7,22.7 139.2,45.9 208.3,70.2 69.4,24.3 139,47.2 210,66.2 30.2,7.7 60.6,15 91.3,20.7 30,5.6 60.1,10.2 90.2,14.3 45.5,5.6 91,9.1 136.6,11.1 -36.1,-30.2 -69.7,-63.7 -102,-97.9 -46,-48.9 -89.9,-99.7 -134.1,-150.2 -95.8,-109.4 -192.5,-217.7 -296.3,-319.5 -39.2,-37.8 -79.2,-74.9 -120.6,-110.4 -41.6,-35.7 -84.3,-69.9 -127.8,-103.2 -70.8,-52.8 -144.3,-101.2 -221,-145 -52.6,-29.2 -106.3,-55.6 -161.9,-78.7 -65.5,-25.7 -132.6,-47.8 -200.5,-66.3 -49.7,-12.5 -99.5,-22.5 -150.3,-29.3 -37.7,-4.3 -75.2,-6.7 -113.1,-6.8 -104.8,1.8 -209.5,11.2 -313.3,26 0.2,0 0.5,-0.1 0.6,-0.1 -1.9,0.3 -3.7,0.5 -5.6,0.7 -1.9,0.5 -4,0.9 -6.1,1.1 -0.1,0 -0.2,0 -0.4,0 -0.9,0.1 -1.9,0.2 -2.8,0.4 -1.3,0.2 -2.6,0.3 -3.8,0.5 -1.8,0.4 -3.6,0.7 -5.4,0.8 -0.6,0.1 -1.2,0.2 -1.7,0.3 0.5,-0.1 1.1,-0.1 1.6,-0.2 -25.6,3.9 -51.1,8.1 -76.7,12.5 -21.8,3.7 -44.2,7.2 -65.7,12.9 -9.4,3.7 -20.2,3.7 -29.4,-0.8 -18.1,-8.7 -24.7,-30.1 -16.7,-48 7.6,-17.1 26.8,-20.9 43.3,-24.3 15.6,-3.1 31.3,-6.1 46.9,-9 28,-5.1 56.1,-9.7 84.4,-13.8 1.6,-0.2 3.2,-0.5 4.8,-0.6 2,-0.6 4.1,-0.9 6.2,-1.1 h 0.3 c 1,-0.1 1.9,-0.3 2.9,-0.4 1.3,-0.2 2.5,-0.3 3.7,-0.5 1.4,-0.3 2.8,-0.5 4.2,-0.7 l 1.5,-0.2 h 0.1 c 0.8,-0.1 1.6,-0.2 2.4,-0.3 -0.1,0 -0.2,0 -0.3,0 31.9,-4.6 63.9,-8.8 96,-12.2 77.1,-8.3 154.7,-14.8 232.3,-14.8 h 0.8 c 76.6,0 152.5,9.9 227.2,26.3 75.3,16.4 149,40.4 221.4,66.6 72.3,26.2 142.1,59.8 208.9,97.7 65.4,37.3 129.5,77.3 190.3,121.7 61.9,45.3 122.4,92.9 180.2,143.3 113.4,99.1 218.2,207.6 318.3,319.9 48,53.9 95.3,108.3 142.8,162.5 42.2,48 84.9,95.8 130.5,140.5 23.5,22.7 47.7,44.9 73.7,64.6 10.9,8 22.1,15.6 33.7,22.5 6.2,3.6 10.6,9.2 13.2,15.5 2.1,-0.1 4.2,0 6.4,0 -0.3,0 -0.6,0 -0.8,0 4.7,0 9.4,-0.1 14.2,-0.2 -0.2,0.1 -0.5,0.1 -0.6,0.1 0.4,0 0.8,-0.1 1.2,-0.1 0.3,0 0.5,0 0.8,0 -0.2,0 -0.4,0 -0.6,0 124.7,-1.8 249.2,-8.6 373.5,-17.5 71.6,-5.2 143.1,-10.9 214.7,-15.2 66.6,-4 133.7,-7.7 200.4,-3.7 47.6,2.9 95.3,9.1 141.8,19.5 29.8,6.6 60,14.6 87.5,28.1 17.6,8.6 25.3,30.3 16.7,48.1" /><path
         id="path44"
         style="fill:#8a6a51;fill-opacity:1;fill-rule:nonzero;stroke:none"
         d="m 13206.5,11427.1 c -77.6,-43.4 -157.7,-81.5 -239.8,-115.5 -110.9,-44.8 -225.1,-80.4 -337.4,-121.4 -18.4,-6.8 -29.1,-26.6 -22.8,-45.5 4.9,-14.6 19.4,-24.8 34.4,-24.8 3.7,0 7.5,0.7 11.1,2 72.5,26.4 145.7,50.5 218.3,76.4 138.8,49.6 274.7,108.1 401.6,183.6 31.4,18.6 62.3,37.8 92.1,58.9 30.1,21.3 59.7,43.7 87.1,68.3 28.2,25.5 54.5,52.2 74,85.1 8.1,13.6 15,28.2 20.3,43.1 5.5,15.6 10.3,32.2 11.9,48.7 2,19.5 -13.7,37.1 -33,38.7 -19.8,1.5 -36.8,-13.6 -38.7,-33.1 v -0.1 c -1.3,-6.9 -3,-13.6 -4.8,-20.4 -2.1,-6.6 -4.4,-13.1 -7.1,-19.5 -3.5,-7.7 -7.3,-15.2 -11.5,-22.6 -5.1,-8 -10.5,-15.8 -16.4,-23.3 -6.7,-8 -13.8,-15.6 -21.2,-23.1 -23.8,-22.8 -49.2,-43.6 -75.4,-63.6 0.4,0.3 1,0.7 1.5,1.1 -0.7,-0.5 -1.4,-1.1 -2.2,-1.6 -0.5,-0.4 -1,-0.8 -1.5,-1.2 0.4,0.3 0.8,0.6 1.2,0.9 -45.2,-33.6 -92.8,-63.2 -141.7,-91.1" /><path
         id="path46"
         style="fill:#8a6a51;fill-opacity:1;fill-rule:nonzero;stroke:none"
         d="m 10721,9474.1 c -0.4,0 -0.7,0.1 -1.1,0.1 l -0.8,0.2 c 0.6,-0.2 1.3,-0.3 1.9,-0.3" /><path
         id="path48"
         style="fill:#8a6a51;fill-opacity:1;fill-rule:nonzero;stroke:none"
         d="m 11843.8,9467.2 c -1,-0.5 -1.9,-1.1 -2.9,-1.7 0.3,0.2 0.5,0.3 0.8,0.5 l -1.8,-1 c -0.6,-0.4 -1.1,-0.7 -1.7,-1 -0.1,0 -0.1,-0.1 -0.2,-0.1 -85,-47.9 -173.6,-89.4 -263.8,-126.5 -41.1,-16.5 -82.6,-32.4 -124.6,-46.6 -41,-13.8 -82.3,-26 -124,-37.4 -67.9,-17.6 -136.3,-31 -205.9,-40.2 -34.6,-4.1 -69.2,-7.1 -104,-8.7 -34.8,-1.8 -69.8,-1.4 -104.7,-1.1 h 4.9 c -65.3,1.2 -130.5,5.7 -195.3,14.6 -45.6,7.2 -90.3,17.4 -134.8,29.4 -24.4,7.2 -48.8,14.6 -72.7,23.7 -24,9.1 -47.7,18.9 -71.2,29 -28.3,12.8 -56.5,25.9 -84.2,40.2 -27.6,14.3 -54.6,29.6 -81.4,45.4 0.4,-0.3 0.8,-0.5 1.3,-0.8 -0.6,0.3 -1.2,0.7 -1.8,1.1 -0.8,0.4 -1.5,0.8 -2.2,1.3 0.5,-0.4 1.1,-0.7 1.7,-1.1 -36.7,22.3 -72.8,45.6 -107.9,70.4 -35.4,25.1 -70,51.4 -104.2,78.3 -63.63,51.3 -125.18,105.7 -183.25,163.2 -0.28,0.3 -0.55,0.6 -0.83,1 0,-0.1 0,-0.1 -0.02,-0.1 -8.22,9.5 -21.15,14.6 -34.05,12 -2.67,-0.6 -6.61,-1.7 -8.93,-3 -9.77,-5.4 -17.07,-13.6 -19.46,-24.8 -2.32,-10.7 0.43,-22.7 7.8,-30.9 13.71,-15.4 29.37,-28.9 44.33,-43 12.99,-12.2 26.14,-24.3 39.26,-36.3 25.87,-23.6 52.21,-46.7 79.26,-68.9 57.49,-47.2 116.59,-93 178.79,-133.8 64.6,-42.5 131.1,-81.5 200.9,-114.8 68.3,-32.6 138.5,-60.8 211.6,-80.6 35.8,-9.6 71.9,-18.6 108.5,-24.4 38.3,-5.9 76.6,-10.9 115.2,-13.7 48.5,-3.6 97.1,-5.6 145.6,-5.6 28.6,0 57.2,0.7 85.8,2.1 38,1.8 75.8,6.1 113.6,11.1 36.1,4.6 72.2,10.8 107.8,18.3 74.5,16 148.1,36.5 220.3,61 70.5,23.8 140,51.4 207.8,82.1 65.1,29.4 129.4,61 191.5,96.4 l -4,-2.3 c 4.2,2.3 8.4,4.7 12.5,7.1 16.9,9.8 20.7,34.2 10.4,49.8 -11.1,17.1 -32.9,20.3 -49.8,10.4" /><path
         id="path50"
         style="fill:#ff9894;fill-opacity:1;fill-rule:nonzero;stroke:none"
         d="m 9323.97,11881.2 c -36.32,3.4 -72.42,11.1 -105.29,27.4 -23.85,11.9 -44.69,28.3 -62.01,48.5 -22.17,26.9 -36.33,59.7 -45.85,93.1 -10.32,36.7 -13.89,74.8 -13.82,112.8 0.14,67.1 12.89,133.1 19.94,199.5 2.38,23.9 3.87,47.9 3.17,71.9 0.07,-1.7 0.14,-3.3 0.21,-4.9 -0.52,13.7 -1.56,27.3 -3.58,40.9 -2.35,13.6 -5.46,26.9 -9.47,40 -5.56,16.7 -12.2,33 -19.07,49.2 -1.29,2.5 -2.68,5 -4.08,7.4 -3.11,4 -5.36,8.6 -6.37,13.7 -0.48,2.3 -0.71,3.6 -0.84,5 -0.67,15 5.65,27.2 18.54,35.1 13.63,8.5 32.8,4.5 43.48,-6.8 8.71,-9.2 14.27,-23.4 19.11,-34.9 9.2,-22 17.64,-44.2 23.54,-67.4 9.98,-39.4 12.08,-80.3 9.76,-120.7 -2.93,-52.8 -12.5,-104.9 -18.05,-157.3 0,0 0,0 0,0.1 -3.08,-30.3 -5.11,-60.8 -4.09,-91.3 0.77,-16.2 2.36,-32.4 5.08,-48.5 -0.22,1.6 -0.51,3.3 -0.78,4.9 2.18,-12.2 5.03,-24.3 8.56,-36.2 -0.21,0.7 -0.46,1.5 -0.7,2.2 0.29,-0.9 0.59,-1.9 0.88,-2.8 l 0.52,-1.7 c -0.12,0.5 -0.29,1 -0.43,1.5 2.95,-9.1 6.31,-18.1 10.2,-26.8 3.22,-6.8 6.71,-13.5 10.61,-19.9 2.64,-4.1 5.45,-8 8.47,-11.9 3.11,-3.5 6.31,-6.9 9.69,-10.2 4.05,-3.5 8.27,-6.9 12.63,-10.1 4.1,-2.8 8.31,-5.4 12.6,-7.9 6.41,-3.3 13.03,-6.3 19.77,-8.9 8.02,-2.9 16.18,-5.3 24.44,-7.3 11.42,-2.5 22.98,-4.4 34.58,-5.6 11.74,-1.2 23.47,-1.7 35.25,-1.4 10.81,0.6 21.55,1.8 32.17,3.6 -1.06,-0.2 -2.14,-0.4 -3.19,-0.6 0.26,0.1 0.53,0.1 0.8,0.2 9.64,1.7 18.98,0.8 27.48,-4.5 7.94,-4.9 13.76,-12.9 15.94,-22 4.36,-18.3 -7.23,-40 -26.55,-43.4 -18.67,-3.4 -37.42,-5.2 -56.29,-5.2 -8.97,0 -17.95,0.4 -26.96,1.2" /><path
         id="path52"
         style="fill:#4f212d;fill-opacity:1;fill-rule:nonzero;stroke:none"
         d="m 9645.26,13342.8 c -17.43,13.9 -19.24,35.4 -12.86,55.3 3.83,11.9 12.03,22 21.09,30.7 0.5,0.7 1.01,1.3 1.53,1.9 7.93,9.4 16.85,17.8 26.56,25.5 25.5,20.1 55.85,32.5 86.25,43.1 -1.4,-0.5 -2.87,-1 -4.28,-1.5 58.11,20.4 118.1,36 178.66,47.1 40.03,7.3 80.39,13.3 120.99,14.9 22,0.9 44.2,1 66.1,-1.4 4.3,-0.5 8.7,-1 13.1,-1.7 8.7,-0.5 17.3,-1.5 25.8,-2.9 21.4,-3.5 42.9,-11.4 57.1,-28.5 7.9,-9.6 11.6,-23 10,-35.3 -1.6,-11.6 -7.1,-21.7 -15,-30.2 -13,-14.2 -33.2,-20.5 -51.7,-23.6 -22.5,-3.8 -45.7,-2.1 -68.5,-1.7 -23,0.3 -46,-0.2 -69,-1.9 v 0 0 c -0.3,0 -0.6,-0.1 -0.9,-0.1 -0.1,0 -0.2,0 -0.2,0 -0.8,-0.1 -1.6,-0.1 -2.4,-0.2 0.8,0 1.6,0.1 2.3,0.2 -1.5,-0.2 -3.1,-0.4 -4.7,-0.4 -0.3,0 -0.5,0 -0.8,-0.1 0.2,0.1 0.5,0.1 0.7,0.1 v 0 c -34.62,-3.2 -68.94,-8.5 -102.93,-15.7 0.17,0 0.31,0 0.45,0.1 0.22,0 0.42,0 0.61,0.1 -0.03,0 -0.05,0 -0.09,0 1.18,0.2 2.38,0.5 3.53,0.7 -2.66,-0.6 -5.27,-1.1 -7.93,-1.7 0.21,0 0.43,0.1 0.64,0.1 -32.81,-7.1 -65.29,-15.7 -97.11,-26.6 0.47,0.1 0.96,0.3 1.43,0.5 -1.14,-0.4 -2.26,-0.8 -3.37,-1.2 -0.34,-0.1 -0.66,-0.2 -0.99,-0.3 0.2,0 0.42,0.1 0.63,0.2 -35.64,-12.9 -70.01,-28.3 -104.07,-45 -1.84,-0.9 -3.62,-1.9 -5.42,-2.9 -2.77,-1.7 -5.82,-3.2 -9.09,-4.2 -1.84,-0.6 -3.39,-0.8 -5,-1 0.14,0 0.28,0 0.43,0 -0.85,-0.1 -1.69,-0.1 -2.54,-0.2 -0.67,0 -1.37,-0.1 -2.1,-0.1 0.48,0 0.95,0.1 1.42,0.1 -2.36,-0.1 -4.77,0 -7.15,0.3 -4.43,-0.9 -9,-1.5 -13.56,-1.5 -9.92,0 -19.69,2.6 -27.63,9" /><path
         id="path54"
         style="fill:#4f212d;fill-opacity:1;fill-rule:nonzero;stroke:none"
         d="m 8167.07,13031.6 c -3.92,0 -7.66,0.7 -11.15,2 -16.06,2.1 -29.69,15.2 -33.25,30.8 -4.14,18 1.2,36.6 11.09,51.8 18.49,28.5 44.84,50.3 73.14,68.4 9.27,6 18.76,11.5 28.48,16.6 2.46,1.5 4.94,2.9 7.42,4.2 27.26,14.9 55.98,26.9 85.57,36.6 21.58,7.1 43.38,13.3 65.78,17.4 40.13,7 80.9,10 121.65,8.2 21.2,-0.9 42.42,-2.9 63.01,-8.2 5.65,-1.4 11.42,-3.4 16.91,-5.9 3.76,-1.3 7.43,-2.8 10.97,-4.6 14.33,-7.1 27.19,-17.8 31.69,-33.9 4.35,-15.6 -1.4,-31.9 -12.72,-43.1 -14.74,-14.6 -38.28,-19.2 -58.09,-21.1 -14.26,-1.3 -28.59,-1.2 -42.85,-1.3 -10.11,0 -20.2,-0.1 -30.31,-0.3 -16.99,-1.9 -33.95,-4.1 -50.8,-7 -26.36,-4.8 -52.46,-11 -78.01,-19.2 l 4.42,1.5 c -23.65,-7.7 -46.94,-16.4 -69.54,-26.8 -36.53,-17.3 -71.08,-38.4 -107.28,-56.2 -0.47,-0.2 -0.95,-0.4 -1.42,-0.7 -6.51,-5.7 -15.02,-9.2 -23.95,-9.2 -0.27,0 -0.51,0 -0.76,0" /><path
         id="path56"
         style="fill:#ff9894;fill-opacity:1;fill-rule:nonzero;stroke:none"
         d="m 9443.87,11561.2 c -33.93,4.7 -66.67,13.5 -98.91,25.1 -10.54,3.8 -21.15,7.7 -31.4,12.2 -8.22,3.8 -15.25,8.2 -20.59,15.6 -5.91,8.1 -7.23,18.2 -5.69,27.8 2.25,14.2 14.68,25.1 28.24,28 h 0.07 c 9.79,1.4 19.42,-0.7 27.1,-5.7 20.34,-8.1 40.95,-15.8 62.05,-21.8 -1.48,0.4 -3.03,0.8 -4.5,1.2 16.57,-4.5 33.15,-8.2 50.07,-10.8 14.1,-1.7 28.25,-2.4 42.46,-2.6 16.22,0.2 32.39,1.5 48.54,3.5 24.17,3.4 47.92,8.9 71.45,15.1 -0.99,-0.2 -1.98,-0.5 -2.97,-0.8 23.04,6.4 45.5,14 67.57,23.1 15.46,6.7 30.61,14 45.23,22.4 16.99,10.2 33.11,21.6 48.75,33.7 20.51,16.3 40.02,33.7 58.5,52.2 15.6,16 30.34,32.7 43.88,50.4 -0.52,-0.7 -1.04,-1.4 -1.58,-2.1 11.73,15.5 22.88,31.5 33.49,47.9 10.68,16.4 33.72,20.7 49.87,9.9 16.44,-10.9 20.66,-33.4 9.98,-49.9 -25.09,-38.5 -53.11,-74.8 -85.5,-107.6 1.06,1.1 2.1,2.2 3.24,3.2 -26.35,-26.6 -54.38,-51.3 -84.58,-73.5 -29.72,-21.9 -61.83,-39.5 -95.84,-53.8 l 4.45,1.9 c -57.48,-24.2 -118.59,-40.1 -180.69,-46 -11.65,-1.2 -23.5,-1.7 -35.35,-1.7 -15.9,0 -31.82,1 -47.34,3.1" /><path
         id="path58"
         style="fill:#ffe0b0;fill-opacity:1;fill-rule:nonzero;stroke:none"
         d="m 14557.4,6702.9 c -35.9,60.8 -72.7,121.3 -107.9,182.6 -36.8,64.1 -72.3,129 -105.5,195 -40.9,81.4 -78.6,164.4 -113.9,248.4 0.4,-1 0.8,-2 1.2,-3 -1.3,3.1 -2.6,6.3 -3.9,9.4 0.4,-1 0.8,-2 1.2,-2.9 -56.6,133.8 -104.8,271.2 -151.2,408.8 -27,80.1 -53.6,160.4 -77.7,241.4 -5.7,18.7 3.1,39.2 22.2,45.8 18,6.2 40.1,-3.4 45.8,-22.3 19.1,-64.4 39.9,-128.3 61.2,-192 22.1,-66.7 44.6,-133.4 68.4,-199.6 30,-83.7 61.4,-166.9 95.3,-249.1 0,0 0,0.1 -0.1,0.2 0.1,-0.2 0.2,-0.3 0.2,-0.5 0.5,-1.1 1,-2.2 1.4,-3.3 l -0.3,0.7 c 0.1,-0.3 0.2,-0.5 0.3,-0.8 0.1,-0.2 0.2,-0.4 0.3,-0.5 -0.1,0 -0.1,0.1 -0.1,0.2 1.5,-3.7 3.1,-7.4 4.7,-11.1 -0.6,1.4 -1.3,2.8 -1.9,4.3 28.4,-66.9 58,-133.5 89.8,-198.9 31.8,-65 65.6,-129.1 101,-192.3 14.1,-25.4 28.6,-50.5 43.2,-75.6 -0.1,0.2 -0.2,0.3 -0.3,0.5 0.4,-0.7 0.8,-1.3 1.2,-2 0.4,-0.7 0.8,-1.4 1.2,-2.1 -0.1,0.2 -0.2,0.4 -0.3,0.6 27.8,-47.2 56.2,-94.3 84.1,-141.5 4.9,-8.5 7.5,-17.5 5.4,-27.5 -1.9,-9 -7.4,-17.2 -15,-22.4 -5.9,-4.1 -13.2,-6.1 -20.5,-6.1 -11.7,0 -23.4,5.2 -29.5,15.6" /><g
         transform="scale(1.00489)"
         id="g60"><path
           id="path62"
           style="fill:#529c9e;fill-opacity:1;fill-rule:nonzero;stroke:none"
           d="m 16300,5264.26 c -0.3,-0.5 -0.7,-0.99 -1.1,-1.49 -0.6,-0.7 -1.1,-1.49 -1.7,-2.19 0.9,1.19 1.9,2.49 2.8,3.68" /></g><g
         transform="scale(1.01183)"
         id="g64"><path
           id="path66"
           style="fill:#529c9e;fill-opacity:1;fill-rule:nonzero;stroke:none"
           d="m 15579.7,4656.89 c 4.3,0 8.7,0.79 12.9,2.27 -0.4,-0.19 -0.9,-0.39 -1.3,-0.59 1,0.4 2.1,0.79 3.1,1.28 0.3,0.1 0.7,0.3 1.1,0.5 v 0.1 c 6,2.86 11.3,7.01 16.6,10.87 7.6,5.23 15.1,10.87 22.5,16.5 12.3,9.19 24.6,18.58 36.7,28.07 -0.2,-0.2 -0.5,-0.39 -0.7,-0.59 3.1,2.37 6.2,4.74 9.2,7.11 -1.2,-0.88 -2.4,-1.87 -3.7,-2.76 4.8,3.65 9.6,7.41 14.3,11.06 -1.3,-0.88 -2.5,-1.87 -3.6,-2.76 68.4,53.17 134.6,109.8 197.9,169.1 55,51.29 108.5,103.96 159.4,159.31 50.3,54.46 97.9,111.38 142.9,170.29 36.3,47.63 70.9,96.75 102.7,147.55 10.3,16.31 6.6,38.25 -9.9,49.22 -15.7,10.57 -39,6.62 -49.3,-9.79 -30.1,-48.22 -62.9,-94.78 -97,-140.24 0.2,0.3 0.4,0.6 0.7,0.89 -0.6,-0.79 -1.1,-1.48 -1.7,-2.17 -0.4,-0.5 -0.8,-0.99 -1.1,-1.58 0.1,0.29 0.3,0.49 0.5,0.69 -1.6,-2.08 -3.3,-4.15 -4.9,-6.23 0.4,0.6 0.9,1.19 1.3,1.78 -60.1,-78.47 -125.4,-152.59 -194.4,-223.16 -90.9,-91.32 -186.6,-177.89 -288,-257.55 0.4,0.4 0.9,0.69 1.4,1.09 -3.2,-2.47 -6.5,-5.04 -9.7,-7.61 1.2,0.99 2.5,1.87 3.7,2.86 -4.4,-3.36 -8.7,-6.72 -13,-10.08 -0.5,-0.39 -1.1,-0.89 -1.7,-1.38 l 0.6,0.49 c -21.2,-16.4 -42.2,-33.4 -64.7,-48.03 -16.8,-8.5 -23,-30.64 -14.7,-47.24 6.3,-12.55 18.9,-19.27 31.9,-19.27" /></g><g
         transform="scale(1.07566)"
         id="g68"><path
           id="path70"
           style="fill:#529c9e;fill-opacity:1;fill-rule:nonzero;stroke:none"
           d="m 16296.6,3747.85 c -4.7,25.84 -19.5,49.27 -36.5,68.89 -20.8,23.8 -45.8,43.6 -72.2,60.89 -54.6,35.89 -114.6,64.43 -176.5,85.25 -131.1,44.26 -269.4,59.69 -407.3,59.59 -72.4,-0.09 -144.5,-3.25 -216.6,-8.83 -69.5,-5.3 -138.7,-13.57 -207.8,-21.1 -69.6,-7.72 -139.1,-14.97 -208.7,-20.27 -73.2,-5.58 -146.3,-9.01 -219.6,-10.5 h 4.3 c -26.1,-0.19 -52.5,-0.93 -78.6,1.49 -0.9,0.09 -1.9,0.27 -2.7,0.46 -11.5,3.44 -23.6,0.28 -32.2,-7.25 -38.7,13.2 -78.4,23.8 -118.7,31.79 -33.6,6.6 -67.4,12.18 -101.3,17.3 -18,2.69 -36,5.01 -54.1,7.25 -9.1,1.11 -18.3,2.23 -27.5,3.25 -8.7,1.02 -18.1,2.79 -26.8,1.77 -14.9,-1.86 -27.5,-11.99 -30.3,-27.15 -2.5,-13.48 3.5,-25.94 14.1,-34.03 h 0.1 c 6,-4.46 13.4,-6.22 20.6,-5.57 15,-0.65 30,-3.07 44.7,-4.93 -0.6,0.09 -1.2,0.19 -1.8,0.28 70.3,-8.83 140.6,-19.81 209.3,-37.37 31.1,-8.65 61.9,-18.97 91.9,-31.05 0.1,0 0.1,0 0.2,-0.1 1.1,-0.37 2.1,-0.83 3.2,-1.3 -0.8,0.37 -1.7,0.74 -2.6,1.02 27.5,-11.43 53.9,-24.82 79.7,-39.6 57.4,-33.66 113.3,-69.73 171.7,-101.8 58,-31.98 118.3,-60.24 179.2,-86.27 127.6,-54.57 259.5,-98.36 388.3,-150.42 -0.2,0 -0.4,0.09 -0.6,0.18 31.6,-13.1 63.1,-26.68 94.4,-40.72 126.8,-57.26 250.7,-121.32 372.1,-189.27 4.5,-2.52 9.3,-3.72 14.3,-3.72 12.4,0 25,7.53 30.5,18.87 8.3,16.92 0.7,35.88 -15.2,44.81 -18.6,10.32 -37.2,20.64 -55.9,30.86 -121.8,66.38 -245.9,128.85 -373.4,183.61 -126.5,54.29 -257.5,97.15 -385,149.03 -87.3,36.16 -172.9,75.95 -254.9,123.18 -31.9,18.68 -63.2,38.3 -94.8,57.45 -12.1,7.25 -24.2,14.5 -36.5,21.48 53.4,1.02 106.8,3.71 160,7.43 71.8,5.02 143.4,11.81 214.9,19.53 69.9,7.53 139.6,15.8 209.7,22.12 70.1,6.23 140.2,10.04 210.6,11.16 69.1,0.56 138.1,-1.77 206.9,-9.3 47.9,-5.95 95.1,-14.5 141.9,-26.03 37.5,-10.04 74.6,-21.75 110.7,-36.16 31.9,-13.48 62.8,-28.54 92.8,-45.74 17.4,-10.32 34.3,-21.29 50.5,-33.47 9.2,-7.25 18,-14.88 26.3,-23.05 5.1,-5.31 9.9,-10.79 14.4,-16.65 2.9,-3.9 5.6,-7.9 8.1,-11.99 1.5,-2.6 2.8,-5.3 4.1,-8.09 0.7,-1.86 1.3,-3.72 1.9,-5.48 0.3,-1.3 0.6,-2.51 0.8,-3.82 0.1,-1.02 0.2,-2.13 0.3,-3.16 -0.1,-0.46 -0.1,-0.93 -0.1,-1.39 -0.1,-0.46 -0.2,-0.93 -0.3,-1.3 -0.1,-0.65 -0.4,-1.21 -0.6,-1.86 -0.7,-1.39 -1.4,-2.88 -2.1,-4.28 -0.9,-1.39 -1.8,-2.69 -2.7,-4.09 -1.5,-1.86 -3.2,-3.62 -4.9,-5.39 -1.6,-1.49 -3.2,-2.88 -4.9,-4.28 -2.8,-1.86 -5.5,-3.72 -8.3,-5.48 -5.6,-2.97 -11.1,-5.67 -16.9,-8.18 -7.4,-2.79 -15,-5.21 -22.6,-7.44 -9.6,-2.32 -19.1,-4.18 -28.9,-5.86 -22.1,-2.88 -44.2,-4.65 -66.6,-5.02 -30.4,0.19 -60.7,2.7 -90.8,6.23 h 0.1 c -80,10.32 -159.2,27.34 -238,43.79 -17.8,3.72 -35.8,-8.93 -39,-26.59 -3.6,-18.13 8.7,-35.42 26.6,-39.14 70.2,-14.69 140.5,-29.19 211.5,-40.07 42.3,-6.41 85.1,-10.97 127.9,-10.97 27.3,0 54.6,1.86 81.8,6.33 16.3,2.6 32.4,5.94 48,11.34 16.9,5.67 34.1,12.64 48.7,22.87 15.5,10.87 28.8,23.7 37.9,40.44 9.4,17.2 13.2,36.16 9.8,55.59" /></g><path
         id="path72"
         style="fill:#529c9e;fill-opacity:1;fill-rule:nonzero;stroke:none"
         d="m 14500.9,2603.7 c -11.8,11.3 -27.2,17.9 -42,24 -41.8,16.6 -85.6,25 -130.2,30.3 -45.8,5.5 -92.1,7.3 -138.3,8.2 -73.2,1.2 -146.4,-0.9 -219.4,-6.9 -73.5,-6.1 -146.7,-15.1 -219.7,-25.5 -3.5,-0.4 -7,-1 -10.5,-1.4 l -4.2,-0.6 0.7,0.1 c -132.1,-18.8 -263.9,-39.4 -395.5,-60.3 -151.6,-24.1 -302.7,-51.5 -454.5,-73.6 -8.1,-1.2 -16.2,-2.3 -24.3,-3.5 1.6,0.2 3.1,0.5 4.5,0.7 -23.2,-3.3 -46.5,-6.7 -69.9,-8.9 -15.2,25.5 -30.6,50.8 -47,75.5 -20.6,30.9 -42.4,61.1 -64.8,90.7 -22.8,30.4 -45.7,60.6 -70.1,89.8 -13.2,15.8 -26.5,31.4 -40.1,46.9 -10.5,12.1 -21.8,25.6 -35.2,34.5 -16.3,10.9 -39,6.6 -50,-9.7 -10.7,-15.9 -6.6,-38.2 9,-49.3 2.2,-1.9 4.3,-3.9 6.4,-5.9 34.4,-36.8 66.3,-75.9 97.1,-115.7 -0.1,0.2 -0.3,0.4 -0.4,0.6 0.3,-0.4 0.6,-0.8 0.9,-1.2 0.2,-0.3 0.5,-0.6 0.7,-0.9 26.1,-34.5 52.2,-69 76.5,-104.6 24.3,-35.6 46.6,-72.2 68.3,-109.3 30.9,-53.9 59.3,-109.1 84.1,-166.1 29.5,-70.8 53.2,-143.6 73.9,-217.5 29,-105.7 52.1,-212.9 68.5,-321.3 2.6,-17 19.2,-28.6 35.6,-28.6 2.4,0 4.7,0.3 6.9,0.7 20,4.2 30.8,23.2 27.9,42.5 -16.8,110.9 -40.4,220.6 -70.4,328.6 -19.7,70.5 -42.4,140.2 -69.8,208.2 -19.9,49.2 -43.4,97.2 -68.9,143.9 15,2.1 30,4.4 44.9,6.5 -1,-0.1 -2,-0.3 -3.1,-0.4 7.6,1.1 15.3,2.2 22.8,3.2 -1.1,-0.1 -2.2,-0.2 -3.3,-0.4 132.8,18.6 264.8,42.8 397.2,64.3 150,24.4 300.2,47.2 450.6,69.3 -0.4,-0.1 -0.8,-0.1 -1.1,-0.2 0.9,0.1 1.9,0.3 2.8,0.4 -0.5,-0.1 -1,-0.2 -1.6,-0.2 4.3,0.6 8.5,1.2 12.7,1.8 l -0.7,-0.1 c 1.2,0.2 2.4,0.3 3.6,0.5 121.2,17.1 243.2,30.7 365.8,32 65.1,0.2 130.7,-1 195.5,-8.4 23.9,-2.9 47.5,-6.7 70.8,-12.6 12.9,-3.6 25.6,-7.7 38.1,-12.5 0.7,-0.4 1.5,-0.7 2.3,-1 4.4,-1.9 8.7,-3.9 13,-6.1 -0.3,-0.1 -0.5,-0.3 -0.7,-0.4 -3.3,-1.8 -6.7,-3.5 -10.2,-5.1 -8.2,-3.2 -16.5,-6 -25,-8.5 -22.5,-6 -45.2,-10.5 -68.3,-13.9 -58.2,-7.7 -116.8,-9.7 -175.5,-10.4 -34.1,-0.3 -68.2,-0.5 -102.4,-0.3 -19.6,0.1 -36.8,-13.7 -37.9,-34 -1,-18.8 14.4,-37.7 34,-37.9 43.5,-0.2 86.9,-0.1 130.4,0.8 72.1,1.3 145.6,3.9 216.1,20.6 19.9,4.7 40.1,9.9 58.8,18.4 20.4,9.2 41.7,22.2 51.1,43.6 6.4,14.6 8.7,30.2 3.5,45.7 -4.1,12 -10.9,22.2 -20,30.9" /><path
         id="path74"
         style="fill:#529c9e;fill-opacity:1;fill-rule:nonzero;stroke:none"
         d="m 13746.7,2633.2 c 1.6,0.2 3.1,0.4 4.6,0.6 v 0 c -1.5,-0.2 -3,-0.4 -4.6,-0.6" /><path
         id="path76"
         style="fill:#529c9e;fill-opacity:1;fill-rule:nonzero;stroke:none"
         d="m 14170.9,2014.3 c -19.1,2.4 -38.2,4.9 -57.3,7.5 -147.8,20.2 -294.7,46.2 -441.8,71.4 -74.4,12.7 -148.7,25.4 -223.1,37.9 -38.7,6.5 -77.2,12.9 -115.9,19 -19.1,3 -38.2,6 -57.3,8.9 -19.5,2.9 -39.1,5.3 -58.5,8.6 -3.6,0.9 -7.4,1.2 -11.2,0.9 -19.7,-1.5 -34.4,-19 -33.2,-38.6 1,-14.3 11.1,-26.8 24.5,-31.4 10.7,-3.7 23,-3.9 34.2,-5.6 10.3,-1.5 20.5,-3 30.8,-4.6 152.7,-23.2 305,-49.9 457.2,-76.3 145.7,-25.1 291.4,-50 438.2,-68.4 2.2,-0.3 4.3,-0.4 6.4,-0.4 7.2,0 14,1.6 20.3,5.9 7.9,5.3 13.5,13.7 15.3,23.2 3.5,18.3 -9.2,39.5 -28.6,42" /><path
         id="path78"
         style="fill:#ff9894;fill-opacity:1;fill-rule:nonzero;stroke:none"
         d="m 10046.3,1573.4 c -2.8,18.1 9.3,37 27.4,40.7 32.7,10.4 64.9,22.2 97.5,32.9 30.7,10.2 61.4,20.3 92.3,29.9 59.3,18.3 119.3,34.1 178.7,51.6 60.4,17.8 120.4,36.7 180,57.1 44.1,15.2 88.3,32.1 134.2,40.8 11.4,2.2 23.4,3.8 34.5,-0.6 15.1,-5.9 24.5,-21.9 22.7,-38 -1.4,-11.6 -8.5,-21.8 -18.5,-27.8 -7.7,-4.6 -16.4,-7.2 -24.9,-9.9 -8.3,-2.7 -16.7,-4.8 -25.2,-6.9 -7.3,-1.7 -14.8,-1.4 -21.5,0.7 -34.6,-10.4 -68.6,-23.2 -102.7,-34.7 -59.3,-20.1 -119.1,-38.4 -179.2,-55.9 -57.7,-16.8 -115.8,-32.1 -173.2,-50.2 -31,-9.9 -62,-20.1 -93,-30.4 -14.9,-5 -30,-10 -45,-15.2 -8.2,-2.8 -16.4,-5.6 -24.7,-8.5 -5.9,-2 -12,-4.7 -18.2,-5.5 -1.7,-0.2 -3.3,-0.3 -4.9,-0.3 -17.6,0 -33.5,12.1 -36.3,30.2" /><path
         id="path80"
         style="fill:#ff9894;fill-opacity:1;fill-rule:nonzero;stroke:none"
         d="m 9634.34,1540.9 c -13.64,13.1 -15.19,37.3 -1,50.8 9.28,8.9 18.76,17.6 28.18,26.2 1.91,1.8 3.8,3.5 5.69,5.1 0.91,1 1.89,1.9 2.86,2.8 0.61,0.6 1.22,1.2 1.85,1.7 1.1,1 2.2,2 3.29,3 -0.09,-0.1 -0.18,-0.2 -0.27,-0.2 53.72,49.1 108.19,97.6 163.55,145.1 53.52,45.9 108.1,90.9 164.91,132.7 57.6,42.3 117.8,80.6 178.4,118.3 54.8,34.2 109.4,68.7 164.7,102.3 44.1,26.8 89.3,51.6 133.2,78.7 16.7,10.3 39.3,4.8 49.5,-11.9 10.2,-16.7 4.7,-39.2 -12,-49.4 -39.4,-24.4 -80.1,-46.7 -119.8,-70.7 -55,-33.2 -109.3,-67.5 -163.7,-101.4 -51.4,-32 -103.1,-63.7 -152.7,-98.5 1.2,1 2.4,1.8 3.7,2.7 -117.38,-83.1 -225.35,-178.4 -332.21,-274.5 -9.07,-8.2 -18.08,-16.4 -27.12,-24.7 -2.3,-2.2 -4.6,-4.4 -7.07,-6.4 -0.74,-0.8 -1.49,-1.5 -2.28,-2.1 -0.08,-0.1 -0.15,-0.1 -0.22,-0.2 -0.83,-0.8 -1.67,-1.5 -2.5,-2.3 0.22,0.2 0.45,0.4 0.66,0.6 -9.67,-8.8 -19.27,-17.6 -28.77,-26.7 -7.41,-7 -16.99,-10.8 -26.51,-10.8 -8.7,0 -17.37,3.1 -24.34,9.8" /><path
         id="path82"
         style="fill:#ff9894;fill-opacity:1;fill-rule:nonzero;stroke:none"
         d="m 9386.5,1608.9 c -23.74,4.1 -36.96,26.1 -29.23,49 1.77,5.3 5.06,10 8.01,14.7 3.02,4.7 5.9,9.5 8.99,14.1 5.55,8.2 11.12,16.4 16.58,24.6 11.24,16.7 22.98,33 34.49,49.4 22,31.3 44.26,62.3 66.81,93.2 44.19,60.6 90.77,119.6 139.87,176.3 49.25,56.9 103.06,109.5 158.27,160.6 1.32,1.2 2.63,2.5 3.92,3.7 0.35,0.3 0.67,0.6 1.03,0.9 5.74,6.5 13.18,12 19.49,17.8 6.19,5.6 12.45,11.2 18.63,16.7 14.12,12.6 28.17,25.2 42.43,37.6 101.57,87.9 207.61,170.2 319.51,244.7 18.8,12.5 37.3,25.2 56.1,37.7 16.3,10.9 39.5,4.3 49.5,-11.9 10.5,-17.2 4.3,-38.6 -12,-49.5 -40.2,-26.8 -80.5,-53.6 -120.1,-81.3 -112.3,-79.5 -218.34,-167.7 -320.09,-260.2 -1.51,-1.4 -2.99,-2.9 -4.52,-4.2 -3.96,-4.2 -8.63,-7.9 -12.73,-11.7 -12.16,-11.3 -24.23,-22.6 -36.11,-34.1 -43.63,-42.3 -85.38,-86 -124.81,-132.2 -85.15,-101.6 -163.3,-209.2 -237.3,-319.2 -3.46,-5.4 -6.91,-10.8 -10.07,-16.4 -5.56,-11.5 -16.98,-19.9 -30.24,-20.5 -0.82,-0.1 -1.69,-0.1 -2.53,-0.1 -1.49,0 -2.92,0.1 -3.9,0.3" /><path
         id="path84"
         style="fill:#4f212d;fill-opacity:1;fill-rule:nonzero;stroke:none"
         d="m 9842.27,12775.8 c 0,84.4 72.96,152.8 162.93,152.8 90,0 163,-68.4 163,-152.8 0,-84.5 -73,-152.9 -163,-152.9 -89.97,0 -162.93,68.4 -162.93,152.9" /><path
         id="path86"
         style="fill:#4f212d;fill-opacity:1;fill-rule:nonzero;stroke:none"
         d="m 8476.88,12521.2 c 0,84.4 72.96,152.8 162.95,152.8 90,0 162.96,-68.4 162.96,-152.8 0,-84.5 -72.96,-152.9 -162.96,-152.9 -89.99,0 -162.95,68.4 -162.95,152.9" /><path
         id="path88"
         style="fill:#dbcfc6;fill-opacity:1;fill-rule:nonzero;stroke:none"
         d="M 10736.5,1352.5 H 3173.68 L 1040.49,6137.4 c -43.177,101.5 30.27,214.4 140.57,216.2 l 5272.11,81.2 c 103.02,1.6 197.2,-57.9 240.02,-151.6 l 2152.69,-4712.3 1908.82,23.2 c 59,0.7 107.9,-45.7 110.2,-104.7 3,-73.5 -54.9,-135.1 -128.4,-136.9" /><path
         id="path90"
         style="fill:#6bcccf;fill-opacity:1;fill-rule:nonzero;stroke:none"
         d="m 13223.9,10518.4 c 0.1,0 0.1,0 0.1,0 0.3,-0.1 0.6,-0.1 0.9,-0.2 -0.4,0.1 -0.7,0.1 -1,0.2" /><path
         id="path92"
         style="fill:#ffffff;fill-opacity:1;fill-rule:nonzero;stroke:none"
         d="m 4958.37,3893.7 c 45.74,-211.2 -88.42,-382.5 -299.64,-382.5 -211.23,0 -419.54,171.3 -465.27,382.5 -45.74,211.2 88.42,382.5 299.65,382.5 211.22,0 419.53,-171.3 465.26,-382.5" /></g></g></svg>