<?xml version="1.0" encoding="UTF-8" standalone="no"?>
<svg
   xmlns:dc="http://purl.org/dc/elements/1.1/"
   xmlns:cc="http://creativecommons.org/ns#"
   xmlns:rdf="http://www.w3.org/1999/02/22-rdf-syntax-ns#"
   xmlns:svg="http://www.w3.org/2000/svg"
   xmlns="http://www.w3.org/2000/svg"
   viewBox="0 0 1000 666.66669"
   height="666.66669"
   width="1000"
   xml:space="preserve"
   id="svg2"
   version="1.1"><metadata
     id="metadata8"><rdf:RDF><cc:Work
         rdf:about=""><dc:format>image/svg+xml</dc:format><dc:type
           rdf:resource="http://purl.org/dc/dcmitype/StillImage" /></cc:Work></rdf:RDF></metadata><defs
     id="defs6"><clipPath
       id="clipPath60"
       clipPathUnits="userSpaceOnUse"><path
         id="path58"
         d="m 4963.7,1960.4 c -0.07,0.04 -0.13,0.07 -0.2,0.11 l -54.6,59.79 c -4.73,3.51 -9.64,6.94 -14.74,10.31 0.03,0.01 0.04,0.02 0.07,0.03 5.11,-3.38 10.04,-6.82 14.77,-10.34 l 54.7,-59.9 m -418.16,182.36 c -85.49,13.6 -172.95,21.44 -251.54,24.54 v 0 c 78.59,-3.09 166.02,-10.92 251.51,-24.52 l 0.03,-0.02" /></clipPath><clipPath
       id="clipPath292"
       clipPathUnits="userSpaceOnUse"><path
         id="path290"
         d="m 2836.9,3720.4 c 88,-128.1 258,-241.8 389.1,-331.5 -8.5,-167.7 -120.9,-291.8 -216.6,-404.5 73.8,-274 259.1,-313.3 259.1,-784.6 -100.18,150.16 -279.56,89.56 -483.62,28.96 -170.74,-50.71 -358.75,-101.41 -532.08,-28.66 0,472.6 187.8,781.6 294.6,918.2 114.6,327.9 145.2,562.3 289.5,602.1" /></clipPath></defs><g
     transform="matrix(1.3333333,0,0,-1.3333333,0,666.66667)"
     id="g10"><g
       transform="scale(0.1)"
       id="g12"><path
         id="path14"
         style="fill:#ebebe9;fill-opacity:1;fill-rule:nonzero;stroke:none"
         d="M 0,0 H 7500 V 5000 H 0 Z" /><path
         id="path16"
         style="fill:#204378;fill-opacity:1;fill-rule:nonzero;stroke:none"
         d="m 4908.9,2282.7 c 58.8,-35.7 104.5,-92.5 127.4,-157.1 -102.7,-109.3 -270.9,-151.6 -413.1,-104 13.7,64 27.39,127.9 41.1,191.9 2.6,12.2 5.7,25.2 14.8,33.7 7.2,6.7 17,9.5 26.5,12 69.4,18.1 149.3,56.2 203.3,23.5" /><path
         id="path18"
         style="fill:#e67462;fill-opacity:1;fill-rule:nonzero;stroke:none"
         d="m 4823.7,1929.1 60.2,111 c 0,0 22.3,73.5 53.79,255.5 l -431.79,-122.4 317.8,-244.1" /><path
         id="path20"
         style="fill:#461925;fill-opacity:1;fill-rule:nonzero;stroke:none"
         d="m 5087.2,1689.2 185.3,-68.3 C 5255.9,1478.3 5115.1,1396.3 4896.9,1352 l 26.2,251.8 164.1,85.4" /><path
         id="path22"
         style="fill:#f78e74;fill-opacity:1;fill-rule:nonzero;stroke:none"
         d="m 5407.1,820.398 -153.7,-100.199 -230.3,546.701 -64.6,74.2 -84.7,97.3 76.9,247.1 28.3,90.6 36.5,-49.9 169.2,-231.4 1.9,-2.6 c 27.7,-37.9 48.3,-80.6 60.9,-126 l 159.6,-545.802" /><path
         id="path24"
         style="fill:#e67462;fill-opacity:1;fill-rule:nonzero;stroke:none"
         d="m 5184.6,1495 c -43.5,-0.3 -86.8,-12 -124.1,-34.3 -45.8,-27.3 -81.8,-70.3 -102,-119.5 l -84.7,97.3 76.9,247.1 c 4.6,4.1 9.3,8 14.3,11.7 15.6,11.7 32.5,21.4 50.5,29 L 5184.6,1495" /><path
         id="path26"
         style="fill:#204378;fill-opacity:1;fill-rule:nonzero;stroke:none"
         d="m 5678.6,755.801 c -140.2,-67.199 -283.2,-134.399 -426.3,-201.5 -3.6,12.301 -6.6,24.801 -9.1,37.301 -9.3,49.597 -8.7,100.5 0.6,149.5 71.1,50.3 144.7,84 222.1,90.796 62.2,5.5 127.5,-8.5 178.4,-45.199 12.4,-8.898 23.8,-19.199 34.3,-30.898" /><path
         id="path28"
         style="fill:#ffffff;fill-opacity:1;fill-rule:nonzero;stroke:none"
         d="m 5413.18,828.129 c -16.53,-11.938 -26.21,-31.5 -26.27,-51.649 0,-2.14 0.11,-4.3 0.34,-6.449 0.6,-5.492 5.53,-9.461 11.02,-8.871 5.49,0.59 9.46,5.531 8.87,11.02 -0.15,1.422 -0.23,2.859 -0.23,4.3 -0.06,13.59 6.96,27.629 17.92,35.391 4.49,3.219 5.52,9.469 2.3,13.961 -3.22,4.477 -9.46,5.52 -13.95,2.297" /><path
         id="path30"
         style="fill:#ffffff;fill-opacity:1;fill-rule:nonzero;stroke:none"
         d="m 5451.66,836.02 c -19.99,-14.481 -31.99,-38.258 -32.05,-62.778 0,-1.902 0.07,-3.82 0.23,-5.73 0.43,-5.512 5.25,-9.621 10.76,-9.18 5.5,0.438 9.61,5.258 9.17,10.77 -0.11,1.367 -0.16,2.75 -0.16,4.14 -0.06,17.86 9.2,36.156 23.73,46.547 4.48,3.223 5.5,9.473 2.27,13.949 -3.22,4.492 -9.47,5.504 -13.95,2.274" /><path
         id="path32"
         style="fill:#ffffff;fill-opacity:1;fill-rule:nonzero;stroke:none"
         d="m 5491.98,838.672 c -21.88,-14.91 -36.23,-39.512 -38.45,-65.852 -0.45,-5.5 3.64,-10.332 9.15,-10.781 5.5,-0.457 10.33,3.641 10.78,9.141 1.59,20.05 13.04,39.672 29.75,50.949 4.57,3.101 5.76,9.32 2.66,13.891 -3.1,4.57 -9.32,5.761 -13.89,2.652" /><path
         id="path34"
         style="fill:#a9c5d5;fill-opacity:1;fill-rule:nonzero;stroke:none"
         d="m 5678.6,755.801 c -140.2,-67.199 -283.2,-134.399 -426.3,-201.5 -3.6,12.301 -6.6,24.801 -9.1,37.301 l 401,195.097 c 12.5,-8.898 23.9,-19.199 34.4,-30.898" /><path
         id="path36"
         style="fill:#461925;fill-opacity:1;fill-rule:nonzero;stroke:none"
         d="m 3929.4,1851 -94.5,-62.5 c 0.2,-131 96.7,-239.3 304.1,-321.5 l 28.4,134.8" /><path
         id="path38"
         style="fill:#f78e74;fill-opacity:1;fill-rule:nonzero;stroke:none"
         d="m 4222.2,1540 -16.7,-11.6 -92.8,-64.5 -60.4,-42.1 -233.1,-587.499 -137.8,88.801 143.8,604.798 c 7.1,29.9 20.7,57.8 39.8,81.9 l 46.8,58.8 184.5,231.2 11.1,14 7.7,-25 100.4,-326.9 6.7,-21.9" /><path
         id="path40"
         style="fill:#e67462;fill-opacity:1;fill-rule:nonzero;stroke:none"
         d="m 4215.5,1561.7 c -2.7,-11.4 -6.1,-22.5 -10.1,-33.4 l -92.8,-64.5 c -3.5,58.5 -30.1,115.8 -74.7,154.1 -35.1,30 -80,47.2 -126.1,50.5 l 184.5,231.2 c 6.5,-3.2 12.8,-6.8 18.8,-11 l 100.4,-326.9" /><path
         id="path42"
         style="fill:#204378;fill-opacity:1;fill-rule:nonzero;stroke:none"
         d="m 3397.2,936.199 c 126.2,-90.801 255.2,-182.097 384.2,-273.301 5.7,11.403 10.9,23.204 15.5,35.102 17.8,47.199 26.3,97.398 25.7,147.301 -61.2,62 -127.6,108.097 -202.6,128.398 -60.3,16.301 -127.1,14.102 -183.5,-13.097 -13.8,-6.602 -26.9,-14.704 -39.3,-24.403" /><path
         id="path44"
         style="fill:#ffffff;fill-opacity:1;fill-rule:nonzero;stroke:none"
         d="m 3656.92,946.742 c 7.67,-7.851 12.12,-19.344 12.09,-30.594 0,-3.949 -0.53,-7.859 -1.61,-11.566 -1.54,-5.301 1.51,-10.852 6.81,-12.391 5.31,-1.543 10.86,1.52 12.4,6.821 1.62,5.609 2.4,11.386 2.4,17.136 -0.03,16.332 -6.17,32.543 -17.73,44.512 -3.85,3.969 -10.18,4.059 -14.14,0.219 -3.97,-3.848 -4.06,-10.18 -0.22,-14.137" /><path
         id="path46"
         style="fill:#ffffff;fill-opacity:1;fill-rule:nonzero;stroke:none"
         d="m 3620.34,961.32 c 10.2,-10.398 16.06,-25.441 16.03,-40.25 0,-4.691 -0.57,-9.359 -1.74,-13.851 -1.4,-5.34 1.8,-10.809 7.15,-12.199 5.34,-1.391 10.8,1.812 12.2,7.152 1.62,6.207 2.39,12.566 2.39,18.898 -0.02,19.942 -7.62,39.719 -21.71,54.219 -3.86,3.953 -10.19,4.02 -14.14,0.172 -3.96,-3.859 -4.03,-10.191 -0.18,-14.141" /><path
         id="path48"
         style="fill:#ffffff;fill-opacity:1;fill-rule:nonzero;stroke:none"
         d="m 3581.52,970.648 c 13,-12.636 20.65,-31.109 20.61,-49.199 0,-2.039 -0.09,-4.078 -0.28,-6.097 -0.53,-5.5 3.51,-10.383 9.01,-10.903 5.49,-0.519 10.38,3.512 10.9,9.012 0.25,2.66 0.37,5.32 0.37,7.988 -0.03,23.59 -9.63,46.86 -26.64,63.512 -3.96,3.859 -10.29,3.777 -14.15,-0.172 -3.85,-3.957 -3.78,-10.289 0.18,-14.141" /><path
         id="path50"
         style="fill:#a9c5d5;fill-opacity:1;fill-rule:nonzero;stroke:none"
         d="m 3397.2,936.199 c 126.2,-90.801 255.2,-182.097 384.2,-273.301 5.7,11.403 10.9,23.204 15.5,35.102 l -360.4,262.602 c -13.8,-6.602 -26.9,-14.704 -39.3,-24.403" /><path
         id="path52"
         style="fill:#88283e;fill-opacity:1;fill-rule:nonzero;stroke:none"
         d="m 5273.3,1620.9 c -155.61,59.8 -246.5,-72.7 -376.8,-270.5 l -368,369 -386.8,-255.2 c -90.4,219.2 -185.2,397.5 -308,323.11 l 372.4,307.49 87.8,72.5 c 210.8,-8.3 485.3,-50.7 615,-147 l 54.7,-59.9 309.7,-339.5" /><g
         id="g54"><g
           clip-path="url(#clipPath60)"
           id="g56"><path
             id="path62"
             style="fill:#987f88;fill-opacity:1;fill-rule:nonzero;stroke:none"
             d="m 4294,1960.4 h 669.699 v 206.902 H 4294 Z" /></g></g><path
         id="path64"
         style="fill:#272f4f;fill-opacity:1;fill-rule:nonzero;stroke:none"
         d="m 4894.16,2030.61 c -3.72,2.46 -7.55,4.88 -11.47,7.27 l 0.03,0.05 c 3.93,-2.4 7.77,-4.82 11.51,-7.29 -0.03,-0.01 -0.04,-0.02 -0.07,-0.03" /><path
         id="path66"
         style="fill:#964847;fill-opacity:1;fill-rule:nonzero;stroke:none"
         d="m 4882.69,2037.88 c -82.97,50.52 -207.83,84.3 -337.15,104.88 l -0.03,0.02 c 129.33,-20.57 254.2,-54.34 337.21,-104.85 l -0.03,-0.05" /><path
         id="path68"
         style="fill:#672132;fill-opacity:1;fill-rule:nonzero;stroke:none"
         d="m 4963.5,1960.51 c -129.2,71.23 -272.56,108.34 -414.96,108.34 -7.99,0 -15.96,-0.12 -23.94,-0.35 -56.37,-1.64 -112.67,-11.02 -168.9,-11.02 -12.31,0 -24.6,0.45 -36.9,1.52 -39.3,3.5 -79.5,15 -112.6,35.8 l 87.8,72.5 c 78.59,-3.1 166.05,-10.94 251.54,-24.54 129.32,-20.58 254.18,-54.36 337.15,-104.88 3.92,-2.39 7.75,-4.81 11.47,-7.27 5.1,-3.37 10.01,-6.8 14.74,-10.31 l 54.6,-59.79" /><path
         id="path70"
         style="fill:#672132;fill-opacity:1;fill-rule:nonzero;stroke:none"
         d="m 4524.6,1737.1 c -51.9,81.6 -96.7,139.9 -147.7,192.2 39.1,-14.7 71.1,-44.6 94.5,-79.2 23.41,-34.6 39.1,-73.7 53.2,-113" /><path
         id="path72"
         style="fill:#672132;fill-opacity:1;fill-rule:nonzero;stroke:none"
         d="m 4494,1733.3 c -72.9,5 -135.1,7 -197.2,9 27.84,9.3 57.18,13.91 86.55,13.91 37.92,0 75.88,-7.69 110.65,-22.91" /><path
         id="path74"
         style="fill:#f78e74;fill-opacity:1;fill-rule:nonzero;stroke:none"
         d="m 4177.6,2609.7 -63.3,-140.4 -193.9,298.4 -110.9,-90.5 222.8,-416.1 c 41,-68.7 136.5,-78.8 191,-20.2 l 130.5,167.2 -176.2,201.6" /><path
         id="path76"
         style="fill:#f78e74;fill-opacity:1;fill-rule:nonzero;stroke:none"
         d="m 3844.5,2663.8 c -58.6,10.2 -86.6,36 -140.3,99.8 -12.6,15.9 -21,36.5 -17.1,56.4 3.9,19.9 23.1,37.2 44.2,33.6 -4.2,17.1 0.2,36.1 11.5,49.5 11.3,13.4 29.3,21 48.2,21.1 -0.79,16.1 8.1,32.3 22.2,40.2 14.1,7.9 32.6,7.1 51.5,-0.2 10,18.1 33.2,26.8 53.5,22.4 20.3,-4.4 37.01,-20.1 45.5,-39 8.5,-18.9 9.5,-40.5 6,-60.9 -1.7,-10.1 -4.6,-20.2 -10.6,-28.5 -6,-8.3 -15.5,-14.5 -22.9,-15.7 19.3,-32.9 19.6,-76.1 2.1,-109.9 -28.3,-32.8 -63.4,-37.1 -93.8,-68.8" /><path
         id="path78"
         style="fill:#f78e74;fill-opacity:1;fill-rule:nonzero;stroke:none"
         d="m 3723,2760.8 c 15,-7.8 32.3,-12.2 49,-9.4 16.7,2.8 32.5,13.6 38.7,29.4 6.2,15.8 0.8,36 -13.9,44.6" /><path
         id="path80"
         style="fill:#c14551;fill-opacity:1;fill-rule:nonzero;stroke:none"
         d="m 3720.69,2756.37 c 12.48,-6.49 26.57,-10.81 40.95,-10.82 3.73,0 7.46,0.3 11.19,0.92 18.19,3.08 35.47,14.7 42.53,32.5 1.94,4.97 2.87,10.26 2.87,15.52 -0.01,13.83 -6.4,27.86 -18.91,35.23 -2.38,1.39 -5.45,0.59 -6.84,-1.8 -1.39,-2.38 -0.59,-5.44 1.79,-6.84 8.83,-5.1 13.98,-15.75 13.96,-26.59 0,-4.09 -0.72,-8.15 -2.18,-11.86 -5.34,-13.8 -19.67,-23.78 -34.87,-26.3 -3.15,-0.53 -6.34,-0.78 -9.54,-0.78 -12.34,0 -24.98,3.78 -36.33,9.69 -2.45,1.27 -5.47,0.32 -6.75,-2.13 -1.27,-2.45 -0.32,-5.47 2.13,-6.75" /><path
         id="path82"
         style="fill:#f78e74;fill-opacity:1;fill-rule:nonzero;stroke:none"
         d="m 3833.5,2890.3 c 10.7,-15 14.4,-34.7 10.1,-52.5 -2.5,-10.1 -7.7,-19.9 -16.4,-25.6 -12.4,-8.2 -29.3,-6.5 -42.5,0.5 -13.1,7 -23.3,18.4 -33.1,29.5" /><path
         id="path84"
         style="fill:#c14551;fill-opacity:1;fill-rule:nonzero;stroke:none"
         d="m 3829.43,2887.39 c 7.13,-9.99 10.93,-22.39 10.92,-34.71 0,-4.63 -0.53,-9.24 -1.61,-13.71 l 0.01,0.03 c -2.29,-9.31 -7.05,-17.92 -14.29,-22.61 l -0.02,-0.02 c -4.81,-3.18 -10.52,-4.65 -16.6,-4.65 -7,-0.01 -14.41,2 -20.8,5.4 l 0.01,-0.01 c -12.05,6.42 -21.93,17.29 -31.7,28.4 -1.83,2.07 -4.99,2.27 -7.06,0.44 -2.07,-1.83 -2.26,-4.98 -0.44,-7.06 9.82,-11.1 20.35,-23.01 34.49,-30.6 l 0.01,-0.01 c 7.75,-4.1 16.62,-6.55 25.49,-6.56 7.68,0 15.42,1.88 22.12,6.31 l -0.02,-0.01 c 10.16,6.7 15.81,17.69 18.52,28.58 l 0.01,0.05 -0.01,-0.02 c 1.27,5.26 1.89,10.66 1.89,16.05 0,14.35 -4.37,28.71 -12.78,40.52 -1.61,2.25 -4.73,2.77 -6.98,1.17 -2.25,-1.61 -2.77,-4.73 -1.16,-6.98" /><path
         id="path86"
         style="fill:#f78e74;fill-opacity:1;fill-rule:nonzero;stroke:none"
         d="m 3872.9,2940.9 c 5.7,-14.1 12.9,-27.6 17,-42.2 4.1,-14.6 4.9,-31 -2.2,-44.4 -7.1,-13.4 -23.5,-22.6 -37.9,-17.7 -12.2,4.1 -19.5,16.2 -25.8,27.4 -6.1,10.8 -12.1,21.6 -18.2,32.4" /><path
         id="path88"
         style="fill:#c14551;fill-opacity:1;fill-rule:nonzero;stroke:none"
         d="m 3868.27,2939.02 c 5.85,-14.41 12.93,-27.76 16.82,-41.67 1.82,-6.47 2.93,-13.28 2.93,-19.85 0,-7.47 -1.43,-14.61 -4.74,-20.85 -4.89,-9.39 -15.59,-16.49 -25.31,-16.38 -2.23,0 -4.42,0.34 -6.55,1.06 l -0.02,0.01 c -4.96,1.66 -9.1,5 -12.88,9.51 -3.76,4.48 -7.04,10.05 -10.16,15.6 v 0.01 c -6.09,10.78 -12.09,21.58 -18.21,32.4 -1.35,2.41 -4.41,3.25 -6.81,1.89 -2.4,-1.35 -3.25,-4.4 -1.89,-6.81 6.09,-10.78 12.08,-21.58 18.2,-32.4 v 0.01 c 3.18,-5.65 6.7,-11.74 11.21,-17.13 4.49,-5.37 10.1,-10.12 17.35,-12.56 l -0.02,0.01 c 3.22,-1.1 6.52,-1.6 9.78,-1.6 14.29,0.11 27.47,9.26 34.14,21.69 4.25,8 5.91,16.82 5.91,25.54 0,7.69 -1.28,15.35 -3.3,22.55 -4.32,15.29 -11.63,28.95 -17.18,42.72 -1.04,2.56 -3.96,3.8 -6.51,2.76 -2.57,-1.03 -3.8,-3.95 -2.76,-6.51" /><path
         id="path90"
         style="fill:#f78e74;fill-opacity:1;fill-rule:nonzero;stroke:none"
         d="m 3942.3,2757.3 c 16.6,30.1 45.9,58.3 45.4,93.6 -0.2,16.9 -9,34.6 -24.6,41.1 -12.7,5.4 -27.3,2.6 -40.6,-1.3 -15.1,-4.4 -29.8,-10.2 -43.9,-17.2 -9.1,-4.5 -18.5,-10.2 -22.4,-19.5 -3.8,-8.9 -1.4,-20 5.8,-26.5 7.1,-6.5 18.5,-7.9 26.7,-8.1 -17.6,-15.2 -29.5,-36.9 -32.9,-59.9" /><path
         id="path92"
         style="fill:#c14551;fill-opacity:1;fill-rule:nonzero;stroke:none"
         d="m 3946.68,2754.89 c 7.94,14.43 19.24,28.85 28.75,44.25 9.47,15.38 17.26,31.98 17.27,50.85 l -0.01,0.97 c -0.11,9.29 -2.55,18.71 -7.17,26.86 -4.61,8.13 -11.5,15.04 -20.5,18.8 l 0.03,-0.02 c -5.79,2.47 -11.84,3.4 -17.8,3.4 -9.04,-0.01 -17.95,-2.1 -26.16,-4.5 -15.38,-4.49 -30.36,-10.4 -44.71,-17.52 -9.28,-4.65 -19.93,-10.7 -24.79,-22.05 l 0.01,0.03 c -1.49,-3.49 -2.19,-7.21 -2.19,-10.89 0.02,-7.91 3.18,-15.78 9.24,-21.28 l -0.02,0.02 c 4.42,-4.03 9.83,-6.25 15.1,-7.57 5.28,-1.32 10.52,-1.73 14.85,-1.84 l 0.12,5 -3.27,3.78 c -18.52,-16.01 -30.99,-38.73 -34.58,-62.95 -0.4,-2.73 1.49,-5.27 4.22,-5.67 2.73,-0.41 5.27,1.48 5.68,4.21 3.2,21.78 14.55,42.46 31.22,56.85 l 9.8,8.46 -12.95,0.32 c -3.87,0.09 -8.43,0.48 -12.67,1.54 -4.25,1.05 -8.09,2.78 -10.77,5.25 l -0.04,0.03 0.01,-0.01 c -3.76,3.37 -5.95,8.64 -5.94,13.86 0,2.42 0.46,4.8 1.39,6.97 l 0.01,0.03 c 2.93,7.25 11.09,12.6 20.01,16.95 13.84,6.87 28.28,12.56 43.08,16.88 7.82,2.3 15.88,4.11 23.35,4.1 4.93,0 9.58,-0.77 13.89,-2.6 l 0.02,-0.01 h 0.01 c 6.61,-2.75 11.92,-7.94 15.66,-14.51 3.73,-6.55 5.78,-14.43 5.87,-22.04 v -0.85 c 0.02,-16 -6.67,-30.83 -15.79,-45.61 -9.08,-14.76 -20.47,-29.25 -28.98,-44.67 -1.34,-2.41 -0.46,-5.46 1.96,-6.79 2.42,-1.33 5.46,-0.45 6.79,1.97" /><path
         id="path94"
         style="fill:#f78e74;fill-opacity:1;fill-rule:nonzero;stroke:none"
         d="M 4908.6,3193.4 4996,3309 c 29,38.4 34.5,89.6 14.3,133.2 l -216.4,461.8 109.4,93.7 324.7,-526.8 c 38.5,-62.5 39,-141.2 1.39,-204.3 L 5044.6,2956.9" /><path
         id="path96"
         style="fill:#f78e74;fill-opacity:1;fill-rule:nonzero;stroke:none"
         d="m 4811.9,3912 c -39.7,-19.6 -85.9,-25.5 -129.1,-16.5 -43.2,9 -83,32.8 -111.1,66.5 -5,6 -9.9,12.7 -11.1,20.5 -1.2,7.8 2.3,16.8 9.8,19.6 5.7,2.1 12.1,0.1 17.8,-1.9 34.8,-12.1 69.6,-24.3 105.3,-27.4 -47.3,47.7 -94.6,95.5 -142,143.2 -9.8,9.9 -19.6,26.6 -9.1,35.8 8.8,7.7 22.3,0.9 31.7,-5.9 31.8,-23.2 63.7,-46.5 95.5,-69.7 -19.9,35 -39.9,70 -59.8,104.9 -5,8.8 -10.1,17.8 -11.2,27.9 -1.1,10 2.9,21.4 12,25.9 15.5,7.8 32.1,-7.6 42.3,-21.5 26.6,-36.2 42.4,-52.5 65.8,-90.8 -15,42.1 -20.7,63 -35.6,105.1 -3,8.5 -5.6,19.2 0.7,25.7 9.7,10 25.9,-1.5 34.1,-12.6 25.5,-34.4 46.8,-71.9 63.2,-111.4 -9.5,29.3 -19.1,58.5 -28.6,87.8 -4,12.3 -7.29,27.6 2.1,36.7 7.7,7.4 20.9,6.2 29.6,0.1 8.7,-6.1 14.1,-15.8 19.2,-25.1 42.1,-78 115.9,-169.3 96.9,-252.4 -36.8,-29.9 -59.9,-50.4 -88.4,-64.5" /><path
         id="path98"
         style="fill:#c14551;fill-opacity:1;fill-rule:nonzero;stroke:none"
         d="m 4712.42,3971.58 c 11.29,21.61 36.15,35.49 60.62,35.44 6.29,0 12.55,-0.9 18.56,-2.79 2.63,-0.83 5.44,0.63 6.27,3.27 0.82,2.63 -0.64,5.44 -3.27,6.27 -7.03,2.21 -14.31,3.25 -21.56,3.25 -28.12,-0.04 -56.1,-15.5 -69.47,-40.79 -1.28,-2.45 -0.34,-5.47 2.1,-6.75 2.45,-1.29 5.47,-0.35 6.75,2.1" /><path
         id="path100"
         style="fill:#2d63ae;fill-opacity:1;fill-rule:nonzero;stroke:none"
         d="m 4978.3,2342.8 c 38.8,-68.9 81.8,-115.9 57.7,-220.9 -362.3,134.7 -543.2,-130.6 -869.7,-22.1 61.4,67.7 120.5,144.2 126,296 -24.6,13.4 -123.6,65.3 -177.9,177.1 51.6,86.1 109,169.6 167.9,252.4 35.3,49.6 84.8,87.7 142.3,107.9 7.8,2.8 15.6,5.6 23.4,8.5 109,39.8 205.5,86.9 302.9,152.8 l 0.9,0.5 c 20.5,13.9 39.2,30 56.1,48 67.1,70.9 119,128.4 186.1,196.4 63.5,-113.7 100.7,-203.2 154.8,-328.4 -76.91,-101.4 -115.7,-167.3 -190.1,-289.7 15.2,-122.5 17.2,-245.9 19.6,-378.5" /><path
         id="path102"
         style="fill:#84bddd;fill-opacity:1;fill-rule:nonzero;stroke:none"
         d="m 4751.6,3094.9 c -2.6,-49.1 -7.8,-98 -26.2,-143.3 -23,-56.7 -71.2,-107.1 -131.9,-115.2 -38.1,-5.1 -78.2,7.6 -106.4,33.8 -20.2,18.9 -34,44.2 -39.3,71.3 109,39.8 205.5,86.9 302.9,152.8 l 0.9,0.6" /><path
         id="path104"
         style="fill:#204378;fill-opacity:1;fill-rule:nonzero;stroke:none"
         d="m 4298.7,2410.9 c -6.4,122.4 4,245.7 30.8,365.4 -43.7,-119.4 -51.4,-251.7 -30.8,-365.4" /><path
         id="path106"
         style="fill:#204378;fill-opacity:1;fill-rule:nonzero;stroke:none"
         d="m 4280.7,2469.1 c -26.7,69.5 -37.9,144.9 -32.7,219.2 -20.8,-80.2 -6.4,-168.9 32.7,-219.2" /><path
         id="path108"
         style="fill:#204378;fill-opacity:1;fill-rule:nonzero;stroke:none"
         d="m 4954.6,2740.8 c -18.9,120 -40.5,246.2 -117.2,340.4 87.6,-95.6 131.2,-230.1 117.2,-340.4" /><path
         id="path110"
         style="fill:#204378;fill-opacity:1;fill-rule:nonzero;stroke:none"
         d="m 4966.5,2817.2 c 12.7,102.3 6.3,206.8 -18.6,306.8 45.4,-99.8 50.7,-217.2 18.6,-306.8" /><path
         id="path112"
         style="fill:#e67462;fill-opacity:1;fill-rule:nonzero;stroke:none"
         d="m 4500.2,3100.3 c 10.4,-59.1 25.9,-118.4 -30.7,-153.7 l 0.5,-2.2 c 23.5,-96.9 142.5,-101.7 201.4,-21.3 32.9,45 43.39,86.4 54.3,155.5 -38.3,-2.7 -51.9,48.4 -45.6,77.2 -72.8,-25.3 -115.5,-40 -179.9,-55.5" /><path
         id="path114"
         style="fill:#e67462;fill-opacity:1;fill-rule:nonzero;stroke:none"
         d="m 4232.64,3217.88 c 8.84,34.39 49.71,53.6 91.28,42.91 41.55,-10.7 68.07,-47.25 59.22,-81.64 -8.85,-34.39 -49.71,-53.61 -91.27,-42.91 -41.57,10.69 -68.08,47.24 -59.23,81.64" /><path
         id="path116"
         style="fill:#e67462;fill-opacity:1;fill-rule:nonzero;stroke:none"
         d="m 4720.97,3392.22 c 29.26,31.38 74.05,37.18 100.02,12.96 25.96,-24.23 23.28,-69.3 -5.99,-100.68 -29.27,-31.38 -74.05,-37.18 -100.02,-12.95 -25.97,24.22 -23.28,69.29 5.99,100.67" /><path
         id="path118"
         style="fill:#f78e74;fill-opacity:1;fill-rule:nonzero;stroke:none"
         d="m 4305.6,3237.6 c -47.9,147.7 10.2,298.9 129.8,337.7 119.6,38.8 239.4,-7.7 303.3,-197.2 49.6,-147.2 -10.2,-298.9 -129.8,-337.7 -119.6,-38.8 -255.4,49.5 -303.3,197.2" /><path
         id="path120"
         style="fill:#e67462;fill-opacity:1;fill-rule:nonzero;stroke:none"
         d="m 4320,3212 c -2,49.7 -3.9,99.4 -3.8,149.5 28.7,24.3 46,61.5 46.8,99.9 56.9,-10.6 117.3,-1.7 168.7,24.9 7.3,3.8 14.6,8.1 19.9,14.4 5.3,6.3 8.2,15.1 4.9,21.7 31.2,0.3 62.4,-3.9 93,-13.2 13.9,-28.7 38.6,-52.1 68.2,-64.2 -21.5,37.9 -40.41,77.3 -56.4,117.9 -97.9,2.6 -195.9,5.1 -293.8,7.7 -35.3,-59 -70.5,-118.1 -105.8,-177.1 15,-52.5 27.8,-105.4 58.3,-181.5" /><path
         id="path122"
         style="fill:#ebebe9;fill-opacity:1;fill-rule:nonzero;stroke:none"
         d="m 4624.6,3247.8 c -45.4,4.4 -102.6,4.4 -143.1,4.1 -17,-30.3 -6.3,-80.1 20.2,-102.5 26.5,-22.4 72,-25.4 99,-3.6 27.1,21.8 35.8,60.9 23.9,102" /><path
         id="path124"
         style="fill:#27264f;fill-opacity:1;fill-rule:nonzero;stroke:none"
         d="m 4360.2,3367.2 c -15.2,25.8 -2,63.8 25.9,74.6 27.9,10.8 63.3,-8.3 69.5,-37.5 -15,13.7 -40.9,23.6 -59.7,15.9 -18.8,-7.8 -34.8,-27.3 -35.7,-53" /><path
         id="path126"
         style="fill:#27264f;fill-opacity:1;fill-rule:nonzero;stroke:none"
         d="m 4572.7,3427.7 c -5.6,31.6 22.9,64.5 54.9,63.7 32,-0.9 58.7,-35.3 51.4,-66.5 -7.4,21.5 -28.2,37.6 -50.9,39.5 -22.6,1.8 -45.8,-10.7 -55.4,-36.7" /><path
         id="path128"
         style="fill:#191b2f;fill-opacity:1;fill-rule:nonzero;stroke:none"
         d="m 4418,3322.9 c 7.34,0 13.3,-5.96 13.3,-13.3 0,-7.34 -5.96,-13.3 -13.3,-13.3 -7.35,0 -13.3,5.96 -13.3,13.3 0,7.34 5.95,13.3 13.3,13.3" /><path
         id="path130"
         style="fill:#191b2f;fill-opacity:1;fill-rule:nonzero;stroke:none"
         d="m 4612.8,3360.4 c 7.35,0 13.3,-5.96 13.3,-13.3 0,-7.34 -5.95,-13.3 -13.3,-13.3 -7.34,0 -13.3,5.96 -13.3,13.3 0,7.34 5.96,13.3 13.3,13.3" /><path
         id="path132"
         style="fill:#c14551;fill-opacity:1;fill-rule:nonzero;stroke:none"
         d="m 4541.28,3338.33 c 3.5,-19.72 7.1,-39.52 10.59,-59.2 0.49,-2.72 3.08,-4.54 5.8,-4.05 2.72,0.48 4.53,3.07 4.05,5.79 -3.5,19.72 -7.1,39.52 -10.6,59.2 -0.48,2.72 -3.07,4.53 -5.79,4.05 -2.72,-0.48 -4.53,-3.08 -4.05,-5.79" /><path
         id="path134"
         style="fill:#27264f;fill-opacity:1;fill-rule:nonzero;stroke:none"
         d="m 4756,3299.7 c -13.6,72.1 -44.5,131.5 -44.5,131.5 0,0 -36.4,43.1 -66.5,97.2 -33.3,13.8 -82.6,15.7 -114.1,15.7 26.7,-64.1 -119.3,-58.8 -184.2,-58.8 -3.2,-45.7 -16.2,-84.1 -40.1,-113.8 -0.4,-67.2 7.8,-127.7 22.7,-186.5 -22.01,1.9 -219.6,317.5 -46.4,356.8 -0.8,16.8 3.2,32.9 11,47.9 71.9,138.7 469,188 425.7,-23.5 12.9,-15.1 20.9,-33.3 24.6,-52.4 4.4,-22.1 3,-45.5 -3.3,-67.4 9.2,-48 19,-97.4 15.1,-146.7" /><path
         id="path136"
         style="fill:#413874;fill-opacity:1;fill-rule:nonzero;stroke:none"
         d="m 4744.3,3513.9 c -16.9,23.9 -45.5,40 -74.9,38.3 3.4,61.4 -43.5,117.5 -100.8,124.2 -98.2,11.5 -200.5,-21.4 -274.7,-86.7 71.9,138.7 469,188 425.7,-23.5 12.9,-15 21,-33.2 24.7,-52.3" /><path
         id="path138"
         style="fill:#98a1a5;fill-opacity:1;fill-rule:nonzero;stroke:none"
         d="m 4566.7,469.102 c 380.14,0 688.3,-22.52 688.3,-50.301 0,-27.781 -308.16,-50.301 -688.3,-50.301 -380.14,0 -688.3,22.52 -688.3,50.301 0,27.781 308.16,50.301 688.3,50.301" /><path
         id="path140"
         style="fill:#e67462;fill-opacity:1;fill-rule:nonzero;stroke:none"
         d="m 5852.03,4014.29 c 23.62,26.52 68.74,24.88 100.78,-3.66 32.05,-28.55 38.88,-73.18 15.26,-99.69 -23.62,-26.52 -68.74,-24.88 -100.78,3.66 -32.05,28.54 -38.87,73.17 -15.26,99.69" /><path
         id="path142"
         style="fill:#e67462;fill-opacity:1;fill-rule:nonzero;stroke:none"
         d="m 6365.88,3953.74 c 38.61,18.71 82.47,7.96 97.96,-24 15.48,-31.96 -3.28,-73.04 -41.91,-91.74 -38.62,-18.71 -82.48,-7.96 -97.96,24 -15.47,31.96 3.29,73.03 41.91,91.74" /><path
         id="path144"
         style="fill:#f78e74;fill-opacity:1;fill-rule:nonzero;stroke:none"
         d="m 5922.5,3975.4 c 8.6,155.1 117.3,275.1 242.8,268.2 125.5,-6.9 220.5,-93.5 211.7,-293.4 -6.8,-155.1 -117.3,-275.1 -242.8,-268.2 -125.5,7 -220.3,138.4 -211.7,293.4" /><path
         id="path146"
         style="fill:#e67462;fill-opacity:1;fill-rule:nonzero;stroke:none"
         d="m 5922.3,3977.3 c 17.6,32.8 35.2,65.6 52.5,98.8 45.9,17.1 85.3,51 109,93.6 41.8,-36.7 100.9,-52.9 155.5,-42.5 -4.6,7.2 -9.3,14.4 -13.2,19.2 30.5,-10.6 60.9,-21.1 99.3,-33.1 23.8,-38.6 41.9,-80.6 53.5,-124.4 -4.1,26.9 1.2,54.2 1.7,81.3 0.5,27.2 -5,56.8 -25.5,74.6 -11,9.5 -25.1,14.6 -38.8,19.4 -74.01,26.1 -147.9,52.2 -221.91,78.3 -9.29,3.3 -19.19,6.6 -28.69,4.4 -11,-2.6 -19,-11.8 -26.5,-20.2 -35.9,-40.1 -79.5,-73.2 -127.8,-96.9 5,-43.3 10,-86.7 10.9,-152.5" /><path
         id="path148"
         style="fill:#191b2f;fill-opacity:1;fill-rule:nonzero;stroke:none"
         d="m 6061.3,4001.3 c 7.34,0 13.3,-5.95 13.3,-13.3 0,-7.35 -5.96,-13.3 -13.3,-13.3 -7.34,0 -13.3,5.95 -13.3,13.3 0,7.35 5.96,13.3 13.3,13.3" /><path
         id="path150"
         style="fill:#191b2f;fill-opacity:1;fill-rule:nonzero;stroke:none"
         d="m 6256.5,3966 c 7.35,0 13.3,-5.96 13.3,-13.3 0,-7.34 -5.95,-13.3 -13.3,-13.3 -7.35,0 -13.3,5.96 -13.3,13.3 0,7.34 5.95,13.3 13.3,13.3" /><path
         id="path152"
         style="fill:#c14551;fill-opacity:1;fill-rule:nonzero;stroke:none"
         d="m 6181.37,3968.04 c 2.14,-12.16 3.98,-23.1 3.97,-31.74 0.01,-6.01 -0.89,-10.79 -2.73,-14.18 -1.87,-3.38 -4.46,-5.76 -9.41,-7.48 -2.61,-0.89 -4.02,-3.73 -3.13,-6.34 0.88,-2.62 3.72,-4.02 6.34,-3.13 6.91,2.28 12.08,6.64 15.01,12.22 2.97,5.57 3.91,11.99 3.92,18.91 -0.02,9.98 -1.99,21.26 -4.12,33.46 -0.47,2.72 -3.06,4.54 -5.78,4.07 -2.72,-0.48 -4.54,-3.07 -4.07,-5.79" /><path
         id="path154"
         style="fill:#ebebe9;fill-opacity:1;fill-rule:nonzero;stroke:none"
         d="m 6115.94,3830.66 c 6.08,30.44 30.42,51.23 54.35,46.45 23.94,-4.78 38.41,-33.33 32.34,-63.77 -6.09,-30.43 -30.42,-51.23 -54.36,-46.45 -23.93,4.78 -38.42,33.34 -32.33,63.77" /><path
         id="path156"
         style="fill:#742c3d;fill-opacity:1;fill-rule:nonzero;stroke:none"
         d="m 6019.6,4062.5 c -4.9,29.5 21.1,60.2 51.1,60.2 30,0 56,-30.5 51.3,-60.1 -9.1,18.2 -29.6,36.8 -49.9,36.3 -20.5,-0.3 -42.4,-12.7 -52.5,-36.4" /><path
         id="path158"
         style="fill:#742c3d;fill-opacity:1;fill-rule:nonzero;stroke:none"
         d="m 6239.6,4042.3 c 6.2,31.5 44.6,51.9 74.2,39.6 29.6,-12.4 42,-54.1 23.9,-80.6 0.8,22.7 -12.8,45.3 -33.2,55.2 -20.4,9.8 -46.5,6.5 -64.9,-14.2" /><path
         id="path160"
         style="fill:#742c3d;fill-opacity:1;fill-rule:nonzero;stroke:none"
         d="m 6484.2,4199.8 c -13.5,-33.5 -41.6,-60.8 -75.4,-73.5 -8,-93.7 -11.7,-144.3 -39.4,-235 7.1,44.2 6.4,86.8 -0.6,128.3 -6.1,43.7 -19.8,79.4 -37.9,112.4 -49.2,13.3 -102,32 -150.2,59.1 9.3,-18.4 20.2,-31.6 33.5,-41.7 -49.5,0.2 -98.4,23.1 -130.3,61.1 -33.4,-50.1 -77.1,-89.6 -118.6,-120.6 -26.4,-51.5 -33.9,-101.8 -45.7,-153.6 -18.4,89.3 -43.3,150.4 -60.21,230.2 9.51,29.2 36.81,69.8 60.4,84.7 -18.49,1.6 -37.39,0.3 -55.59,-3.5 14.6,16.6 31.6,31.2 50.19,43.1 42.21,27.3 92.9,41.7 143.21,39.5 29.8,43 89.29,53.9 137.9,41.2 48.6,-12.7 90.1,-43.5 133.4,-69 43.2,-25.6 93.1,-46.9 142.4,-37.7 -20.7,-19.2 -48.6,-30.1 -76.8,-30.3 22.7,-21.7 53.9,-34.3 85.2,-34.7 h 4.5" /><path
         id="path162"
         style="fill:#a24649;fill-opacity:1;fill-rule:nonzero;stroke:none"
         d="m 6479.6,4199.8 c -54.4,-15.3 -117.9,1 -155.3,43.9 19.9,-1.1 40.1,1.9 58.8,8.8 -55.5,12.4 -105.3,42.7 -159.5,60.1 -54.1,17.2 -119.7,18.9 -161.3,-19.9 -50.1,12.9 -101.1,11.7 -147.8,-1.9 42.2,27.3 92.9,41.7 143.2,39.5 29.8,43 89.3,53.9 137.9,41.2 48.6,-12.7 90.1,-43.5 133.4,-69 43.2,-25.6 93.1,-46.9 142.4,-37.7 -20.7,-19.2 -48.6,-30.1 -76.8,-30.3 22.5,-21.7 53.7,-34.2 85,-34.7" /><path
         id="path164"
         style="fill:#e67462;fill-opacity:1;fill-rule:nonzero;stroke:none"
         d="m 5518.9,4206.1 c -8.6,32.8 -20,68.3 -32.3,103.6 64.5,37.2 127.6,48.7 176,-21.8 34.2,-49.9 36,-107.4 7,-183.6 -54,28.5 -102.4,67.6 -150.7,101.8" /><path
         id="path166"
         style="fill:#f78e74;fill-opacity:1;fill-rule:nonzero;stroke:none"
         d="m 5805.6,3965.8 -191.2,310.1 c -29.6,48 -93.4,61.6 -140,29.9 -41.9,-28.6 -55.5,-84.2 -31.4,-128.8 l 188.4,-349.6 174.2,138.4" /><path
         id="path168"
         style="fill:#f78e74;fill-opacity:1;fill-rule:nonzero;stroke:none"
         d="m 6754.8,4276 c 19.9,52 12.6,86.8 -12.9,160.5 -6.7,17.7 -19.2,34.4 -37.1,40.7 -17.8,6.4 -41,-0.7 -48.2,-19.3 -11.7,11.6 -29.1,17.1 -45.3,14.5 -16.2,-2.7 -30.9,-13.5 -40,-28.6 -12.5,8.4 -29.8,9 -42.9,1.5 -13.1,-7.5 -21.3,-22.7 -24.5,-41.5 -19.4,0.6 -37.4,-13.8 -43.7,-32.2 -6.2,-18.3 -1.6,-39.3 9.5,-55.2 11.1,-15.9 28,-27.1 46.1,-34 8.9,-3.4 18.4,-6 27.9,-5.1 9.5,0.8 19.1,5.5 23.59,10.9 17.1,-31.3 51.71,-52.2 87.31,-54.3 39.9,6.8 60.2,32.9 100.2,42.1" /><path
         id="path170"
         style="fill:#f78e74;fill-opacity:1;fill-rule:nonzero;stroke:none"
         d="m 6735.1,4420 c -0.9,-15.8 -5.7,-31.8 -15.9,-43.9 -10.2,-12.1 -26.5,-19.6 -42.1,-17 -15.6,2.6 -29.3,16.6 -29.2,32.5" /><path
         id="path172"
         style="fill:#c14551;fill-opacity:1;fill-rule:nonzero;stroke:none"
         d="m 6730.11,4420.29 c -0.85,-15.02 -5.43,-29.97 -14.73,-40.97 v 0 c -7.94,-9.45 -20.18,-15.78 -32.01,-15.73 -1.82,0 -3.65,0.14 -5.45,0.45 -6.57,1.08 -12.96,4.66 -17.58,9.66 -4.64,5.01 -7.45,11.28 -7.44,17.73 v 0.01 c 0.09,2.76 -2.08,5.07 -4.84,5.16 -2.76,0.09 -5.07,-2.08 -5.16,-4.83 v -0.34 c 0.01,-9.38 4.03,-17.97 10.1,-24.53 6.1,-6.56 14.31,-11.22 23.28,-12.73 2.36,-0.4 4.73,-0.58 7.09,-0.58 15.32,0.04 29.92,7.78 39.65,19.29 v 0 c 11.11,13.2 16.12,30.25 17.07,46.83 0.16,2.76 -1.95,5.13 -4.71,5.28 -2.76,0.16 -5.12,-1.95 -5.27,-4.7" /><path
         id="path174"
         style="fill:#f78e74;fill-opacity:1;fill-rule:nonzero;stroke:none"
         d="m 6578.1,4393.3 c 6.9,-15.7 20.9,-28.2 37.3,-33.2 9.3,-2.8 19.7,-3.3 28.4,0.9 12.6,6 19.3,20.5 20,34.4 0.7,13.9 -3.6,27.5 -7.8,40.7" /><path
         id="path176"
         style="fill:#c14551;fill-opacity:1;fill-rule:nonzero;stroke:none"
         d="m 6573.52,4391.29 c 7.53,-17.08 22.57,-30.5 40.42,-35.97 l 0.02,-0.01 c 4.91,-1.48 10.15,-2.38 15.44,-2.39 5.6,0 11.29,1.03 16.57,3.58 l -0.02,-0.01 c 7.42,3.53 12.96,9.51 16.7,16.35 3.74,6.87 5.75,14.65 6.14,22.31 v 0 c 0.06,1.1 0.08,2.19 0.08,3.28 -0.02,13.9 -4.23,26.95 -8.11,39.18 -0.84,2.64 -3.65,4.09 -6.28,3.25 -2.63,-0.83 -4.09,-3.65 -3.25,-6.28 3.91,-12.23 7.66,-24.35 7.64,-36.15 0,-0.92 -0.02,-1.85 -0.07,-2.78 v 0 c -0.31,-6.24 -1.99,-12.65 -4.93,-18.02 -2.94,-5.37 -7.04,-9.65 -12.22,-12.11 l -0.06,-0.03 0.04,0.01 c -3.68,-1.77 -7.84,-2.57 -12.23,-2.58 -4.14,0 -8.45,0.73 -12.56,1.97 l 0.02,-0.01 c -14.94,4.53 -27.91,16.1 -34.19,30.43 -1.11,2.53 -4.06,3.68 -6.59,2.57 -2.52,-1.11 -3.67,-4.06 -2.56,-6.59" /><path
         id="path178"
         style="fill:#f78e74;fill-opacity:1;fill-rule:nonzero;stroke:none"
         d="m 6518.6,4386 c 8.6,-11.3 16,-23.6 25.8,-33.9 9.8,-10.3 22.5,-18.7 36.7,-19.5 14.2,-0.8 29.4,8.1 32.4,22 2.5,11.7 -3.7,23.4 -9.6,33.8 -5.8,10 -11.6,20.1 -17.3,30.1" /><path
         id="path180"
         style="fill:#c14551;fill-opacity:1;fill-rule:nonzero;stroke:none"
         d="m 6514.62,4382.97 c 8.39,-10.99 15.87,-23.47 26.16,-34.32 10.32,-10.82 23.98,-20.09 40.04,-21.04 l 2.05,-0.06 c 7.9,0.01 15.74,2.48 22.2,6.91 6.43,4.42 11.56,10.97 13.31,19.09 l 0.06,0.27 -0.05,-0.27 c 0.46,2.2 0.67,4.38 0.67,6.54 -0.07,11.63 -5.84,21.91 -10.82,30.78 l -0.01,0.03 -0.01,0.01 c -5.79,9.98 -11.58,20.07 -17.28,30.07 -1.36,2.4 -4.42,3.23 -6.82,1.86 -2.39,-1.36 -3.23,-4.42 -1.86,-6.82 5.7,-10 11.5,-20.11 17.31,-30.13 l -0.02,0.04 c 4.99,-8.68 9.59,-17.8 9.51,-25.84 0,-1.5 -0.14,-2.98 -0.45,-4.45 v 0.01 c -1.12,-5.2 -4.47,-9.68 -9.21,-12.95 -4.72,-3.27 -10.76,-5.16 -16.53,-5.15 l -1.49,0.04 c -12.33,0.65 -24.09,8.19 -33.35,17.96 -9.32,9.75 -16.65,21.88 -25.45,33.48 -1.67,2.2 -4.81,2.62 -7,0.95 -2.2,-1.67 -2.63,-4.81 -0.96,-7.01" /><path
         id="path182"
         style="fill:#f78e74;fill-opacity:1;fill-rule:nonzero;stroke:none"
         d="m 6632.8,4242.2 c -32.1,1.1 -68.8,-8.9 -96.9,8.4 -13.5,8.3 -23.4,23.8 -21.2,39.4 1.8,12.8 11,23.2 20.5,32 10.8,10 22.5,19.1 34.9,27 8,5.1 17,9.9 26.4,8.7 8.9,-1.2 16.8,-8.5 18.6,-17.3 1.8,-8.8 -2.5,-18.6 -6.3,-25.3 20.7,6.8 43.8,6 63.9,-2.3" /><path
         id="path184"
         style="fill:#c14551;fill-opacity:1;fill-rule:nonzero;stroke:none"
         d="m 6632.97,4247.2 c -1.82,0.06 -3.64,0.09 -5.47,0.09 -15.69,-0.01 -31.8,-1.99 -46.99,-1.98 -15.48,0 -29.78,2.02 -41.99,9.55 -11.02,6.72 -19.22,18.96 -19.13,30.75 0,1.23 0.08,2.46 0.26,3.69 v 0 c 1.44,10.75 9.64,20.46 18.94,29.04 v -0.01 c 10.59,9.81 22.06,18.72 34.19,26.45 l 0.01,0.01 c 6.95,4.48 14.21,8.16 20.75,8.1 l 2.33,-0.15 -0.04,0.01 c 6.66,-0.8 13.14,-6.81 14.37,-13.35 v -0.01 c 0.22,-1.05 0.32,-2.17 0.32,-3.33 0.06,-5.99 -3.05,-13.24 -6.07,-18.5 l -6.37,-11.25 12.28,4.04 c 8.77,2.88 18.02,4.32 27.26,4.32 11.37,0 22.72,-2.18 33.17,-6.49 2.55,-1.06 5.47,0.16 6.53,2.71 1.05,2.55 -0.16,5.48 -2.72,6.53 -11.71,4.83 -24.34,7.25 -36.98,7.25 -10.28,0 -20.57,-1.6 -30.38,-4.82 l 1.56,-4.75 4.35,-2.47 c 3.34,5.98 7.32,14.32 7.37,23.43 0,1.76 -0.16,3.56 -0.52,5.35 v -0.01 c -2.37,11.06 -11.69,19.65 -22.83,21.26 h -0.01 -0.02 c -1.21,0.15 -2.41,0.23 -3.6,0.23 -10.11,-0.07 -18.77,-5.03 -26.13,-9.68 v 0 c -12.67,-8.06 -24.6,-17.34 -35.61,-27.54 v 0 c -9.68,-9.03 -19.88,-20.13 -22.05,-34.97 v 0 c -0.25,-1.7 -0.36,-3.4 -0.36,-5.09 0.09,-16.32 10.44,-30.95 23.89,-39.27 14.58,-8.96 30.97,-11.02 47.23,-11.03 16.02,0.01 32.15,1.99 46.99,1.98 1.73,0 3.44,-0.03 5.13,-0.08 2.76,-0.1 5.07,2.06 5.17,4.82 0.09,2.76 -2.07,5.08 -4.83,5.17" /><path
         id="path186"
         style="fill:#f78e74;fill-opacity:1;fill-rule:nonzero;stroke:none"
         d="m 6813.7,3670.7 -98.3,-60.4 -187.5,-115 -70.5,211 140.3,57.4 23.4,9.5 c 36,14.7 58.8,50.6 56.8,89.4 l -24.2,378.8 106.3,65.7 104.9,-520.9 c 8.5,-45.5 -11.9,-91.4 -51.2,-115.5" /><path
         id="path188"
         style="fill:#e67462;fill-opacity:1;fill-rule:nonzero;stroke:none"
         d="m 6715.3,3610.2 -187.5,-115 -70.5,211 140.3,57.4 c 15.6,-39.1 33.01,-78 60.51,-109.6 15.79,-18 35.49,-33.6 57.19,-43.8" /><path
         id="path190"
         style="fill:#5c5e74;fill-opacity:1;fill-rule:nonzero;stroke:none"
         d="m 6477.3,3121.4 185.2,-20.2 68.3,-47.2 c 0,0 -33.8,-200.6 -244,-286.4 l -261.2,131.8 251.7,222" /><path
         id="path192"
         style="fill:#27264f;fill-opacity:1;fill-rule:nonzero;stroke:none"
         d="m 6293.7,1096.2 c -30.9,152.3 -61.2,307.5 -91.4,462.6 12.8,0.5 25.7,0.4 38.3,-0.3 50.4,-3.1 99.6,-16 144.9,-37 31.4,-81.2 46.1,-160.8 33.8,-237.5 -9.9,-61.7 -39.4,-121.6 -87.3,-162 -11.6,-9.9 -24.4,-18.5 -38.3,-25.8" /><path
         id="path194"
         style="fill:#ffffff;fill-opacity:1;fill-rule:nonzero;stroke:none"
         d="m 6355.08,1265.28 c 11.98,-11.76 28.33,-17.98 44.8,-18.01 5.65,0 11.32,0.75 16.85,2.31 5.31,1.5 8.4,7.03 6.9,12.34 -1.51,5.32 -7.03,8.4 -12.35,6.9 -3.67,-1.04 -7.52,-1.55 -11.4,-1.55 -11.37,-0.03 -22.93,4.49 -30.76,12.26 -3.94,3.87 -10.27,3.82 -14.14,-0.11 -3.88,-3.93 -3.83,-10.26 0.1,-14.14" /><path
         id="path196"
         style="fill:#ffffff;fill-opacity:1;fill-rule:nonzero;stroke:none"
         d="m 6354.26,1306.9 c 14.67,-15.36 35.38,-23.92 56.39,-23.95 5.27,0 10.57,0.54 15.78,1.69 5.4,1.17 8.82,6.5 7.64,11.9 -1.18,5.4 -6.51,8.81 -11.91,7.63 -3.77,-0.82 -7.63,-1.22 -11.51,-1.22 -15.5,-0.04 -31.31,6.56 -41.9,17.74 -3.81,4 -10.14,4.16 -14.14,0.35 -4,-3.81 -4.16,-10.14 -0.35,-14.14" /><path
         id="path198"
         style="fill:#ffffff;fill-opacity:1;fill-rule:nonzero;stroke:none"
         d="m 6354.66,1351.67 c 16.67,-20.33 42.3,-32.41 68.53,-32.47 h 0.28 c 5.52,-0.02 10.01,4.45 10.03,9.97 0.01,5.52 -4.45,10.01 -9.97,10.03 h -0.34 c -19.96,-0.06 -40.46,9.62 -53.04,25.12 -3.5,4.28 -9.8,4.92 -14.07,1.42 -4.28,-3.49 -4.92,-9.79 -1.42,-14.07" /><path
         id="path200"
         style="fill:#a9c5d5;fill-opacity:1;fill-rule:nonzero;stroke:none"
         d="m 6293.7,1096.2 c -30.9,152.3 -61.2,307.5 -91.4,462.6 12.8,0.5 25.7,0.4 38.3,-0.3 L 6332,1122 c -11.6,-9.9 -24.4,-18.5 -38.3,-25.8" /><path
         id="path202"
         style="fill:#27264f;fill-opacity:1;fill-rule:nonzero;stroke:none"
         d="m 5689.9,2234.1 c 72.7,137.4 147.79,276.5 222.9,415.5 10.2,-7.7 20.1,-16 29.4,-24.6 37,-34.4 66.8,-75.6 88.5,-120.5 -27.3,-82.7 -66.4,-153.5 -124.5,-205 -46.8,-41.4 -107.6,-69 -170.3,-69.8 -15.3,-0.2 -30.6,1.3 -46,4.4" /><path
         id="path204"
         style="fill:#ffffff;fill-opacity:1;fill-rule:nonzero;stroke:none"
         d="m 5828.55,2312.43 c 2.51,-22.38 17.14,-42.1 37.63,-51.19 5.06,-2.22 10.95,0.09 13.17,5.14 2.22,5.06 -0.08,10.96 -5.14,13.18 -13.71,5.91 -24.27,20.2 -25.77,35.01 -0.59,5.49 -5.52,9.46 -11.01,8.87 -5.5,-0.59 -9.47,-5.52 -8.88,-11.01" /><path
         id="path206"
         style="fill:#ffffff;fill-opacity:1;fill-rule:nonzero;stroke:none"
         d="m 5854.32,2345.2 c 1.95,-26.59 18.09,-50.83 41.58,-63.08 4.91,-2.54 10.94,-0.63 13.48,4.28 2.54,4.9 0.62,10.94 -4.29,13.48 -17.11,8.76 -29.56,27.51 -30.82,46.72 -0.38,5.51 -5.16,9.66 -10.67,9.27 -5.51,-0.38 -9.66,-5.16 -9.28,-10.67" /><path
         id="path208"
         style="fill:#ffffff;fill-opacity:1;fill-rule:nonzero;stroke:none"
         d="m 5883,2379.56 v -0.37 c 0.05,-26.34 12.27,-51.92 32.72,-68.48 4.3,-3.46 10.6,-2.79 14.07,1.51 3.46,4.3 2.79,10.59 -1.51,14.06 -15.6,12.51 -25.34,32.87 -25.28,52.91 v 0.25 c 0.03,5.53 -4.42,10.03 -9.94,10.06 -5.53,0.03 -10.03,-4.42 -10.06,-9.94 v 0" /><path
         id="path210"
         style="fill:#a9c5d5;fill-opacity:1;fill-rule:nonzero;stroke:none"
         d="m 5689.9,2234.1 c 72.7,137.4 147.8,276.5 222.9,415.5 10.2,-7.7 20.1,-16 29.4,-24.6 l -206.3,-395.4 c -15.3,-0.1 -30.6,1.4 -46,4.5" /><path
         id="path212"
         style="fill:#e67462;fill-opacity:1;fill-rule:nonzero;stroke:none"
         d="m 6507.2,2823 19.69,118 c -50.89,68.3 -76.19,186.6 -92.99,268.7 l -231.6,-168.7 127.9,-201.6 177,-16.4" /><path
         id="path214"
         style="fill:#80b4da;fill-opacity:1;fill-rule:nonzero;stroke:none"
         d="m 6841.7,1807.9 -408.6,-463 c 2.2,-10 -126.2,40.3 -103.5,212.3 l 284.7,384.5 c 29.2,39.3 33.3,38.3 10.6,81.7 l -229.5,439.8 82.7,-424.8 c 1.8,-8.59 2.7,-17.2 2.7,-25.8 0,-16.3 -3.1,-32.2 -9.1,-47.1 -8.6,-21.5 -23,-40.8 -42.3,-55.2 -51.1,-37.9 -122.3,-32.4 -166.9,13 l -333.7,411.8 89.31,189.3 48.69,-32.5 0.1,-0.1 0.41,-0.2 -92.31,258.1 -33.7,94.4 c 170,122 500.4,189.2 608.7,80.9 l 46.6,-102.9 304.2,-671.8 c 60,-132.2 36.8,-233.6 -59.1,-342.4" /><path
         id="path216"
         style="fill:#95b2d6;fill-opacity:1;fill-rule:nonzero;stroke:none"
         d="m 6596.7,2821.9 v 0 l -0.1,0.2 -3.72,8.22 c 0.01,0.01 0,0 0.01,0.01 l 3.81,-8.43" /><path
         id="path218"
         style="fill:#6784ad;fill-opacity:1;fill-rule:nonzero;stroke:none"
         d="M 6592.88,2830.32 6550,2925 c -7.71,7.71 -16.55,14.53 -26.38,20.51 -0.01,0.01 -0.01,0.02 -0.02,0.04 9.92,-6.01 18.82,-12.88 26.6,-20.65 l 42.69,-94.57 c -0.01,-0.01 0,0 -0.01,-0.01" /><path
         id="path220"
         style="fill:#9087a4;fill-opacity:1;fill-rule:nonzero;stroke:none"
         d="m 6523.62,2945.51 c -3.93,2.39 -8.02,4.65 -12.27,6.77 4.23,-2.11 8.32,-4.36 12.25,-6.73 0.01,-0.02 0.01,-0.03 0.02,-0.04" /><path
         id="path222"
         style="fill:#74a0d1;fill-opacity:1;fill-rule:nonzero;stroke:none"
         d="m 5975.19,2749.6 -33.69,94.4 c 110.35,79.19 288.29,135.29 429.19,135.29 54.42,0 103.32,-8.36 140.66,-27.01 4.25,-2.12 8.34,-4.38 12.27,-6.77 9.83,-5.98 18.67,-12.8 26.38,-20.51 l 42.88,-94.68 3.72,-8.22 0.09,-0.2 c -62.99,29.26 -132.49,44.51 -201.89,44.51 -40.88,0 -81.72,-5.29 -121.2,-16.11 -63.5,-17.4 -122.7,-48 -184.2,-71.2 -36.7,-13.8 -75.3,-25.3 -114.21,-29.5" /><path
         id="path224"
         style="fill:#95b2d6;fill-opacity:1;fill-rule:nonzero;stroke:none"
         d="m 6353.52,1885.18 c -0.01,0 -0.03,0 -0.04,0 26.54,0.01 53.22,8.28 75.92,25.12 19.3,14.4 33.7,33.7 42.3,55.19 l 0.1,0.01 c -8.6,-21.5 -23,-40.8 -42.3,-55.2 -22.72,-16.85 -49.42,-25.12 -75.98,-25.12" /><path
         id="path226"
         style="fill:#556da3;fill-opacity:1;fill-rule:nonzero;stroke:none"
         d="m 5928.98,2335.49 -0.08,0.11 43.6,92.13 -43.52,-92.24" /><path
         id="path228"
         style="fill:#74a0d1;fill-opacity:1;fill-rule:nonzero;stroke:none"
         d="m 6353.48,1885.18 c -33.17,0.01 -66.12,12.92 -90.88,38.12 l -333.62,412.19 43.52,92.24 45.7,96.57 48.7,-32.5 0.5,-0.5 173.5,-441.1 c 21.62,-54.85 74.53,-90.56 132.98,-90.57 2.93,0 5.86,0.09 8.82,0.27 l 89,5.59 c -8.6,-21.49 -23,-40.79 -42.3,-55.19 -22.7,-16.84 -49.38,-25.11 -75.92,-25.12" /><path
         id="path230"
         style="fill:#526e9f;fill-opacity:1;fill-rule:nonzero;stroke:none"
         d="m 6198.04,2910.64 c 49.95,16.14 102.43,24.18 154.92,24.18 63.07,0 126.14,-11.6 184.81,-34.67 2.57,-1.01 5.47,0.25 6.48,2.82 1.01,2.57 -0.25,5.47 -2.82,6.48 -59.88,23.55 -124.17,35.37 -188.47,35.37 -53.51,0 -107.02,-8.19 -157.99,-24.66 -2.63,-0.85 -4.07,-3.67 -3.22,-6.3 0.84,-2.62 3.66,-4.07 6.29,-3.22" /><path
         id="path232"
         style="fill:#526e9f;fill-opacity:1;fill-rule:nonzero;stroke:none"
         d="m 6314.68,2936.48 c 51.3,-123.15 77.89,-256.56 77.89,-389.97 0,-11.25 -0.19,-22.5 -0.57,-33.74 -0.09,-2.76 2.07,-5.08 4.83,-5.17 2.76,-0.09 5.08,2.07 5.17,4.83 0.38,11.36 0.57,22.72 0.57,34.08 0,134.74 -26.85,269.43 -78.66,393.81 -1.06,2.55 -3.99,3.76 -6.54,2.69 -2.55,-1.06 -3.75,-3.99 -2.69,-6.53" /><path
         id="path234"
         style="fill:#526e9f;fill-opacity:1;fill-rule:nonzero;stroke:none"
         d="m 6380.68,2936.95 c 21.59,-61.79 36.99,-125.61 43.54,-190.45 l 4.98,0.5 -3.39,3.68 c -14.11,-13.01 -28.21,-26.11 -42.39,-39.09 -2.04,-1.87 -2.18,-5.03 -0.31,-7.07 1.86,-2.03 5.03,-2.17 7.06,-0.31 14.22,13.02 28.33,26.12 42.42,39.12 l 1.84,1.69 -0.26,2.49 c -6.64,65.75 -22.24,130.33 -44.05,192.74 -0.91,2.6 -3.76,3.98 -6.37,3.07 -2.61,-0.91 -3.98,-3.76 -3.07,-6.37" /><path
         id="path236"
         style="fill:#526e9f;fill-opacity:1;fill-rule:nonzero;stroke:none"
         d="m 6052.65,2858.33 c 11.59,-25.4 19.92,-52.84 19.91,-79.9 0,-6.51 -0.48,-13 -1.5,-19.45 -2.61,-16.51 -9.55,-32.8 -19.79,-45.93 -10.25,-13.15 -23.7,-23.11 -39.39,-27.43 -2.67,-0.73 -4.23,-3.48 -3.5,-6.15 0.73,-2.66 3.49,-4.22 6.15,-3.49 18.11,4.98 33.3,16.37 44.63,30.92 11.33,14.57 18.89,32.33 21.77,50.52 1.11,6.99 1.63,14.01 1.63,21.01 -0.01,29.12 -8.87,57.84 -20.81,84.05 -1.15,2.51 -4.12,3.62 -6.63,2.47 -2.51,-1.15 -3.62,-4.11 -2.47,-6.62" /><path
         id="path238"
         style="fill:#526e9f;fill-opacity:1;fill-rule:nonzero;stroke:none"
         d="m 6508.87,2916.06 c 8.34,-48.35 39.89,-99.81 84.15,-122.61 2.46,-1.26 5.48,-0.29 6.73,2.17 1.26,2.46 0.29,5.47 -2.17,6.73 -40.54,20.6 -71.2,69.94 -78.85,115.39 -0.47,2.72 -3.05,4.55 -5.77,4.09 -2.72,-0.47 -4.55,-3.05 -4.09,-5.77" /><path
         id="path240"
         style="fill:#cbcbd3;fill-opacity:1;fill-rule:nonzero;stroke:none"
         d="m 6730.9,3055.7 c -114.5,28.2 -207.4,0.7 -287.5,-41.5 -80.2,-42.3 -151.9,-99 -230.4,-144.3 -78.6,-45.2 -178.7,-111.8 -268.9,-102.3 -97.8,210.7 -141.7,462.8 -153.49,690.9 v 0.1 c -0.61,12.5 -1.31,25 -1.71,37.4 -80.79,121.7 -157.6,224.7 -234.4,327.8 54.5,105.4 136.6,181.4 237.1,212.1 44.01,-84.2 104.8,-159.2 176.6,-220.5 76.2,-64.9 164.6,-114.3 258.7,-142.5 6.4,0.9 12.9,1.8 19.3,2.7 111.4,16.5 221.1,46.1 328.9,89.7 55.8,-85.8 80.8,-191.2 69.7,-303.4 -62.6,-35 -128.8,-63.6 -188.7,-100.5 -1.1,-0.5 -2,-1.2 -3.1,-1.8 14.4,-42 38.5,-80.6 69.7,-117.7 87.9,-35.8 162.7,-102.8 208.2,-186.2" /><path
         id="path242"
         style="fill:#abadbd;fill-opacity:1;fill-rule:nonzero;stroke:none"
         d="m 5968.2,3815.5 c 1.9,-75.6 -13.2,-148 -46.1,-211.2 -30.6,-58.6 -76.5,-109.2 -131.5,-145.6 -0.6,12.5 -1.3,25 -1.7,37.4 -80.8,121.7 -157.6,224.7 -234.4,327.8 54.5,105.4 136.6,181.4 237.1,212.1 43.9,-84.3 104.7,-159.2 176.6,-220.5" /><path
         id="path244"
         style="fill:#abadbd;fill-opacity:1;fill-rule:nonzero;stroke:none"
         d="m 6644.7,3462 c -62.6,-35 -128.8,-63.6 -188.7,-100.5 -64,110.1 -133.5,214.9 -209.8,314.2 111.4,16.5 221.1,46.1 328.9,89.7 55.7,-85.9 80.7,-191.3 69.6,-303.4" /><path
         id="path246"
         style="fill:#abadbd;fill-opacity:1;fill-rule:nonzero;stroke:none"
         d="m 6050.9,3248.3 c 141.3,-34.4 290.2,-37.5 430.5,-5.4 -166.5,-18.7 -336.7,-3.3 -497.1,45.1 17.3,-13.6 33.2,-31.6 66.6,-39.7" /><path
         id="path248"
         style="fill:#98a1a5;fill-opacity:1;fill-rule:nonzero;stroke:none"
         d="m 6255.9,469.102 c 380.14,0 688.3,-22.52 688.3,-50.301 0,-27.781 -308.16,-50.301 -688.3,-50.301 -380.14,0 -688.3,22.52 -688.3,50.301 0,27.781 308.16,50.301 688.3,50.301" /><path
         id="path250"
         style="fill:#c9764d;fill-opacity:1;fill-rule:nonzero;stroke:none"
         d="m 3149.4,2418.3 118.7,-215 c -124.9,-71.4 -575,-73.2 -864.1,41.4 l 745.4,173.6" /><path
         id="path252"
         style="fill:#f78e74;fill-opacity:1;fill-rule:nonzero;stroke:none"
         d="m 2676.1,2457.3 -30.4,-342.6 -70.3,-791.2 -137.7,15.8 -40.5,790.1 -19.7,383.3 -8.7,169.8 212.4,-155.6 h 0.1 l 94.8,-69.6" /><path
         id="path254"
         style="fill:#e67462;fill-opacity:1;fill-rule:nonzero;stroke:none"
         d="m 2676.1,2457.3 -30.4,-342.7 c -24.5,-4.4 -49.2,-7.7 -74.1,-9.3 -58.9,-3.9 -120.1,2.5 -174.4,24.1 l -19.7,383.3 c 68,3.6 135.9,8.4 203.7,14.1 h 0.1 l 94.8,-69.5" /><path
         id="path256"
         style="fill:#f78e74;fill-opacity:1;fill-rule:nonzero;stroke:none"
         d="m 3290.7,1363.2 -134.4,-39.7 -352.3,828.3 -90.8,207.5 201,203 85.1,85.8 16.4,-72.1 90.6,-399.7 184.4,-813.1" /><path
         id="path258"
         style="fill:#e67462;fill-opacity:1;fill-rule:nonzero;stroke:none"
         d="m 3106.3,2176.3 c -9.5,2.2 -19.1,4 -28.7,5.4 -84.9,12 -171.2,-4.3 -254.4,-25 -6.4,-1.6 -12.7,-3.2 -19.2,-4.8 l -90.8,207.5 201.1,203 c 33.9,4.3 67.7,8.9 101.4,13.7 l 90.6,-399.8" /><path
         id="path260"
         style="fill:#88283e;fill-opacity:1;fill-rule:nonzero;stroke:none"
         d="m 3402.9,1025.3 c -83.3,-50.101 -286.3,210.2 -286.3,245.1 0,40.6 2.4,64.5 11.1,79.9 4.9,8.8 12,14.9 21.9,19.8 43,15.1 104.9,29.6 136.6,6 30.3,-22.6 71,-74.2 102.4,-131.7 46.5,-85.5 72.7,-183.9 14.3,-219.1" /><path
         id="path262"
         style="fill:#f78e74;fill-opacity:1;fill-rule:nonzero;stroke:none"
         d="m 3388.5,1244.3 c -4.3,-40.1 -15.2,-75.8 -32.8,-84.8 -26.1,-13.4 -103.9,37.9 -146.6,71.4 -39,30.6 -70.3,72.2 -81.4,119.3 4.9,8.8 12,14.9 21.9,19.8 43,15.1 104.9,29.6 136.6,6 30.3,-22.6 70.9,-74.2 102.3,-131.7" /><path
         id="path264"
         style="fill:#88283e;fill-opacity:1;fill-rule:nonzero;stroke:none"
         d="M 2410.6,969.301 C 2504.5,944 2628,1250.2 2618.4,1283.7 c -11.2,39 -20.1,61.3 -32.6,73.7 -7.1,7.1 -15.6,11 -26.5,13 -45.5,2.6 -109,-0.4 -133,-31.9 -22.9,-30.1 -47.8,-90.9 -62.2,-154.8 -21.2,-94.9 -19.3,-196.7 46.5,-214.399" /><path
         id="path266"
         style="fill:#f78e74;fill-opacity:1;fill-rule:nonzero;stroke:none"
         d="m 2364.1,1183.7 c 15.2,-37.3 35.5,-68.7 54.9,-72.5 28.8,-5.7 89.5,65 121.3,109 29.1,40.1 47.7,88.8 45.4,137.1 -7.1,7.1 -15.6,11 -26.5,13 -45.5,2.6 -109,-0.4 -133,-31.9 -22.8,-30 -47.7,-90.8 -62.1,-154.7" /><path
         id="path268"
         style="fill:#652234;fill-opacity:1;fill-rule:nonzero;stroke:none"
         d="m 3714.1,3358.9 c -13.5,33.6 -41.6,61.1 -75.5,73.8 47.5,-96.7 46.3,-216 -3.2,-311.7 -49.4,-95.7 -145.9,-165.7 -279.4,-211.8 46.8,93.9 12,220.7 -76.5,277.4 12.9,-59.3 -1.9,-124 -39.3,-171.9 12.5,53.2 -13.4,109.8 -53.2,147.3 -39.8,37.5 -91.8,59.1 -143.2,77.7 -51.4,18.5 -104.3,35.1 -150.3,64.9 -97.8,63.4 -152,187.9 -131.8,302.7 -33.7,-31.7 -48.1,-73.3 -40.3,-111.1 -33.1,30.6 -39,82.7 -24.9,125.5 14,42.8 44.8,78 76.9,109.7 32.1,31.6 66.7,61.3 92.3,98.3 30,43.6 45.7,95.1 64.1,144.6 16.8,45.1 37,90.7 70.2,125 3.3,3.4 6.7,6.6 10.3,9.9 39.5,35.2 100.1,51.6 146.5,26.5 86.7,48 208.1,16.8 272.3,-61.6 58.9,-72.1 72.1,-174.2 47.1,-264.2 -2.1,-8 -4.7,-16.1 -7.5,-23.9 -19.2,-52.7 -51.2,-107.3 -35.1,-161.1 13.1,-44.2 55.5,-73.1 98.1,-90.6 42.5,-17.6 88.7,-27.9 127.3,-52.9 38.7,-25 69.2,-71.4 55.1,-122.5" /><path
         id="path270"
         style="fill:#f78e74;fill-opacity:1;fill-rule:nonzero;stroke:none"
         d="m 2847.2,3697.2 -157,-197.7 -59.9,180.9 -249.6,775.2 108,53.7 346.5,-785 12,-27.1" /><path
         id="path272"
         style="fill:#e67462;fill-opacity:1;fill-rule:nonzero;stroke:none"
         d="m 2847.2,3697.2 -157,-197.6 -59.9,180.9 c 12.5,-5.8 26.1,-9.1 39.8,-9.2 33.2,-0.2 63.7,16.5 93.6,31.1 22.5,11 46.9,21.1 71.4,22 l 12.1,-27.2" /><path
         id="path274"
         style="fill:#f78e74;fill-opacity:1;fill-rule:nonzero;stroke:none"
         d="m 2504.9,4487.4 c 36.4,41.4 66.3,132.2 70.1,151.1 5.3,26.7 0.8,92.6 -13.5,108.1 -11.7,12.7 -38.3,18.4 -56,21.5 -5.4,1 -11.1,1.9 -16.2,0.2 -10.7,-3.6 -13.7,-16.1 -18.6,-28 -11.1,6.6 -26.1,7 -37.6,0.9 -11.4,-6.1 -18.7,-18.4 -21.6,-35.1 -12.7,7.4 -30.6,6 -41.8,-3.3 -11.2,-9.2 -14.9,-25.6 -10.6,-42 -9,5.9 -22.1,3.6 -30.5,-3.1 -8.4,-6.6 -12.9,-16.6 -15.9,-26.5 -7.2,-24.2 -6.8,-50.3 1.2,-74.3 2.8,-8.5 9,-18.2 18.5,-17.7 8.6,0.4 13.9,9.3 14.6,17.2 0.7,8 -1.4,16.1 0.1,24 1.5,7.9 9,15.9 17.4,14 7.4,-1.6 10.7,-9.5 12.2,-18.1 -21,-32.4 -27.8,-103.8 5.9,-130.2 32.8,3.4 96.9,17.6 122.3,41.3" /><path
         id="path276"
         style="fill:#c14551;fill-opacity:1;fill-rule:nonzero;stroke:none"
         d="m 2531.5,4549.87 c 0.3,47.8 0.6,95.51 0.8,143.31 v 0.02 c -0.03,8.28 0.1,17.56 -3.58,26.51 v 0.01 c -1.89,4.52 -4.88,8.65 -8.75,11.8 -3.86,3.12 -8.73,5.29 -14.13,5.29 l -0.72,-0.01 h -0.01 c -7.14,-0.26 -12.88,-4.09 -17.04,-8.76 -4.21,-4.7 -7.2,-10.4 -9.4,-15.74 v -0.03 h -0.01 c -9.67,-24.03 -13.36,-50.16 -13.36,-76.32 0,-5.11 0.14,-10.22 0.4,-15.31 l 5,0.26 -2.27,4.46 c -31.75,-16.23 -52.08,-50.98 -52.13,-86.35 0,-4.81 0.38,-9.63 1.17,-14.42 0.45,-2.73 3.02,-4.57 5.74,-4.12 2.73,0.44 4.57,3.02 4.13,5.74 -0.7,4.24 -1.04,8.52 -1.04,12.8 -0.05,31.53 18.55,63.2 46.67,77.43 l 2.89,1.47 -0.17,3.25 c -0.26,4.93 -0.39,9.86 -0.39,14.79 0,25.22 3.57,50.09 12.64,72.58 l -0.01,-0.03 c 1.9,4.66 4.51,9.46 7.58,12.86 3.12,3.43 6.32,5.3 9.97,5.44 v 0 l 0.36,0.01 c 2.67,0 5.37,-1.07 7.84,-3.07 2.45,-1.97 4.56,-4.85 5.81,-7.86 h -0.01 c 2.72,-6.44 2.85,-14.37 2.82,-22.68 v 0.02 c -0.2,-47.79 -0.5,-95.49 -0.8,-143.29 -0.02,-2.76 2.21,-5.01 4.97,-5.03 2.76,-0.01 5.01,2.21 5.03,4.97" /><path
         id="path278"
         style="fill:#c14551;fill-opacity:1;fill-rule:nonzero;stroke:none"
         d="m 2410.76,4698.68 c -0.69,-4.35 -1.03,-9.08 -1.03,-14 0.02,-13.3 2.43,-28 7.8,-39.93 2.71,-5.95 6.17,-11.26 10.71,-15.25 4.52,-3.98 10.32,-6.55 16.8,-6.53 1.51,0 3.05,0.14 4.6,0.4 h -0.01 c 10.73,1.99 20.74,12.8 25.34,32.4 0.62,2.69 -1.05,5.37 -3.74,6 -2.69,0.62 -5.38,-1.05 -6,-3.74 -3.99,-17.4 -12.59,-24.19 -17.26,-24.8 h -0.01 c -1.03,-0.18 -2,-0.26 -2.92,-0.26 -3.91,0.03 -7.1,1.38 -10.22,4.06 -4.64,4.01 -8.61,11.32 -11.19,20 -2.61,8.66 -3.9,18.61 -3.9,27.65 0,4.46 0.32,8.7 0.91,12.44 0.43,2.73 -1.43,5.29 -4.16,5.72 -2.73,0.43 -5.29,-1.43 -5.72,-4.16" /><path
         id="path280"
         style="fill:#c14551;fill-opacity:1;fill-rule:nonzero;stroke:none"
         d="m 2359.14,4651.56 c 1.92,-14.64 4.02,-29.91 10.17,-44.23 2.73,-6.34 6.97,-12.9 12.42,-18.13 5.42,-5.18 12.25,-9.22 20.17,-9.25 2.75,-0.01 5.58,0.51 8.33,1.6 v 0 c 5.18,2.02 9.14,5.65 11.9,9.9 4.15,6.41 5.96,14.13 6.96,21.87 0.97,7.75 1.06,15.6 1.21,22.17 0.06,2.76 -2.13,5.05 -4.89,5.11 -2.76,0.06 -5.05,-2.13 -5.11,-4.89 -0.19,-8.83 -0.33,-19.28 -2.29,-27.87 -0.96,-4.29 -2.37,-8.06 -4.25,-10.92 -1.9,-2.87 -4.12,-4.84 -7.19,-6.07 l -0.11,-0.04 0.1,0.04 c -1.62,-0.64 -3.14,-0.9 -4.66,-0.9 -4.26,-0.04 -8.96,2.35 -13.26,6.48 -4.27,4.07 -7.94,9.7 -10.14,14.85 v 0 c -5.46,12.66 -7.56,27 -9.44,41.57 -0.36,2.74 -2.87,4.67 -5.6,4.31 -2.74,-0.36 -4.67,-2.86 -4.32,-5.6" /><path
         id="path282"
         style="fill:#f9a865;fill-opacity:1;fill-rule:nonzero;stroke:none"
         d="m 2836.9,3720.4 c 88,-128.1 258,-241.8 389.1,-331.5 -8.5,-167.7 -120.9,-291.8 -216.6,-404.5 73.8,-274 259.1,-313.3 259.1,-784.6 -184,275.8 -635.2,-159.4 -1015.7,0.3 0,472.6 187.8,781.6 294.6,918.2 114.6,327.9 145.2,562.3 289.5,602.1" /><path
         id="path284"
         style="fill:#c9684f;fill-opacity:1;fill-rule:nonzero;stroke:none"
         d="m 2533.6,3108.3 c 142.8,5.9 374.9,-52.7 484.1,-146.4 l 10.5,38.1 c -115.8,99.2 -345.8,152.9 -476.2,143.1 l -18.4,-34.8" /><g
         id="g286"><g
           clip-path="url(#clipPath292)"
           id="g288"><path
             id="path294"
             style="fill:#fddbac;fill-opacity:1;fill-rule:nonzero;stroke:none"
             d="m 2198.51,2361.56 c 71.08,-39.87 150.91,-54.66 230.91,-54.66 58.23,0.01 116.7,7.82 172.65,19.74 132.39,28.36 257.66,76.99 386.58,94.75 29.49,4.09 59.66,6.34 89.72,6.34 50.37,0 100.43,-6.32 146.69,-20.67 46.28,-14.36 88.7,-36.65 124.51,-68.67 l 26.66,29.82 c -40.67,36.37 -88.48,61.29 -139.33,77.05 -50.87,15.77 -104.83,22.46 -158.53,22.47 -32.06,0 -64.03,-2.39 -95.22,-6.72 -135.08,-18.84 -261.21,-68.01 -389.42,-95.25 -53.87,-11.49 -109.67,-18.86 -164.31,-18.86 -75.18,0 -147.86,13.92 -211.33,49.55 l -19.58,-34.89" /><path
             id="path296"
             style="fill:#fddbac;fill-opacity:1;fill-rule:nonzero;stroke:none"
             d="m 2261.32,2616.75 c 52.51,-23.55 108.65,-32.68 164.85,-32.67 61.05,0.01 122.32,10.7 180.26,25.76 111,28.98 215.84,72.45 324.22,87.96 24.36,3.51 49.29,5.42 74.14,5.42 42.55,0.01 84.82,-5.61 123.63,-18.14 38.82,-12.53 74.13,-31.89 103.49,-59.46 l 27.38,29.16 c -34.26,32.18 -75.07,54.34 -118.59,68.37 -43.55,14.05 -89.87,20.07 -135.91,20.07 -26.9,0 -53.7,-2.06 -79.85,-5.83 -115.01,-16.69 -221.17,-61.02 -328.57,-88.83 -55.74,-14.51 -113.85,-24.49 -170.2,-24.48 -51.93,0 -102.23,8.42 -148.48,29.17 l -16.37,-36.5" /><path
             id="path298"
             style="fill:#fddbac;fill-opacity:1;fill-rule:nonzero;stroke:none"
             d="m 2337.9,2943.99 c 33.45,-16.63 63.91,-30.87 100.84,-40.73 36.92,-9.88 79.73,-15.21 137.89,-15.2 15.62,0 32.36,0.38 50.43,1.16 65.33,2.88 146.78,15.25 229.67,15.21 51.9,0.01 104.13,-4.82 152.76,-19.33 48.67,-14.54 93.69,-38.5 132.57,-77.34 l 28.28,28.28 c -44.05,44.09 -95.65,71.4 -149.42,87.39 -53.81,16.03 -109.85,20.99 -164.19,21 -86.63,-0.03 -169.52,-12.63 -231.39,-15.25 -17.57,-0.76 -33.74,-1.12 -48.71,-1.12 -55.82,0.01 -94.68,5.06 -127.56,13.84 -32.87,8.79 -60.33,21.48 -93.36,37.91 l -17.81,-35.82" /><path
             id="path300"
             style="fill:#fddbac;fill-opacity:1;fill-rule:nonzero;stroke:none"
             d="m 2525.96,3225.68 c 22.37,1.98 44.81,2.96 67.25,2.96 197.15,0.05 394.51,-75.68 539.54,-209.25 l 27.09,29.43 c -152.84,140.61 -359.29,219.77 -566.63,219.82 -23.61,0 -47.22,-1.03 -70.78,-3.12 l 3.53,-39.84" /><path
             id="path302"
             style="fill:#fddbac;fill-opacity:1;fill-rule:nonzero;stroke:none"
             d="m 2583.97,3401.22 c 221.6,-9.14 439.18,-103.53 597.31,-259.08 l 28.04,28.52 c -165.47,162.65 -391.89,260.86 -623.69,270.52 l -1.66,-39.96" /><path
             id="path304"
             style="fill:#fddbac;fill-opacity:1;fill-rule:nonzero;stroke:none"
             d="m 2648.34,3574.15 c 225.29,-16.4 442.56,-130.13 584.51,-305.83 l 31.1,25.15 c -149.26,184.51 -375.98,303.19 -612.69,320.58 l -2.92,-39.9" /></g></g><path
         id="path306"
         style="fill:#e67462;fill-opacity:1;fill-rule:nonzero;stroke:none"
         d="m 3010,3692.3 -40.9,-47.8 c -13.7,-15.9 -37.4,-18.4 -54.1,-5.7 l -45.7,35 26.6,-98 c 25,-92.1 111.7,-153.6 206.8,-146.7 l 53.5,3.9 -36.5,41.9 c -16,18.4 -18.8,44.9 -6.8,66.2 l 34.7,61.7 -137.6,89.5" /><path
         id="path308"
         style="fill:#e67462;fill-opacity:1;fill-rule:nonzero;stroke:none"
         d="m 2899.15,3952.64 c 31.73,15.94 73.07,-2.23 92.33,-40.57 19.26,-38.35 9.15,-82.36 -22.59,-98.3 -31.73,-15.93 -73.07,2.23 -92.33,40.58 -19.26,38.35 -9.15,82.35 22.59,98.29" /><path
         id="path310"
         style="fill:#e67462;fill-opacity:1;fill-rule:nonzero;stroke:none"
         d="m 3385.61,3764.87 c 42.8,3.14 79.6,-23.02 82.2,-58.44 2.6,-35.41 -29.99,-66.67 -72.79,-69.81 -42.79,-3.14 -79.6,23.02 -82.19,58.43 -2.61,35.42 29.98,66.68 72.78,69.82" /><path
         id="path312"
         style="fill:#f78e74;fill-opacity:1;fill-rule:nonzero;stroke:none"
         d="m 2965.5,3917.1 c 65.2,141 210.5,212.5 324.6,159.7 114.1,-52.8 170.5,-168.3 88.6,-350.8 -63.6,-141.7 -210.5,-212.5 -324.6,-159.7 -114.2,52.8 -153.8,209.9 -88.6,350.8" /><path
         id="path314"
         style="fill:#e67462;fill-opacity:1;fill-rule:nonzero;stroke:none"
         d="m 2965,3924.2 c 13,17.9 35.2,26.8 57,30.8 21.8,4 44.2,4.2 65.8,9.1 21.6,4.9 43.3,15.8 58,35.3 -1.7,-40.2 31.3,-74 67,-92.6 35.7,-18.6 76,-27.5 110.4,-48.4 34.4,-20.9 63.1,-60.1 53.5,-99.2 20.7,38.8 14,87.5 -5.8,126.8 -19.8,39.3 -51.2,71.2 -81.3,103.3 -30.1,32.1 -60,65.9 -75.7,107 -92.3,-20.8 -178.8,-66.2 -248.9,-172.1" /><path
         id="path316"
         style="fill:#652234;fill-opacity:1;fill-rule:nonzero;stroke:none"
         d="m 3356.9,3682.9 c 96.8,275.4 -201.6,149.5 -192,378.4 -65.6,-123.5 -172.3,-61.9 -212.1,-173.8 -2.9,200.8 227,276.6 384.1,190.9 122.1,-112.6 135.6,-274.8 20,-395.5" /><path
         id="path318"
         style="fill:#a24649;fill-opacity:1;fill-rule:nonzero;stroke:none"
         d="m 3476.3,3810 c 3.7,55.3 -7.4,112.9 -26,165.5 -16.8,47.2 -46.6,91.4 -88.7,118.7 -76.1,49.4 -167.6,18.9 -213.3,0.8 -29.4,26 -64.9,28.8 -97.2,22.1 -17.7,-3.7 -34.6,-10.2 -51.1,-17.7 3.3,3.4 6.7,6.6 10.3,9.9 39.5,35.2 100.1,51.6 146.5,26.5 86.7,48 208.1,16.8 272.3,-61.6 59,-72.2 72.2,-174.3 47.2,-264.2" /><path
         id="path320"
         style="fill:#191b2f;fill-opacity:1;fill-rule:nonzero;stroke:none"
         d="m 3064.3,3832.8 c 7.35,0 13.3,-5.95 13.3,-13.3 0,-7.35 -5.95,-13.3 -13.3,-13.3 -7.35,0 -13.3,5.95 -13.3,13.3 0,7.35 5.95,13.3 13.3,13.3" /><path
         id="path322"
         style="fill:#191b2f;fill-opacity:1;fill-rule:nonzero;stroke:none"
         d="m 3249.7,3762 c 7.35,0 13.3,-5.96 13.3,-13.3 0,-7.35 -5.95,-13.3 -13.3,-13.3 -7.35,0 -13.3,5.95 -13.3,13.3 0,7.34 5.95,13.3 13.3,13.3" /><path
         id="path324"
         style="fill:#742c3d;fill-opacity:1;fill-rule:nonzero;stroke:none"
         d="m 3023.7,3914.4 c 3.5,29.7 37,52 65.8,43.7 28.8,-8.3 45.3,-44.9 32.6,-72 -3.6,20 -18.2,43.5 -37.9,48.8 -19.7,5.3 -44.2,-0.6 -60.5,-20.5" /><path
         id="path326"
         style="fill:#742c3d;fill-opacity:1;fill-rule:nonzero;stroke:none"
         d="m 3229.4,3833.9 c 14.7,28.5 57.3,37.5 82.3,17.4 25,-20.1 25.3,-63.6 0.6,-84.1 7.1,21.6 0.3,47 -16.6,62.2 -16.9,15.2 -42.9,19.3 -66.3,4.5" /><path
         id="path328"
         style="fill:#c14551;fill-opacity:1;fill-rule:nonzero;stroke:none"
         d="m 3136.39,3797.46 c -13.11,-13.71 -20.53,-32.47 -20.54,-51.43 0,-2.05 0.09,-4.11 0.27,-6.17 0.24,-2.75 2.66,-4.78 5.42,-4.54 2.75,0.24 4.78,2.66 4.54,5.41 -0.15,1.76 -0.23,3.53 -0.23,5.3 -0.02,16.33 6.51,32.78 17.76,44.51 1.91,1.99 1.84,5.16 -0.15,7.07 -2,1.91 -5.16,1.84 -7.07,-0.15" /><path
         id="path330"
         style="fill:#ebebe9;fill-opacity:1;fill-rule:nonzero;stroke:none"
         d="m 3083.6,3715.1 c 35.3,1.2 70.9,-4.4 104.4,-18.6 -0.1,-20.2 -3.2,-41.2 -15.8,-58.2 -12.6,-17 -36.7,-28.7 -59,-23.5 -21.4,4.9 -35.5,23.8 -39.2,42.9 -3.6,19 1.2,38.5 9.6,57.4" /><path
         id="path332"
         style="fill:#e67462;fill-opacity:1;fill-rule:nonzero;stroke:none"
         d="m 3746.2,3549 c 17.6,21.5 35.2,43.1 52.8,64.6 5.1,6.3 10.5,13.5 9.2,22.1 -1.6,10.3 -13,18 -23.3,18.6 -10.3,0.6 -19.6,-4 -28,-9 -28.7,-17.1 -53.2,-40.6 -71.4,-68.5 19.8,-6.6 39.6,-13.1 60.7,-27.8" /><path
         id="path334"
         style="fill:#f78e74;fill-opacity:1;fill-rule:nonzero;stroke:none"
         d="m 3567,3387 c 65.8,21.6 163.7,39.6 197.2,67.8 19.1,16.1 49.3,114.4 7.6,147.9 -13.2,10.6 -32,8.2 -49,-4 -5.8,10.3 -17.8,17.1 -28.9,16.4 -11.1,-0.7 -28.2,-12.2 -33.6,-25.2 -21.2,11.8 -40.3,13.7 -57,-0.4 -16.7,-14.1 -22.5,-39.7 -16.1,-57.5 -44.4,-6.6 -93.5,-19.1 -93.5,-86.6 25.4,-27.4 48,-39.1 73.3,-58.4" /><path
         id="path336"
         style="fill:#c14551;fill-opacity:1;fill-rule:nonzero;stroke:none"
         d="m 3661.44,3574.84 c 8.29,-16.33 12.64,-34.76 12.64,-53.17 0,-2.64 -0.09,-5.29 -0.27,-7.93 -0.19,-2.76 1.89,-5.14 4.65,-5.33 2.75,-0.19 5.14,1.89 5.33,4.65 0.19,2.87 0.29,5.74 0.29,8.61 0,19.98 -4.7,39.92 -13.72,57.69 -1.25,2.47 -4.26,3.45 -6.73,2.2 -2.46,-1.25 -3.44,-4.26 -2.19,-6.72" /><path
         id="path338"
         style="fill:#c14551;fill-opacity:1;fill-rule:nonzero;stroke:none"
         d="m 3722.47,3587.46 c 10.51,-11.08 16.33,-26.63 16.32,-42.11 0,-6.12 -0.9,-12.22 -2.75,-18.03 -0.84,-2.63 0.61,-5.45 3.24,-6.28 2.64,-0.84 5.45,0.61 6.29,3.24 2.17,6.84 3.22,13.97 3.22,21.07 -0.01,17.95 -6.64,35.85 -19.06,48.99 -1.9,2 -5.06,2.09 -7.07,0.19 -2,-1.9 -2.09,-5.06 -0.19,-7.07" /><path
         id="path340"
         style="fill:#f78e74;fill-opacity:1;fill-rule:nonzero;stroke:none"
         d="m 3587.8,3402.8 c -37.4,-96.4 -88.6,-284.4 -117.7,-387.6 -29.2,-103.1 -75.2,-147 -119.9,-134.8 -37.6,10.2 -90.3,65.8 -145.8,133.5 -28.5,34.7 -57.6,72.6 -85.9,109.3 11.6,111.5 34.8,175 97.7,267.8 5.2,-2.8 10.4,-6.7 15.3,-11.7 53.8,-53 88.5,-217.5 112.4,-263 50.1,89.7 100.8,246.5 151.5,341.8 36.8,-2.1 60.3,-41.3 92.4,-55.3" /><path
         id="path342"
         style="fill:#e67462;fill-opacity:1;fill-rule:nonzero;stroke:none"
         d="m 3204.4,3013.9 c -28.5,34.7 -57.6,72.6 -85.9,109.3 11.6,111.5 34.8,175 97.7,267.8 5.2,-2.8 10.4,-6.7 15.3,-11.7 -53,-112.9 -61.7,-245.6 -27.1,-365.4" /><path
         id="path344"
         style="fill:#98a1a5;fill-opacity:1;fill-rule:nonzero;stroke:none"
         d="m 2898.7,469.102 c 380.14,0 688.3,-22.52 688.3,-50.301 0,-27.781 -308.16,-50.301 -688.3,-50.301 -380.14,0 -688.3,22.52 -688.3,50.301 0,27.781 308.16,50.301 688.3,50.301" /><path
         id="path346"
         style="fill:#27264f;fill-opacity:1;fill-rule:nonzero;stroke:none"
         d="m 1490.5,890.301 c 27.9,152.899 55,308.599 82.1,464.299 -12.8,0.3 -25.7,-0.1 -38.3,-1.1 -50.3,-4.1 -99.2,-18 -144.1,-39.9 -29.7,-81.9 -42.9,-161.7 -29.1,-238.1 11.1,-61.5 41.8,-120.801 90.6,-160.199 11.8,-9.602 24.7,-18 38.8,-25" /><path
         id="path348"
         style="fill:#ffffff;fill-opacity:1;fill-rule:nonzero;stroke:none"
         d="m 1365,1159.3 c 3.52,0.01 7.32,0.55 11.63,1.54 12.8,3.03 30,10.26 43.86,24.11 3.9,3.92 3.87,10.25 -0.04,14.15 -3.92,3.89 -10.25,3.87 -14.15,-0.05 -6.78,-6.85 -15.39,-11.94 -23.31,-15.19 -3.95,-1.63 -7.71,-2.8 -10.9,-3.54 -3.16,-0.75 -5.81,-1.04 -7.09,-1.02 -5.52,0 -10,-4.48 -10,-10 0,-5.53 4.48,-10 10,-10" /><path
         id="path350"
         style="fill:#ffffff;fill-opacity:1;fill-rule:nonzero;stroke:none"
         d="m 1358.96,1120.66 c 8.91,1.11 19.1,4.9 30.29,10.3 11.12,5.42 22.93,12.52 33.64,20.54 4.42,3.31 5.32,9.58 2.01,14 -3.31,4.42 -9.58,5.32 -14,2.01 -9.58,-7.19 -20.47,-13.74 -30.4,-18.57 -9.86,-4.85 -19.08,-7.92 -23.86,-8.41 -5.49,-0.64 -9.42,-5.61 -8.77,-11.1 0.64,-5.48 5.6,-9.41 11.09,-8.77" /><path
         id="path352"
         style="fill:#ffffff;fill-opacity:1;fill-rule:nonzero;stroke:none"
         d="m 1356.87,1080.53 c 10.19,0.85 20.84,5.15 31.85,11.73 10.97,6.61 22.17,15.66 32.4,26.63 3.76,4.04 3.54,10.36 -0.5,14.13 -4.05,3.76 -10.37,3.54 -14.14,-0.5 -8.97,-9.64 -18.87,-17.59 -28.08,-23.13 -9.16,-5.57 -17.76,-8.57 -23.07,-8.92 -5.51,-0.43 -9.63,-5.24 -9.2,-10.74 0.42,-5.51 5.23,-9.63 10.74,-9.2" /><path
         id="path354"
         style="fill:#dac7e8;fill-opacity:1;fill-rule:nonzero;stroke:none"
         d="m 1490.5,890.301 c 27.9,152.899 55,308.599 82.1,464.299 -12.8,0.3 -25.7,-0.1 -38.3,-1.1 l -82.6,-438.199 c 11.8,-9.602 24.7,-18 38.8,-25" /><path
         id="path356"
         style="fill:#e67462;fill-opacity:1;fill-rule:nonzero;stroke:none"
         d="M 1026.6,2466.2 819.102,1819.3 c -13.606,-42.4 -14.5,-87.8 -2.602,-130.7 13.402,-48.3 42.301,-90.9 82.301,-121.1 L 1368,1204.2 c 55,22.7 100.1,107.1 92.7,131.6 l -357.2,378.1 c -7,7.5 -8.7,18.5 -4.1,27.7 l 244.9,493.7 -317.7,230.9" /><path
         id="path358"
         style="fill:#1b3255;fill-opacity:1;fill-rule:nonzero;stroke:none"
         d="m 1050,2556.6 -71.098,-123.7 185.398,-61.8 34,190.1 -148.3,-4.6" /><path
         id="path360"
         style="fill:#27264f;fill-opacity:1;fill-rule:nonzero;stroke:none"
         d="m 1554.1,1764.2 c -19.6,154.2 -40.7,310.8 -61.9,467.4 -12.3,-3.6 -24.4,-7.9 -36.2,-12.6 -46.7,-19.1 -89.1,-47.2 -125.3,-81.6 -3.6,-87 7.9,-167.1 44.2,-235.8 29.2,-55.2 76.3,-102.5 134.7,-125.4 14.2,-5.5 29,-9.6 44.5,-12" /><path
         id="path362"
         style="fill:#ffffff;fill-opacity:1;fill-rule:nonzero;stroke:none"
         d="m 1353.32,1982.77 c 6.52,2.14 14.24,6.61 22.56,13.48 8.2,6.87 16.63,16.13 22.62,27.79 2.52,4.92 0.57,10.95 -4.34,13.46 -4.92,2.52 -10.94,0.58 -13.46,-4.34 -4.41,-8.63 -11.08,-16.08 -17.65,-21.56 -6.46,-5.48 -13.19,-9.01 -15.78,-9.76 -5.26,-1.68 -8.17,-7.3 -6.5,-12.56 1.67,-5.27 7.29,-8.18 12.55,-6.51" /><path
         id="path364"
         style="fill:#ffffff;fill-opacity:1;fill-rule:nonzero;stroke:none"
         d="m 1359.18,1944.17 c 8.17,3.73 16.71,10.42 25.75,18.96 8.96,8.53 18.08,18.87 25.89,29.74 3.22,4.48 2.2,10.73 -2.29,13.95 -4.48,3.23 -10.73,2.2 -13.95,-2.29 -6.99,-9.74 -15.42,-19.29 -23.44,-26.91 -7.93,-7.62 -15.79,-13.32 -20.13,-15.19 -5.04,-2.26 -7.3,-8.17 -5.04,-13.21 2.26,-5.05 8.17,-7.3 13.21,-5.05" /><path
         id="path366"
         style="fill:#ffffff;fill-opacity:1;fill-rule:nonzero;stroke:none"
         d="m 1369.34,1905.23 c 9.45,3.87 18.3,11.17 26.83,20.77 8.46,9.62 16.42,21.64 22.86,35.21 2.37,4.99 0.25,10.95 -4.74,13.32 -4.99,2.37 -10.96,0.24 -13.32,-4.74 -5.66,-11.93 -12.7,-22.51 -19.81,-30.56 -7.05,-8.08 -14.35,-13.53 -19.3,-15.45 -5.12,-2.07 -7.6,-7.89 -5.54,-13.01 2.07,-5.13 7.89,-7.61 13.02,-5.54" /><path
         id="path368"
         style="fill:#dac7e8;fill-opacity:1;fill-rule:nonzero;stroke:none"
         d="m 1554.1,1764.2 c -19.6,154.2 -40.7,310.8 -61.9,467.4 -12.3,-3.6 -24.4,-7.9 -36.2,-12.6 l 53.6,-442.7 c 14.2,-5.6 29,-9.7 44.5,-12.1" /><path
         id="path370"
         style="fill:#f78e74;fill-opacity:1;fill-rule:nonzero;stroke:none"
         d="M 1016.7,2466.5 707.004,2448.9 C 616,2443.7 547.699,2363.8 556.699,2273.1 c 7,-70.8 59.903,-128.4 129.801,-141.6 l 652.4,-108.8 c 17.2,17.2 27.5,104.1 31.1,131.9 l -353.3,311.9" /><path
         id="path372"
         style="fill:#c14551;fill-opacity:1;fill-rule:nonzero;stroke:none"
         d="m 685.676,2228.64 c 0.004,0 0.992,-0.12 3,-0.42 14.054,-2.06 76.301,-12.32 161.043,-42.63 97.929,-35.02 197.991,-48.44 280.461,-60.44 2.73,-0.4 5.27,1.5 5.67,4.23 0.39,2.73 -1.5,5.27 -4.23,5.67 -82.54,12 -181.866,25.38 -278.534,59.96 -97.75,34.95 -165.895,43.52 -166.164,43.55 -2.742,0.35 -5.242,-1.59 -5.582,-4.33 -0.348,-2.74 1.598,-5.24 4.336,-5.59" /><path
         id="path374"
         style="fill:#255589;fill-opacity:1;fill-rule:nonzero;stroke:none"
         d="m 1054.4,2132.1 c 23.1,131.7 -3.9,228.2 -81.298,340.9 l 123.398,2 203.4,3.4 271.8,4 c 26.7,-61.2 43.2,-114.5 50.3,-160.6 39.9,-252.7 -198.8,-286.3 -567.6,-189.7" /><path
         id="path376"
         style="fill:#204a79;fill-opacity:1;fill-rule:nonzero;stroke:none"
         d="m 1622,2321.8 c -15.2,18.32 -34.66,33.83 -57.82,46.72 -2.99,30.92 -9.25,58.86 -13.88,76.59 13.82,-3.3 27.58,-7.2 41.23,-11.79 15.29,-41.11 25.34,-78.2 30.47,-111.52 m -68.46,52.32 c -19.85,9.91 -42.14,18.09 -66.55,24.63 -4.27,17.24 -5.43,35 -5.43,48.85 0,3.4 0.07,6.56 0.18,9.43 19.2,-2.21 38.42,-5.26 57.55,-9.41 4.27,-15.69 10.78,-42.89 14.25,-73.5 m -77.45,27.42 c -37.96,9.2 -80.7,14.7 -127.19,16.86 -87.33,4.2 -160.02,22.67 -212.53,41.12 18.56,-2 38.38,-2.72 59.22,-2.72 28.23,0 58.35,1.33 89.71,2.67 31.36,1.34 63.98,2.68 97.26,2.68 29.37,0 59.24,-1.05 89.21,-4.05 -0.13,-3.16 -0.21,-6.69 -0.21,-10.5 0.02,-13.05 0.96,-29.43 4.53,-46.06" /><path
         id="path378"
         style="fill:#1b3255;fill-opacity:1;fill-rule:nonzero;stroke:none"
         d="m 1535.15,2461.74 c 0,0 0.31,-0.94 0.87,-2.78 3.96,-12.88 19.91,-68.7 19.89,-124.51 0.04,-39.39 -8.01,-78.34 -32.34,-102.51 -11.35,-11.48 -33.36,-19.87 -61.52,-24.9 -28.15,-5.1 -62.33,-7.08 -98.12,-7.08 -59.1,0 -122.62,5.39 -171.31,10.79 -24.35,2.7 -45,5.4 -59.55,7.42 -14.55,2.03 -22.96,3.37 -22.98,3.37 l -1.58,-9.87 c 0.14,-0.02 136.05,-21.7 255.42,-21.71 36.17,0 70.82,1.98 99.9,7.24 29.06,5.31 52.65,13.64 66.8,27.66 27.32,27.4 35.24,69.02 35.28,109.59 -0.03,65.87 -21.19,130.14 -21.26,130.41 l -9.5,-3.12" /><path
         id="path380"
         style="fill:#1b3255;fill-opacity:1;fill-rule:nonzero;stroke:none"
         d="m 1473.04,2474.76 c -0.02,-0.16 -1.48,-11.15 -1.48,-27.16 0.03,-20.95 2.43,-50.5 14.29,-75.87 5.94,-12.67 14.33,-24.33 26.08,-33.02 11.73,-8.7 26.79,-14.3 45.45,-15.1 l 0.44,9.99 c -16.94,0.76 -29.81,5.67 -39.95,13.15 -15.16,11.2 -24.33,28.62 -29.63,47.32 -5.3,18.66 -6.68,38.42 -6.68,53.53 0,7.7 0.35,14.2 0.7,18.76 0.18,2.28 0.36,4.07 0.49,5.28 0.13,1.21 0.21,1.8 0.2,1.8 l -9.91,1.32" /><path
         id="path382"
         style="fill:#458db6;fill-opacity:1;fill-rule:nonzero;stroke:none"
         d="M 962.898,2472.4 C 1037.2,2354 1060.4,2233.5 1042.7,2131.6 l 84.4,-20.1 c 10.8,123.9 3.2,249.6 -89.4,366.9 l -74.802,-6" /><path
         id="path384"
         style="fill:#f78e74;fill-opacity:1;fill-rule:nonzero;stroke:none"
         d="m 1849.4,2123.3 c -13,-26.2 -25.3,-31.7 -33.8,-65.1 -7.6,-30.2 -20.9,-55.6 9.5,-91.9 14.8,-17.7 62.3,-49.2 69.2,-28 8.6,26.6 -47.9,37.6 -21.5,70.5 3.7,4.6 75.4,-9.8 118.8,-71.7 3.8,-5.5 33,-45.6 49.1,-37.8 27.6,13.3 -5.3,81.1 -33.3,109 165.8,-131.1 133.5,-6.6 19.4,58 -54.2,30.8 -98.2,39.9 -177.4,57" /><path
         id="path386"
         style="fill:#f78e74;fill-opacity:1;fill-rule:nonzero;stroke:none"
         d="m 1326.1,4266 c 53.1,-14.9 147.9,-2.4 166.5,2.4 26.4,6.8 83.8,39.4 91.5,59 6.4,16.1 -0.1,42.5 -4.9,59.8 -1.5,5.3 -3.1,10.8 -6.9,14.7 -7.9,8.1 -20.5,5.3 -33.3,4.6 1.2,12.9 -5,26.6 -15.5,34.2 -10.5,7.6 -24.7,8.8 -41,4.3 1.1,14.7 -7.9,30.1 -21.1,36.3 -13.2,6.2 -29.5,2.4 -42.4,-8.7 1.4,10.7 -6.4,21.5 -16,26.2 -9.6,4.7 -20.5,4.4 -30.7,2.8 -24.9,-4 -48.3,-15.7 -66.4,-33.3 -6.4,-6.2 -12.5,-15.9 -7.9,-24.3 4.1,-7.5 14.4,-8.5 21.9,-5.7 7.5,2.8 13.9,8.3 21.6,10.3 7.8,2 18.2,-1.3 20.2,-9.6 1.7,-7.4 -3.9,-13.7 -11,-18.9 -38.3,4.9 -105.6,-20 -114.7,-61.8 17.2,-28.2 57.8,-79.7 90.1,-92.3" /><path
         id="path388"
         style="fill:#c14551;fill-opacity:1;fill-rule:nonzero;stroke:none"
         d="m 1393.95,4269.08 c 43.19,20.5 86.29,40.9 129.49,61.4 l 0.02,0.01 c 7.48,3.62 15.84,7.5 22.35,14.66 l 0.01,0.01 0.02,0.02 c 4.46,5.07 7.44,11.73 7.48,18.77 0,3.33 -0.73,6.76 -2.41,9.91 l -4.41,-2.36 4.43,2.31 c -2.85,5.51 -7.77,8.94 -12.91,10.83 -5.17,1.91 -10.73,2.5 -16,2.5 -1.58,0 -3.13,-0.05 -4.64,-0.15 h -0.01 c -30.88,-2.07 -60.83,-13.07 -88.18,-28.11 l 2.41,-4.38 3.04,3.97 c -16.63,12.73 -37.39,19.05 -58.1,19.05 -19.38,0 -38.8,-5.54 -54.82,-16.83 -2.26,-1.59 -2.8,-4.71 -1.21,-6.97 1.59,-2.26 4.71,-2.79 6.97,-1.2 14.14,9.98 31.57,15 49.06,15 18.69,0 37.35,-5.74 52.02,-16.99 l 2.59,-1.98 2.86,1.57 c 26.45,14.56 55.1,24.97 84.02,26.89 h -0.01 c 1.32,0.09 2.66,0.13 4,0.13 4.48,0.01 8.98,-0.55 12.52,-1.87 3.58,-1.36 6.03,-3.24 7.52,-6.08 l 0.01,-0.01 0.02,-0.04 c 0.83,-1.55 1.22,-3.28 1.23,-5.19 0.03,-4.01 -1.96,-8.79 -4.96,-12.13 l 0.03,0.03 c -4.69,-5.24 -11.73,-8.76 -19.25,-12.34 l 0.02,0.01 c -43.2,-20.5 -86.3,-40.9 -129.5,-61.4 -2.5,-1.19 -3.56,-4.17 -2.38,-6.66 1.19,-2.5 4.17,-3.56 6.67,-2.38" /><path
         id="path390"
         style="fill:#c14551;fill-opacity:1;fill-rule:nonzero;stroke:none"
         d="m 1475.76,4442.39 c -11.78,-3.56 -25.22,-10.84 -36.11,-20.04 -5.44,-4.62 -10.23,-9.72 -13.77,-15.23 -3.52,-5.5 -5.84,-11.51 -5.85,-17.82 -0.02,-5 1.55,-10.08 4.8,-14.61 l -0.02,0.03 c 4.66,-6.51 13.63,-10.51 25.68,-10.53 4.41,0 9.25,0.54 14.52,1.74 2.69,0.61 4.38,3.28 3.77,5.98 -0.61,2.69 -3.29,4.38 -5.99,3.77 -4.61,-1.05 -8.72,-1.5 -12.3,-1.49 -9.88,-0.03 -15.57,3.42 -17.5,6.28 l -0.01,0.01 -0.01,0.02 c -2.11,3 -2.93,5.8 -2.94,8.8 -0.01,3.76 1.44,8.01 4.27,12.42 4.22,6.62 11.44,13.35 19.57,18.88 8.11,5.55 17.15,9.93 24.77,12.21 2.64,0.79 4.14,3.58 3.35,6.23 -0.79,2.64 -3.58,4.14 -6.23,3.35" /><path
         id="path392"
         style="fill:#c14551;fill-opacity:1;fill-rule:nonzero;stroke:none"
         d="m 1410.75,4468.48 c -12.28,-8.11 -25.2,-16.51 -35.43,-28.31 -6.76,-7.92 -12.75,-19.05 -12.85,-30.43 -0.05,-6.23 2.1,-12.75 7.31,-17.58 l 0.02,-0.02 0.01,-0.01 c 5.26,-4.89 11.94,-6.72 18.44,-6.68 13.72,0.1 27.98,7.11 38.91,12 2.52,1.14 3.63,4.1 2.49,6.62 -1.14,2.51 -4.1,3.63 -6.62,2.48 -10.89,-5.01 -24.62,-11.2 -34.78,-11.1 -4.83,0.03 -8.55,1.18 -11.66,4.03 l 0.03,-0.03 c -2.96,2.83 -4.11,6.1 -4.15,10.29 -0.11,7.56 4.79,17.49 10.41,23.89 8.98,10.4 21.05,18.4 33.37,26.5 2.31,1.51 2.95,4.62 1.43,6.92 -1.52,2.31 -4.62,2.95 -6.93,1.43" /><path
         id="path394"
         style="fill:#84293f;fill-opacity:1;fill-rule:nonzero;stroke:none"
         d="m 1552.8,2684.6 c -3.2,-81.8 11.2,-160.6 58.4,-258.4 -107.99,41.99 -223.64,37.63 -325.9,33.27 -121.81,-5.19 -224.63,-10.38 -272.9,62.73 23.7,49.6 43.3,94.8 59,139.6 37.2,104.9 53.9,206.6 55.4,353.5 0.4,44.7 12.9,88.4 36.5,126.2 l 74.8,127.7 -117.1,502.1 c -20.4,83.3 -16.9,170.6 9.9,252.1 l 105.2,335.8 119.9,-100.2 -47,-279.8 c -12.1,-65.1 -3.9,-132.4 23.6,-192.6 l 189.9,-417.8 23.7,-52.1 55.1,-59.2 c 15.7,-18.7 30.7,-40.6 44.5,-64 26.4,-45 47.6,-95.8 58.2,-141.6 l 220.9,-948.7 -105.8,-58.8 -259.7,709.9 c -3.6,-23.8 -5.7,-46.9 -6.6,-69.7" /><path
         id="path396"
         style="fill:#e1cece;fill-opacity:1;fill-rule:nonzero;stroke:none"
         d="m 1645.6,3193.4 c -106.2,17.2 -215.3,14.5 -317.4,-9.7 -6.5,56.2 17.6,115 61.7,150.4 36.7,29.5 86.2,41.9 132.5,34.6 l 23.7,-52.1 55.1,-59.2 c 15.7,-18.8 30.7,-40.6 44.4,-64" /><path
         id="path398"
         style="fill:#4b1825;fill-opacity:1;fill-rule:nonzero;stroke:none"
         d="m 1559.1,2771.1 c -40.6,110.5 -15.5,242.5 62.9,330.3 -52.4,-32.7 -83.1,-93 -91.9,-154.1 -8.7,-61 2.1,-123.3 29,-176.2" /><path
         id="path400"
         style="fill:#4b1825;fill-opacity:1;fill-rule:nonzero;stroke:none"
         d="m 1529.4,2805.5 c -48.1,72.2 -60.7,166.9 -33.2,249.2 -24.6,-36.6 -36.3,-81.8 -32.7,-125.7 3.7,-44 22.6,-86.6 65.9,-123.5" /><path
         id="path402"
         style="fill:#c2b4b7;fill-opacity:1;fill-rule:nonzero;stroke:none"
         d="m 1611.2,2426.2 c -47.2,97.8 -61.6,176.6 -58.4,258.4 v 0 c -3.2,-81.8 11.3,-160.6 58.4,-258.4" /><path
         id="path404"
         style="fill:#762539;fill-opacity:1;fill-rule:nonzero;stroke:none"
         d="m 1611.2,2426.2 c -20.07,7.81 -40.42,14.01 -60.9,18.91 -3.66,0.88 -7.33,1.72 -11.01,2.51 -19.13,4.15 -38.35,7.2 -57.55,9.41 -3.32,0.38 -6.65,0.74 -9.97,1.07 -29.97,3 -59.84,4.05 -89.21,4.05 -33.28,0 -65.9,-1.34 -97.26,-2.68 -31.36,-1.34 -61.48,-2.67 -89.71,-2.67 -81.44,-0.01 -147.34,11.11 -183.19,65.4 23.7,49.6 43.3,94.8 59,139.6 35.1,-35.6 85.6,-55.8 135.9,-60.5 9.3,-0.88 18.6,-1.29 27.89,-1.29 53.35,0 106.36,13.54 157.21,30.49 53.6,17.8 105.9,39.5 160.4,54.1 -3.2,-81.8 11.2,-160.6 58.4,-258.4 v 0" /><path
         id="path406"
         style="fill:#24294f;fill-opacity:1;fill-rule:nonzero;stroke:none"
         d="m 1991.4,3561.5 c -26.4,-61.9 -65.2,-117.4 -101.7,-174 -21,-32.6 -41.7,-66.3 -71.6,-90.9 -29.8,-24.7 -71.1,-39.3 -107.9,-27.2 28.5,11.8 54.8,29 77.2,50.3 -92.2,-42.7 -208.4,-27.9 -286.8,36.8 -28.2,23.1 -51.6,52.1 -82.4,71.7 -30.7,19.5 -72.8,28 -102.8,7.3 -22.5,57 0.1,128.2 51.3,161.9 -37.8,-0.3 -75.1,-18 -99.1,-47.2 0.1,42 37.3,74 73.9,94.5 36.6,20.5 78.3,37.3 101.3,72.3 15.1,22.8 19.8,49.6 22.9,77 3.6,32.7 5,66.3 18.7,95.8 28,60 99.3,86.8 165.3,92.4 41.1,3.6 83.4,1.2 122.4,-12.6 39,-13.8 74.6,-39.7 103.7,-78.7 27.6,-4 52.8,-16.3 74.1,-34 30.2,-24.9 52.7,-60.4 63,-98.4 17.9,-65 4.9,-135.1 -21.5,-197" /><path
         id="path408"
         style="fill:#413874;fill-opacity:1;fill-rule:nonzero;stroke:none"
         d="m 1950.3,3856.8 c -29.9,11.6 -63.1,14.7 -94.8,9 -33.7,53.7 -101.9,75.4 -165.3,78.7 -36.2,1.9 -73.2,-1 -107.2,-13.6 -34.1,-12.5 -65,-35.3 -83,-67 -12.7,-22.4 -19.5,-49.6 -34,-70.1 3.6,32.7 5,66.3 18.7,95.8 28,60 99.3,86.8 165.3,92.4 41.1,3.6 83.4,1.2 122.4,-12.6 39,-13.8 74.6,-39.7 103.7,-78.7 27.7,-3.9 52.8,-16.2 74.2,-33.9" /><path
         id="path410"
         style="fill:#e67462;fill-opacity:1;fill-rule:nonzero;stroke:none"
         d="m 1415.6,3746.03 c 31.73,15.94 73.07,-2.23 92.33,-40.58 19.26,-38.34 9.15,-82.35 -22.58,-98.29 -31.74,-15.93 -73.07,2.23 -92.34,40.58 -19.26,38.35 -9.14,82.35 22.59,98.29" /><path
         id="path412"
         style="fill:#f78e74;fill-opacity:1;fill-rule:nonzero;stroke:none"
         d="m 1655.7,3320.8 c -19.3,-31 -33.2,-63.4 -30.2,-96.9 -96,10.1 -192.7,-4.8 -274.1,-15.7 -1.7,51.5 49.7,129.4 99.1,129.4 1.5,0.5 3,1.1 4.5,1.7 39.1,14.9 70.4,42.2 92.2,94.5 l 164.3,-34.8 c -17.7,-24.9 -38.9,-51 -55.8,-78.2" /><path
         id="path414"
         style="fill:#e67462;fill-opacity:1;fill-rule:nonzero;stroke:none"
         d="m 1711.5,3398.9 c -17.7,-24.7 -38.9,-50.9 -55.8,-78.1 -67,-11.4 -137.1,-5.1 -200.7,18.4 39.1,14.9 70.4,42.2 92.2,94.5 l 164.3,-34.8" /><path
         id="path416"
         style="fill:#e67462;fill-opacity:1;fill-rule:nonzero;stroke:none"
         d="m 1888.53,3540.3 c 42.8,3.14 79.6,-23.02 82.2,-58.43 2.6,-35.42 -29.99,-66.68 -72.79,-69.82 -42.79,-3.14 -79.6,23.02 -82.19,58.44 -2.61,35.41 29.98,66.67 72.78,69.81" /><path
         id="path418"
         style="fill:#f78e74;fill-opacity:1;fill-rule:nonzero;stroke:none"
         d="m 1465.8,3696.9 c 65.2,141 210.5,212.5 324.6,159.7 114.1,-52.8 170.5,-168.3 88.6,-350.8 -63.6,-141.7 -242.7,-191 -356.8,-138.3 -114.1,52.7 -121.6,188.5 -56.4,329.4" /><path
         id="path420"
         style="fill:#e67462;fill-opacity:1;fill-rule:nonzero;stroke:none"
         d="m 1481.9,3740.5 c 62,44.3 133,75.9 211.5,93.3 -3.3,-36.9 -5.8,-74.5 2,-110.7 7.8,-36.2 27.5,-71.4 59.5,-90.1 -4.7,20.6 -6.2,41.9 -4.4,62.9 12.5,-53.3 60.6,-96.4 114.9,-102.9 -21.5,21.2 -27.8,53.8 -25.7,84 2.1,30.2 11.4,59.3 16.7,89 5.3,29.8 6.1,61.8 -7.7,88.7 -18.4,35.7 -59.9,55 -100.1,56.6 -40.2,1.6 -79.3,-11.8 -116.4,-27.2 -55.6,-23.2 -112.1,-54.2 -150.3,-143.6" /><path
         id="path422"
         style="fill:#24294f;fill-opacity:1;fill-rule:nonzero;stroke:none"
         d="m 1748,3868.4 c -55.3,-45.5 -54,-152.9 -1.1,-214.1 -14.6,51.6 -1.1,110.3 34.4,150.5 -23.4,-37.7 -29.6,-85.7 -16.5,-128.1 13.1,-42.4 45.2,-78.6 88.1,-95.3 8.1,-50.9 2.2,-104 -21.6,-147.8 64.7,52.2 108,131.2 113,214.1 5,82.9 -29.7,168.2 -93.9,220.9 -64.2,52.7 -157,69.8 -234.4,39.8 -77.5,-30 -135.2,-107.6 -137.8,-190.7 63.7,84.7 144.2,123 269.8,150.7" /><path
         id="path424"
         style="fill:#191b2f;fill-opacity:1;fill-rule:nonzero;stroke:none"
         d="m 1570,3632.1 c 7.34,0 13.3,-5.95 13.3,-13.3 0,-7.34 -5.96,-13.3 -13.3,-13.3 -7.34,0 -13.3,5.96 -13.3,13.3 0,7.35 5.96,13.3 13.3,13.3" /><path
         id="path426"
         style="fill:#191b2f;fill-opacity:1;fill-rule:nonzero;stroke:none"
         d="m 1755.4,3561.3 c 7.34,0 13.3,-5.95 13.3,-13.3 0,-7.35 -5.96,-13.3 -13.3,-13.3 -7.34,0 -13.3,5.95 -13.3,13.3 0,7.35 5.96,13.3 13.3,13.3" /><path
         id="path428"
         style="fill:#24294f;fill-opacity:1;fill-rule:nonzero;stroke:none"
         d="m 1517.7,3710.6 c 3.5,29.7 37,52 65.8,43.7 28.8,-8.3 45.3,-44.9 32.6,-72 -3.6,20 -18.2,43.5 -37.9,48.8 -19.7,5.2 -44.2,-0.6 -60.5,-20.5" /><path
         id="path430"
         style="fill:#24294f;fill-opacity:1;fill-rule:nonzero;stroke:none"
         d="m 1723.5,3630 c 14.7,28.5 57.3,37.5 82.3,17.4 25,-20.1 25.3,-63.6 0.6,-84.1 7.1,21.6 0.3,47 -16.6,62.2 -16.9,15.2 -43,19.3 -66.3,4.5" /><path
         id="path432"
         style="fill:#c14551;fill-opacity:1;fill-rule:nonzero;stroke:none"
         d="m 1615.19,3593.66 c -13.1,-13.71 -20.52,-32.46 -20.54,-51.41 0,-2.06 0.09,-4.13 0.27,-6.19 0.24,-2.75 2.67,-4.78 5.42,-4.54 2.75,0.24 4.78,2.66 4.54,5.41 -0.15,1.77 -0.23,3.54 -0.23,5.32 -0.01,16.32 6.51,32.76 17.76,44.49 1.91,2 1.84,5.16 -0.15,7.07 -2,1.91 -5.16,1.84 -7.07,-0.15" /><path
         id="path434"
         style="fill:#ebebe9;fill-opacity:1;fill-rule:nonzero;stroke:none"
         d="m 1580.6,3508.9 c 24.5,-9.4 51.6,-11.8 77.3,-6.8 1.9,-21.7 3.6,-44.2 -3.5,-64.8 -7.2,-20.6 -25.8,-38.9 -47.6,-38.4 -22.3,0.5 -40.3,20.5 -45.8,42.1 -5.5,21.6 -1.2,44.3 19.6,67.9" /><path
         id="path436"
         style="fill:#98a1a5;fill-opacity:1;fill-rule:nonzero;stroke:none"
         d="m 1452.8,469.102 c 339.66,0 615,-22.52 615,-50.301 0,-27.781 -275.34,-50.301 -615,-50.301 -339.66,0 -615.003,22.52 -615.003,50.301 0,27.781 275.343,50.301 615.003,50.301" /></g></g></svg>