<?xml version="1.0" encoding="UTF-8" standalone="no"?>
<svg
   xmlns:dc="http://purl.org/dc/elements/1.1/"
   xmlns:cc="http://creativecommons.org/ns#"
   xmlns:rdf="http://www.w3.org/1999/02/22-rdf-syntax-ns#"
   xmlns:svg="http://www.w3.org/2000/svg"
   xmlns="http://www.w3.org/2000/svg"
   viewBox="0 0 1000 666.66669"
   height="666.66669"
   width="1000"
   xml:space="preserve"
   id="svg2"
   version="1.1"><metadata
     id="metadata8"><rdf:RDF><cc:Work
         rdf:about=""><dc:format>image/svg+xml</dc:format><dc:type
           rdf:resource="http://purl.org/dc/dcmitype/StillImage" /></cc:Work></rdf:RDF></metadata><defs
     id="defs6"><clipPath
       id="clipPath152"
       clipPathUnits="userSpaceOnUse"><path
         id="path150"
         d="m 6934.85,290.629 c 3.82,0.019 7.63,0.051 11.45,0.07 v 0 c -3.81,-0.019 -7.63,-0.051 -11.45,-0.07" /></clipPath></defs><g
     transform="matrix(1.3333333,0,0,-1.3333333,0,666.66667)"
     id="g10"><g
       transform="scale(0.1)"
       id="g12"><path
         id="path14"
         style="fill:#e7f7f3;fill-opacity:1;fill-rule:nonzero;stroke:none"
         d="M 0,0 H 7500 V 5000 H 0 Z" /><path
         id="path16"
         style="fill:#d5595b;fill-opacity:1;fill-rule:nonzero;stroke:none"
         d="m 1427.2,3690 v -0.7 l -15.4,0.3 z" /><path
         id="path18"
         style="fill:#d5595b;fill-opacity:1;fill-rule:nonzero;stroke:none"
         d="m 1427.2,3689.6 -15.4,-0.3 v 0.7 z" /><path
         id="path20"
         style="fill:#d5595b;fill-opacity:1;fill-rule:nonzero;stroke:none"
         d="m 2276.6,2712.6 -487,-2 -32.9,-0.1 -322.6,-1.3 -7,-0.2 -7,0.2 -311.6,1.2 -15.2,0.1 -515.601,2.1 60.297,389.2 c 24.305,156.3 157.902,283.3 335.906,319.7 l 142.198,28.9 24.6,5 47.5,9.7 1.2,7.3 11.9,74.5 20.1,127.3 189.9,4.5 15.7,0.3 15.6,-0.3 189.8,-4.5 30.4,-190.5 2.9,-18.6 3.9,-0.8 38.1,-7.7 34.6,-7 137.8,-28 c 178,-36.3 311.7,-163.4 335.8,-319.7 l 60.7,-389.3" /><path
         id="path22"
         style="fill:#ca4954;fill-opacity:1;fill-rule:nonzero;stroke:none"
         d="m 1663,3483.7 c -226.2,-26.6 -386.3,28.2 -461.5,63.3 l 20.2,127.2 189.8,4.5 15.7,0.3 15.6,-0.3 189.8,-4.5 30.4,-190.5" /><path
         id="path24"
         style="fill:#faca53;fill-opacity:1;fill-rule:nonzero;stroke:none"
         d="m 1116.3,3450.4 -22.9,-739.9 15.2,-0.1 311.6,-1.2 7,-0.2 7,0.2 322.6,1.3 32.9,0.1 -47,738.8 -34.6,7 -7.1,-9.7 c -7.8,-10.8 -16.4,-20.9 -25.5,-30.4 -125.2,-130.6 -357.4,-135.2 -489.8,-12.5 -13.3,12.2 -25.5,25.7 -36.5,40.5 l -8.2,11" /><path
         id="path26"
         style="fill:#4e80ad;fill-opacity:1;fill-rule:nonzero;stroke:none"
         d="m 2276.6,2712.6 -295,-1.2 -192,-0.8 -32.9,-0.1 -86.9,753.7 38.1,-7.7 34.6,-7 137.8,-28 c 83.3,-17.1 156.9,-53.9 214.1,-104.3 65,-57.3 108.9,-132.2 121.7,-215.4 l 60.5,-389.2" /><path
         id="path28"
         style="fill:#4e80ad;fill-opacity:1;fill-rule:nonzero;stroke:none"
         d="m 1188.4,3465 -79.7,-754.6 -15.2,0.1 -231.199,0.9 -284.403,1.1 60.301,389.2 c 12.5,80.8 54.301,153.8 116.504,210.5 57.895,52.9 133.496,91.6 219.399,109.2 l 142.198,28.9 24.6,5 47.5,9.7" /><path
         id="path30"
         style="fill:#609dc2;fill-opacity:1;fill-rule:nonzero;stroke:none"
         d="m 862.301,3072.5 v -361.1 l -284.403,1.1 60.301,389.2 c 12.5,80.8 54.301,153.8 116.504,210.5 66.797,-63.1 107.598,-147.3 107.598,-239.7" /><path
         id="path32"
         style="fill:#609dc2;fill-opacity:1;fill-rule:nonzero;stroke:none"
         d="m 2276.6,2712.6 -295,-1.2 v 361.2 c 0,94.7 42.8,180.9 112.8,244.7 65,-57.3 108.9,-132.2 121.7,-215.4 l 60.5,-389.3" /><path
         id="path34"
         style="fill:#3c244e;fill-opacity:1;fill-rule:nonzero;stroke:none"
         d="m 1949.7,4344.9 c 30.7,-90 6.7,-188.4 -19.4,-279.8 -26.2,-91.3 -54.4,-187.4 -31.7,-279.7 -19.5,1.1 -38.7,7.7 -54.7,18.9 -11.6,-71.7 -53,-138.2 -112.4,-180.7 4.4,26.2 -3,54.1 -19.8,74.7 -100.6,-74.8 -189.9,-113.4 -279.9,-113.8 -90,-0.4 -179.6,37.4 -241.7,102.1 -25.1,-17.4 -40.8,-47.1 -41.1,-77.4 -58.7,26.5 -101.3,84.9 -108.2,148.4 -32,-20.8 -74.601,-24.6 -109.702,-9.5 53.902,16 79.202,80.5 72.602,135.9 -6.602,55.4 -36.2,104.8 -59.302,155.7 -22.996,50.8 -39.894,109.5 -19.796,161.6 -9.903,16.7 -17.2,33.9 -22.004,51.2 v 0.1 c -14.801,54 -5.793,109.2 22.004,153.7 -26.301,9.9 -49.204,12.7 -72.102,15.4 28.301,86 93.699,159.3 176.3,197.7 -32.8,22.1 -46.902,58.3 -38.503,90 88.403,-4.4 175.503,19.5 261.303,41.7 85.7,22.1 174.2,42.9 262.1,31.7 59.5,-7.5 119.1,-32.7 165.9,-75.1 22.3,-20.2 41.8,-44.4 56.9,-72.4 43,20.6 95.7,-2.1 128.2,-36.6 32.5,-34.6 51.2,-79.4 77.2,-119 26,-39.6 64.3,-76.5 111.9,-79.7 -27.2,-29.2 -64.5,-48.9 -104.1,-55.1" /><path
         id="path36"
         style="fill:#ca4954;fill-opacity:1;fill-rule:nonzero;stroke:none"
         d="m 1840.12,4117.81 c 75.75,24.41 152.85,-4.51 172.21,-64.59 19.36,-60.08 -26.35,-128.58 -102.1,-152.99 -75.75,-24.41 -152.85,4.52 -172.21,64.6 -19.36,60.08 26.35,128.57 102.1,152.98" /><path
         id="path38"
         style="fill:#9e3647;fill-opacity:1;fill-rule:nonzero;stroke:none"
         d="m 1881.48,3926.88 c -37.98,0 -70.25,19.95 -77.27,50.7 -8.52,37.37 23.5,76.55 71.54,87.5 8.51,1.94 16.95,2.87 25.13,2.87 37.98,0 70.26,-19.95 77.28,-50.7 8.52,-37.37 -23.51,-76.54 -71.54,-87.5 -8.51,-1.94 -16.96,-2.87 -25.14,-2.87" /><path
         id="path40"
         style="fill:#611e33;fill-opacity:1;fill-rule:nonzero;stroke:none"
         d="m 1956.3,4050.5 c -21.6,17.3 -49.1,26.4 -76.4,25 -27.2,-1.3 -53.9,-13 -73.8,-32.3 1.1,-7.2 2.1,-14.4 3.2,-21.6 18.7,21.4 44.6,35.7 72.1,40 27.4,4.4 56.3,-1.4 74.9,-11.1" /><path
         id="path42"
         style="fill:#ca4954;fill-opacity:1;fill-rule:nonzero;stroke:none"
         d="m 827.242,4053.32 c 19.36,60.08 96.465,89 172.211,64.59 75.747,-24.41 121.457,-92.9 102.097,-152.98 -19.36,-60.09 -96.46,-89.01 -172.21,-64.6 -75.746,24.41 -121.461,92.9 -102.098,152.99" /><path
         id="path44"
         style="fill:#9e3647;fill-opacity:1;fill-rule:nonzero;stroke:none"
         d="m 958.297,3927.05 c -8.18,0 -16.621,0.92 -25.133,2.86 -48.031,10.96 -80.059,50.13 -71.531,87.51 7.012,30.74 39.297,50.69 77.269,50.69 8.18,0 16.618,-0.92 25.133,-2.86 48.035,-10.96 80.065,-50.14 71.535,-87.51 -7.01,-30.75 -39.3,-50.69 -77.273,-50.69" /><path
         id="path46"
         style="fill:#611e33;fill-opacity:1;fill-rule:nonzero;stroke:none"
         d="m 883.301,4050.5 c 21.601,17.3 49.101,26.4 76.402,25 27.195,-1.3 53.897,-13 73.797,-32.3 -1.1,-7.2 -2.1,-14.4 -3.2,-21.6 -18.7,21.4 -44.601,35.7 -72.101,40 -27.398,4.4 -56.195,-1.4 -74.898,-11.1" /><path
         id="path48"
         style="fill:#d5595b;fill-opacity:1;fill-rule:nonzero;stroke:none"
         d="m 1872.1,4153.8 c 0,-296.5 -202.5,-594.1 -452.3,-594.1 -36.1,0 -71.3,6.2 -105,17.8 -199.2,68.2 -347.398,322.7 -347.398,576.3 v 1.9 c 0.797,295.4 203.098,477.7 452.398,477.7 249.8,0 452.3,-183.1 452.3,-479.6" /><path
         id="path50"
         style="fill:#ca4954;fill-opacity:1;fill-rule:nonzero;stroke:none"
         d="m 1858.2,4212.5 c -26,4.1 -50.7,16.7 -69.2,35.5 3,-17.7 6.1,-35.3 9.1,-53 -65.8,33.8 -117.6,94.1 -140.8,164.3 -63.8,-54.8 -152.1,-79.8 -235.2,-66.6 5.5,12.6 11.1,25.2 15.4,38.7 -54.1,-30.9 -105,-67.5 -151.4,-109 -12.6,28.5 -17.6,60.4 -14.7,90.7 -80.1,-31.3 -156.4,-72.2 -226.8,-121.7 -1.3,14.6 -2.6,29.2 -3.9,43.8 -33,-23.3 -58.001,-57.7 -69.899,-96.3 -3.301,82 -2.699,174.4 55.399,232.3 23.5,23.4 54,38.3 84.3,51.7 149.7,66.4 310.1,108.4 473.1,124 54.1,5.2 92.3,-11.8 141.4,-35 47.9,-22.5 153,-197.9 133.2,-299.4" /><path
         id="path52"
         style="fill:#3c244e;fill-opacity:1;fill-rule:nonzero;stroke:none"
         d="m 978.699,4015.1 c -14.898,117 15.602,224 87.301,317.1 -9,-24.5 -12.5,-51 -10.1,-76.9 92.6,46.2 185.2,92.4 277.8,138.7 -28,-26.8 -40.1,-69.1 -30.4,-106.7 77.6,37.9 155.2,75.9 232.9,113.8 -19.8,-25.8 -43.1,-48.9 -69.1,-68.3 76.1,-7.1 154.8,30.8 197.9,103.4 11.8,-69.4 48.9,-134.1 102.8,-179.4 -0.8,25.8 3,51.7 6.6,85.3 8.6,-51.3 36.6,-99.2 72.5,-131.6 5,-68.6 10,-137.3 3.2,-201.3 280.1,783.2 -1057.104,974.4 -871.401,5.9" /><path
         id="path54"
         style="fill:#693e76;fill-opacity:1;fill-rule:nonzero;stroke:none"
         d="m 1679.6,4707.6 c -39.3,20.5 -84.8,30.3 -129.3,31.3 -73.1,1.6 -144.7,-17.7 -215.4,-36.5 -70.6,-18.8 -142.6,-37.3 -215.6,-34.2 32,-19.3 68.3,-31.3 105.4,-34.9 -59.9,-24.5 -119.8,-49 -179.7,-73.6 45.2,14.6 96.6,9 137.5,-15.2 -80.1,-1.3 -159,-37.3 -212.301,-96.9 20.602,7.3 44.201,6 63.801,-3.8 -69.297,-40 -117.801,-112.8 -131.402,-191.4 -14.801,54 -5.797,109.2 22.004,153.7 -26.301,9.9 -49.204,12.7 -72.102,15.4 28.301,86 93.699,159.3 176.3,197.7 -32.8,22.1 -46.902,58.3 -38.503,90 88.403,-4.4 175.503,19.5 261.303,41.7 85.7,22.1 174.2,42.9 262.1,31.7 59.5,-7.4 119.1,-32.5 165.9,-75" /><path
         id="path56"
         style="fill:#3c244e;fill-opacity:1;fill-rule:nonzero;stroke:none"
         d="m 1307,4156.1 c -27,29 -70.5,46.3 -118.3,42.9 -47.7,-3.3 -88.3,-26.4 -111,-58.7 1.5,58.7 47.4,107.7 107.2,111.9 60,4.2 112.4,-38 122.1,-96.1" /><path
         id="path58"
         style="fill:#3c244e;fill-opacity:1;fill-rule:nonzero;stroke:none"
         d="m 1532.6,4156.1 c 27,29 70.5,46.3 118.3,42.9 47.7,-3.3 88.3,-26.4 111,-58.7 -1.5,58.7 -47.4,107.7 -107.2,111.9 -59.9,4.2 -112.4,-38 -122.1,-96.1" /><path
         id="path60"
         style="fill:#1d253b;fill-opacity:1;fill-rule:nonzero;stroke:none"
         d="m 1236.2,4080 c 15.57,0 28.2,-12.62 28.2,-28.2 0,-15.57 -12.63,-28.2 -28.2,-28.2 -15.57,0 -28.2,12.63 -28.2,28.2 0,15.58 12.63,28.2 28.2,28.2" /><path
         id="path62"
         style="fill:#1d253b;fill-opacity:1;fill-rule:nonzero;stroke:none"
         d="m 1598.9,4080 c 15.57,0 28.2,-12.62 28.2,-28.2 0,-15.57 -12.63,-28.2 -28.2,-28.2 -15.57,0 -28.2,12.63 -28.2,28.2 0,15.58 12.63,28.2 28.2,28.2" /><path
         id="path64"
         style="fill:#611e33;fill-opacity:1;fill-rule:nonzero;stroke:none"
         d="m 1278.03,3825.22 c 44.12,-25.22 94.7,-37.69 145.24,-37.7 53.94,0.01 107.92,14.21 154.08,42.67 4.7,2.9 6.16,9.06 3.26,13.76 -2.9,4.7 -9.06,6.16 -13.76,3.26 -42.73,-26.36 -93.15,-39.69 -143.58,-39.69 -47.26,0 -94.47,11.71 -135.31,35.06 -4.79,2.74 -10.9,1.08 -13.64,-3.72 -2.74,-4.79 -1.08,-10.9 3.71,-13.64" /><path
         id="path66"
         style="fill:#ca4954;fill-opacity:1;fill-rule:nonzero;stroke:none"
         d="m 1388.9,3746 c 25.9,-6.3 52.9,-8.2 79.5,-5.6 -8,-14.5 -24.4,-24 -41,-23.6 -16.6,0.4 -32.5,10.3 -38.5,29.2" /><path
         id="path68"
         style="fill:#611e33;fill-opacity:1;fill-rule:nonzero;stroke:none"
         d="m 1389.68,4072.43 c 4.59,-14.24 7.02,-29.13 7.02,-43.98 -0.01,-18.18 -3.62,-36.32 -11.31,-53.33 l -1.51,-3.33 1,-3.52 c 6.41,-22.53 12.91,-45.03 19.3,-67.59 1.5,-5.32 7.03,-8.41 12.34,-6.9 5.32,1.5 8.4,7.03 6.9,12.34 -6.41,22.64 -12.91,45.14 -19.3,67.62 l -9.62,-2.74 9.11,-4.12 c 8.93,19.74 13.09,40.73 13.09,61.57 0,17.03 -2.77,33.96 -7.98,50.12 -1.7,5.25 -7.33,8.14 -12.59,6.45 -5.26,-1.7 -8.14,-7.34 -6.45,-12.59" /><path
         id="path70"
         style="fill:#f79179;fill-opacity:1;fill-rule:nonzero;stroke:none"
         d="m 4599.9,2711.6 c -532,-3.4 -1166.5,-3.4 -1698.8,0 77.9,496.6 31.7,666.1 610.6,752.4 l 0.1,0.5 c 8,49.9 25.1,158.1 33,208.6 110.2,4.7 300.9,4.7 411,0 l 30.4,-190.5 2.1,-13 0.8,-5.6 c 581.2,-87.4 531.9,-255.8 610.8,-752.4" /><path
         id="path72"
         style="fill:#f06e67;fill-opacity:1;fill-rule:nonzero;stroke:none"
         d="m 3986.3,3482.7 c -226.2,-26.6 -386.3,28.2 -461.5,63.3 l 20.2,127.2 189.8,4.5 15.7,0.3 15.6,-0.3 189.8,-4.5 30.4,-190.5" /><path
         id="path74"
         style="fill:#52b0bf;fill-opacity:1;fill-rule:nonzero;stroke:none"
         d="m 4599.9,2711.6 c -115.6,-0.8 -236.1,-1.3 -359.4,-1.7 -443.7,-1.5 -922.9,-0.9 -1339.4,1.7 77.9,496.6 31.7,666.1 610.6,752.4 l 0.1,0.5 239.7,-202 236.8,207.2 0.8,-5.6 c 169.9,-25.5 285.9,-58 367,-103.6 196.3,-110.4 188,-297.4 243.8,-648.9" /><path
         id="path76"
         style="fill:#57b6c3;fill-opacity:1;fill-rule:nonzero;stroke:none"
         d="m 4240.5,2709.9 v 299.2 c 0,131.5 43,253 115.6,351.3 196.3,-110.3 188,-297.3 243.8,-648.8 -115.6,-0.8 -236.1,-1.3 -359.4,-1.7" /><path
         id="path78"
         style="fill:#bde9e4;fill-opacity:1;fill-rule:nonzero;stroke:none"
         d="m 3125.3,2710.39 c -76.33,0.32 -151.25,0.71 -224.2,1.21 v 0 c 73,-0.47 147.88,-0.87 224.2,-1.21 m -145.47,446.79 c 22.73,67.19 55.2,120.87 108.09,164.52 -52.71,-43.64 -85.26,-97.36 -108.09,-164.52" /><path
         id="path80"
         style="fill:#c79e8b;fill-opacity:1;fill-rule:nonzero;stroke:none"
         d="m 3236.82,2709.98 c -37.47,0.12 -74.65,0.26 -111.52,0.41 -76.32,0.34 -151.2,0.74 -224.2,1.21 v 0 c 108.24,-0.68 220.73,-1.22 335.72,-1.62" /><path
         id="path82"
         style="fill:#57b6c3;fill-opacity:1;fill-rule:nonzero;stroke:none"
         d="m 3260.5,2709.9 c -7.9,0.03 -15.8,0.05 -23.68,0.08 -114.99,0.4 -227.48,0.94 -335.72,1.62 30.77,193.49 42.06,337.14 78.73,445.58 22.83,67.16 55.38,120.88 108.09,164.52 16.82,13.88 35.69,26.74 56.98,38.7 72.6,-98.3 115.6,-219.8 115.6,-351.3 v -299.2" /><path
         id="path84"
         style="fill:#5d7e96;fill-opacity:1;fill-rule:nonzero;stroke:none"
         d="m 3751.5,3262.5 -76.01,64.06 0.01,2.24 77.4,-65.08 -1.4,-1.22" /><path
         id="path86"
         style="fill:#4584a8;fill-opacity:1;fill-rule:nonzero;stroke:none"
         d="m 3674,2968.8 1.49,357.76 76.01,-64.06 1.4,1.22 0.5,-0.42 2.1,-293.9 -81.5,-0.6" /><path
         id="path88"
         style="fill:#bfe9e2;fill-opacity:1;fill-rule:nonzero;stroke:none"
         d="m 3712.3,3211.4 c 12.98,0 23.5,-10.52 23.5,-23.5 0,-12.98 -10.52,-23.5 -23.5,-23.5 -12.98,0 -23.5,10.52 -23.5,23.5 0,12.98 10.52,23.5 23.5,23.5" /><path
         id="path90"
         style="fill:#bfe9e2;fill-opacity:1;fill-rule:nonzero;stroke:none"
         d="m 3712.3,3082.1 c 12.98,0 23.5,-10.52 23.5,-23.5 0,-12.98 -10.52,-23.5 -23.5,-23.5 -12.98,0 -23.5,10.52 -23.5,23.5 0,12.98 10.52,23.5 23.5,23.5" /><path
         id="path92"
         style="fill:#64cbcc;fill-opacity:1;fill-rule:nonzero;stroke:none"
         d="m 3751.6,3265.3 -234.3,225.8 -18.5,2.1 c -44.6,5 -88.9,-11.6 -119.2,-44.7 l 29.8,-186 64.3,37.6 c 33.3,19.5 73.2,24.5 110.2,13.7 l 167.7,-48.5" /><path
         id="path94"
         style="fill:#64cbcc;fill-opacity:1;fill-rule:nonzero;stroke:none"
         d="m 3751.6,3265.3 234.3,225.8 18.5,2.1 c 44.6,5 88.9,-11.6 119.2,-44.7 l -29.8,-186 -28.7,16.8 c -56,32.8 -123.1,41.2 -185.5,23.1 l -128,-37.1" /><path
         id="path96"
         style="fill:#4585a8;fill-opacity:1;fill-rule:nonzero;stroke:none"
         d="m 3913.3,2933.4 v 24 c 0,6.3 5.1,11.5 11.5,11.5 h 259.1 c 6.3,0 11.5,-5.1 11.5,-11.5 v -24 c 0,-6.3 -5.1,-11.5 -11.5,-11.5 h -259.1 c -6.3,0 -11.5,5.2 -11.5,11.5" /><path
         id="path98"
         style="fill:#f06e67;fill-opacity:1;fill-rule:nonzero;stroke:none"
         d="m 4163.44,4116.72 c 75.75,24.41 152.85,-4.51 172.2,-64.59 19.37,-60.08 -26.34,-128.58 -102.1,-152.98 -75.74,-24.41 -152.84,4.51 -172.2,64.59 -19.36,60.08 26.35,128.58 102.1,152.98" /><path
         id="path100"
         style="fill:#dd5a5d;fill-opacity:1;fill-rule:nonzero;stroke:none"
         d="m 4204.88,3925.93 c -37.98,0 -70.26,19.95 -77.27,50.7 -8.53,37.37 23.5,76.55 71.53,87.5 8.51,1.94 16.96,2.87 25.13,2.87 37.98,0 70.27,-19.95 77.28,-50.7 8.52,-37.36 -23.5,-76.54 -71.54,-87.5 -8.51,-1.94 -16.95,-2.87 -25.13,-2.87" /><path
         id="path102"
         style="fill:#b33a54;fill-opacity:1;fill-rule:nonzero;stroke:none"
         d="m 4279.6,4049.5 c -21.6,17.3 -49.1,26.4 -76.4,25 -27.2,-1.3 -53.9,-13 -73.8,-32.3 1.1,-7.2 2.1,-14.4 3.2,-21.6 18.7,21.4 44.6,35.7 72.1,40 27.5,4.3 56.3,-1.4 74.9,-11.1" /><path
         id="path104"
         style="fill:#f06e67;fill-opacity:1;fill-rule:nonzero;stroke:none"
         d="m 3150.47,4052.34 c 19.36,60.08 96.46,89 172.21,64.59 75.74,-24.41 121.46,-92.9 102.09,-152.98 -19.35,-60.09 -96.45,-89.01 -172.21,-64.6 -75.74,24.41 -121.46,92.9 -102.09,152.99" /><path
         id="path106"
         style="fill:#dd5a5d;fill-opacity:1;fill-rule:nonzero;stroke:none"
         d="m 3281.47,3926.19 c -8.18,0 -16.62,0.92 -25.13,2.86 -48.04,10.96 -80.07,50.14 -71.54,87.51 7.01,30.74 39.3,50.69 77.28,50.69 8.18,0 16.61,-0.92 25.13,-2.86 48.03,-10.96 80.06,-50.14 71.53,-87.51 -7.01,-30.75 -39.3,-50.69 -77.27,-50.69" /><path
         id="path108"
         style="fill:#b33a54;fill-opacity:1;fill-rule:nonzero;stroke:none"
         d="m 3206.6,4049.5 c 21.6,17.3 49.1,26.4 76.4,25 27.2,-1.3 53.9,-13 73.8,-32.3 -1.1,-7.2 -2.1,-14.4 -3.2,-21.6 -18.7,21.4 -44.6,35.7 -72.1,40 -27.4,4.4 -56.2,-1.4 -74.9,-11.1" /><path
         id="path110"
         style="fill:#f79179;fill-opacity:1;fill-rule:nonzero;stroke:none"
         d="m 4195.4,4152.8 c 0,-296.5 -202.5,-594.1 -452.3,-594.1 -36.1,0 -71.3,6.2 -105,17.8 -199.2,68.2 -347.4,322.7 -347.4,576.3 v 1.9 c 0.8,295.4 203.1,477.7 452.4,477.7 249.8,0 452.3,-183.1 452.3,-479.6" /><path
         id="path112"
         style="fill:#6e2544;fill-opacity:1;fill-rule:nonzero;stroke:none"
         d="m 4308.6,4540.1 c -30.6,-5.2 -69.8,-24 -85,-33.8 36.8,-12.1 72.8,-61.9 81.9,-125.4 -26.5,11.5 -53.8,2.4 -70.8,-3.6 l -2.3,-0.8 c 2.4,-103.6 -16.3,-268.7 -51.9,-368.5 0,70.1 -18.4,128.8 -40.5,190.2 -22,61.3 -38.1,93 -44.8,180.9 l -0.1,0.6 c -247.7,-0.4 -459.9,6.9 -694.2,-11.5 l -0.1,-1.3 c -4,-90.4 -26.1,-111.2 -50.2,-163.7 -24.1,-52.7 -43.8,-123 -43.8,-204.6 -39.9,91.6 -44.5,370.3 -44.5,370.3 0,0 -46.5,46 -102.3,42.5 16.5,36.1 70.2,77.1 118.8,67.1 -4.7,39.9 -49.8,91.8 -96.4,112 77.2,18.9 117.7,-6.1 147.6,-49.6 9.4,37.7 25.5,71.9 47.3,102.4 152.7,214.2 580.3,245.4 849.9,35.4 -40,-3.8 -68,-21.1 -91.3,-44.5 59.4,5.7 119.2,-7.7 174.9,-93.5 l -2.2,-0.6" /><path
         id="path114"
         style="fill:#915267;fill-opacity:1;fill-rule:nonzero;stroke:none"
         d="m 4232.5,4376.6 c 2.4,-103.6 -16.3,-268.7 -51.9,-368.5 0,70.1 -18.4,128.8 -40.5,190.2 -22,61.3 -38.1,93 -44.8,180.9 l 1,1.8 138.3,-3.6 -2.1,-0.8" /><path
         id="path116"
         style="fill:#915267;fill-opacity:1;fill-rule:nonzero;stroke:none"
         d="m 3401,4366.8 c -4,-90.4 -26.1,-111.2 -50.2,-163.7 -24.1,-52.7 -43.8,-123 -43.8,-204.6 -39.9,91.6 -54.2,244.8 -44.5,370.3 l 138.5,-2" /><path
         id="path118"
         style="fill:#9f3f5e;fill-opacity:1;fill-rule:nonzero;stroke:none"
         d="m 4311,4540.5 -2.4,-0.5 c -92.2,67.2 -215.4,92.4 -325.7,61.9 30.5,42.5 78,72.5 129.5,81.7 -108.4,35.8 -220.9,47.4 -331.6,37.4 46.4,24.1 99.4,35.3 151.6,32.1 -184.4,59.8 -401.9,15.5 -554.9,-109.9 152.7,214.2 580.3,245.4 849.9,35.4 -40,-3.8 -68,-21.1 -91.3,-44.5 59.4,5.6 119.2,-7.8 174.9,-93.6" /><path
         id="path120"
         style="fill:#6e2544;fill-opacity:1;fill-rule:nonzero;stroke:none"
         d="m 3630.3,4155.2 c -27,29 -70.5,46.3 -118.3,42.9 -47.7,-3.3 -88.3,-26.4 -111,-58.7 1.5,58.7 47.4,107.7 107.2,111.9 60,4.1 112.4,-38.1 122.1,-96.1" /><path
         id="path122"
         style="fill:#6e2544;fill-opacity:1;fill-rule:nonzero;stroke:none"
         d="m 3855.9,4155.2 c 27,29 70.5,46.3 118.3,42.9 47.7,-3.3 88.3,-26.4 111,-58.7 -1.5,58.7 -47.4,107.7 -107.2,111.9 -59.9,4.1 -112.4,-38.1 -122.1,-96.1" /><path
         id="path124"
         style="fill:#1d253b;fill-opacity:1;fill-rule:nonzero;stroke:none"
         d="m 3559.5,4079 c 15.57,0 28.2,-12.63 28.2,-28.2 0,-15.57 -12.63,-28.2 -28.2,-28.2 -15.57,0 -28.2,12.63 -28.2,28.2 0,15.57 12.63,28.2 28.2,28.2" /><path
         id="path126"
         style="fill:#1d253b;fill-opacity:1;fill-rule:nonzero;stroke:none"
         d="m 3922.2,4079 c 15.57,0 28.2,-12.63 28.2,-28.2 0,-15.57 -12.63,-28.2 -28.2,-28.2 -15.58,0 -28.2,12.63 -28.2,28.2 0,15.57 12.62,28.2 28.2,28.2" /><path
         id="path128"
         style="fill:#df5a5d;fill-opacity:1;fill-rule:nonzero;stroke:none"
         d="m 3710.8,3721.5 c 25.9,-6.3 52.9,-8.2 79.5,-5.6 -8,-14.5 -24.4,-24 -41,-23.6 -16.6,0.3 -32.6,10.4 -38.5,29.2" /><path
         id="path130"
         style="fill:#df5a5d;fill-opacity:1;fill-rule:nonzero;stroke:none"
         d="m 3707.48,4059.63 c 4.6,-14.24 7.02,-29.12 7.02,-43.98 0,-18.18 -3.62,-36.31 -11.31,-53.33 l -1.51,-3.34 1,-3.52 c 6.41,-22.52 12.91,-45.02 19.3,-67.58 1.51,-5.32 7.03,-8.41 12.35,-6.9 5.31,1.5 8.4,7.03 6.89,12.35 -6.41,22.63 -12.91,45.13 -19.3,67.6 l -9.62,-2.73 9.11,-4.12 c 8.93,19.74 13.09,40.74 13.09,61.57 0,17.03 -2.77,33.96 -7.98,50.12 -1.7,5.25 -7.33,8.14 -12.59,6.45 -5.25,-1.7 -8.14,-7.33 -6.45,-12.59" /><path
         id="path132"
         style="fill:#ffffff;fill-opacity:1;fill-rule:nonzero;stroke:none"
         d="m 3601.6,3834 c 101.5,-19.3 207.5,-14.1 309.7,14 6.1,-17.4 -2.4,-37.3 -16.3,-49.4 -13.9,-12.1 -32.1,-17.8 -50,-22.1 -51.9,-12.4 -106.1,-15.5 -159.1,-8.9 -21.9,2.7 -44.2,7.3 -62.7,19.4 -18.5,12.1 -32.5,33.1 -21.6,47" /><path
         id="path134"
         style="fill:#1f1c37;fill-opacity:1;fill-rule:nonzero;stroke:none"
         d="m 5662.3,1523.4 847.9,17.2 95.9,-688.702 -1003.3,48 59.5,623.502" /><path
         id="path136"
         style="fill:#d5595b;fill-opacity:1;fill-rule:nonzero;stroke:none"
         d="m 6946.3,290.699 c -226.6,-1.5 -471.6,-2.301 -719.5,-2.398 -33.7,-0.102 -67.3,-0.102 -101,-0.102 h -49 c -40,0 -80.1,0 -119.9,0.102 -244.4,0.199 -486,1 -709.5,2.398 69.4,442.301 83.5,625.199 495.29,720.901 38.31,8.9 80,17.1 125.41,24.6 14.4,2.3 29.1,4.7 44.3,6.9 1.5,9 3.3,20 5.29,32.3 2.61,16.8 5.61,36 8.81,55.7 7,44.8 14.49,92.3 19.1,121.1 110.2,4.7 212.9,4.7 323,0 l 26.7,-167.9 2.3,-14.5 4.2,-26.7 c 28.7,-4.3 56,-8.8 81.9,-13.6 32.5,-6 62.8,-12.3 91.09,-19.1 C 6880.7,914.102 6876.2,732 6946.3,290.699" /><path
         id="path138"
         style="fill:#ca4954;fill-opacity:1;fill-rule:nonzero;stroke:none"
         d="m 6295.3,1084.4 c -187.1,-36.7 -308.5,10.9 -368.8,46.8 7,44.8 14.5,92.3 19.1,121.1 110.2,4.7 212.9,4.7 323,0 l 26.7,-167.9" /><path
         id="path140"
         style="fill:#a92f59;fill-opacity:1;fill-rule:nonzero;stroke:none"
         d="M 6334.2,997.602 6226.8,288.301 c -36.1,-0.102 -72.3,-0.102 -108.4,-0.102 h -31.8 c -43.3,0 -86.5,0 -129.6,0.102 l -76.7,710.301 c 15.6,-20.301 39.6,-65.204 66.2,-119.602 64.5,-132.301 253.2,-133.199 319,-1.5 26.9,53.801 51.1,98.102 67,118.102 l 1.7,2" /><path
         id="path142"
         style="fill:#646c9a;fill-opacity:1;fill-rule:nonzero;stroke:none"
         d="m 6086.6,288.199 c -188.6,0 -377.21,0.403 -558.6,1.102 -95.8,0.398 -189.6,0.801 -280.4,1.398 45.8,292.102 67.6,471.102 195.6,586.403 83.9,75.589 213.3,123.998 425.1,159.098 l 218.3,-748.001" /><path
         id="path144"
         style="fill:#646c9a;fill-opacity:1;fill-rule:nonzero;stroke:none"
         d="m 6946.3,290.699 c -259.5,-1.699 -543.3,-2.5 -827.9,-2.5 l 265.4,741.401 c 497.9,-91.299 487.5,-266.901 562.5,-738.901" /><g
         id="g146"><g
           clip-path="url(#clipPath152)"
           id="g148"><path
             id="path154"
             style="fill:#bdcdd7;fill-opacity:1;fill-rule:nonzero;stroke:none"
             d="m 6934.85,290.629 h 11.4492 v 0.0703 H 6934.85 Z" /></g></g><path
         id="path156"
         style="fill:#b26a7a;fill-opacity:1;fill-rule:nonzero;stroke:none"
         d="m 6909.26,290.469 c 12.4,0.07 24.75,0.152 37.04,0.23 v 0 c -3.82,-0.019 -7.63,-0.051 -11.45,-0.07 -8.51,-0.059 -17.03,-0.109 -25.59,-0.16" /><path
         id="path158"
         style="fill:#bdcdd7;fill-opacity:1;fill-rule:nonzero;stroke:none"
         d="m 6946.3,290.699 c -20.96,131.981 -35.26,240.789 -55.85,331.043 21.04,-90.972 35.32,-200.113 55.85,-331.043" /><path
         id="path160"
         style="fill:#b26a7a;fill-opacity:1;fill-rule:nonzero;stroke:none"
         d="m 6946.3,290.699 c -21.16,133.18 -35.53,242.801 -56.43,333.543 0.19,-0.82 0.38,-1.672 0.58,-2.5 20.59,-90.254 34.89,-199.062 55.85,-331.043 v 0" /><path
         id="path162"
         style="fill:#717aa4;fill-opacity:1;fill-rule:nonzero;stroke:none"
         d="m 6665.9,289.301 v 294.601 c 0,107.797 38.1,213.098 91.8,297.899 70.16,-63.153 106.3,-146.813 132.17,-257.559 20.9,-90.742 35.27,-200.363 56.43,-333.543 v 0 c -12.29,-0.078 -24.64,-0.16 -37.04,-0.23 -79.19,-0.481 -160.53,-0.828 -243.36,-1.168" /><path
         id="path164"
         style="fill:#8792b4;fill-opacity:1;fill-rule:nonzero;stroke:none"
         d="m 5917.7,1075.5 176.8,-787.301 h -17.7 l -316.4,501.102 117.2,79.898 -161.1,25.699 7.2,62.801 c 2.3,19.5 8.9,37.903 19,54.001 16.6,26.5 42.4,46.6 73.7,55.7 l 96.8,28.1 4.5,-20" /><path
         id="path166"
         style="fill:#8792b4;fill-opacity:1;fill-rule:nonzero;stroke:none"
         d="m 6339.4,869.199 117.2,-79.898 -330.8,-501.102 h -18.3 l 190.2,781.601 6.2,25.5 96.7,-28.1 c 31.6,-9.2 57.9,-29.8 74.4,-56.8 9.7,-15.798 16,-33.798 18.2,-52.798 l 7.3,-62.801 -161.1,-25.602" /><path
         id="path168"
         style="fill:#717aa4;fill-opacity:1;fill-rule:nonzero;stroke:none"
         d="m 5528,289.301 v 0 c -95.8,0.398 -189.6,0.801 -280.4,1.398 45.8,292.102 67.6,471.102 195.6,586.403 53.7,-84.793 84.8,-185.403 84.8,-293.2 V 289.301" /><path
         id="path170"
         style="fill:#d5595b;fill-opacity:1;fill-rule:nonzero;stroke:none"
         d="m 6541.8,1731.9 c 0,-296.5 -202.5,-594.1 -452.3,-594.1 -36.1,0 -71.3,6.2 -105,17.8 -199.2,68.2 -347.4,322.7 -347.4,576.3 v 1.9 c 0.8,295.4 203.1,477.7 452.4,477.7 249.7,0 452.3,-183.1 452.3,-479.6" /><path
         id="path172"
         style="fill:#30284d;fill-opacity:1;fill-rule:nonzero;stroke:none"
         d="m 6164.6,1762.8 c 27.3,37.3 69.8,57.7 112.1,53.7 42.3,-4 83.4,-32.2 108.6,-74.4 -59.9,29.3 -125.4,40 -220.7,20.7" /><path
         id="path174"
         style="fill:#30284d;fill-opacity:1;fill-rule:nonzero;stroke:none"
         d="m 6009.9,1762.8 c -27.3,37.3 -69.8,57.7 -112.1,53.7 -42.3,-4 -83.41,-32.2 -108.6,-74.4 59.9,29.3 125.4,40 220.7,20.7" /><path
         id="path176"
         style="fill:#1d253b;fill-opacity:1;fill-rule:nonzero;stroke:none"
         d="m 6268.7,1647.9 c 15.58,0 28.2,-12.63 28.2,-28.2 0,-15.58 -12.62,-28.2 -28.2,-28.2 -15.57,0 -28.2,12.62 -28.2,28.2 0,15.57 12.63,28.2 28.2,28.2" /><path
         id="path178"
         style="fill:#1d253b;fill-opacity:1;fill-rule:nonzero;stroke:none"
         d="m 5906.1,1647.9 c 15.57,0 28.2,-12.63 28.2,-28.2 0,-15.58 -12.63,-28.2 -28.2,-28.2 -15.57,0 -28.2,12.62 -28.2,28.2 0,15.57 12.63,28.2 28.2,28.2" /><path
         id="path180"
         style="fill:#611e33;fill-opacity:1;fill-rule:nonzero;stroke:none"
         d="m 6097.78,1650.73 c -4.16,-14.65 -6.35,-29.86 -6.35,-45.14 0,-22.59 4.81,-45.35 15.19,-66.5 l 8.98,4.41 -9.71,2.42 c -5.69,-22.78 -11.39,-45.5 -17,-68.34 -1.31,-5.36 1.97,-10.78 7.33,-12.1 5.36,-1.31 10.78,1.97 12.1,7.33 5.58,22.77 11.28,45.46 16.98,68.26 l 0.88,3.55 -1.61,3.28 c -8.95,18.25 -13.14,37.93 -13.14,57.69 0,13.36 1.92,26.74 5.59,39.68 1.51,5.31 -1.57,10.84 -6.89,12.35 -5.31,1.51 -10.84,-1.58 -12.35,-6.89" /><path
         id="path182"
         style="fill:#ca4954;fill-opacity:1;fill-rule:nonzero;stroke:none"
         d="m 6154.5,1278.7 c -25.7,-7.4 -52.6,-10.4 -79.2,-8.8 8.6,-14.2 25.4,-22.9 41.9,-22 16.5,1 32.1,11.7 37.3,30.8" /><path
         id="path184"
         style="fill:#ffffff;fill-opacity:1;fill-rule:nonzero;stroke:none"
         d="m 5969.9,1433.4 c 85.6,-28.7 198.8,-27.2 265.1,3.1 19.3,-55.1 -2.1,-111 -119.7,-115.7 -150.5,-6.1 -169.4,69.2 -145.4,112.6" /><path
         id="path186"
         style="fill:#30284d;fill-opacity:1;fill-rule:nonzero;stroke:none"
         d="m 6766.3,875.102 c -164.3,-86.301 -257.6,40.199 -284.6,452.798 -37.4,571.3 -142.9,728.5 -267.2,776.2 -87.8,33.6 -155.1,-8.3 -155.1,-8.3 l -0.1,0.6 c -125.7,46.5 -250.3,-47.1 -302.4,-288.9 -40.9,-189.8 -29.3,-692.1 -81.3,-857.102 -51.9,-164.898 -215.3,-58.199 -215.3,-58.199 141.8,89.199 62.8,453.501 117.7,845.601 49.6,354.4 164.6,479.9 251,531.9 21.5,13 41.2,21.4 57.6,27.7 81.7,31 152,-31.3 152,-31.3 l 0.4,-3.3 c 263.2,171.8 469.5,-84.7 516,-300 46.4,-214.6 71,-490.4 91.6,-698.4 6.6,-66.5 12.79,-126.1 19.1,-174.6 20.5,-156.698 100.6,-214.698 100.6,-214.698" /><path
         id="path188"
         style="fill:#453361;fill-opacity:1;fill-rule:nonzero;stroke:none"
         d="m 6646.6,1264.5 c -54.2,244.1 -48.5,653.9 -220.9,880.9 -159.7,210.4 -388.5,78.9 -388.5,78.9 -79.1,58.4 -160.2,55.2 -208.3,45.3 21.5,13 41.2,21.4 57.6,27.7 81.7,31 152,-31.3 152,-31.3 l 0.4,-3.3 c 263.2,171.8 469.5,-84.7 516,-300 46.5,-214.5 71.1,-490.2 91.7,-698.2" /><path
         id="path190"
         style="fill:#f79179;fill-opacity:1;fill-rule:nonzero;stroke:none"
         d="m 2267.2,290.699 c -532,-3.398 -1166.5,-3.398 -1698.802,0 63.301,403.203 44.704,590.703 345.301,693.301 69.602,23.7 156.501,42.9 265.301,59.1 l 0.1,0.5 c 8,49.9 25.1,158.1 33,208.6 110.2,4.7 300.9,4.7 411,0 l 30.4,-190.5 2.1,-13 0.8,-5.59 c 93.4,-14.11 170.5,-30.21 234.5,-49.508 334.2,-100.403 310.1,-285.903 376.3,-702.903" /><path
         id="path192"
         style="fill:#f06e67;fill-opacity:1;fill-rule:nonzero;stroke:none"
         d="m 1653.6,1061.8 c -226.2,-26.6 -386.3,28.2 -461.5,63.3 l 20.2,127.2 189.8,4.5 15.7,0.3 15.6,-0.3 189.8,-4.5 30.4,-190.5" /><path
         id="path194"
         style="fill:#c4cdd3;fill-opacity:1;fill-rule:nonzero;stroke:none"
         d="M 1179.4,1072.8 1413.6,890.199 1663,1069.3 1664.1,900.699 1415.9,740.301 1140.7,1001.4" /><path
         id="path196"
         style="fill:#191930;fill-opacity:1;fill-rule:nonzero;stroke:none"
         d="M 2267.2,290.699 C 2156.8,290 2042.1,289.5 1924.8,289.102 c -339.9,-1.204 -701.7,-1.204 -1040.499,0.097 -108.102,0.403 -213.903,0.801 -315.903,1.5 49.598,316.699 48.903,500.199 191.899,614.199 C 799.301,936.102 849.199,962 913.699,984 l 140.601,-2 362.9,-233.398 473.7,245.097 c 71,-21.398 125.8,-46.597 168.7,-77.097 159.3,-112.602 155.5,-297.5 207.6,-625.903" /><path
         id="path198"
         style="fill:#231f3d;fill-opacity:1;fill-rule:nonzero;stroke:none"
         d="M 2267.2,290.699 C 2156.8,290 2042.1,289.5 1924.8,289.102 v 288.796 c 0,131.102 51.2,250.301 134.8,338.704 159.3,-112.602 155.5,-297.5 207.6,-625.903" /><path
         id="path200"
         style="fill:#231f3d;fill-opacity:1;fill-rule:nonzero;stroke:none"
         d="M 884.398,577.898 V 289.199 c -108.097,0.403 -213.902,0.801 -315.898,1.5 49.602,316.699 48.902,500.199 191.898,614.199 77.102,-87.097 124,-201.597 124,-327" /><path
         id="path202"
         style="fill:#ffffff;fill-opacity:1;fill-rule:nonzero;stroke:none"
         d="m 1413.8,891 -68.7,-83.898 -170.8,183.199 6.4,80.899 233.1,-180.2" /><path
         id="path204"
         style="fill:#ffffff;fill-opacity:1;fill-rule:nonzero;stroke:none"
         d="M 1660.1,1070.3 1413.3,890 l 71.1,-85.898 212.8,243.398 -37.1,22.8" /><path
         id="path206"
         style="fill:#30284d;fill-opacity:1;fill-rule:nonzero;stroke:none"
         d="m 1182.8,1042.7 19.1,137.6 c 0,0 -139.8,48.6 -229.302,-123 L 1417.9,732.898 1862.8,1043.2 c 0,0 -92.4,168.6 -229.7,147.6 l 22.5,-140.1 -237.7,-298.7 -235.1,290.7" /><path
         id="path208"
         style="fill:#231f3d;fill-opacity:1;fill-rule:nonzero;stroke:none"
         d="M 1421.8,734.301 1846,1072.8 c 0,0 53.8,12.5 99.5,-20.8 36.7,-26.7 29.3,-83.699 -12.5,-101.398 L 1421.8,734.301" /><path
         id="path210"
         style="fill:#231f3d;fill-opacity:1;fill-rule:nonzero;stroke:none"
         d="M 1417.2,735.398 986.199,1072.8 c 0,0 -66.496,25.5 -112.699,-29.9 C 851.898,1017 862.402,977.5 893.199,964 L 1417.2,735.398" /><path
         id="path212"
         style="fill:#ffffff;fill-opacity:1;fill-rule:nonzero;stroke:none"
         d="m 1488.69,775.941 c -3.5,-18.261 -4.9,-36.582 -4.9,-54.91 0.07,-76.492 24.15,-153.179 24.08,-227.59 0,-18.109 -1.41,-36.07 -4.88,-53.882 -0.53,-2.707 1.24,-5.34 3.95,-5.86 2.71,-0.527 5.34,1.242 5.87,3.953 3.61,18.547 5.06,37.168 5.06,55.789 -0.07,76.508 -24.15,153.188 -24.08,227.59 0,17.821 1.37,35.5 4.72,53.028 0.52,2.711 -1.26,5.332 -3.97,5.851 -2.71,0.52 -5.33,-1.262 -5.85,-3.969" /><path
         id="path214"
         style="fill:#ffffff;fill-opacity:1;fill-rule:nonzero;stroke:none"
         d="m 1327.66,779.148 c 18.08,-24.679 25.19,-55.628 25.18,-87.199 0,-12.707 -1.15,-25.488 -3.18,-37.937 -6.96,-43.602 -23.58,-85.582 -34.32,-129.532 -5.65,-22.968 -9.6,-47.082 -9.6,-71.031 0,-21.898 3.31,-43.687 11.73,-64.238 1.05,-2.563 3.97,-3.781 6.53,-2.731 2.55,1.04 3.77,3.961 2.73,6.52 -7.83,19.09 -10.99,39.551 -10.99,60.449 0,22.852 3.79,46.199 9.32,68.66 10.47,43.063 27.24,85.282 34.48,130.301 2.1,12.922 3.3,26.231 3.3,39.539 0,33.012 -7.4,66.16 -27.11,93.102 -1.63,2.23 -4.76,2.719 -6.98,1.078 -2.23,-1.629 -2.72,-4.758 -1.09,-6.981" /><path
         id="path216"
         style="fill:#d26232;fill-opacity:1;fill-rule:nonzero;stroke:none"
         d="m 1896,1914.3 c -0.8,-119.7 -6.4,-241.9 -49.7,-353.6 -43.4,-111.7 -130.7,-212.6 -243.5,-248.2 -135.2,16 -270.2,32.2 -398.6,47.9 -36.6,16.1 -45.1,32.9 -124.1,61.3 -109.803,133.6 -156.303,299.3 -149.1,461.6 1.598,37.1 6.004,73.9 13,110.1 -37.902,14.3 -50.301,44 -48.801,71.9 1.403,27.8 14.602,53.8 30.801,76.5 46.004,64.5 119,109.2 197.7,121 -10.2,26.5 -1.7,54.11 15.6,70.5 17.2,16.4 41,24 64.2,29.5 131.5,31 273.9,7.1 391.3,-64.5 48.4,-29.6 92.5,-67.2 130,-112.4 48.1,-5.9 97,-14.9 139.8,-37.8 42.8,-22.9 79.2,-61.7 88.6,-109.1 9.4,-47.4 -14.1,-102.2 -57.2,-124.7" /><path
         id="path218"
         style="fill:#f06e67;fill-opacity:1;fill-rule:nonzero;stroke:none"
         d="m 1830.62,1695.99 c 75.75,24.41 152.85,-4.51 172.21,-64.59 19.36,-60.09 -26.35,-128.58 -102.1,-152.99 -75.75,-24.41 -152.84,4.51 -172.2,64.6 -19.37,60.08 26.34,128.57 102.09,152.98" /><path
         id="path220"
         style="fill:#dd5a5d;fill-opacity:1;fill-rule:nonzero;stroke:none"
         d="m 1872.03,1504.96 c -37.98,0 -70.25,19.94 -77.27,50.69 -7.48,32.78 16.26,66.96 54.63,82.25 -0.24,-18.2 -1.34,-37.66 -2.29,-59.5 7.23,21.2 12.9,42.67 17.26,64.3 0.64,0.15 1.29,0.31 1.93,0.45 8.51,1.95 16.96,2.87 25.14,2.87 37.97,0 70.26,-19.94 77.27,-50.69 8.53,-37.37 -23.51,-76.55 -71.54,-87.51 -8.51,-1.94 -16.95,-2.86 -25.13,-2.86" /><path
         id="path222"
         style="fill:#b33a54;fill-opacity:1;fill-rule:nonzero;stroke:none"
         d="m 1946.9,1628.7 c -21.6,17.3 -49.1,26.4 -76.4,25 -27.2,-1.3 -53.9,-13 -73.8,-32.3 1.1,-7.2 2.1,-14.4 3.2,-21.6 18.7,21.4 44.6,35.7 72.1,40 27.5,4.4 56.3,-1.4 74.9,-11.1" /><path
         id="path224"
         style="fill:#f06e67;fill-opacity:1;fill-rule:nonzero;stroke:none"
         d="m 817.891,1631.66 c 19.359,60.09 96.461,89 172.207,64.6 75.742,-24.4 121.462,-92.9 102.102,-152.99 -19.36,-60.08 -96.462,-89 -172.216,-64.59 -75.746,24.41 -121.457,92.9 -102.093,152.98" /><path
         id="path226"
         style="fill:#dd5a5d;fill-opacity:1;fill-rule:nonzero;stroke:none"
         d="m 949.043,1505.35 c -8.18,0 -16.617,0.92 -25.133,2.86 -48.031,10.96 -80.058,50.14 -71.539,87.51 7.016,30.74 39.305,50.69 77.277,50.69 8.18,0 16.618,-0.92 25.129,-2.86 1.844,-0.42 3.661,-0.89 5.453,-1.39 7.196,-40.2 17.083,-79.56 29.274,-117.16 v 0 0 c -7.473,42.63 -10.555,77.17 -8.5,109.07 32.806,-16.78 52.166,-47.99 45.306,-78.03 -7.01,-30.74 -39.294,-50.69 -77.267,-50.69" /><path
         id="path228"
         style="fill:#b33a54;fill-opacity:1;fill-rule:nonzero;stroke:none"
         d="m 874,1628.7 c 21.602,17.3 49.102,26.4 76.398,25 27.301,-1.4 53.902,-13 73.802,-32.3 -1.1,-7.2 -2.1,-14.4 -3.2,-21.6 -18.7,21.4 -44.598,35.7 -72.098,40 -27.5,4.4 -56.304,-1.4 -74.902,-11.1" /><path
         id="path230"
         style="fill:#f79179;fill-opacity:1;fill-rule:nonzero;stroke:none"
         d="m 1862.7,1732 c 0,-296.5 -202.5,-594.1 -452.3,-594.1 -36.1,0 -71.3,6.2 -105,17.8 -199.2,68.2 -347.404,322.7 -347.404,576.3 v 1.9 c 0.805,295.4 203.104,477.7 452.404,477.7 249.8,0 452.3,-183.1 452.3,-479.6" /><path
         id="path232"
         style="fill:#d26232;fill-opacity:1;fill-rule:nonzero;stroke:none"
         d="m 1297.6,1734.3 c -27,29 -70.5,46.3 -118.3,42.9 -47.7,-3.3 -88.3,-26.4 -111,-58.7 1.5,58.7 47.4,107.7 107.2,111.9 60,4.2 112.4,-38 122.1,-96.1" /><path
         id="path234"
         style="fill:#d26232;fill-opacity:1;fill-rule:nonzero;stroke:none"
         d="m 1523.3,1734.3 c 27,29 70.5,46.3 118.3,42.9 47.7,-3.3 88.3,-26.4 111,-58.7 -1.5,58.7 -47.4,107.7 -107.2,111.9 -60,4.2 -112.4,-38 -122.1,-96.1" /><path
         id="path236"
         style="fill:#1d253b;fill-opacity:1;fill-rule:nonzero;stroke:none"
         d="m 1226.8,1658.1 c 15.57,0 28.2,-12.62 28.2,-28.2 0,-15.57 -12.63,-28.2 -28.2,-28.2 -15.57,0 -28.2,12.63 -28.2,28.2 0,15.58 12.63,28.2 28.2,28.2" /><path
         id="path238"
         style="fill:#1d253b;fill-opacity:1;fill-rule:nonzero;stroke:none"
         d="m 1589.5,1658.1 c 15.57,0 28.2,-12.62 28.2,-28.2 0,-15.57 -12.63,-28.2 -28.2,-28.2 -15.57,0 -28.2,12.63 -28.2,28.2 0,15.58 12.63,28.2 28.2,28.2" /><path
         id="path240"
         style="fill:#df5a5d;fill-opacity:1;fill-rule:nonzero;stroke:none"
         d="m 1378.1,1300.7 c 25.9,-6.3 52.9,-8.2 79.5,-5.6 -8,-14.5 -24.4,-24 -41,-23.6 -16.6,0.4 -32.5,10.3 -38.5,29.2" /><path
         id="path242"
         style="fill:#df5a5d;fill-opacity:1;fill-rule:nonzero;stroke:none"
         d="m 1398.66,1647.85 c -2.84,-12.27 -4.32,-24.84 -4.32,-37.45 0,-25.16 5.91,-50.49 18.73,-73.47 l 8.73,4.87 -9.81,1.92 c -4.5,-22.97 -9.1,-45.87 -13.61,-68.9 -1.06,-5.42 2.48,-10.67 7.9,-11.73 5.42,-1.06 10.67,2.47 11.73,7.89 4.5,22.97 9.1,45.87 13.61,68.9 l 0.7,3.59 -1.78,3.2 c -11.04,19.79 -16.2,41.68 -16.2,63.73 0,11.04 1.3,22.11 3.8,32.94 1.25,5.38 -2.11,10.76 -7.49,12 -5.38,1.24 -10.75,-2.11 -11.99,-7.49" /><path
         id="path244"
         style="fill:#df5a5d;fill-opacity:1;fill-rule:nonzero;stroke:none"
         d="m 1289.77,1402.38 c 36.78,-17.66 77.39,-26.35 117.99,-26.35 49.58,0.01 99.21,12.96 141.91,38.71 4.73,2.85 6.25,9 3.39,13.73 -2.85,4.72 -8.99,6.25 -13.72,3.39 -39.34,-23.73 -85.48,-35.84 -131.58,-35.83 -37.75,0 -75.44,8.1 -109.33,24.38 -4.98,2.39 -10.95,0.29 -13.34,-4.68 -2.39,-4.98 -0.3,-10.96 4.68,-13.35" /><path
         id="path246"
         style="fill:#d26232;fill-opacity:1;fill-rule:nonzero;stroke:none"
         d="m 1512.2,2246 c -150.9,36.31 -324.2,11.6 -435.6,-96.5 -79.1,-76.8 -119.1,-187.4 -127.698,-297.4 -8.605,-110 7.5,-225 40.602,-327.1 -14.406,82.2 -12.5,134.3 11.096,195.5 23.6,61.2 56.7,119.5 68.9,184 21.9,-31.6 72.9,-35.9 116.4,-23.5 43.5,12.4 81.2,39.19 118,65.4 -15.6,-22.4 -2.8,-48.1 16.8,-60 19.6,-11.9 43.8,-13.1 66.7,-11.8 108.2,6.1 212.7,61.8 284.2,143.1 5.7,-37.3 11.9,-75.9 32.3,-107.6 20.4,-31.7 59.2,-55 94.8,-53.2 6.5,-46.5 26.1,-90 40.3,-134.9 14.2,-44.9 10.6,-86 8.1,-143.6 25.2,73.9 31.5,151.1 29.1,226.3 -2.4,75.2 -19.3,151.2 -58,215.8 -65.1,108.9 -177.4,194.6 -306,225.5" /><path
         id="path248"
         style="fill:#efb675;fill-opacity:1;fill-rule:nonzero;stroke:none"
         d="m 895.078,2060.88 c 0,1.37 0.035,2.73 0.106,4.1 -0.071,-1.37 -0.106,-2.73 -0.106,-4.1 m 0.121,4.42 c 1.399,27.7 14.496,53.6 30.614,76.23 -16.118,-22.63 -29.215,-48.54 -30.614,-76.23" /><path
         id="path250"
         style="fill:#ee8c45;fill-opacity:1;fill-rule:nonzero;stroke:none"
         d="m 931,1883.3 c 1.598,37.1 6.004,73.9 13,110.1 v 0 0 0 c -35.902,13.55 -48.922,40.91 -48.922,67.48 0,1.37 0.035,2.73 0.106,4.1 0.004,0.1 0.007,0.21 0.015,0.32 v 0 c 1.399,27.69 14.496,53.6 30.614,76.23 0.062,0.09 0.125,0.18 0.187,0.27 46.004,64.5 119,109.2 197.7,121 v 0 0 c -3.03,7.87 -4.41,15.83 -4.4,23.57 0.02,18.33 7.84,35.4 20,46.93 17.2,16.4 41,24 64.2,29.5 37.77,8.88 76.45,13.23 115.16,13.23 96.06,0 192.39,-26.79 276.14,-77.83 -64.09,20.31 -131.34,30.91 -198.54,30.91 -15.54,0 -31.07,-0.56 -46.56,-1.71 -27.8,-2 -56.8,-6.4 -78.9,-23.3 -17.85,-13.5 -29.1,-37.54 -25.19,-60.27 -26.85,-7.45 -52.83,-17.3 -77.47,-29.69 -43.61,-11.09 -85.67,-28.31 -124.44,-51.14 -26.7,-15.8 -52.802,-35.4 -65.802,-63.5 -11.046,-24.16 -8.816,-55.65 11.973,-77.83 -7.715,-17.77 -14.34,-36.09 -19.902,-54.76 C 953.813,1940.66 940.73,1912.49 931,1883.3" /><path
         id="path252"
         style="fill:#ee8c45;fill-opacity:1;fill-rule:nonzero;stroke:none"
         d="m 969.969,1966.91 c 5.562,18.67 12.187,36.99 19.902,54.76 3.481,-3.71 7.481,-7.16 12.029,-10.27 -11.689,-14.04 -22.349,-28.92 -31.931,-44.49 m 198.171,247.23 c 24.64,12.39 50.62,22.24 77.47,29.69 0.95,-5.55 2.81,-11.01 5.69,-16.23 -28.04,-2 -55.91,-6.53 -83.16,-13.46" /><path
         id="path254"
         style="fill:#df5a26;fill-opacity:1;fill-rule:nonzero;stroke:none"
         d="m 5709.5,4293.8 861.6,-82.4 16.1,-526.6 -7.1,-372.5 -990.6,7.1 23.3,202.4 96.7,772" /><path
         id="path256"
         style="fill:#f9b193;fill-opacity:1;fill-rule:nonzero;stroke:none"
         d="m 6946.3,2711.5 c -91.7,-0.6 -185.6,-1 -281.1,-1.4 -391.9,-1.6 -809.6,-1.4 -1198.8,0.3 -74.1,0.3 -147.2,0.7 -218.9,1.1 7.6,84.8 17.8,160.6 31.7,228.3 7.3,35.9 15.6,69.4 25.1,100.8 16.9,56 37.5,105.3 62.9,148.6 71.1,122.3 179.1,196.6 343.9,239.7 59.4,15.5 126.2,26.9 201.4,35.1 3.8,23.3 8.4,51.6 13,80.8 7.4,46.9 15,95.6 20.2,128.3 110.2,4.7 212.9,4.7 323,0 4.1,-26.1 21.9,-137.3 29.9,-188.1 1.5,-9.4 2.7,-16.7 3.4,-21 56.4,-6.1 107.9,-14 154.9,-24.2 189,-40.6 304.8,-116.8 377.9,-250.5 24.7,-45.2 44.5,-97 60.5,-156.3 9.09,-33.7 17.1,-69.7 24,-108.3 11.3,-63.8 20,-134.7 27,-213.2" /><path
         id="path258"
         style="fill:#ee836f;fill-opacity:1;fill-rule:nonzero;stroke:none"
         d="m 6298.5,3485 c -189.3,-50.8 -312.4,12.5 -373.1,59.8 7.4,46.9 15,95.6 20.2,128.3 110.2,4.7 212.9,4.7 323,0 4.1,-26.1 21.8,-137.3 29.9,-188.1" /><path
         id="path260"
         style="fill:#ee836f;fill-opacity:1;fill-rule:nonzero;stroke:none"
         d="m 6919.2,2924.7 -327.6,-68.5 -14.2,200.1 257.2,133 c 24.7,-45.2 44.5,-97 60.5,-156.3 9.1,-33.7 17.1,-69.7 24.1,-108.3" /><path
         id="path262"
         style="fill:#ee836f;fill-opacity:1;fill-rule:nonzero;stroke:none"
         d="m 5647.3,3065.7 -49.5,-223.7 -318.6,97.8 c 7.3,35.9 15.6,69.4 25.1,100.8 16.9,56 37.5,105.3 62.9,148.6 l 280.1,-123.5" /><path
         id="path264"
         style="fill:#a92f59;fill-opacity:1;fill-rule:nonzero;stroke:none"
         d="m 6678.5,2919.9 c 0,0 40.2,-115.6 48.2,-209.8 -391.9,-1.6 -871.2,-1.4 -1260.4,0.3 4.5,52.3 27.1,136.2 64.9,222.3 l -263.9,126.1 c 0,0 124.9,332.5 465.1,388.2 0,0 127.5,-376.6 379.5,-422.4 0,0 289.2,97.1 323,428.5 0,0 374.3,-34 513.5,-398.4 l -269.9,-134.8" /><path
         id="path266"
         style="fill:#7a1e42;fill-opacity:1;fill-rule:nonzero;stroke:none"
         d="m 6678.9,2942 c -11.9,76.8 -32,152.3 -59.8,224.8 47.7,-62.6 70.1,-143.8 59.8,-224.8" /><path
         id="path268"
         style="fill:#7a1e42;fill-opacity:1;fill-rule:nonzero;stroke:none"
         d="m 5544.7,2950.2 c 25.3,73.9 53.8,146.8 85.2,218.4 -53.1,-59.3 -83.4,-138.6 -85.2,-218.4" /><path
         id="path270"
         style="fill:#f9b193;fill-opacity:1;fill-rule:nonzero;stroke:none"
         d="m 6506.74,4098.14 c 75.75,24.4 152.85,-4.51 172.2,-64.6 19.37,-60.08 -26.34,-128.57 -102.09,-152.98 -75.75,-24.41 -152.85,4.51 -172.21,64.59 -19.36,60.08 26.35,128.58 102.1,152.99" /><path
         id="path272"
         style="fill:#f48e78;fill-opacity:1;fill-rule:nonzero;stroke:none"
         d="m 6548.31,3907.29 c -37.98,0 -70.26,19.94 -77.28,50.69 -8.52,37.37 23.51,76.55 71.54,87.51 8.51,1.94 16.95,2.87 25.13,2.87 37.98,0 70.26,-19.95 77.27,-50.7 8.53,-37.37 -23.5,-76.55 -71.53,-87.5 -8.51,-1.94 -16.96,-2.87 -25.13,-2.87" /><path
         id="path274"
         style="fill:#c4585d;fill-opacity:1;fill-rule:nonzero;stroke:none"
         d="m 6622.9,4031 c -21.6,17.3 -49.1,26.4 -76.4,25 -27.2,-1.3 -53.9,-13 -73.8,-32.3 1.1,-7.2 2.1,-14.4 3.2,-21.6 18.7,21.4 44.6,35.7 72.1,40 27.4,4.4 56.3,-1.5 74.9,-11.1" /><path
         id="path276"
         style="fill:#f9b193;fill-opacity:1;fill-rule:nonzero;stroke:none"
         d="m 6541.8,4152.7 c 0,-296.5 -202.5,-594.1 -452.3,-594.1 -36.1,0 -71.3,6.2 -105,17.8 -199.2,68.2 -347.4,322.7 -347.4,576.3 v 1.9 c 0.8,295.4 203.1,477.7 452.4,477.7 249.7,0 452.3,-183.1 452.3,-479.6" /><path
         id="path278"
         style="fill:#ee7e2b;fill-opacity:1;fill-rule:nonzero;stroke:none"
         d="m 6745.3,3192.8 c -305.8,-39 -233.5,377 -207.3,680.1 12.9,1 25.9,3.7 39,7.9 34.8,11.3 63.4,31.8 82,56.6 -9.1,-188.2 -40.3,-369.6 -36.29,-480.1 8.09,-228.9 122.59,-264.5 122.59,-264.5" /><path
         id="path280"
         style="fill:#ee7e2b;fill-opacity:1;fill-rule:nonzero;stroke:none"
         d="m 5997.6,4182.6 c -27,37.6 -69.2,58.4 -111.6,54.8 -42.3,-3.5 -83.7,-31.3 -109.3,-73.3 60.2,28.7 125.8,38.7 220.9,18.5" /><path
         id="path282"
         style="fill:#ee7e2b;fill-opacity:1;fill-rule:nonzero;stroke:none"
         d="m 6179.5,4183.6 c 27.3,37.3 69.8,57.7 112.1,53.7 42.3,-4 83.4,-32.2 108.5,-74.4 -59.8,29.4 -125.3,40 -220.6,20.7" /><path
         id="path284"
         style="fill:#1d253b;fill-opacity:1;fill-rule:nonzero;stroke:none"
         d="m 5915.6,4068.8 c 15.57,0 28.2,-12.62 28.2,-28.2 0,-15.58 -12.63,-28.2 -28.2,-28.2 -15.57,0 -28.2,12.62 -28.2,28.2 0,15.58 12.63,28.2 28.2,28.2" /><path
         id="path286"
         style="fill:#1d253b;fill-opacity:1;fill-rule:nonzero;stroke:none"
         d="m 6278.2,4068.8 c 15.57,0 28.2,-12.62 28.2,-28.2 0,-15.58 -12.63,-28.2 -28.2,-28.2 -15.57,0 -28.2,12.62 -28.2,28.2 0,15.58 12.63,28.2 28.2,28.2" /><path
         id="path288"
         style="fill:#c4585d;fill-opacity:1;fill-rule:nonzero;stroke:none"
         d="m 6044.89,4065.63 c 4.59,-14.24 7.01,-29.14 7.01,-44.02 0,-18.23 -3.62,-36.42 -11.32,-53.5 l -1.5,-3.33 1,-3.51 c 6.41,-22.63 12.91,-45.13 19.3,-67.7 1.51,-5.31 7.04,-8.4 12.35,-6.89 5.31,1.5 8.4,7.03 6.9,12.35 -6.42,22.63 -12.91,45.13 -19.31,67.7 l -9.62,-2.73 9.11,-4.11 c 8.93,19.8 13.09,40.84 13.09,61.72 0,17.05 -2.77,34 -7.98,50.16 -1.69,5.26 -7.33,8.14 -12.58,6.45 -5.26,-1.7 -8.15,-7.33 -6.45,-12.59" /><path
         id="path290"
         style="fill:#f48e78;fill-opacity:1;fill-rule:nonzero;stroke:none"
         d="m 6049.6,3733.6 c 26.1,-5.4 53.2,-6.3 79.7,-2.7 -7.5,-14.8 -23.5,-24.8 -40.1,-25.1 -16.5,-0.3 -32.9,9.2 -39.6,27.8" /><path
         id="path292"
         style="fill:#c4585d;fill-opacity:1;fill-rule:nonzero;stroke:none"
         d="m 5985.95,3813.04 c 0.83,-0.38 37.95,-19.91 88.97,-19.97 36.11,-0.05 79.43,10.13 119.91,44.17 4.23,3.56 4.78,9.86 1.23,14.09 -3.55,4.23 -9.86,4.78 -14.09,1.23 -36.62,-30.68 -74.52,-39.43 -107.05,-39.49 -22.91,0 -43.03,4.47 -57.33,8.96 -7.15,2.24 -12.84,4.47 -16.69,6.12 -1.93,0.82 -3.39,1.5 -4.35,1.96 l -1.06,0.52 -0.22,0.11 -0.03,0.02 c -4.89,2.56 -10.94,0.67 -13.5,-4.22 -2.57,-4.89 -0.68,-10.93 4.21,-13.5" /><path
         id="path294"
         style="fill:#ee7e2b;fill-opacity:1;fill-rule:nonzero;stroke:none"
         d="m 6661.1,4065.8 c -26.8,31.4 -74.4,46.8 -124.8,39.4 -100.9,245.5 -476.4,420.4 -476.4,420.4 -82.3,-15.5 -276.7,-140.2 -317.2,-355.8 -48,-255 -50.1,-614.5 -85.2,-736.5 -35.1,-121.9 -190.1,-122.5 -190.1,-122.5 27.4,50.1 58.6,110.9 83.3,214 26.3,109 45.4,265.3 45.4,506.3 0,468.8 166.3,574.4 271.8,618.9 105.6,44.5 193.3,16.9 193.3,16.9 67.3,41.6 184.3,100.7 363.1,-55.4 36.5,-32 75.6,-72.9 117.4,-124.8 87.7,-108.9 116.1,-262.2 119.4,-420.9" /><path
         id="path296"
         style="fill:#f79339;fill-opacity:1;fill-rule:nonzero;stroke:none"
         d="m 6424.4,4611.5 c -26,14.5 -53.1,26.8 -81.7,36.2 -88.7,29 -193,23.8 -265.6,-42.2 -99.4,35.6 -214.7,-3.6 -290.5,-77.1 -75.8,-73.5 -117.4,-175.7 -141.5,-278.5 25.5,84.7 74.5,162.1 154.2,225.3 -89.3,-90.5 -131,-217.9 -149.7,-343.6 -18.7,-125.7 -17.3,-253.7 -34.9,-379.5 -10.9,-77.9 -30.2,-156.6 -64,-227.3 26.3,109 45.4,265.3 45.4,506.3 0,468.8 166.3,574.4 271.8,618.9 105.6,44.5 193.3,16.9 193.3,16.9 67.3,41.6 184.4,100.7 363.2,-55.4" /><path
         id="path298"
         style="fill:#1d253b;fill-opacity:1;fill-rule:nonzero;stroke:none"
         d="m 3248.7,1558.4 c 0,0 -3,-195.9 -54.8,-368.2 -51.8,-172.3 -92.6,-328.598 2,-415.2 94.6,-86.602 401.5,64.602 401.5,64.602 l 156.7,383.798 -278.1,413.2 -227.3,-78.2" /><path
         id="path300"
         style="fill:#1d253b;fill-opacity:1;fill-rule:nonzero;stroke:none"
         d="m 4379.7,1076.9 c 0,0 83,-116.201 48.8,-262.099 L 3908.7,965.602 3638.1,2016.8 3585,2223.2 3573.7,2267 c 0,0 5.3,4.1 15.3,10.9 67,45.4 342.9,207.4 588.1,-12.3 221.7,-198.6 223.7,-483.8 191.5,-622.9 -20,-86.8 -54.3,-186.1 -66.5,-270.5 -7.4,-50.8 -6.8,-96.1 9.7,-130.2 43.79,-90.9 139.4,-153.5 185.3,-146.9 -0.1,0 -67,-44.8 -117.4,-18.2" /><path
         id="path302"
         style="fill:#121828;fill-opacity:1;fill-rule:nonzero;stroke:none"
         d="m 3374,1538.8 c 0,0 9.1,-205.3 -62.7,-352.5 -71.8,-147.2 -134.4,-303.198 -62.6,-416.8 71.8,-113.602 961.5,11.398 961.5,11.398 l 41.1,321.202 -27.4,350.59 -849.9,86.11" /><path
         id="path304"
         style="fill:#f4766a;fill-opacity:1;fill-rule:nonzero;stroke:none"
         d="m 4647.5,290.699 c -560.4,-3.39 -1140.1,-3.301 -1698.8,0 29,447.602 150,636.199 665,752.401 2.8,17.1 6,37.3 9.4,58.5 8.4,52.81 17.7,112.6 23.7,150.6 110.2,4.7 212.9,4.7 323,0 3.7,-23 14.5,-90.9 23.6,-147.9 3.8,-23.7 7.2,-45.3 9.8,-61.2 521.4,-122.799 616.6,-316.498 644.3,-752.401" /><path
         id="path306"
         style="fill:#faca53;fill-opacity:1;fill-rule:nonzero;stroke:none"
         d="m 4647.5,290.699 c -118.7,-0.801 -238.3,-1.301 -358.4,-1.699 -327.6,-1.102 -658.9,-1 -985.9,0.102 -118.9,0.398 -237.2,0.796 -354.5,1.597 21.3,329 65.7,514.102 292.1,635.301 81.6,43.699 186.8,79.1 323,109.9 l 0.7,0.2 c 1.8,10.6 0.9,42 0.8,69.5 0,19 18.9,32.3 36.6,25.6 128.2,-48.5 282.4,-43.5 415.4,8.4 14.1,5.4 29.3,-4.4 29.8,-19.5 0.8,-26.4 0.8,-62.5 2,-77.6 0.2,-1.7 0.3,-3.1 0.5,-4.2 128.8,-30.3 228.7,-64.698 306.6,-105.8 237.6,-125.301 270.5,-313.5 291.3,-641.801" /><path
         id="path308"
         style="fill:#f6b14d;fill-opacity:1;fill-rule:nonzero;stroke:none"
         d="m 3303.2,289.102 v 0 c -118.9,0.398 -237.2,0.796 -354.5,1.597 21.3,329 65.7,514.102 292.1,635.301 39.4,-57.199 62.4,-126.602 62.4,-201.301 V 289.102" /><path
         id="path310"
         style="fill:#edc38a;fill-opacity:1;fill-rule:nonzero;stroke:none"
         d="m 4485.63,839.559 c -14.8,14.812 -31.04,28.91 -48.9,42.371 0,0.011 0,0 0,0.011 17.85,-13.449 34.11,-27.57 48.9,-42.382" /><path
         id="path312"
         style="fill:#8b6544;fill-opacity:1;fill-rule:nonzero;stroke:none"
         d="m 4436.73,881.93 c -23.85,17.961 -50.55,34.761 -80.53,50.57 -0.04,0.02 -0.08,0.039 -0.12,0.059 0.01,0.011 0.02,0.031 0.02,0.043 30.02,-15.84 56.75,-32.661 80.63,-50.661 0,-0.011 0,0 0,-0.011" /><path
         id="path314"
         style="fill:#f6b14d;fill-opacity:1;fill-rule:nonzero;stroke:none"
         d="m 4289.1,289 v 435.699 c 0,77.59 24.89,149.371 66.98,207.86 0.04,-0.02 0.08,-0.039 0.12,-0.059 29.98,-15.809 56.68,-32.609 80.53,-50.57 17.86,-13.461 34.1,-27.559 48.9,-42.371 122.11,-122.258 145.66,-293.008 161.87,-548.86 -118.7,-0.801 -238.3,-1.301 -358.4,-1.699" /><path
         id="path316"
         style="fill:#f49e4b;fill-opacity:1;fill-rule:nonzero;stroke:none"
         d="m 4049,1042.6 -1.8,-3.1 c -279.8,-149.301 -483,-3.8 -483,-3.8 l -0.5,0.3 0.7,0.2 c 1.8,10.6 0.9,42 0.8,69.5 0,19 18.9,32.3 36.6,25.6 128.2,-48.5 282.4,-43.5 415.4,8.4 14.1,5.4 29.3,-4.4 29.8,-19.5 0.9,-26.4 0.8,-62.51 2,-77.6" /><path
         id="path318"
         style="fill:#d77144;fill-opacity:1;fill-rule:nonzero;stroke:none"
         d="m 3805.4,989.199 c -2.76,0 -5,2.242 -5,5 0,29.511 0.1,58.911 0.2,88.321 v 0 c 0.01,2.75 2.24,4.98 5,4.98 h 0.01 c 2.76,-0.01 4.99,-2.25 4.99,-5.02 -0.1,-29.4 -0.2,-58.79 -0.2,-88.281 0,-2.758 -2.24,-5 -5,-5" /><path
         id="path320"
         style="fill:#d77144;fill-opacity:1;fill-rule:nonzero;stroke:none"
         d="m 3912.6,1002.7 c -2.76,0 -5,2.23 -5,5 0,27.11 0,54.2 0,81.3 0,2.77 2.24,5 5,5 2.76,0 5,-2.23 5,-5 0,-27.1 0,-54.19 0,-81.3 0,-2.77 -2.24,-5 -5,-5" /><path
         id="path322"
         style="fill:#d77144;fill-opacity:1;fill-rule:nonzero;stroke:none"
         d="m 4014.29,1029.1 c -2.7,0 -4.92,2.15 -4.99,4.87 -0.69,25.78 -1.49,51.68 -2.2,77.5 -0.07,2.76 2.1,5.05 4.86,5.13 0.05,0 0.1,0 0.14,0 2.7,0 4.92,-2.15 5,-4.86 0.7,-25.79 1.5,-51.69 2.2,-77.5 0.07,-2.76 -2.11,-5.06 -4.87,-5.14 -0.04,0 -0.09,0 -0.14,0" /><path
         id="path324"
         style="fill:#d77144;fill-opacity:1;fill-rule:nonzero;stroke:none"
         d="m 3597.6,1024.7 c -0.02,0 -0.03,0 -0.04,0 -2.76,0.02 -4.98,2.28 -4.96,5.04 0.2,25.71 0.5,51.31 0.7,77 0.02,2.75 2.25,4.96 5,4.96 0.01,0 0.02,0 0.04,0 2.76,-0.02 4.98,-2.28 4.96,-5.04 -0.2,-25.72 -0.5,-51.31 -0.7,-77 -0.02,-2.75 -2.26,-4.96 -5,-4.96" /><path
         id="path326"
         style="fill:#d77144;fill-opacity:1;fill-rule:nonzero;stroke:none"
         d="m 3686.9,1005.4 c -0.05,0 -0.1,0 -0.16,0 -2.76,0.09 -4.92,2.4 -4.84,5.16 0.8,25.99 1.6,52 2.4,77.99 0.09,2.71 2.31,4.85 5,4.85 0.05,0 0.1,0 0.16,0 2.76,-0.09 4.92,-2.4 4.84,-5.16 -0.8,-25.99 -1.6,-52 -2.4,-77.99 -0.09,-2.71 -2.31,-4.85 -5,-4.85" /><path
         id="path328"
         style="fill:#f79179;fill-opacity:1;fill-rule:nonzero;stroke:none"
         d="m 3187.97,1613.14 c 19.36,60.08 96.46,89.01 172.21,64.59 75.75,-24.4 121.46,-92.9 102.1,-152.97 -19.36,-60.09 -96.46,-89.01 -172.21,-64.6 -75.75,24.41 -121.46,92.9 -102.1,152.98" /><path
         id="path330"
         style="fill:#f3766b;fill-opacity:1;fill-rule:nonzero;stroke:none"
         d="m 3319.17,1486.93 c -8.18,0 -16.62,0.92 -25.13,2.87 -48.03,10.95 -80.06,50.12 -71.54,87.49 7.01,30.75 39.3,50.7 77.28,50.7 8.18,0 16.61,-0.92 25.13,-2.86 48.03,-10.96 80.06,-50.14 71.53,-87.51 -7.01,-30.74 -39.3,-50.69 -77.27,-50.69" /><path
         id="path332"
         style="fill:#b33a54;fill-opacity:1;fill-rule:nonzero;stroke:none"
         d="m 3244.2,1610.1 c 21.6,17.3 49.1,26.4 76.4,25 27.2,-1.3 53.9,-13 73.8,-32.3 -1.1,-7.2 -2.1,-14.4 -3.2,-21.6 -18.7,21.4 -44.6,35.7 -72.1,40 -27.5,4.3 -56.3,-1.4 -74.9,-11.1" /><path
         id="path334"
         style="fill:#f79179;fill-opacity:1;fill-rule:nonzero;stroke:none"
         d="m 4242.9,1731.9 c 0,-296.5 -202.5,-594.1 -452.3,-594.1 -36.1,0 -71.3,6.2 -105,17.8 -199.2,68.2 -347.4,322.7 -347.4,576.3 v 1.9 c 0.8,295.4 203.1,477.7 452.4,477.7 249.8,0 452.3,-183.1 452.3,-479.6" /><path
         id="path336"
         style="fill:#1d253b;fill-opacity:1;fill-rule:nonzero;stroke:none"
         d="m 3698.8,1761.7 c -27,37.6 -69.2,58.4 -111.6,54.8 -42.3,-3.5 -83.7,-31.3 -109.3,-73.3 60.2,28.8 125.8,38.8 220.9,18.5" /><path
         id="path338"
         style="fill:#1d253b;fill-opacity:1;fill-rule:nonzero;stroke:none"
         d="m 3880.7,1762.8 c 27.3,37.3 69.8,57.7 112.1,53.7 42.3,-4 83.4,-32.2 108.6,-74.4 -59.9,29.3 -125.4,40 -220.7,20.7" /><path
         id="path340"
         style="fill:#1d253b;fill-opacity:1;fill-rule:nonzero;stroke:none"
         d="m 3616.7,1647.9 c 15.58,0 28.2,-12.63 28.2,-28.2 0,-15.58 -12.62,-28.2 -28.2,-28.2 -15.57,0 -28.2,12.62 -28.2,28.2 0,15.57 12.63,28.2 28.2,28.2" /><path
         id="path342"
         style="fill:#1d253b;fill-opacity:1;fill-rule:nonzero;stroke:none"
         d="m 3979.4,1647.9 c 15.57,0 28.2,-12.63 28.2,-28.2 0,-15.58 -12.63,-28.2 -28.2,-28.2 -15.57,0 -28.2,12.62 -28.2,28.2 0,15.57 12.63,28.2 28.2,28.2" /><path
         id="path344"
         style="fill:#df595e;fill-opacity:1;fill-rule:nonzero;stroke:none"
         d="m 3816.08,1650.97 c -5.21,-16.16 -7.98,-33.11 -7.98,-50.16 0,-20.88 4.16,-41.92 13.09,-61.72 l 9.11,4.11 -9.62,2.73 c -6.4,-22.58 -12.89,-45.08 -19.3,-67.7 -1.51,-5.32 1.57,-10.85 6.89,-12.35 5.31,-1.51 10.84,1.58 12.35,6.89 6.39,22.57 12.89,45.07 19.3,67.71 l 1,3.51 -1.5,3.32 c -7.7,17.08 -11.32,35.27 -11.32,53.5 0,14.88 2.42,29.78 7.01,44.02 1.7,5.26 -1.19,10.89 -6.45,12.59 -5.25,1.69 -10.89,-1.19 -12.58,-6.45" /><path
         id="path346"
         style="fill:#f06e67;fill-opacity:1;fill-rule:nonzero;stroke:none"
         d="m 3830.4,1312.7 c -26.1,-5.4 -53.2,-6.3 -79.7,-2.7 7.5,-14.8 23.5,-24.8 40.1,-25.1 16.6,-0.3 33,9.2 39.6,27.8" /><path
         id="path348"
         style="fill:#df595e;fill-opacity:1;fill-rule:nonzero;stroke:none"
         d="m 3884.86,1409.85 -0.03,-0.01 c -1.32,-0.72 -35.28,-17.73 -79.65,-17.67 -32.53,0.05 -70.44,8.81 -107.05,39.49 -4.23,3.55 -10.54,3 -14.09,-1.23 -3.55,-4.23 -3,-10.53 1.23,-14.08 40.47,-34.05 83.79,-44.24 119.91,-44.18 51.02,0.06 88.14,19.58 88.97,19.97 4.89,2.56 6.77,8.61 4.21,13.5 -2.57,4.89 -8.61,6.78 -13.5,4.21" /><path
         id="path350"
         style="fill:#1d253b;fill-opacity:1;fill-rule:nonzero;stroke:none"
         d="m 3673.1,2068 c -6.4,-17.3 -18.7,-34.3 -34.9,-51.2 -66.2,-69.3 -196.2,-139 -239,-236.9 -44,-100.5 -44.3,-199.3 -44.3,-199.3 -18.9,52.8 -39.7,105.6 -39.7,105.6 l -64.7,-11.5 c -3.9,112.9 -10.4,351.8 90.9,494.7 l 2.1,2.8 c 73.4,101.2 174.9,113 245.5,105.7 48.9,-5 83.2,-19.1 83.2,-19.1 0,0 3.5,-10.9 7.1,-28.5 7.6,-36.8 15.6,-102.9 -6.2,-162.3" /><path
         id="path352"
         style="fill:#1d253b;fill-opacity:1;fill-rule:nonzero;stroke:none"
         d="m 4292.2,1021 c -17.5,97.1 -7.9,250 5.4,392.1 -5.2,25 -6.3,50.9 -2.6,75.9 -4.6,68.5 3.2,141 19.1,203.8 -18.9,124.7 -90.3,341.3 -198.1,486.2 -55.6,19.9 -113.8,31.8 -173.1,40.5 -46.7,6.8 -93.4,12.4 -140.7,11.4 -37.6,-0.8 -75.2,-8 -112.7,-6.3 -18,-18.7 -36.2,-40.2 -54.6,-64.8 0,0 29.2,-83.3 146.9,-83.3 117.7,0 259.2,-15.7 356.8,-146.3 131.4,-175.9 -99.7,-811.6 -0.9,-972.399 98.8,-160.801 265.4,-116.199 265.4,-116.199 0,0 -84.1,30.199 -110.9,179.398" /><path
         id="path354"
         style="fill:#354564;fill-opacity:1;fill-rule:nonzero;stroke:none"
         d="m 4368.7,1642.7 c -20,-86.8 -54.3,-186.1 -66.5,-270.5 -27.4,114 37.7,273.3 43.1,378 6.3,120.8 -26.3,350.7 -223.6,475.1 -286.5,180.7 -492.3,-22.2 -492.3,-22.2 -77.7,58 -215.6,32 -285.8,-30.8 73.4,101.2 174.9,113 245.5,105.7 67,45.4 342.9,207.4 588.1,-12.3 221.7,-198.7 223.6,-483.9 191.5,-623" /></g></g></svg>